<?xml version="1.0" encoding="utf-8" standalone="no"?>
<!DOCTYPE svg PUBLIC "-//W3C//DTD SVG 1.1//EN"
  "http://www.w3.org/Graphics/SVG/1.1/DTD/svg11.dtd">
<!-- Created with matplotlib (http://matplotlib.org/) -->
<svg height="280pt" version="1.1" viewBox="0 0 388 280" width="388pt" xmlns="http://www.w3.org/2000/svg" xmlns:xlink="http://www.w3.org/1999/xlink">
 <defs>
  <style type="text/css">
*{stroke-linecap:butt;stroke-linejoin:round;stroke-miterlimit:100000;}
  </style>
 </defs>
 <g id="figure_1">
  <g id="patch_1">
   <path d="M 0 280.074375 
L 388.554688 280.074375 
L 388.554688 0 
L 0 0 
z
" style="fill:#ffffff;"/>
  </g>
  <g id="axes_1">
   <g id="patch_2">
    <path d="M 38.603125 244.518125 
L 373.403125 244.518125 
L 373.403125 21.318125 
L 38.603125 21.318125 
z
" style="fill:#ffffff;"/>
   </g>
   <g id="line2d_1">
    <path clip-path="url(#p495fdb5998)" d="M 51.995125 237.413268 
L 65.387125 237.47573 
L 78.779125 237.420109 
L 92.171125 237.425714 
L 105.563125 237.428207 
L 118.955125 237.39323 
L 132.347125 237.810961 
L 145.739125 237.425216 
L 159.131125 237.422297 
L 172.523125 237.418194 
L 185.915125 237.427664 
L 199.307125 237.473588 
L 212.699125 237.429525 
L 226.091125 237.423261 
L 239.483125 237.435168 
L 252.875125 237.426067 
L 266.267125 237.837092 
L 279.659125 237.427576 
L 293.051125 237.417819 
L 306.443125 237.426475 
L 319.835125 237.426085 
L 333.227125 237.479049 
L 346.619125 237.425563 
L 360.011125 237.808951 
L 373.403125 237.435958 
" style="fill:none;stroke:#0000ff;stroke-linecap:square;"/>
    <defs>
     <path d="M 0 1.5 
C 0.397805 1.5 0.77937 1.341951 1.06066 1.06066 
C 1.341951 0.77937 1.5 0.397805 1.5 0 
C 1.5 -0.397805 1.341951 -0.77937 1.06066 -1.06066 
C 0.77937 -1.341951 0.397805 -1.5 0 -1.5 
C -0.397805 -1.5 -0.77937 -1.341951 -1.06066 -1.06066 
C -1.341951 -0.77937 -1.5 -0.397805 -1.5 0 
C -1.5 0.397805 -1.341951 0.77937 -1.06066 1.06066 
C -0.77937 1.341951 -0.397805 1.5 0 1.5 
z
" id="m63978c37e7" style="stroke:#0000ff;stroke-width:0.5;"/>
    </defs>
    <g clip-path="url(#p495fdb5998)">
     <use style="fill:#0000ff;stroke:#0000ff;stroke-width:0.5;" x="51.995125" xlink:href="#m63978c37e7" y="237.41326848"/>
     <use style="fill:#0000ff;stroke:#0000ff;stroke-width:0.5;" x="65.387125" xlink:href="#m63978c37e7" y="237.47573038"/>
     <use style="fill:#0000ff;stroke:#0000ff;stroke-width:0.5;" x="78.779125" xlink:href="#m63978c37e7" y="237.420108733"/>
     <use style="fill:#0000ff;stroke:#0000ff;stroke-width:0.5;" x="92.171125" xlink:href="#m63978c37e7" y="237.42571405"/>
     <use style="fill:#0000ff;stroke:#0000ff;stroke-width:0.5;" x="105.563125" xlink:href="#m63978c37e7" y="237.428206512"/>
     <use style="fill:#0000ff;stroke:#0000ff;stroke-width:0.5;" x="118.955125" xlink:href="#m63978c37e7" y="237.393229873"/>
     <use style="fill:#0000ff;stroke:#0000ff;stroke-width:0.5;" x="132.347125" xlink:href="#m63978c37e7" y="237.810961103"/>
     <use style="fill:#0000ff;stroke:#0000ff;stroke-width:0.5;" x="145.739125" xlink:href="#m63978c37e7" y="237.425215725"/>
     <use style="fill:#0000ff;stroke:#0000ff;stroke-width:0.5;" x="159.131125" xlink:href="#m63978c37e7" y="237.42229692"/>
     <use style="fill:#0000ff;stroke:#0000ff;stroke-width:0.5;" x="172.523125" xlink:href="#m63978c37e7" y="237.418194132"/>
     <use style="fill:#0000ff;stroke:#0000ff;stroke-width:0.5;" x="185.915125" xlink:href="#m63978c37e7" y="237.427663865"/>
     <use style="fill:#0000ff;stroke:#0000ff;stroke-width:0.5;" x="199.307125" xlink:href="#m63978c37e7" y="237.473588177"/>
     <use style="fill:#0000ff;stroke:#0000ff;stroke-width:0.5;" x="212.699125" xlink:href="#m63978c37e7" y="237.429525071"/>
     <use style="fill:#0000ff;stroke:#0000ff;stroke-width:0.5;" x="226.091125" xlink:href="#m63978c37e7" y="237.42326102"/>
     <use style="fill:#0000ff;stroke:#0000ff;stroke-width:0.5;" x="239.483125" xlink:href="#m63978c37e7" y="237.435168451"/>
     <use style="fill:#0000ff;stroke:#0000ff;stroke-width:0.5;" x="252.875125" xlink:href="#m63978c37e7" y="237.426067373"/>
     <use style="fill:#0000ff;stroke:#0000ff;stroke-width:0.5;" x="266.267125" xlink:href="#m63978c37e7" y="237.837092019"/>
     <use style="fill:#0000ff;stroke:#0000ff;stroke-width:0.5;" x="279.659125" xlink:href="#m63978c37e7" y="237.427576358"/>
     <use style="fill:#0000ff;stroke:#0000ff;stroke-width:0.5;" x="293.051125" xlink:href="#m63978c37e7" y="237.417819476"/>
     <use style="fill:#0000ff;stroke:#0000ff;stroke-width:0.5;" x="306.443125" xlink:href="#m63978c37e7" y="237.426475224"/>
     <use style="fill:#0000ff;stroke:#0000ff;stroke-width:0.5;" x="319.835125" xlink:href="#m63978c37e7" y="237.426085238"/>
     <use style="fill:#0000ff;stroke:#0000ff;stroke-width:0.5;" x="333.227125" xlink:href="#m63978c37e7" y="237.479048958"/>
     <use style="fill:#0000ff;stroke:#0000ff;stroke-width:0.5;" x="346.619125" xlink:href="#m63978c37e7" y="237.42556335"/>
     <use style="fill:#0000ff;stroke:#0000ff;stroke-width:0.5;" x="360.011125" xlink:href="#m63978c37e7" y="237.808951395"/>
     <use style="fill:#0000ff;stroke:#0000ff;stroke-width:0.5;" x="373.403125" xlink:href="#m63978c37e7" y="237.435957554"/>
    </g>
   </g>
   <g id="line2d_2">
    <path clip-path="url(#p495fdb5998)" d="M 51.995125 237.621012 
L 65.387125 237.643576 
L 78.779125 237.643086 
L 92.171125 237.648904 
L 105.563125 237.619536 
L 118.955125 237.645214 
L 132.347125 237.784942 
L 145.739125 237.62551 
L 159.131125 237.640826 
L 172.523125 237.628599 
L 185.915125 237.645282 
L 199.307125 237.640025 
L 212.699125 237.6253 
L 226.091125 237.642962 
L 239.483125 237.619402 
L 252.875125 237.629772 
L 266.267125 237.923911 
L 279.659125 237.623919 
L 293.051125 237.616191 
L 306.443125 237.632683 
L 319.835125 237.646338 
L 333.227125 237.645829 
L 346.619125 237.619491 
L 360.011125 237.79066 
L 373.403125 237.6404 
" style="fill:none;stroke:#008000;stroke-linecap:square;"/>
    <defs>
     <path d="M 0 1.5 
C 0.397805 1.5 0.77937 1.341951 1.06066 1.06066 
C 1.341951 0.77937 1.5 0.397805 1.5 0 
C 1.5 -0.397805 1.341951 -0.77937 1.06066 -1.06066 
C 0.77937 -1.341951 0.397805 -1.5 0 -1.5 
C -0.397805 -1.5 -0.77937 -1.341951 -1.06066 -1.06066 
C -1.341951 -0.77937 -1.5 -0.397805 -1.5 0 
C -1.5 0.397805 -1.341951 0.77937 -1.06066 1.06066 
C -0.77937 1.341951 -0.397805 1.5 0 1.5 
z
" id="m29c1a511f4" style="stroke:#008000;stroke-width:0.5;"/>
    </defs>
    <g clip-path="url(#p495fdb5998)">
     <use style="fill:#008000;stroke:#008000;stroke-width:0.5;" x="51.995125" xlink:href="#m29c1a511f4" y="237.62101188"/>
     <use style="fill:#008000;stroke:#008000;stroke-width:0.5;" x="65.387125" xlink:href="#m29c1a511f4" y="237.64357554"/>
     <use style="fill:#008000;stroke:#008000;stroke-width:0.5;" x="78.779125" xlink:href="#m29c1a511f4" y="237.64308636"/>
     <use style="fill:#008000;stroke:#008000;stroke-width:0.5;" x="92.171125" xlink:href="#m29c1a511f4" y="237.64890444"/>
     <use style="fill:#008000;stroke:#008000;stroke-width:0.5;" x="105.563125" xlink:href="#m29c1a511f4" y="237.61953628"/>
     <use style="fill:#008000;stroke:#008000;stroke-width:0.5;" x="118.955125" xlink:href="#m29c1a511f4" y="237.645214407"/>
     <use style="fill:#008000;stroke:#008000;stroke-width:0.5;" x="132.347125" xlink:href="#m29c1a511f4" y="237.78494236"/>
     <use style="fill:#008000;stroke:#008000;stroke-width:0.5;" x="145.739125" xlink:href="#m29c1a511f4" y="237.625510445"/>
     <use style="fill:#008000;stroke:#008000;stroke-width:0.5;" x="159.131125" xlink:href="#m29c1a511f4" y="237.640825702"/>
     <use style="fill:#008000;stroke:#008000;stroke-width:0.5;" x="172.523125" xlink:href="#m29c1a511f4" y="237.62859882"/>
     <use style="fill:#008000;stroke:#008000;stroke-width:0.5;" x="185.915125" xlink:href="#m29c1a511f4" y="237.6452824"/>
     <use style="fill:#008000;stroke:#008000;stroke-width:0.5;" x="199.307125" xlink:href="#m29c1a511f4" y="237.640024593"/>
     <use style="fill:#008000;stroke:#008000;stroke-width:0.5;" x="212.699125" xlink:href="#m29c1a511f4" y="237.625299991"/>
     <use style="fill:#008000;stroke:#008000;stroke-width:0.5;" x="226.091125" xlink:href="#m29c1a511f4" y="237.64296174"/>
     <use style="fill:#008000;stroke:#008000;stroke-width:0.5;" x="239.483125" xlink:href="#m29c1a511f4" y="237.619402029"/>
     <use style="fill:#008000;stroke:#008000;stroke-width:0.5;" x="252.875125" xlink:href="#m29c1a511f4" y="237.62977155"/>
     <use style="fill:#008000;stroke:#008000;stroke-width:0.5;" x="266.267125" xlink:href="#m29c1a511f4" y="237.923911275"/>
     <use style="fill:#008000;stroke:#008000;stroke-width:0.5;" x="279.659125" xlink:href="#m29c1a511f4" y="237.623918509"/>
     <use style="fill:#008000;stroke:#008000;stroke-width:0.5;" x="293.051125" xlink:href="#m29c1a511f4" y="237.616191086"/>
     <use style="fill:#008000;stroke:#008000;stroke-width:0.5;" x="306.443125" xlink:href="#m29c1a511f4" y="237.63268307"/>
     <use style="fill:#008000;stroke:#008000;stroke-width:0.5;" x="319.835125" xlink:href="#m29c1a511f4" y="237.646337935"/>
     <use style="fill:#008000;stroke:#008000;stroke-width:0.5;" x="333.227125" xlink:href="#m29c1a511f4" y="237.645829296"/>
     <use style="fill:#008000;stroke:#008000;stroke-width:0.5;" x="346.619125" xlink:href="#m29c1a511f4" y="237.61949067"/>
     <use style="fill:#008000;stroke:#008000;stroke-width:0.5;" x="360.011125" xlink:href="#m29c1a511f4" y="237.790660413"/>
     <use style="fill:#008000;stroke:#008000;stroke-width:0.5;" x="373.403125" xlink:href="#m29c1a511f4" y="237.640400272"/>
    </g>
   </g>
   <g id="line2d_3">
    <path clip-path="url(#p495fdb5998)" d="M 51.995125 236.98895 
L 65.387125 237.055843 
L 78.779125 236.987378 
L 92.171125 236.986569 
L 105.563125 236.988375 
L 118.955125 236.99008 
L 132.347125 236.72156 
L 145.739125 236.98949 
L 159.131125 236.992941 
L 172.523125 236.989792 
L 185.915125 236.993637 
L 199.307125 237.056254 
L 212.699125 236.993091 
L 226.091125 236.986951 
L 239.483125 236.990166 
L 252.875125 236.989558 
L 266.267125 230.810672 
L 279.659125 236.989329 
L 293.051125 236.989465 
L 306.443125 236.987646 
L 319.835125 236.984823 
L 333.227125 237.056685 
L 346.619125 236.992449 
L 360.011125 236.718269 
L 373.403125 236.988219 
" style="fill:none;stroke:#ff0000;stroke-linecap:square;"/>
    <defs>
     <path d="M 0 1.5 
C 0.397805 1.5 0.77937 1.341951 1.06066 1.06066 
C 1.341951 0.77937 1.5 0.397805 1.5 0 
C 1.5 -0.397805 1.341951 -0.77937 1.06066 -1.06066 
C 0.77937 -1.341951 0.397805 -1.5 0 -1.5 
C -0.397805 -1.5 -0.77937 -1.341951 -1.06066 -1.06066 
C -1.341951 -0.77937 -1.5 -0.397805 -1.5 0 
C -1.5 0.397805 -1.341951 0.77937 -1.06066 1.06066 
C -0.77937 1.341951 -0.397805 1.5 0 1.5 
z
" id="m8ba9c96348" style="stroke:#ff0000;stroke-width:0.5;"/>
    </defs>
    <g clip-path="url(#p495fdb5998)">
     <use style="fill:#ff0000;stroke:#ff0000;stroke-width:0.5;" x="51.995125" xlink:href="#m8ba9c96348" y="236.9889504"/>
     <use style="fill:#ff0000;stroke:#ff0000;stroke-width:0.5;" x="65.387125" xlink:href="#m8ba9c96348" y="237.05584282"/>
     <use style="fill:#ff0000;stroke:#ff0000;stroke-width:0.5;" x="78.779125" xlink:href="#m8ba9c96348" y="236.98737808"/>
     <use style="fill:#ff0000;stroke:#ff0000;stroke-width:0.5;" x="92.171125" xlink:href="#m8ba9c96348" y="236.98656867"/>
     <use style="fill:#ff0000;stroke:#ff0000;stroke-width:0.5;" x="105.563125" xlink:href="#m8ba9c96348" y="236.988374792"/>
     <use style="fill:#ff0000;stroke:#ff0000;stroke-width:0.5;" x="118.955125" xlink:href="#m8ba9c96348" y="236.990080247"/>
     <use style="fill:#ff0000;stroke:#ff0000;stroke-width:0.5;" x="132.347125" xlink:href="#m8ba9c96348" y="236.721559989"/>
     <use style="fill:#ff0000;stroke:#ff0000;stroke-width:0.5;" x="145.739125" xlink:href="#m8ba9c96348" y="236.98949042"/>
     <use style="fill:#ff0000;stroke:#ff0000;stroke-width:0.5;" x="159.131125" xlink:href="#m8ba9c96348" y="236.992941133"/>
     <use style="fill:#ff0000;stroke:#ff0000;stroke-width:0.5;" x="172.523125" xlink:href="#m8ba9c96348" y="236.989791616"/>
     <use style="fill:#ff0000;stroke:#ff0000;stroke-width:0.5;" x="185.915125" xlink:href="#m8ba9c96348" y="236.993637262"/>
     <use style="fill:#ff0000;stroke:#ff0000;stroke-width:0.5;" x="199.307125" xlink:href="#m8ba9c96348" y="237.05625419"/>
     <use style="fill:#ff0000;stroke:#ff0000;stroke-width:0.5;" x="212.699125" xlink:href="#m8ba9c96348" y="236.993091142"/>
     <use style="fill:#ff0000;stroke:#ff0000;stroke-width:0.5;" x="226.091125" xlink:href="#m8ba9c96348" y="236.986950634"/>
     <use style="fill:#ff0000;stroke:#ff0000;stroke-width:0.5;" x="239.483125" xlink:href="#m8ba9c96348" y="236.990165848"/>
     <use style="fill:#ff0000;stroke:#ff0000;stroke-width:0.5;" x="252.875125" xlink:href="#m8ba9c96348" y="236.989558"/>
     <use style="fill:#ff0000;stroke:#ff0000;stroke-width:0.5;" x="266.267125" xlink:href="#m8ba9c96348" y="230.810671626"/>
     <use style="fill:#ff0000;stroke:#ff0000;stroke-width:0.5;" x="279.659125" xlink:href="#m8ba9c96348" y="236.989329013"/>
     <use style="fill:#ff0000;stroke:#ff0000;stroke-width:0.5;" x="293.051125" xlink:href="#m8ba9c96348" y="236.989465131"/>
     <use style="fill:#ff0000;stroke:#ff0000;stroke-width:0.5;" x="306.443125" xlink:href="#m8ba9c96348" y="236.987646044"/>
     <use style="fill:#ff0000;stroke:#ff0000;stroke-width:0.5;" x="319.835125" xlink:href="#m8ba9c96348" y="236.984823208"/>
     <use style="fill:#ff0000;stroke:#ff0000;stroke-width:0.5;" x="333.227125" xlink:href="#m8ba9c96348" y="237.056684836"/>
     <use style="fill:#ff0000;stroke:#ff0000;stroke-width:0.5;" x="346.619125" xlink:href="#m8ba9c96348" y="236.992448925"/>
     <use style="fill:#ff0000;stroke:#ff0000;stroke-width:0.5;" x="360.011125" xlink:href="#m8ba9c96348" y="236.718268578"/>
     <use style="fill:#ff0000;stroke:#ff0000;stroke-width:0.5;" x="373.403125" xlink:href="#m8ba9c96348" y="236.988219445"/>
    </g>
   </g>
   <g id="line2d_4">
    <path clip-path="url(#p495fdb5998)" d="M 51.995125 237.384157 
L 65.387125 237.410814 
L 78.779125 237.405823 
L 92.171125 237.397526 
L 105.563125 237.399597 
L 118.955125 237.401631 
L 132.347125 237.119322 
L 145.739125 237.403872 
L 159.131125 237.404066 
L 172.523125 237.401379 
L 185.915125 237.404147 
L 199.307125 237.414493 
L 212.699125 237.403893 
L 226.091125 237.41006 
L 239.483125 237.400456 
L 252.875125 237.400745 
L 266.267125 236.991782 
L 279.659125 237.405971 
L 293.051125 237.401438 
L 306.443125 237.408098 
L 319.835125 237.395136 
L 333.227125 237.413505 
L 346.619125 237.40165 
L 360.011125 237.101131 
L 373.403125 237.402454 
" style="fill:none;stroke:#00bfbf;stroke-linecap:square;"/>
    <defs>
     <path d="M 0 1.5 
C 0.397805 1.5 0.77937 1.341951 1.06066 1.06066 
C 1.341951 0.77937 1.5 0.397805 1.5 0 
C 1.5 -0.397805 1.341951 -0.77937 1.06066 -1.06066 
C 0.77937 -1.341951 0.397805 -1.5 0 -1.5 
C -0.397805 -1.5 -0.77937 -1.341951 -1.06066 -1.06066 
C -1.341951 -0.77937 -1.5 -0.397805 -1.5 0 
C -1.5 0.397805 -1.341951 0.77937 -1.06066 1.06066 
C -0.77937 1.341951 -0.397805 1.5 0 1.5 
z
" id="m9d973759b5" style="stroke:#00bfbf;stroke-width:0.5;"/>
    </defs>
    <g clip-path="url(#p495fdb5998)">
     <use style="fill:#00bfbf;stroke:#00bfbf;stroke-width:0.5;" x="51.995125" xlink:href="#m9d973759b5" y="237.384157"/>
     <use style="fill:#00bfbf;stroke:#00bfbf;stroke-width:0.5;" x="65.387125" xlink:href="#m9d973759b5" y="237.4108139"/>
     <use style="fill:#00bfbf;stroke:#00bfbf;stroke-width:0.5;" x="78.779125" xlink:href="#m9d973759b5" y="237.405822693"/>
     <use style="fill:#00bfbf;stroke:#00bfbf;stroke-width:0.5;" x="92.171125" xlink:href="#m9d973759b5" y="237.39752637"/>
     <use style="fill:#00bfbf;stroke:#00bfbf;stroke-width:0.5;" x="105.563125" xlink:href="#m9d973759b5" y="237.399597232"/>
     <use style="fill:#00bfbf;stroke:#00bfbf;stroke-width:0.5;" x="118.955125" xlink:href="#m9d973759b5" y="237.401630667"/>
     <use style="fill:#00bfbf;stroke:#00bfbf;stroke-width:0.5;" x="132.347125" xlink:href="#m9d973759b5" y="237.119322406"/>
     <use style="fill:#00bfbf;stroke:#00bfbf;stroke-width:0.5;" x="145.739125" xlink:href="#m9d973759b5" y="237.403872225"/>
     <use style="fill:#00bfbf;stroke:#00bfbf;stroke-width:0.5;" x="159.131125" xlink:href="#m9d973759b5" y="237.404066164"/>
     <use style="fill:#00bfbf;stroke:#00bfbf;stroke-width:0.5;" x="172.523125" xlink:href="#m9d973759b5" y="237.401379112"/>
     <use style="fill:#00bfbf;stroke:#00bfbf;stroke-width:0.5;" x="185.915125" xlink:href="#m9d973759b5" y="237.404146589"/>
     <use style="fill:#00bfbf;stroke:#00bfbf;stroke-width:0.5;" x="199.307125" xlink:href="#m9d973759b5" y="237.414493187"/>
     <use style="fill:#00bfbf;stroke:#00bfbf;stroke-width:0.5;" x="212.699125" xlink:href="#m9d973759b5" y="237.403892649"/>
     <use style="fill:#00bfbf;stroke:#00bfbf;stroke-width:0.5;" x="226.091125" xlink:href="#m9d973759b5" y="237.41005998"/>
     <use style="fill:#00bfbf;stroke:#00bfbf;stroke-width:0.5;" x="239.483125" xlink:href="#m9d973759b5" y="237.400456304"/>
     <use style="fill:#00bfbf;stroke:#00bfbf;stroke-width:0.5;" x="252.875125" xlink:href="#m9d973759b5" y="237.400744945"/>
     <use style="fill:#00bfbf;stroke:#00bfbf;stroke-width:0.5;" x="266.267125" xlink:href="#m9d973759b5" y="236.991781831"/>
     <use style="fill:#00bfbf;stroke:#00bfbf;stroke-width:0.5;" x="279.659125" xlink:href="#m9d973759b5" y="237.405970598"/>
     <use style="fill:#00bfbf;stroke:#00bfbf;stroke-width:0.5;" x="293.051125" xlink:href="#m9d973759b5" y="237.401438162"/>
     <use style="fill:#00bfbf;stroke:#00bfbf;stroke-width:0.5;" x="306.443125" xlink:href="#m9d973759b5" y="237.40809768"/>
     <use style="fill:#00bfbf;stroke:#00bfbf;stroke-width:0.5;" x="319.835125" xlink:href="#m9d973759b5" y="237.395135547"/>
     <use style="fill:#00bfbf;stroke:#00bfbf;stroke-width:0.5;" x="333.227125" xlink:href="#m9d973759b5" y="237.413504587"/>
     <use style="fill:#00bfbf;stroke:#00bfbf;stroke-width:0.5;" x="346.619125" xlink:href="#m9d973759b5" y="237.401649572"/>
     <use style="fill:#00bfbf;stroke:#00bfbf;stroke-width:0.5;" x="360.011125" xlink:href="#m9d973759b5" y="237.10113103"/>
     <use style="fill:#00bfbf;stroke:#00bfbf;stroke-width:0.5;" x="373.403125" xlink:href="#m9d973759b5" y="237.402454341"/>
    </g>
   </g>
   <g id="line2d_5">
    <path clip-path="url(#p495fdb5998)" d="M 51.995125 44.628398 
L 65.387125 43.976205 
L 78.779125 44.66547 
L 92.171125 44.697505 
L 105.563125 44.711366 
L 118.955125 44.65835 
L 132.347125 45.703806 
L 145.739125 44.707081 
L 159.131125 44.462765 
L 172.523125 44.433335 
L 185.915125 44.69974 
L 199.307125 44.352264 
L 212.699125 44.432714 
L 226.091125 44.692942 
L 239.483125 44.696406 
L 252.875125 43.224853 
L 266.267125 52.745574 
L 279.659125 44.70201 
L 293.051125 44.442764 
L 306.443125 44.737588 
L 319.835125 44.683196 
L 333.227125 43.957533 
L 346.619125 44.430395 
L 360.011125 45.474202 
L 373.403125 44.537053 
" style="fill:none;stroke:#bf00bf;stroke-linecap:square;"/>
    <defs>
     <path d="M 0 1.5 
C 0.397805 1.5 0.77937 1.341951 1.06066 1.06066 
C 1.341951 0.77937 1.5 0.397805 1.5 0 
C 1.5 -0.397805 1.341951 -0.77937 1.06066 -1.06066 
C 0.77937 -1.341951 0.397805 -1.5 0 -1.5 
C -0.397805 -1.5 -0.77937 -1.341951 -1.06066 -1.06066 
C -1.341951 -0.77937 -1.5 -0.397805 -1.5 0 
C -1.5 0.397805 -1.341951 0.77937 -1.06066 1.06066 
C -0.77937 1.341951 -0.397805 1.5 0 1.5 
z
" id="m59aa1da6cb" style="stroke:#bf00bf;stroke-width:0.5;"/>
    </defs>
    <g clip-path="url(#p495fdb5998)">
     <use style="fill:#bf00bf;stroke:#bf00bf;stroke-width:0.5;" x="51.995125" xlink:href="#m59aa1da6cb" y="44.62839768"/>
     <use style="fill:#bf00bf;stroke:#bf00bf;stroke-width:0.5;" x="65.387125" xlink:href="#m59aa1da6cb" y="43.9762048"/>
     <use style="fill:#bf00bf;stroke:#bf00bf;stroke-width:0.5;" x="78.779125" xlink:href="#m59aa1da6cb" y="44.66546996"/>
     <use style="fill:#bf00bf;stroke:#bf00bf;stroke-width:0.5;" x="92.171125" xlink:href="#m59aa1da6cb" y="44.69750536"/>
     <use style="fill:#bf00bf;stroke:#bf00bf;stroke-width:0.5;" x="105.563125" xlink:href="#m59aa1da6cb" y="44.71136608"/>
     <use style="fill:#bf00bf;stroke:#bf00bf;stroke-width:0.5;" x="118.955125" xlink:href="#m59aa1da6cb" y="44.6583502933"/>
     <use style="fill:#bf00bf;stroke:#bf00bf;stroke-width:0.5;" x="132.347125" xlink:href="#m59aa1da6cb" y="45.7038064571"/>
     <use style="fill:#bf00bf;stroke:#bf00bf;stroke-width:0.5;" x="145.739125" xlink:href="#m59aa1da6cb" y="44.707081415"/>
     <use style="fill:#bf00bf;stroke:#bf00bf;stroke-width:0.5;" x="159.131125" xlink:href="#m59aa1da6cb" y="44.4627648178"/>
     <use style="fill:#bf00bf;stroke:#bf00bf;stroke-width:0.5;" x="172.523125" xlink:href="#m59aa1da6cb" y="44.433335388"/>
     <use style="fill:#bf00bf;stroke:#bf00bf;stroke-width:0.5;" x="185.915125" xlink:href="#m59aa1da6cb" y="44.6997400655"/>
     <use style="fill:#bf00bf;stroke:#bf00bf;stroke-width:0.5;" x="199.307125" xlink:href="#m59aa1da6cb" y="44.35226363"/>
     <use style="fill:#bf00bf;stroke:#bf00bf;stroke-width:0.5;" x="212.699125" xlink:href="#m59aa1da6cb" y="44.4327144246"/>
     <use style="fill:#bf00bf;stroke:#bf00bf;stroke-width:0.5;" x="226.091125" xlink:href="#m59aa1da6cb" y="44.6929423371"/>
     <use style="fill:#bf00bf;stroke:#bf00bf;stroke-width:0.5;" x="239.483125" xlink:href="#m59aa1da6cb" y="44.696405976"/>
     <use style="fill:#bf00bf;stroke:#bf00bf;stroke-width:0.5;" x="252.875125" xlink:href="#m59aa1da6cb" y="43.2248533825"/>
     <use style="fill:#bf00bf;stroke:#bf00bf;stroke-width:0.5;" x="266.267125" xlink:href="#m59aa1da6cb" y="52.7455737153"/>
     <use style="fill:#bf00bf;stroke:#bf00bf;stroke-width:0.5;" x="279.659125" xlink:href="#m59aa1da6cb" y="44.7020104178"/>
     <use style="fill:#bf00bf;stroke:#bf00bf;stroke-width:0.5;" x="293.051125" xlink:href="#m59aa1da6cb" y="44.4427635453"/>
     <use style="fill:#bf00bf;stroke:#bf00bf;stroke-width:0.5;" x="306.443125" xlink:href="#m59aa1da6cb" y="44.737587926"/>
     <use style="fill:#bf00bf;stroke:#bf00bf;stroke-width:0.5;" x="319.835125" xlink:href="#m59aa1da6cb" y="44.683195819"/>
     <use style="fill:#bf00bf;stroke:#bf00bf;stroke-width:0.5;" x="333.227125" xlink:href="#m59aa1da6cb" y="43.9575327109"/>
     <use style="fill:#bf00bf;stroke:#bf00bf;stroke-width:0.5;" x="346.619125" xlink:href="#m59aa1da6cb" y="44.430395127"/>
     <use style="fill:#bf00bf;stroke:#bf00bf;stroke-width:0.5;" x="360.011125" xlink:href="#m59aa1da6cb" y="45.4742022483"/>
     <use style="fill:#bf00bf;stroke:#bf00bf;stroke-width:0.5;" x="373.403125" xlink:href="#m59aa1da6cb" y="44.537052832"/>
    </g>
   </g>
   <g id="patch_3">
    <path d="M 373.403125 244.518125 
L 373.403125 21.318125 
" style="fill:none;stroke:#000000;stroke-linecap:square;stroke-linejoin:miter;"/>
   </g>
   <g id="patch_4">
    <path d="M 38.603125 244.518125 
L 373.403125 244.518125 
" style="fill:none;stroke:#000000;stroke-linecap:square;stroke-linejoin:miter;"/>
   </g>
   <g id="patch_5">
    <path d="M 38.603125 21.318125 
L 373.403125 21.318125 
" style="fill:none;stroke:#000000;stroke-linecap:square;stroke-linejoin:miter;"/>
   </g>
   <g id="patch_6">
    <path d="M 38.603125 244.518125 
L 38.603125 21.318125 
" style="fill:none;stroke:#000000;stroke-linecap:square;stroke-linejoin:miter;"/>
   </g>
   <g id="matplotlib.axis_1">
    <g id="xtick_1">
     <g id="line2d_6">
      <path clip-path="url(#p495fdb5998)" d="M 38.603125 244.518125 
L 38.603125 21.318125 
" style="fill:none;stroke:#000000;stroke-dasharray:1.000000,3.000000;stroke-dashoffset:0.0;stroke-width:0.5;"/>
     </g>
     <g id="line2d_7">
      <defs>
       <path d="M 0 0 
L 0 -4 
" id="m295c1cc35f" style="stroke:#000000;stroke-width:0.5;"/>
      </defs>
      <g>
       <use style="stroke:#000000;stroke-width:0.5;" x="38.603125" xlink:href="#m295c1cc35f" y="244.518125"/>
      </g>
     </g>
     <g id="line2d_8">
      <defs>
       <path d="M 0 0 
L 0 4 
" id="m519b7e9694" style="stroke:#000000;stroke-width:0.5;"/>
      </defs>
      <g>
       <use style="stroke:#000000;stroke-width:0.5;" x="38.603125" xlink:href="#m519b7e9694" y="21.318125"/>
      </g>
     </g>
     <g id="text_1">
      <!-- 0.0 -->
      <defs>
       <path d="M 31.78125 66.40625 
Q 24.171875 66.40625 20.328125 58.90625 
Q 16.5 51.421875 16.5 36.375 
Q 16.5 21.390625 20.328125 13.890625 
Q 24.171875 6.390625 31.78125 6.390625 
Q 39.453125 6.390625 43.28125 13.890625 
Q 47.125 21.390625 47.125 36.375 
Q 47.125 51.421875 43.28125 58.90625 
Q 39.453125 66.40625 31.78125 66.40625 
M 31.78125 74.21875 
Q 44.046875 74.21875 50.515625 64.515625 
Q 56.984375 54.828125 56.984375 36.375 
Q 56.984375 17.96875 50.515625 8.265625 
Q 44.046875 -1.421875 31.78125 -1.421875 
Q 19.53125 -1.421875 13.0625 8.265625 
Q 6.59375 17.96875 6.59375 36.375 
Q 6.59375 54.828125 13.0625 64.515625 
Q 19.53125 74.21875 31.78125 74.21875 
" id="BitstreamVeraSans-Roman-30"/>
       <path d="M 10.6875 12.40625 
L 21 12.40625 
L 21 0 
L 10.6875 0 
z
" id="BitstreamVeraSans-Roman-2e"/>
      </defs>
      <g transform="translate(30.6515625 256.1165625)scale(0.1 -0.1)">
       <use xlink:href="#BitstreamVeraSans-Roman-30"/>
       <use x="63.623046875" xlink:href="#BitstreamVeraSans-Roman-2e"/>
       <use x="95.41015625" xlink:href="#BitstreamVeraSans-Roman-30"/>
      </g>
     </g>
    </g>
    <g id="xtick_2">
     <g id="line2d_9">
      <path clip-path="url(#p495fdb5998)" d="M 105.563125 244.518125 
L 105.563125 21.318125 
" style="fill:none;stroke:#000000;stroke-dasharray:1.000000,3.000000;stroke-dashoffset:0.0;stroke-width:0.5;"/>
     </g>
     <g id="line2d_10">
      <g>
       <use style="stroke:#000000;stroke-width:0.5;" x="105.563125" xlink:href="#m295c1cc35f" y="244.518125"/>
      </g>
     </g>
     <g id="line2d_11">
      <g>
       <use style="stroke:#000000;stroke-width:0.5;" x="105.563125" xlink:href="#m519b7e9694" y="21.318125"/>
      </g>
     </g>
     <g id="text_2">
      <!-- 0.5 -->
      <defs>
       <path d="M 10.796875 72.90625 
L 49.515625 72.90625 
L 49.515625 64.59375 
L 19.828125 64.59375 
L 19.828125 46.734375 
Q 21.96875 47.46875 24.109375 47.828125 
Q 26.265625 48.1875 28.421875 48.1875 
Q 40.625 48.1875 47.75 41.5 
Q 54.890625 34.8125 54.890625 23.390625 
Q 54.890625 11.625 47.5625 5.09375 
Q 40.234375 -1.421875 26.90625 -1.421875 
Q 22.3125 -1.421875 17.546875 -0.640625 
Q 12.796875 0.140625 7.71875 1.703125 
L 7.71875 11.625 
Q 12.109375 9.234375 16.796875 8.0625 
Q 21.484375 6.890625 26.703125 6.890625 
Q 35.15625 6.890625 40.078125 11.328125 
Q 45.015625 15.765625 45.015625 23.390625 
Q 45.015625 31 40.078125 35.4375 
Q 35.15625 39.890625 26.703125 39.890625 
Q 22.75 39.890625 18.8125 39.015625 
Q 14.890625 38.140625 10.796875 36.28125 
z
" id="BitstreamVeraSans-Roman-35"/>
      </defs>
      <g transform="translate(97.6115625 256.1165625)scale(0.1 -0.1)">
       <use xlink:href="#BitstreamVeraSans-Roman-30"/>
       <use x="63.623046875" xlink:href="#BitstreamVeraSans-Roman-2e"/>
       <use x="95.41015625" xlink:href="#BitstreamVeraSans-Roman-35"/>
      </g>
     </g>
    </g>
    <g id="xtick_3">
     <g id="line2d_12">
      <path clip-path="url(#p495fdb5998)" d="M 172.523125 244.518125 
L 172.523125 21.318125 
" style="fill:none;stroke:#000000;stroke-dasharray:1.000000,3.000000;stroke-dashoffset:0.0;stroke-width:0.5;"/>
     </g>
     <g id="line2d_13">
      <g>
       <use style="stroke:#000000;stroke-width:0.5;" x="172.523125" xlink:href="#m295c1cc35f" y="244.518125"/>
      </g>
     </g>
     <g id="line2d_14">
      <g>
       <use style="stroke:#000000;stroke-width:0.5;" x="172.523125" xlink:href="#m519b7e9694" y="21.318125"/>
      </g>
     </g>
     <g id="text_3">
      <!-- 1.0 -->
      <defs>
       <path d="M 12.40625 8.296875 
L 28.515625 8.296875 
L 28.515625 63.921875 
L 10.984375 60.40625 
L 10.984375 69.390625 
L 28.421875 72.90625 
L 38.28125 72.90625 
L 38.28125 8.296875 
L 54.390625 8.296875 
L 54.390625 0 
L 12.40625 0 
z
" id="BitstreamVeraSans-Roman-31"/>
      </defs>
      <g transform="translate(164.5715625 256.1165625)scale(0.1 -0.1)">
       <use xlink:href="#BitstreamVeraSans-Roman-31"/>
       <use x="63.623046875" xlink:href="#BitstreamVeraSans-Roman-2e"/>
       <use x="95.41015625" xlink:href="#BitstreamVeraSans-Roman-30"/>
      </g>
     </g>
    </g>
    <g id="xtick_4">
     <g id="line2d_15">
      <path clip-path="url(#p495fdb5998)" d="M 239.483125 244.518125 
L 239.483125 21.318125 
" style="fill:none;stroke:#000000;stroke-dasharray:1.000000,3.000000;stroke-dashoffset:0.0;stroke-width:0.5;"/>
     </g>
     <g id="line2d_16">
      <g>
       <use style="stroke:#000000;stroke-width:0.5;" x="239.483125" xlink:href="#m295c1cc35f" y="244.518125"/>
      </g>
     </g>
     <g id="line2d_17">
      <g>
       <use style="stroke:#000000;stroke-width:0.5;" x="239.483125" xlink:href="#m519b7e9694" y="21.318125"/>
      </g>
     </g>
     <g id="text_4">
      <!-- 1.5 -->
      <g transform="translate(231.5315625 256.1165625)scale(0.1 -0.1)">
       <use xlink:href="#BitstreamVeraSans-Roman-31"/>
       <use x="63.623046875" xlink:href="#BitstreamVeraSans-Roman-2e"/>
       <use x="95.41015625" xlink:href="#BitstreamVeraSans-Roman-35"/>
      </g>
     </g>
    </g>
    <g id="xtick_5">
     <g id="line2d_18">
      <path clip-path="url(#p495fdb5998)" d="M 306.443125 244.518125 
L 306.443125 21.318125 
" style="fill:none;stroke:#000000;stroke-dasharray:1.000000,3.000000;stroke-dashoffset:0.0;stroke-width:0.5;"/>
     </g>
     <g id="line2d_19">
      <g>
       <use style="stroke:#000000;stroke-width:0.5;" x="306.443125" xlink:href="#m295c1cc35f" y="244.518125"/>
      </g>
     </g>
     <g id="line2d_20">
      <g>
       <use style="stroke:#000000;stroke-width:0.5;" x="306.443125" xlink:href="#m519b7e9694" y="21.318125"/>
      </g>
     </g>
     <g id="text_5">
      <!-- 2.0 -->
      <defs>
       <path d="M 19.1875 8.296875 
L 53.609375 8.296875 
L 53.609375 0 
L 7.328125 0 
L 7.328125 8.296875 
Q 12.9375 14.109375 22.625 23.890625 
Q 32.328125 33.6875 34.8125 36.53125 
Q 39.546875 41.84375 41.421875 45.53125 
Q 43.3125 49.21875 43.3125 52.78125 
Q 43.3125 58.59375 39.234375 62.25 
Q 35.15625 65.921875 28.609375 65.921875 
Q 23.96875 65.921875 18.8125 64.3125 
Q 13.671875 62.703125 7.8125 59.421875 
L 7.8125 69.390625 
Q 13.765625 71.78125 18.9375 73 
Q 24.125 74.21875 28.421875 74.21875 
Q 39.75 74.21875 46.484375 68.546875 
Q 53.21875 62.890625 53.21875 53.421875 
Q 53.21875 48.921875 51.53125 44.890625 
Q 49.859375 40.875 45.40625 35.40625 
Q 44.1875 33.984375 37.640625 27.21875 
Q 31.109375 20.453125 19.1875 8.296875 
" id="BitstreamVeraSans-Roman-32"/>
      </defs>
      <g transform="translate(298.4915625 256.1165625)scale(0.1 -0.1)">
       <use xlink:href="#BitstreamVeraSans-Roman-32"/>
       <use x="63.623046875" xlink:href="#BitstreamVeraSans-Roman-2e"/>
       <use x="95.41015625" xlink:href="#BitstreamVeraSans-Roman-30"/>
      </g>
     </g>
    </g>
    <g id="xtick_6">
     <g id="line2d_21">
      <path clip-path="url(#p495fdb5998)" d="M 373.403125 244.518125 
L 373.403125 21.318125 
" style="fill:none;stroke:#000000;stroke-dasharray:1.000000,3.000000;stroke-dashoffset:0.0;stroke-width:0.5;"/>
     </g>
     <g id="line2d_22">
      <g>
       <use style="stroke:#000000;stroke-width:0.5;" x="373.403125" xlink:href="#m295c1cc35f" y="244.518125"/>
      </g>
     </g>
     <g id="line2d_23">
      <g>
       <use style="stroke:#000000;stroke-width:0.5;" x="373.403125" xlink:href="#m519b7e9694" y="21.318125"/>
      </g>
     </g>
     <g id="text_6">
      <!-- 2.5 -->
      <g transform="translate(365.4515625 256.1165625)scale(0.1 -0.1)">
       <use xlink:href="#BitstreamVeraSans-Roman-32"/>
       <use x="63.623046875" xlink:href="#BitstreamVeraSans-Roman-2e"/>
       <use x="95.41015625" xlink:href="#BitstreamVeraSans-Roman-35"/>
      </g>
     </g>
    </g>
    <g id="text_7">
     <!-- n - pocet linearnich generatoru -->
     <defs>
      <path d="M 18.109375 8.203125 
L 18.109375 -20.796875 
L 9.078125 -20.796875 
L 9.078125 54.6875 
L 18.109375 54.6875 
L 18.109375 46.390625 
Q 20.953125 51.265625 25.265625 53.625 
Q 29.59375 56 35.59375 56 
Q 45.5625 56 51.78125 48.09375 
Q 58.015625 40.1875 58.015625 27.296875 
Q 58.015625 14.40625 51.78125 6.484375 
Q 45.5625 -1.421875 35.59375 -1.421875 
Q 29.59375 -1.421875 25.265625 0.953125 
Q 20.953125 3.328125 18.109375 8.203125 
M 48.6875 27.296875 
Q 48.6875 37.203125 44.609375 42.84375 
Q 40.53125 48.484375 33.40625 48.484375 
Q 26.265625 48.484375 22.1875 42.84375 
Q 18.109375 37.203125 18.109375 27.296875 
Q 18.109375 17.390625 22.1875 11.75 
Q 26.265625 6.109375 33.40625 6.109375 
Q 40.53125 6.109375 44.609375 11.75 
Q 48.6875 17.390625 48.6875 27.296875 
" id="BitstreamVeraSans-Roman-70"/>
      <path d="M 54.890625 33.015625 
L 54.890625 0 
L 45.90625 0 
L 45.90625 32.71875 
Q 45.90625 40.484375 42.875 44.328125 
Q 39.84375 48.1875 33.796875 48.1875 
Q 26.515625 48.1875 22.3125 43.546875 
Q 18.109375 38.921875 18.109375 30.90625 
L 18.109375 0 
L 9.078125 0 
L 9.078125 54.6875 
L 18.109375 54.6875 
L 18.109375 46.1875 
Q 21.34375 51.125 25.703125 53.5625 
Q 30.078125 56 35.796875 56 
Q 45.21875 56 50.046875 50.171875 
Q 54.890625 44.34375 54.890625 33.015625 
" id="BitstreamVeraSans-Roman-6e"/>
      <path d="M 48.78125 52.59375 
L 48.78125 44.1875 
Q 44.96875 46.296875 41.140625 47.34375 
Q 37.3125 48.390625 33.40625 48.390625 
Q 24.65625 48.390625 19.8125 42.84375 
Q 14.984375 37.3125 14.984375 27.296875 
Q 14.984375 17.28125 19.8125 11.734375 
Q 24.65625 6.203125 33.40625 6.203125 
Q 37.3125 6.203125 41.140625 7.25 
Q 44.96875 8.296875 48.78125 10.40625 
L 48.78125 2.09375 
Q 45.015625 0.34375 40.984375 -0.53125 
Q 36.96875 -1.421875 32.421875 -1.421875 
Q 20.0625 -1.421875 12.78125 6.34375 
Q 5.515625 14.109375 5.515625 27.296875 
Q 5.515625 40.671875 12.859375 48.328125 
Q 20.21875 56 33.015625 56 
Q 37.15625 56 41.109375 55.140625 
Q 45.0625 54.296875 48.78125 52.59375 
" id="BitstreamVeraSans-Roman-63"/>
      <path d="M 54.890625 33.015625 
L 54.890625 0 
L 45.90625 0 
L 45.90625 32.71875 
Q 45.90625 40.484375 42.875 44.328125 
Q 39.84375 48.1875 33.796875 48.1875 
Q 26.515625 48.1875 22.3125 43.546875 
Q 18.109375 38.921875 18.109375 30.90625 
L 18.109375 0 
L 9.078125 0 
L 9.078125 75.984375 
L 18.109375 75.984375 
L 18.109375 46.1875 
Q 21.34375 51.125 25.703125 53.5625 
Q 30.078125 56 35.796875 56 
Q 45.21875 56 50.046875 50.171875 
Q 54.890625 44.34375 54.890625 33.015625 
" id="BitstreamVeraSans-Roman-68"/>
      <path d="M 9.421875 54.6875 
L 18.40625 54.6875 
L 18.40625 0 
L 9.421875 0 
z
M 9.421875 75.984375 
L 18.40625 75.984375 
L 18.40625 64.59375 
L 9.421875 64.59375 
z
" id="BitstreamVeraSans-Roman-69"/>
      <path d="M 34.28125 27.484375 
Q 23.390625 27.484375 19.1875 25 
Q 14.984375 22.515625 14.984375 16.5 
Q 14.984375 11.71875 18.140625 8.90625 
Q 21.296875 6.109375 26.703125 6.109375 
Q 34.1875 6.109375 38.703125 11.40625 
Q 43.21875 16.703125 43.21875 25.484375 
L 43.21875 27.484375 
z
M 52.203125 31.203125 
L 52.203125 0 
L 43.21875 0 
L 43.21875 8.296875 
Q 40.140625 3.328125 35.546875 0.953125 
Q 30.953125 -1.421875 24.3125 -1.421875 
Q 15.921875 -1.421875 10.953125 3.296875 
Q 6 8.015625 6 15.921875 
Q 6 25.140625 12.171875 29.828125 
Q 18.359375 34.515625 30.609375 34.515625 
L 43.21875 34.515625 
L 43.21875 35.40625 
Q 43.21875 41.609375 39.140625 45 
Q 35.0625 48.390625 27.6875 48.390625 
Q 23 48.390625 18.546875 47.265625 
Q 14.109375 46.140625 10.015625 43.890625 
L 10.015625 52.203125 
Q 14.9375 54.109375 19.578125 55.046875 
Q 24.21875 56 28.609375 56 
Q 40.484375 56 46.34375 49.84375 
Q 52.203125 43.703125 52.203125 31.203125 
" id="BitstreamVeraSans-Roman-61"/>
      <path d="M 9.421875 75.984375 
L 18.40625 75.984375 
L 18.40625 0 
L 9.421875 0 
z
" id="BitstreamVeraSans-Roman-6c"/>
      <path d="M 41.109375 46.296875 
Q 39.59375 47.171875 37.8125 47.578125 
Q 36.03125 48 33.890625 48 
Q 26.265625 48 22.1875 43.046875 
Q 18.109375 38.09375 18.109375 28.8125 
L 18.109375 0 
L 9.078125 0 
L 9.078125 54.6875 
L 18.109375 54.6875 
L 18.109375 46.1875 
Q 20.953125 51.171875 25.484375 53.578125 
Q 30.03125 56 36.53125 56 
Q 37.453125 56 38.578125 55.875 
Q 39.703125 55.765625 41.0625 55.515625 
z
" id="BitstreamVeraSans-Roman-72"/>
      <path d="M 56.203125 29.59375 
L 56.203125 25.203125 
L 14.890625 25.203125 
Q 15.484375 15.921875 20.484375 11.0625 
Q 25.484375 6.203125 34.421875 6.203125 
Q 39.59375 6.203125 44.453125 7.46875 
Q 49.3125 8.734375 54.109375 11.28125 
L 54.109375 2.78125 
Q 49.265625 0.734375 44.1875 -0.34375 
Q 39.109375 -1.421875 33.890625 -1.421875 
Q 20.796875 -1.421875 13.15625 6.1875 
Q 5.515625 13.8125 5.515625 26.8125 
Q 5.515625 40.234375 12.765625 48.109375 
Q 20.015625 56 32.328125 56 
Q 43.359375 56 49.78125 48.890625 
Q 56.203125 41.796875 56.203125 29.59375 
M 47.21875 32.234375 
Q 47.125 39.59375 43.09375 43.984375 
Q 39.0625 48.390625 32.421875 48.390625 
Q 24.90625 48.390625 20.390625 44.140625 
Q 15.875 39.890625 15.1875 32.171875 
z
" id="BitstreamVeraSans-Roman-65"/>
      <path d="M 4.890625 31.390625 
L 31.203125 31.390625 
L 31.203125 23.390625 
L 4.890625 23.390625 
z
" id="BitstreamVeraSans-Roman-2d"/>
      <path d="M 45.40625 27.984375 
Q 45.40625 37.75 41.375 43.109375 
Q 37.359375 48.484375 30.078125 48.484375 
Q 22.859375 48.484375 18.828125 43.109375 
Q 14.796875 37.75 14.796875 27.984375 
Q 14.796875 18.265625 18.828125 12.890625 
Q 22.859375 7.515625 30.078125 7.515625 
Q 37.359375 7.515625 41.375 12.890625 
Q 45.40625 18.265625 45.40625 27.984375 
M 54.390625 6.78125 
Q 54.390625 -7.171875 48.1875 -13.984375 
Q 42 -20.796875 29.203125 -20.796875 
Q 24.46875 -20.796875 20.265625 -20.09375 
Q 16.0625 -19.390625 12.109375 -17.921875 
L 12.109375 -9.1875 
Q 16.0625 -11.328125 19.921875 -12.34375 
Q 23.78125 -13.375 27.78125 -13.375 
Q 36.625 -13.375 41.015625 -8.765625 
Q 45.40625 -4.15625 45.40625 5.171875 
L 45.40625 9.625 
Q 42.625 4.78125 38.28125 2.390625 
Q 33.9375 0 27.875 0 
Q 17.828125 0 11.671875 7.65625 
Q 5.515625 15.328125 5.515625 27.984375 
Q 5.515625 40.671875 11.671875 48.328125 
Q 17.828125 56 27.875 56 
Q 33.9375 56 38.28125 53.609375 
Q 42.625 51.21875 45.40625 46.390625 
L 45.40625 54.6875 
L 54.390625 54.6875 
z
" id="BitstreamVeraSans-Roman-67"/>
      <path d="M 30.609375 48.390625 
Q 23.390625 48.390625 19.1875 42.75 
Q 14.984375 37.109375 14.984375 27.296875 
Q 14.984375 17.484375 19.15625 11.84375 
Q 23.34375 6.203125 30.609375 6.203125 
Q 37.796875 6.203125 41.984375 11.859375 
Q 46.1875 17.53125 46.1875 27.296875 
Q 46.1875 37.015625 41.984375 42.703125 
Q 37.796875 48.390625 30.609375 48.390625 
M 30.609375 56 
Q 42.328125 56 49.015625 48.375 
Q 55.71875 40.765625 55.71875 27.296875 
Q 55.71875 13.875 49.015625 6.21875 
Q 42.328125 -1.421875 30.609375 -1.421875 
Q 18.84375 -1.421875 12.171875 6.21875 
Q 5.515625 13.875 5.515625 27.296875 
Q 5.515625 40.765625 12.171875 48.375 
Q 18.84375 56 30.609375 56 
" id="BitstreamVeraSans-Roman-6f"/>
      <path id="BitstreamVeraSans-Roman-20"/>
      <path d="M 8.5 21.578125 
L 8.5 54.6875 
L 17.484375 54.6875 
L 17.484375 21.921875 
Q 17.484375 14.15625 20.5 10.265625 
Q 23.53125 6.390625 29.59375 6.390625 
Q 36.859375 6.390625 41.078125 11.03125 
Q 45.3125 15.671875 45.3125 23.6875 
L 45.3125 54.6875 
L 54.296875 54.6875 
L 54.296875 0 
L 45.3125 0 
L 45.3125 8.40625 
Q 42.046875 3.421875 37.71875 1 
Q 33.40625 -1.421875 27.6875 -1.421875 
Q 18.265625 -1.421875 13.375 4.4375 
Q 8.5 10.296875 8.5 21.578125 
" id="BitstreamVeraSans-Roman-75"/>
      <path d="M 18.3125 70.21875 
L 18.3125 54.6875 
L 36.8125 54.6875 
L 36.8125 47.703125 
L 18.3125 47.703125 
L 18.3125 18.015625 
Q 18.3125 11.328125 20.140625 9.421875 
Q 21.96875 7.515625 27.59375 7.515625 
L 36.8125 7.515625 
L 36.8125 0 
L 27.59375 0 
Q 17.1875 0 13.234375 3.875 
Q 9.28125 7.765625 9.28125 18.015625 
L 9.28125 47.703125 
L 2.6875 47.703125 
L 2.6875 54.6875 
L 9.28125 54.6875 
L 9.28125 70.21875 
z
" id="BitstreamVeraSans-Roman-74"/>
     </defs>
     <g transform="translate(128.17734375 270.7946875)scale(0.1 -0.1)">
      <use xlink:href="#BitstreamVeraSans-Roman-6e"/>
      <use x="63.37890625" xlink:href="#BitstreamVeraSans-Roman-20"/>
      <use x="95.166015625" xlink:href="#BitstreamVeraSans-Roman-2d"/>
      <use x="131.25" xlink:href="#BitstreamVeraSans-Roman-20"/>
      <use x="163.037109375" xlink:href="#BitstreamVeraSans-Roman-70"/>
      <use x="226.513671875" xlink:href="#BitstreamVeraSans-Roman-6f"/>
      <use x="287.6953125" xlink:href="#BitstreamVeraSans-Roman-63"/>
      <use x="342.67578125" xlink:href="#BitstreamVeraSans-Roman-65"/>
      <use x="404.19921875" xlink:href="#BitstreamVeraSans-Roman-74"/>
      <use x="443.408203125" xlink:href="#BitstreamVeraSans-Roman-20"/>
      <use x="475.1953125" xlink:href="#BitstreamVeraSans-Roman-6c"/>
      <use x="502.978515625" xlink:href="#BitstreamVeraSans-Roman-69"/>
      <use x="530.76171875" xlink:href="#BitstreamVeraSans-Roman-6e"/>
      <use x="594.140625" xlink:href="#BitstreamVeraSans-Roman-65"/>
      <use x="655.6640625" xlink:href="#BitstreamVeraSans-Roman-61"/>
      <use x="716.943359375" xlink:href="#BitstreamVeraSans-Roman-72"/>
      <use x="758.041015625" xlink:href="#BitstreamVeraSans-Roman-6e"/>
      <use x="821.419921875" xlink:href="#BitstreamVeraSans-Roman-69"/>
      <use x="849.203125" xlink:href="#BitstreamVeraSans-Roman-63"/>
      <use x="904.18359375" xlink:href="#BitstreamVeraSans-Roman-68"/>
      <use x="967.5625" xlink:href="#BitstreamVeraSans-Roman-20"/>
      <use x="999.349609375" xlink:href="#BitstreamVeraSans-Roman-67"/>
      <use x="1062.826171875" xlink:href="#BitstreamVeraSans-Roman-65"/>
      <use x="1124.349609375" xlink:href="#BitstreamVeraSans-Roman-6e"/>
      <use x="1187.728515625" xlink:href="#BitstreamVeraSans-Roman-65"/>
      <use x="1249.251953125" xlink:href="#BitstreamVeraSans-Roman-72"/>
      <use x="1290.365234375" xlink:href="#BitstreamVeraSans-Roman-61"/>
      <use x="1351.64453125" xlink:href="#BitstreamVeraSans-Roman-74"/>
      <use x="1390.853515625" xlink:href="#BitstreamVeraSans-Roman-6f"/>
      <use x="1452.03515625" xlink:href="#BitstreamVeraSans-Roman-72"/>
      <use x="1493.1484375" xlink:href="#BitstreamVeraSans-Roman-75"/>
     </g>
    </g>
    <g id="text_8">
     <!-- 1e8 -->
     <defs>
      <path d="M 31.78125 34.625 
Q 24.75 34.625 20.71875 30.859375 
Q 16.703125 27.09375 16.703125 20.515625 
Q 16.703125 13.921875 20.71875 10.15625 
Q 24.75 6.390625 31.78125 6.390625 
Q 38.8125 6.390625 42.859375 10.171875 
Q 46.921875 13.96875 46.921875 20.515625 
Q 46.921875 27.09375 42.890625 30.859375 
Q 38.875 34.625 31.78125 34.625 
M 21.921875 38.8125 
Q 15.578125 40.375 12.03125 44.71875 
Q 8.5 49.078125 8.5 55.328125 
Q 8.5 64.0625 14.71875 69.140625 
Q 20.953125 74.21875 31.78125 74.21875 
Q 42.671875 74.21875 48.875 69.140625 
Q 55.078125 64.0625 55.078125 55.328125 
Q 55.078125 49.078125 51.53125 44.71875 
Q 48 40.375 41.703125 38.8125 
Q 48.828125 37.15625 52.796875 32.3125 
Q 56.78125 27.484375 56.78125 20.515625 
Q 56.78125 9.90625 50.3125 4.234375 
Q 43.84375 -1.421875 31.78125 -1.421875 
Q 19.734375 -1.421875 13.25 4.234375 
Q 6.78125 9.90625 6.78125 20.515625 
Q 6.78125 27.484375 10.78125 32.3125 
Q 14.796875 37.15625 21.921875 38.8125 
M 18.3125 54.390625 
Q 18.3125 48.734375 21.84375 45.5625 
Q 25.390625 42.390625 31.78125 42.390625 
Q 38.140625 42.390625 41.71875 45.5625 
Q 45.3125 48.734375 45.3125 54.390625 
Q 45.3125 60.0625 41.71875 63.234375 
Q 38.140625 66.40625 31.78125 66.40625 
Q 25.390625 66.40625 21.84375 63.234375 
Q 18.3125 60.0625 18.3125 54.390625 
" id="BitstreamVeraSans-Roman-38"/>
     </defs>
     <g transform="translate(354.525 268.7946875)scale(0.1 -0.1)">
      <use xlink:href="#BitstreamVeraSans-Roman-31"/>
      <use x="63.623046875" xlink:href="#BitstreamVeraSans-Roman-65"/>
      <use x="125.146484375" xlink:href="#BitstreamVeraSans-Roman-38"/>
     </g>
    </g>
   </g>
   <g id="matplotlib.axis_2">
    <g id="ytick_1">
     <g id="line2d_24">
      <path clip-path="url(#p495fdb5998)" d="M 38.603125 244.518125 
L 373.403125 244.518125 
" style="fill:none;stroke:#000000;stroke-dasharray:1.000000,3.000000;stroke-dashoffset:0.0;stroke-width:0.5;"/>
     </g>
     <g id="line2d_25">
      <defs>
       <path d="M 0 0 
L 4 0 
" id="me33f8293f5" style="stroke:#000000;stroke-width:0.5;"/>
      </defs>
      <g>
       <use style="stroke:#000000;stroke-width:0.5;" x="38.603125" xlink:href="#me33f8293f5" y="244.518125"/>
      </g>
     </g>
     <g id="line2d_26">
      <defs>
       <path d="M 0 0 
L -4 0 
" id="m67c7e734a7" style="stroke:#000000;stroke-width:0.5;"/>
      </defs>
      <g>
       <use style="stroke:#000000;stroke-width:0.5;" x="373.403125" xlink:href="#m67c7e734a7" y="244.518125"/>
      </g>
     </g>
     <g id="text_9">
      <!-- 0 -->
      <g transform="translate(28.240625 247.2775)scale(0.1 -0.1)">
       <use xlink:href="#BitstreamVeraSans-Roman-30"/>
      </g>
     </g>
    </g>
    <g id="ytick_2">
     <g id="line2d_27">
      <path clip-path="url(#p495fdb5998)" d="M 38.603125 219.718125 
L 373.403125 219.718125 
" style="fill:none;stroke:#000000;stroke-dasharray:1.000000,3.000000;stroke-dashoffset:0.0;stroke-width:0.5;"/>
     </g>
     <g id="line2d_28">
      <g>
       <use style="stroke:#000000;stroke-width:0.5;" x="38.603125" xlink:href="#me33f8293f5" y="219.718125"/>
      </g>
     </g>
     <g id="line2d_29">
      <g>
       <use style="stroke:#000000;stroke-width:0.5;" x="373.403125" xlink:href="#m67c7e734a7" y="219.718125"/>
      </g>
     </g>
     <g id="text_10">
      <!-- 2 -->
      <g transform="translate(28.240625 222.4775)scale(0.1 -0.1)">
       <use xlink:href="#BitstreamVeraSans-Roman-32"/>
      </g>
     </g>
    </g>
    <g id="ytick_3">
     <g id="line2d_30">
      <path clip-path="url(#p495fdb5998)" d="M 38.603125 194.918125 
L 373.403125 194.918125 
" style="fill:none;stroke:#000000;stroke-dasharray:1.000000,3.000000;stroke-dashoffset:0.0;stroke-width:0.5;"/>
     </g>
     <g id="line2d_31">
      <g>
       <use style="stroke:#000000;stroke-width:0.5;" x="38.603125" xlink:href="#me33f8293f5" y="194.918125"/>
      </g>
     </g>
     <g id="line2d_32">
      <g>
       <use style="stroke:#000000;stroke-width:0.5;" x="373.403125" xlink:href="#m67c7e734a7" y="194.918125"/>
      </g>
     </g>
     <g id="text_11">
      <!-- 4 -->
      <defs>
       <path d="M 37.796875 64.3125 
L 12.890625 25.390625 
L 37.796875 25.390625 
z
M 35.203125 72.90625 
L 47.609375 72.90625 
L 47.609375 25.390625 
L 58.015625 25.390625 
L 58.015625 17.1875 
L 47.609375 17.1875 
L 47.609375 0 
L 37.796875 0 
L 37.796875 17.1875 
L 4.890625 17.1875 
L 4.890625 26.703125 
z
" id="BitstreamVeraSans-Roman-34"/>
      </defs>
      <g transform="translate(28.240625 197.6775)scale(0.1 -0.1)">
       <use xlink:href="#BitstreamVeraSans-Roman-34"/>
      </g>
     </g>
    </g>
    <g id="ytick_4">
     <g id="line2d_33">
      <path clip-path="url(#p495fdb5998)" d="M 38.603125 170.118125 
L 373.403125 170.118125 
" style="fill:none;stroke:#000000;stroke-dasharray:1.000000,3.000000;stroke-dashoffset:0.0;stroke-width:0.5;"/>
     </g>
     <g id="line2d_34">
      <g>
       <use style="stroke:#000000;stroke-width:0.5;" x="38.603125" xlink:href="#me33f8293f5" y="170.118125"/>
      </g>
     </g>
     <g id="line2d_35">
      <g>
       <use style="stroke:#000000;stroke-width:0.5;" x="373.403125" xlink:href="#m67c7e734a7" y="170.118125"/>
      </g>
     </g>
     <g id="text_12">
      <!-- 6 -->
      <defs>
       <path d="M 33.015625 40.375 
Q 26.375 40.375 22.484375 35.828125 
Q 18.609375 31.296875 18.609375 23.390625 
Q 18.609375 15.53125 22.484375 10.953125 
Q 26.375 6.390625 33.015625 6.390625 
Q 39.65625 6.390625 43.53125 10.953125 
Q 47.40625 15.53125 47.40625 23.390625 
Q 47.40625 31.296875 43.53125 35.828125 
Q 39.65625 40.375 33.015625 40.375 
M 52.59375 71.296875 
L 52.59375 62.3125 
Q 48.875 64.0625 45.09375 64.984375 
Q 41.3125 65.921875 37.59375 65.921875 
Q 27.828125 65.921875 22.671875 59.328125 
Q 17.53125 52.734375 16.796875 39.40625 
Q 19.671875 43.65625 24.015625 45.921875 
Q 28.375 48.1875 33.59375 48.1875 
Q 44.578125 48.1875 50.953125 41.515625 
Q 57.328125 34.859375 57.328125 23.390625 
Q 57.328125 12.15625 50.6875 5.359375 
Q 44.046875 -1.421875 33.015625 -1.421875 
Q 20.359375 -1.421875 13.671875 8.265625 
Q 6.984375 17.96875 6.984375 36.375 
Q 6.984375 53.65625 15.1875 63.9375 
Q 23.390625 74.21875 37.203125 74.21875 
Q 40.921875 74.21875 44.703125 73.484375 
Q 48.484375 72.75 52.59375 71.296875 
" id="BitstreamVeraSans-Roman-36"/>
      </defs>
      <g transform="translate(28.240625 172.8775)scale(0.1 -0.1)">
       <use xlink:href="#BitstreamVeraSans-Roman-36"/>
      </g>
     </g>
    </g>
    <g id="ytick_5">
     <g id="line2d_36">
      <path clip-path="url(#p495fdb5998)" d="M 38.603125 145.318125 
L 373.403125 145.318125 
" style="fill:none;stroke:#000000;stroke-dasharray:1.000000,3.000000;stroke-dashoffset:0.0;stroke-width:0.5;"/>
     </g>
     <g id="line2d_37">
      <g>
       <use style="stroke:#000000;stroke-width:0.5;" x="38.603125" xlink:href="#me33f8293f5" y="145.318125"/>
      </g>
     </g>
     <g id="line2d_38">
      <g>
       <use style="stroke:#000000;stroke-width:0.5;" x="373.403125" xlink:href="#m67c7e734a7" y="145.318125"/>
      </g>
     </g>
     <g id="text_13">
      <!-- 8 -->
      <g transform="translate(28.240625 148.0775)scale(0.1 -0.1)">
       <use xlink:href="#BitstreamVeraSans-Roman-38"/>
      </g>
     </g>
    </g>
    <g id="ytick_6">
     <g id="line2d_39">
      <path clip-path="url(#p495fdb5998)" d="M 38.603125 120.518125 
L 373.403125 120.518125 
" style="fill:none;stroke:#000000;stroke-dasharray:1.000000,3.000000;stroke-dashoffset:0.0;stroke-width:0.5;"/>
     </g>
     <g id="line2d_40">
      <g>
       <use style="stroke:#000000;stroke-width:0.5;" x="38.603125" xlink:href="#me33f8293f5" y="120.518125"/>
      </g>
     </g>
     <g id="line2d_41">
      <g>
       <use style="stroke:#000000;stroke-width:0.5;" x="373.403125" xlink:href="#m67c7e734a7" y="120.518125"/>
      </g>
     </g>
     <g id="text_14">
      <!-- 10 -->
      <g transform="translate(21.878125 123.2775)scale(0.1 -0.1)">
       <use xlink:href="#BitstreamVeraSans-Roman-31"/>
       <use x="63.623046875" xlink:href="#BitstreamVeraSans-Roman-30"/>
      </g>
     </g>
    </g>
    <g id="ytick_7">
     <g id="line2d_42">
      <path clip-path="url(#p495fdb5998)" d="M 38.603125 95.718125 
L 373.403125 95.718125 
" style="fill:none;stroke:#000000;stroke-dasharray:1.000000,3.000000;stroke-dashoffset:0.0;stroke-width:0.5;"/>
     </g>
     <g id="line2d_43">
      <g>
       <use style="stroke:#000000;stroke-width:0.5;" x="38.603125" xlink:href="#me33f8293f5" y="95.718125"/>
      </g>
     </g>
     <g id="line2d_44">
      <g>
       <use style="stroke:#000000;stroke-width:0.5;" x="373.403125" xlink:href="#m67c7e734a7" y="95.718125"/>
      </g>
     </g>
     <g id="text_15">
      <!-- 12 -->
      <g transform="translate(21.878125 98.4775)scale(0.1 -0.1)">
       <use xlink:href="#BitstreamVeraSans-Roman-31"/>
       <use x="63.623046875" xlink:href="#BitstreamVeraSans-Roman-32"/>
      </g>
     </g>
    </g>
    <g id="ytick_8">
     <g id="line2d_45">
      <path clip-path="url(#p495fdb5998)" d="M 38.603125 70.918125 
L 373.403125 70.918125 
" style="fill:none;stroke:#000000;stroke-dasharray:1.000000,3.000000;stroke-dashoffset:0.0;stroke-width:0.5;"/>
     </g>
     <g id="line2d_46">
      <g>
       <use style="stroke:#000000;stroke-width:0.5;" x="38.603125" xlink:href="#me33f8293f5" y="70.918125"/>
      </g>
     </g>
     <g id="line2d_47">
      <g>
       <use style="stroke:#000000;stroke-width:0.5;" x="373.403125" xlink:href="#m67c7e734a7" y="70.918125"/>
      </g>
     </g>
     <g id="text_16">
      <!-- 14 -->
      <g transform="translate(21.878125 73.6775)scale(0.1 -0.1)">
       <use xlink:href="#BitstreamVeraSans-Roman-31"/>
       <use x="63.623046875" xlink:href="#BitstreamVeraSans-Roman-34"/>
      </g>
     </g>
    </g>
    <g id="ytick_9">
     <g id="line2d_48">
      <path clip-path="url(#p495fdb5998)" d="M 38.603125 46.118125 
L 373.403125 46.118125 
" style="fill:none;stroke:#000000;stroke-dasharray:1.000000,3.000000;stroke-dashoffset:0.0;stroke-width:0.5;"/>
     </g>
     <g id="line2d_49">
      <g>
       <use style="stroke:#000000;stroke-width:0.5;" x="38.603125" xlink:href="#me33f8293f5" y="46.118125"/>
      </g>
     </g>
     <g id="line2d_50">
      <g>
       <use style="stroke:#000000;stroke-width:0.5;" x="373.403125" xlink:href="#m67c7e734a7" y="46.118125"/>
      </g>
     </g>
     <g id="text_17">
      <!-- 16 -->
      <g transform="translate(21.878125 48.8775)scale(0.1 -0.1)">
       <use xlink:href="#BitstreamVeraSans-Roman-31"/>
       <use x="63.623046875" xlink:href="#BitstreamVeraSans-Roman-36"/>
      </g>
     </g>
    </g>
    <g id="ytick_10">
     <g id="line2d_51">
      <path clip-path="url(#p495fdb5998)" d="M 38.603125 21.318125 
L 373.403125 21.318125 
" style="fill:none;stroke:#000000;stroke-dasharray:1.000000,3.000000;stroke-dashoffset:0.0;stroke-width:0.5;"/>
     </g>
     <g id="line2d_52">
      <g>
       <use style="stroke:#000000;stroke-width:0.5;" x="38.603125" xlink:href="#me33f8293f5" y="21.318125"/>
      </g>
     </g>
     <g id="line2d_53">
      <g>
       <use style="stroke:#000000;stroke-width:0.5;" x="373.403125" xlink:href="#m67c7e734a7" y="21.318125"/>
      </g>
     </g>
     <g id="text_18">
      <!-- 18 -->
      <g transform="translate(21.878125 24.0775)scale(0.1 -0.1)">
       <use xlink:href="#BitstreamVeraSans-Roman-31"/>
       <use x="63.623046875" xlink:href="#BitstreamVeraSans-Roman-38"/>
      </g>
     </g>
    </g>
    <g id="text_19">
     <!-- L1 DCM na linearni generator -->
     <defs>
      <path d="M 19.671875 64.796875 
L 19.671875 8.109375 
L 31.59375 8.109375 
Q 46.6875 8.109375 53.6875 14.9375 
Q 60.6875 21.78125 60.6875 36.53125 
Q 60.6875 51.171875 53.6875 57.984375 
Q 46.6875 64.796875 31.59375 64.796875 
z
M 9.8125 72.90625 
L 30.078125 72.90625 
Q 51.265625 72.90625 61.171875 64.09375 
Q 71.09375 55.28125 71.09375 36.53125 
Q 71.09375 17.671875 61.125 8.828125 
Q 51.171875 0 30.078125 0 
L 9.8125 0 
z
" id="BitstreamVeraSans-Roman-44"/>
      <path d="M 9.8125 72.90625 
L 24.515625 72.90625 
L 43.109375 23.296875 
L 61.8125 72.90625 
L 76.515625 72.90625 
L 76.515625 0 
L 66.890625 0 
L 66.890625 64.015625 
L 48.09375 14.015625 
L 38.1875 14.015625 
L 19.390625 64.015625 
L 19.390625 0 
L 9.8125 0 
z
" id="BitstreamVeraSans-Roman-4d"/>
      <path d="M 9.8125 72.90625 
L 19.671875 72.90625 
L 19.671875 8.296875 
L 55.171875 8.296875 
L 55.171875 0 
L 9.8125 0 
z
" id="BitstreamVeraSans-Roman-4c"/>
      <path d="M 64.40625 67.28125 
L 64.40625 56.890625 
Q 59.421875 61.53125 53.78125 63.8125 
Q 48.140625 66.109375 41.796875 66.109375 
Q 29.296875 66.109375 22.65625 58.46875 
Q 16.015625 50.828125 16.015625 36.375 
Q 16.015625 21.96875 22.65625 14.328125 
Q 29.296875 6.6875 41.796875 6.6875 
Q 48.140625 6.6875 53.78125 8.984375 
Q 59.421875 11.28125 64.40625 15.921875 
L 64.40625 5.609375 
Q 59.234375 2.09375 53.4375 0.328125 
Q 47.65625 -1.421875 41.21875 -1.421875 
Q 24.65625 -1.421875 15.125 8.703125 
Q 5.609375 18.84375 5.609375 36.375 
Q 5.609375 53.953125 15.125 64.078125 
Q 24.65625 74.21875 41.21875 74.21875 
Q 47.75 74.21875 53.53125 72.484375 
Q 59.328125 70.75 64.40625 67.28125 
" id="BitstreamVeraSans-Roman-43"/>
     </defs>
     <g transform="translate(14.7984375 206.52046875)rotate(-90.0)scale(0.1 -0.1)">
      <use xlink:href="#BitstreamVeraSans-Roman-4c"/>
      <use x="55.712890625" xlink:href="#BitstreamVeraSans-Roman-31"/>
      <use x="119.3359375" xlink:href="#BitstreamVeraSans-Roman-20"/>
      <use x="151.123046875" xlink:href="#BitstreamVeraSans-Roman-44"/>
      <use x="228.125" xlink:href="#BitstreamVeraSans-Roman-43"/>
      <use x="297.94921875" xlink:href="#BitstreamVeraSans-Roman-4d"/>
      <use x="384.228515625" xlink:href="#BitstreamVeraSans-Roman-20"/>
      <use x="416.015625" xlink:href="#BitstreamVeraSans-Roman-6e"/>
      <use x="479.39453125" xlink:href="#BitstreamVeraSans-Roman-61"/>
      <use x="540.673828125" xlink:href="#BitstreamVeraSans-Roman-20"/>
      <use x="572.4609375" xlink:href="#BitstreamVeraSans-Roman-6c"/>
      <use x="600.244140625" xlink:href="#BitstreamVeraSans-Roman-69"/>
      <use x="628.02734375" xlink:href="#BitstreamVeraSans-Roman-6e"/>
      <use x="691.40625" xlink:href="#BitstreamVeraSans-Roman-65"/>
      <use x="752.9296875" xlink:href="#BitstreamVeraSans-Roman-61"/>
      <use x="814.208984375" xlink:href="#BitstreamVeraSans-Roman-72"/>
      <use x="855.306640625" xlink:href="#BitstreamVeraSans-Roman-6e"/>
      <use x="918.685546875" xlink:href="#BitstreamVeraSans-Roman-69"/>
      <use x="946.46875" xlink:href="#BitstreamVeraSans-Roman-20"/>
      <use x="978.255859375" xlink:href="#BitstreamVeraSans-Roman-67"/>
      <use x="1041.732421875" xlink:href="#BitstreamVeraSans-Roman-65"/>
      <use x="1103.255859375" xlink:href="#BitstreamVeraSans-Roman-6e"/>
      <use x="1166.634765625" xlink:href="#BitstreamVeraSans-Roman-65"/>
      <use x="1228.158203125" xlink:href="#BitstreamVeraSans-Roman-72"/>
      <use x="1269.271484375" xlink:href="#BitstreamVeraSans-Roman-61"/>
      <use x="1330.55078125" xlink:href="#BitstreamVeraSans-Roman-74"/>
      <use x="1369.759765625" xlink:href="#BitstreamVeraSans-Roman-6f"/>
      <use x="1430.94140625" xlink:href="#BitstreamVeraSans-Roman-72"/>
     </g>
    </g>
   </g>
   <g id="text_20">
    <!-- datove vypadky L1 cache -->
    <defs>
     <path d="M 2.984375 54.6875 
L 12.5 54.6875 
L 29.59375 8.796875 
L 46.6875 54.6875 
L 56.203125 54.6875 
L 35.6875 0 
L 23.484375 0 
z
" id="BitstreamVeraSans-Roman-76"/>
     <path d="M 32.171875 -5.078125 
Q 28.375 -14.84375 24.75 -17.8125 
Q 21.140625 -20.796875 15.09375 -20.796875 
L 7.90625 -20.796875 
L 7.90625 -13.28125 
L 13.1875 -13.28125 
Q 16.890625 -13.28125 18.9375 -11.515625 
Q 21 -9.765625 23.484375 -3.21875 
L 25.09375 0.875 
L 2.984375 54.6875 
L 12.5 54.6875 
L 29.59375 11.921875 
L 46.6875 54.6875 
L 56.203125 54.6875 
z
" id="BitstreamVeraSans-Roman-79"/>
     <path d="M 45.40625 46.390625 
L 45.40625 75.984375 
L 54.390625 75.984375 
L 54.390625 0 
L 45.40625 0 
L 45.40625 8.203125 
Q 42.578125 3.328125 38.25 0.953125 
Q 33.9375 -1.421875 27.875 -1.421875 
Q 17.96875 -1.421875 11.734375 6.484375 
Q 5.515625 14.40625 5.515625 27.296875 
Q 5.515625 40.1875 11.734375 48.09375 
Q 17.96875 56 27.875 56 
Q 33.9375 56 38.25 53.625 
Q 42.578125 51.265625 45.40625 46.390625 
M 14.796875 27.296875 
Q 14.796875 17.390625 18.875 11.75 
Q 22.953125 6.109375 30.078125 6.109375 
Q 37.203125 6.109375 41.296875 11.75 
Q 45.40625 17.390625 45.40625 27.296875 
Q 45.40625 37.203125 41.296875 42.84375 
Q 37.203125 48.484375 30.078125 48.484375 
Q 22.953125 48.484375 18.875 42.84375 
Q 14.796875 37.203125 14.796875 27.296875 
" id="BitstreamVeraSans-Roman-64"/>
     <path d="M 9.078125 75.984375 
L 18.109375 75.984375 
L 18.109375 31.109375 
L 44.921875 54.6875 
L 56.390625 54.6875 
L 27.390625 29.109375 
L 57.625 0 
L 45.90625 0 
L 18.109375 26.703125 
L 18.109375 0 
L 9.078125 0 
z
" id="BitstreamVeraSans-Roman-6b"/>
    </defs>
    <g transform="translate(129.1796875 16.318125)scale(0.12 -0.12)">
     <use xlink:href="#BitstreamVeraSans-Roman-64"/>
     <use x="63.4765625" xlink:href="#BitstreamVeraSans-Roman-61"/>
     <use x="124.755859375" xlink:href="#BitstreamVeraSans-Roman-74"/>
     <use x="163.96484375" xlink:href="#BitstreamVeraSans-Roman-6f"/>
     <use x="225.146484375" xlink:href="#BitstreamVeraSans-Roman-76"/>
     <use x="284.326171875" xlink:href="#BitstreamVeraSans-Roman-65"/>
     <use x="345.849609375" xlink:href="#BitstreamVeraSans-Roman-20"/>
     <use x="377.63671875" xlink:href="#BitstreamVeraSans-Roman-76"/>
     <use x="436.81640625" xlink:href="#BitstreamVeraSans-Roman-79"/>
     <use x="495.99609375" xlink:href="#BitstreamVeraSans-Roman-70"/>
     <use x="559.47265625" xlink:href="#BitstreamVeraSans-Roman-61"/>
     <use x="620.751953125" xlink:href="#BitstreamVeraSans-Roman-64"/>
     <use x="684.228515625" xlink:href="#BitstreamVeraSans-Roman-6b"/>
     <use x="742.091796875" xlink:href="#BitstreamVeraSans-Roman-79"/>
     <use x="801.271484375" xlink:href="#BitstreamVeraSans-Roman-20"/>
     <use x="833.05859375" xlink:href="#BitstreamVeraSans-Roman-4c"/>
     <use x="888.771484375" xlink:href="#BitstreamVeraSans-Roman-31"/>
     <use x="952.39453125" xlink:href="#BitstreamVeraSans-Roman-20"/>
     <use x="984.181640625" xlink:href="#BitstreamVeraSans-Roman-63"/>
     <use x="1039.162109375" xlink:href="#BitstreamVeraSans-Roman-61"/>
     <use x="1100.44140625" xlink:href="#BitstreamVeraSans-Roman-63"/>
     <use x="1155.421875" xlink:href="#BitstreamVeraSans-Roman-68"/>
     <use x="1218.80078125" xlink:href="#BitstreamVeraSans-Roman-65"/>
    </g>
   </g>
   <g id="legend_1">
    <g id="patch_7">
     <path d="M 260.845 178.7525 
L 367.403125 178.7525 
L 367.403125 87.08375 
L 260.845 87.08375 
z
" style="fill:#ffffff;stroke:#000000;stroke-linejoin:miter;"/>
    </g>
    <g id="line2d_54">
     <path d="M 269.245 96.801875 
L 286.045 96.801875 
" style="fill:none;stroke:#0000ff;stroke-linecap:square;"/>
    </g>
    <g id="line2d_55">
     <g>
      <use style="fill:#0000ff;stroke:#0000ff;stroke-width:0.5;" x="269.245" xlink:href="#m63978c37e7" y="96.801875"/>
      <use style="fill:#0000ff;stroke:#0000ff;stroke-width:0.5;" x="286.045" xlink:href="#m63978c37e7" y="96.801875"/>
     </g>
    </g>
    <g id="text_21">
     <!-- BF = 8 -->
     <defs>
      <path d="M 9.8125 72.90625 
L 51.703125 72.90625 
L 51.703125 64.59375 
L 19.671875 64.59375 
L 19.671875 43.109375 
L 48.578125 43.109375 
L 48.578125 34.8125 
L 19.671875 34.8125 
L 19.671875 0 
L 9.8125 0 
z
" id="BitstreamVeraSans-Roman-46"/>
      <path d="M 10.59375 45.40625 
L 73.1875 45.40625 
L 73.1875 37.203125 
L 10.59375 37.203125 
z
M 10.59375 25.484375 
L 73.1875 25.484375 
L 73.1875 17.1875 
L 10.59375 17.1875 
z
" id="BitstreamVeraSans-Roman-3d"/>
      <path d="M 19.671875 34.8125 
L 19.671875 8.109375 
L 35.5 8.109375 
Q 43.453125 8.109375 47.28125 11.40625 
Q 51.125 14.703125 51.125 21.484375 
Q 51.125 28.328125 47.28125 31.5625 
Q 43.453125 34.8125 35.5 34.8125 
z
M 19.671875 64.796875 
L 19.671875 42.828125 
L 34.28125 42.828125 
Q 41.5 42.828125 45.03125 45.53125 
Q 48.578125 48.25 48.578125 53.8125 
Q 48.578125 59.328125 45.03125 62.0625 
Q 41.5 64.796875 34.28125 64.796875 
z
M 9.8125 72.90625 
L 35.015625 72.90625 
Q 46.296875 72.90625 52.390625 68.21875 
Q 58.5 63.53125 58.5 54.890625 
Q 58.5 48.1875 55.375 44.234375 
Q 52.25 40.28125 46.1875 39.3125 
Q 53.46875 37.75 57.5 32.78125 
Q 61.53125 27.828125 61.53125 20.40625 
Q 61.53125 10.640625 54.890625 5.3125 
Q 48.25 0 35.984375 0 
L 9.8125 0 
z
" id="BitstreamVeraSans-Roman-42"/>
     </defs>
     <g transform="translate(299.245 101.001875)scale(0.12 -0.12)">
      <use xlink:href="#BitstreamVeraSans-Roman-42"/>
      <use x="68.603515625" xlink:href="#BitstreamVeraSans-Roman-46"/>
      <use x="126.123046875" xlink:href="#BitstreamVeraSans-Roman-20"/>
      <use x="157.91015625" xlink:href="#BitstreamVeraSans-Roman-3d"/>
      <use x="241.69921875" xlink:href="#BitstreamVeraSans-Roman-20"/>
      <use x="273.486328125" xlink:href="#BitstreamVeraSans-Roman-38"/>
     </g>
    </g>
    <g id="line2d_56">
     <path d="M 269.245 114.415625 
L 286.045 114.415625 
" style="fill:none;stroke:#008000;stroke-linecap:square;"/>
    </g>
    <g id="line2d_57">
     <g>
      <use style="fill:#008000;stroke:#008000;stroke-width:0.5;" x="269.245" xlink:href="#m29c1a511f4" y="114.415625"/>
      <use style="fill:#008000;stroke:#008000;stroke-width:0.5;" x="286.045" xlink:href="#m29c1a511f4" y="114.415625"/>
     </g>
    </g>
    <g id="text_22">
     <!-- BF = 16 -->
     <g transform="translate(299.245 118.615625)scale(0.12 -0.12)">
      <use xlink:href="#BitstreamVeraSans-Roman-42"/>
      <use x="68.603515625" xlink:href="#BitstreamVeraSans-Roman-46"/>
      <use x="126.123046875" xlink:href="#BitstreamVeraSans-Roman-20"/>
      <use x="157.91015625" xlink:href="#BitstreamVeraSans-Roman-3d"/>
      <use x="241.69921875" xlink:href="#BitstreamVeraSans-Roman-20"/>
      <use x="273.486328125" xlink:href="#BitstreamVeraSans-Roman-31"/>
      <use x="337.109375" xlink:href="#BitstreamVeraSans-Roman-36"/>
     </g>
    </g>
    <g id="line2d_58">
     <path d="M 269.245 132.029375 
L 286.045 132.029375 
" style="fill:none;stroke:#ff0000;stroke-linecap:square;"/>
    </g>
    <g id="line2d_59">
     <g>
      <use style="fill:#ff0000;stroke:#ff0000;stroke-width:0.5;" x="269.245" xlink:href="#m8ba9c96348" y="132.029375"/>
      <use style="fill:#ff0000;stroke:#ff0000;stroke-width:0.5;" x="286.045" xlink:href="#m8ba9c96348" y="132.029375"/>
     </g>
    </g>
    <g id="text_23">
     <!-- BF = 32 -->
     <defs>
      <path d="M 40.578125 39.3125 
Q 47.65625 37.796875 51.625 33 
Q 55.609375 28.21875 55.609375 21.1875 
Q 55.609375 10.40625 48.1875 4.484375 
Q 40.765625 -1.421875 27.09375 -1.421875 
Q 22.515625 -1.421875 17.65625 -0.515625 
Q 12.796875 0.390625 7.625 2.203125 
L 7.625 11.71875 
Q 11.71875 9.328125 16.59375 8.109375 
Q 21.484375 6.890625 26.8125 6.890625 
Q 36.078125 6.890625 40.9375 10.546875 
Q 45.796875 14.203125 45.796875 21.1875 
Q 45.796875 27.640625 41.28125 31.265625 
Q 36.765625 34.90625 28.71875 34.90625 
L 20.21875 34.90625 
L 20.21875 43.015625 
L 29.109375 43.015625 
Q 36.375 43.015625 40.234375 45.921875 
Q 44.09375 48.828125 44.09375 54.296875 
Q 44.09375 59.90625 40.109375 62.90625 
Q 36.140625 65.921875 28.71875 65.921875 
Q 24.65625 65.921875 20.015625 65.03125 
Q 15.375 64.15625 9.8125 62.3125 
L 9.8125 71.09375 
Q 15.4375 72.65625 20.34375 73.4375 
Q 25.25 74.21875 29.59375 74.21875 
Q 40.828125 74.21875 47.359375 69.109375 
Q 53.90625 64.015625 53.90625 55.328125 
Q 53.90625 49.265625 50.4375 45.09375 
Q 46.96875 40.921875 40.578125 39.3125 
" id="BitstreamVeraSans-Roman-33"/>
     </defs>
     <g transform="translate(299.245 136.229375)scale(0.12 -0.12)">
      <use xlink:href="#BitstreamVeraSans-Roman-42"/>
      <use x="68.603515625" xlink:href="#BitstreamVeraSans-Roman-46"/>
      <use x="126.123046875" xlink:href="#BitstreamVeraSans-Roman-20"/>
      <use x="157.91015625" xlink:href="#BitstreamVeraSans-Roman-3d"/>
      <use x="241.69921875" xlink:href="#BitstreamVeraSans-Roman-20"/>
      <use x="273.486328125" xlink:href="#BitstreamVeraSans-Roman-33"/>
      <use x="337.109375" xlink:href="#BitstreamVeraSans-Roman-32"/>
     </g>
    </g>
    <g id="line2d_60">
     <path d="M 269.245 149.643125 
L 286.045 149.643125 
" style="fill:none;stroke:#00bfbf;stroke-linecap:square;"/>
    </g>
    <g id="line2d_61">
     <g>
      <use style="fill:#00bfbf;stroke:#00bfbf;stroke-width:0.5;" x="269.245" xlink:href="#m9d973759b5" y="149.643125"/>
      <use style="fill:#00bfbf;stroke:#00bfbf;stroke-width:0.5;" x="286.045" xlink:href="#m9d973759b5" y="149.643125"/>
     </g>
    </g>
    <g id="text_24">
     <!-- BF = 512 -->
     <g transform="translate(299.245 153.843125)scale(0.12 -0.12)">
      <use xlink:href="#BitstreamVeraSans-Roman-42"/>
      <use x="68.603515625" xlink:href="#BitstreamVeraSans-Roman-46"/>
      <use x="126.123046875" xlink:href="#BitstreamVeraSans-Roman-20"/>
      <use x="157.91015625" xlink:href="#BitstreamVeraSans-Roman-3d"/>
      <use x="241.69921875" xlink:href="#BitstreamVeraSans-Roman-20"/>
      <use x="273.486328125" xlink:href="#BitstreamVeraSans-Roman-35"/>
      <use x="337.109375" xlink:href="#BitstreamVeraSans-Roman-31"/>
      <use x="400.732421875" xlink:href="#BitstreamVeraSans-Roman-32"/>
     </g>
    </g>
    <g id="line2d_62">
     <path d="M 269.245 167.256875 
L 286.045 167.256875 
" style="fill:none;stroke:#bf00bf;stroke-linecap:square;"/>
    </g>
    <g id="line2d_63">
     <g>
      <use style="fill:#bf00bf;stroke:#bf00bf;stroke-width:0.5;" x="269.245" xlink:href="#m59aa1da6cb" y="167.256875"/>
      <use style="fill:#bf00bf;stroke:#bf00bf;stroke-width:0.5;" x="286.045" xlink:href="#m59aa1da6cb" y="167.256875"/>
     </g>
    </g>
    <g id="text_25">
     <!-- BF = 1186 -->
     <g transform="translate(299.245 171.456875)scale(0.12 -0.12)">
      <use xlink:href="#BitstreamVeraSans-Roman-42"/>
      <use x="68.603515625" xlink:href="#BitstreamVeraSans-Roman-46"/>
      <use x="126.123046875" xlink:href="#BitstreamVeraSans-Roman-20"/>
      <use x="157.91015625" xlink:href="#BitstreamVeraSans-Roman-3d"/>
      <use x="241.69921875" xlink:href="#BitstreamVeraSans-Roman-20"/>
      <use x="273.486328125" xlink:href="#BitstreamVeraSans-Roman-31"/>
      <use x="337.109375" xlink:href="#BitstreamVeraSans-Roman-31"/>
      <use x="400.732421875" xlink:href="#BitstreamVeraSans-Roman-38"/>
      <use x="464.35546875" xlink:href="#BitstreamVeraSans-Roman-36"/>
     </g>
    </g>
   </g>
  </g>
 </g>
 <defs>
  <clipPath id="p495fdb5998">
   <rect height="223.2" width="334.8" x="38.603125" y="21.318125"/>
  </clipPath>
 </defs>
</svg>
