<?xml version="1.0" encoding="utf-8" standalone="no"?>
<!DOCTYPE svg PUBLIC "-//W3C//DTD SVG 1.1//EN"
  "http://www.w3.org/Graphics/SVG/1.1/DTD/svg11.dtd">
<!-- Created with matplotlib (http://matplotlib.org/) -->
<svg height="280pt" version="1.1" viewBox="0 0 391 280" width="391pt" xmlns="http://www.w3.org/2000/svg" xmlns:xlink="http://www.w3.org/1999/xlink">
 <defs>
  <style type="text/css">
*{stroke-linecap:butt;stroke-linejoin:round;stroke-miterlimit:100000;}
  </style>
 </defs>
 <g id="figure_1">
  <g id="patch_1">
   <path d="M 0 280.074375 
L 391.732813 280.074375 
L 391.732813 0 
L 0 0 
z
" style="fill:#ffffff;"/>
  </g>
  <g id="axes_1">
   <g id="patch_2">
    <path d="M 41.78125 244.518125 
L 376.58125 244.518125 
L 376.58125 21.318125 
L 41.78125 21.318125 
z
" style="fill:#ffffff;"/>
   </g>
   <g id="line2d_1">
    <path clip-path="url(#pf560e342bd)" d="M 55.17325 221.250386 
L 68.56525 222.856549 
L 81.95725 221.426278 
L 95.34925 221.570415 
L 108.74125 221.634507 
L 122.13325 220.735107 
L 135.52525 231.476768 
L 148.91725 221.557601 
L 162.30925 221.482546 
L 175.70125 221.377046 
L 189.09325 221.620553 
L 202.48525 222.801464 
L 215.87725 221.668413 
L 229.26925 221.507337 
L 242.66125 221.813528 
L 256.05325 221.5795 
L 269.44525 232.148705 
L 282.83725 221.618303 
L 296.22925 221.367412 
L 309.62125 221.589988 
L 323.01325 221.57996 
L 336.40525 222.941884 
L 349.79725 221.56654 
L 363.18925 231.425089 
L 376.58125 221.833819 
" style="fill:none;stroke:#0000ff;stroke-linecap:square;"/>
    <defs>
     <path d="M 0 1.5 
C 0.397805 1.5 0.77937 1.341951 1.06066 1.06066 
C 1.341951 0.77937 1.5 0.397805 1.5 0 
C 1.5 -0.397805 1.341951 -0.77937 1.06066 -1.06066 
C 0.77937 -1.341951 0.397805 -1.5 0 -1.5 
C -0.397805 -1.5 -0.77937 -1.341951 -1.06066 -1.06066 
C -1.341951 -0.77937 -1.5 -0.397805 -1.5 0 
C -1.5 0.397805 -1.341951 0.77937 -1.06066 1.06066 
C -0.77937 1.341951 -0.397805 1.5 0 1.5 
z
" id="m21f41c79f6" style="stroke:#0000ff;stroke-width:0.5;"/>
    </defs>
    <g clip-path="url(#pf560e342bd)">
     <use style="fill:#0000ff;stroke:#0000ff;stroke-width:0.5;" x="55.17325" xlink:href="#m21f41c79f6" y="221.250385914"/>
     <use style="fill:#0000ff;stroke:#0000ff;stroke-width:0.5;" x="68.56525" xlink:href="#m21f41c79f6" y="222.856549057"/>
     <use style="fill:#0000ff;stroke:#0000ff;stroke-width:0.5;" x="81.95725" xlink:href="#m21f41c79f6" y="221.426278143"/>
     <use style="fill:#0000ff;stroke:#0000ff;stroke-width:0.5;" x="95.34925" xlink:href="#m21f41c79f6" y="221.570414857"/>
     <use style="fill:#0000ff;stroke:#0000ff;stroke-width:0.5;" x="108.74125" xlink:href="#m21f41c79f6" y="221.634506737"/>
     <use style="fill:#0000ff;stroke:#0000ff;stroke-width:0.5;" x="122.13325" xlink:href="#m21f41c79f6" y="220.735107457"/>
     <use style="fill:#0000ff;stroke:#0000ff;stroke-width:0.5;" x="135.52525" xlink:href="#m21f41c79f6" y="231.476767645"/>
     <use style="fill:#0000ff;stroke:#0000ff;stroke-width:0.5;" x="148.91725" xlink:href="#m21f41c79f6" y="221.557600786"/>
     <use style="fill:#0000ff;stroke:#0000ff;stroke-width:0.5;" x="162.30925" xlink:href="#m21f41c79f6" y="221.4825458"/>
     <use style="fill:#0000ff;stroke:#0000ff;stroke-width:0.5;" x="175.70125" xlink:href="#m21f41c79f6" y="221.377045537"/>
     <use style="fill:#0000ff;stroke:#0000ff;stroke-width:0.5;" x="189.09325" xlink:href="#m21f41c79f6" y="221.620552969"/>
     <use style="fill:#0000ff;stroke:#0000ff;stroke-width:0.5;" x="202.48525" xlink:href="#m21f41c79f6" y="222.801463829"/>
     <use style="fill:#0000ff;stroke:#0000ff;stroke-width:0.5;" x="215.87725" xlink:href="#m21f41c79f6" y="221.668412534"/>
     <use style="fill:#0000ff;stroke:#0000ff;stroke-width:0.5;" x="229.26925" xlink:href="#m21f41c79f6" y="221.507336943"/>
     <use style="fill:#0000ff;stroke:#0000ff;stroke-width:0.5;" x="242.66125" xlink:href="#m21f41c79f6" y="221.813528017"/>
     <use style="fill:#0000ff;stroke:#0000ff;stroke-width:0.5;" x="256.05325" xlink:href="#m21f41c79f6" y="221.579500293"/>
     <use style="fill:#0000ff;stroke:#0000ff;stroke-width:0.5;" x="269.44525" xlink:href="#m21f41c79f6" y="232.148705484"/>
     <use style="fill:#0000ff;stroke:#0000ff;stroke-width:0.5;" x="282.83725" xlink:href="#m21f41c79f6" y="221.618302771"/>
     <use style="fill:#0000ff;stroke:#0000ff;stroke-width:0.5;" x="296.22925" xlink:href="#m21f41c79f6" y="221.36741152"/>
     <use style="fill:#0000ff;stroke:#0000ff;stroke-width:0.5;" x="309.62125" xlink:href="#m21f41c79f6" y="221.589987903"/>
     <use style="fill:#0000ff;stroke:#0000ff;stroke-width:0.5;" x="323.01325" xlink:href="#m21f41c79f6" y="221.579959694"/>
     <use style="fill:#0000ff;stroke:#0000ff;stroke-width:0.5;" x="336.40525" xlink:href="#m21f41c79f6" y="222.941883925"/>
     <use style="fill:#0000ff;stroke:#0000ff;stroke-width:0.5;" x="349.79725" xlink:href="#m21f41c79f6" y="221.566539703"/>
     <use style="fill:#0000ff;stroke:#0000ff;stroke-width:0.5;" x="363.18925" xlink:href="#m21f41c79f6" y="231.425089443"/>
     <use style="fill:#0000ff;stroke:#0000ff;stroke-width:0.5;" x="376.58125" xlink:href="#m21f41c79f6" y="221.833819235"/>
    </g>
   </g>
   <g id="line2d_2">
    <path clip-path="url(#pf560e342bd)" d="M 55.17325 226.592359 
L 68.56525 227.172567 
L 81.95725 227.159989 
L 95.34925 227.309596 
L 108.74125 226.554415 
L 122.13325 227.21471 
L 135.52525 230.807714 
L 148.91725 226.708036 
L 162.30925 227.101857 
L 175.70125 226.787452 
L 189.09325 227.216458 
L 202.48525 227.081257 
L 215.87725 226.702625 
L 229.26925 227.156784 
L 242.66125 226.550963 
L 256.05325 226.817608 
L 269.44525 234.381201 
L 282.83725 226.667101 
L 296.22925 226.468396 
L 309.62125 226.892475 
L 323.01325 227.2436 
L 336.40525 227.230521 
L 349.79725 226.553242 
L 363.18925 230.95475 
L 376.58125 227.090918 
" style="fill:none;stroke:#008000;stroke-linecap:square;"/>
    <defs>
     <path d="M 0 1.5 
C 0.397805 1.5 0.77937 1.341951 1.06066 1.06066 
C 1.341951 0.77937 1.5 0.397805 1.5 0 
C 1.5 -0.397805 1.341951 -0.77937 1.06066 -1.06066 
C 0.77937 -1.341951 0.397805 -1.5 0 -1.5 
C -0.397805 -1.5 -0.77937 -1.341951 -1.06066 -1.06066 
C -1.341951 -0.77937 -1.5 -0.397805 -1.5 0 
C -1.5 0.397805 -1.341951 0.77937 -1.06066 1.06066 
C -0.77937 1.341951 -0.397805 1.5 0 1.5 
z
" id="m0b32370545" style="stroke:#008000;stroke-width:0.5;"/>
    </defs>
    <g clip-path="url(#pf560e342bd)">
     <use style="fill:#008000;stroke:#008000;stroke-width:0.5;" x="55.17325" xlink:href="#m0b32370545" y="226.592359057"/>
     <use style="fill:#008000;stroke:#008000;stroke-width:0.5;" x="68.56525" xlink:href="#m0b32370545" y="227.172567457"/>
     <use style="fill:#008000;stroke:#008000;stroke-width:0.5;" x="81.95725" xlink:href="#m0b32370545" y="227.159988543"/>
     <use style="fill:#008000;stroke:#008000;stroke-width:0.5;" x="95.34925" xlink:href="#m0b32370545" y="227.309596314"/>
     <use style="fill:#008000;stroke:#008000;stroke-width:0.5;" x="108.74125" xlink:href="#m0b32370545" y="226.554415057"/>
     <use style="fill:#008000;stroke:#008000;stroke-width:0.5;" x="122.13325" xlink:href="#m0b32370545" y="227.214709743"/>
     <use style="fill:#008000;stroke:#008000;stroke-width:0.5;" x="135.52525" xlink:href="#m0b32370545" y="230.807714257"/>
     <use style="fill:#008000;stroke:#008000;stroke-width:0.5;" x="148.91725" xlink:href="#m0b32370545" y="226.708036443"/>
     <use style="fill:#008000;stroke:#008000;stroke-width:0.5;" x="162.30925" xlink:href="#m0b32370545" y="227.101857343"/>
     <use style="fill:#008000;stroke:#008000;stroke-width:0.5;" x="175.70125" xlink:href="#m0b32370545" y="226.7874518"/>
     <use style="fill:#008000;stroke:#008000;stroke-width:0.5;" x="189.09325" xlink:href="#m0b32370545" y="227.216458143"/>
     <use style="fill:#008000;stroke:#008000;stroke-width:0.5;" x="202.48525" xlink:href="#m0b32370545" y="227.0812574"/>
     <use style="fill:#008000;stroke:#008000;stroke-width:0.5;" x="215.87725" xlink:href="#m0b32370545" y="226.702624763"/>
     <use style="fill:#008000;stroke:#008000;stroke-width:0.5;" x="229.26925" xlink:href="#m0b32370545" y="227.156784029"/>
     <use style="fill:#008000;stroke:#008000;stroke-width:0.5;" x="242.66125" xlink:href="#m0b32370545" y="226.550962897"/>
     <use style="fill:#008000;stroke:#008000;stroke-width:0.5;" x="256.05325" xlink:href="#m0b32370545" y="226.817607714"/>
     <use style="fill:#008000;stroke:#008000;stroke-width:0.5;" x="269.44525" xlink:href="#m0b32370545" y="234.38120065"/>
     <use style="fill:#008000;stroke:#008000;stroke-width:0.5;" x="282.83725" xlink:href="#m0b32370545" y="226.667100943"/>
     <use style="fill:#008000;stroke:#008000;stroke-width:0.5;" x="296.22925" xlink:href="#m0b32370545" y="226.468395791"/>
     <use style="fill:#008000;stroke:#008000;stroke-width:0.5;" x="309.62125" xlink:href="#m0b32370545" y="226.892475371"/>
     <use style="fill:#008000;stroke:#008000;stroke-width:0.5;" x="323.01325" xlink:href="#m0b32370545" y="227.243600478"/>
     <use style="fill:#008000;stroke:#008000;stroke-width:0.5;" x="336.40525" xlink:href="#m0b32370545" y="227.230521192"/>
     <use style="fill:#008000;stroke:#008000;stroke-width:0.5;" x="349.79725" xlink:href="#m0b32370545" y="226.553242217"/>
     <use style="fill:#008000;stroke:#008000;stroke-width:0.5;" x="363.18925" xlink:href="#m0b32370545" y="230.954749914"/>
     <use style="fill:#008000;stroke:#008000;stroke-width:0.5;" x="376.58125" xlink:href="#m0b32370545" y="227.090917709"/>
    </g>
   </g>
   <g id="line2d_3">
    <path clip-path="url(#pf560e342bd)" d="M 55.17325 210.33935 
L 68.56525 212.05944 
L 81.95725 210.298918 
L 95.34925 210.278105 
L 108.74125 210.324548 
L 122.13325 210.368403 
L 135.52525 203.463596 
L 148.91725 210.353236 
L 162.30925 210.441968 
L 175.70125 210.360981 
L 189.09325 210.459869 
L 202.48525 212.070018 
L 215.87725 210.445826 
L 229.26925 210.287927 
L 242.66125 210.370604 
L 256.05325 210.354974 
L 269.44525 51.469324 
L 282.83725 210.349085 
L 296.22925 210.352585 
L 309.62125 210.305809 
L 323.01325 210.233222 
L 336.40525 212.081092 
L 349.79725 210.429312 
L 363.18925 203.37896 
L 376.58125 210.320554 
" style="fill:none;stroke:#ff0000;stroke-linecap:square;"/>
    <defs>
     <path d="M 0 1.5 
C 0.397805 1.5 0.77937 1.341951 1.06066 1.06066 
C 1.341951 0.77937 1.5 0.397805 1.5 0 
C 1.5 -0.397805 1.341951 -0.77937 1.06066 -1.06066 
C 0.77937 -1.341951 0.397805 -1.5 0 -1.5 
C -0.397805 -1.5 -0.77937 -1.341951 -1.06066 -1.06066 
C -1.341951 -0.77937 -1.5 -0.397805 -1.5 0 
C -1.5 0.397805 -1.341951 0.77937 -1.06066 1.06066 
C -0.77937 1.341951 -0.397805 1.5 0 1.5 
z
" id="m313b943659" style="stroke:#ff0000;stroke-width:0.5;"/>
    </defs>
    <g clip-path="url(#pf560e342bd)">
     <use style="fill:#ff0000;stroke:#ff0000;stroke-width:0.5;" x="55.17325" xlink:href="#m313b943659" y="210.339349571"/>
     <use style="fill:#ff0000;stroke:#ff0000;stroke-width:0.5;" x="68.56525" xlink:href="#m313b943659" y="212.059440371"/>
     <use style="fill:#ff0000;stroke:#ff0000;stroke-width:0.5;" x="81.95725" xlink:href="#m313b943659" y="210.298918486"/>
     <use style="fill:#ff0000;stroke:#ff0000;stroke-width:0.5;" x="95.34925" xlink:href="#m313b943659" y="210.278105086"/>
     <use style="fill:#ff0000;stroke:#ff0000;stroke-width:0.5;" x="108.74125" xlink:href="#m313b943659" y="210.324548223"/>
     <use style="fill:#ff0000;stroke:#ff0000;stroke-width:0.5;" x="122.13325" xlink:href="#m313b943659" y="210.368402771"/>
     <use style="fill:#ff0000;stroke:#ff0000;stroke-width:0.5;" x="135.52525" xlink:href="#m313b943659" y="203.463596135"/>
     <use style="fill:#ff0000;stroke:#ff0000;stroke-width:0.5;" x="148.91725" xlink:href="#m313b943659" y="210.3532358"/>
     <use style="fill:#ff0000;stroke:#ff0000;stroke-width:0.5;" x="162.30925" xlink:href="#m313b943659" y="210.441968429"/>
     <use style="fill:#ff0000;stroke:#ff0000;stroke-width:0.5;" x="175.70125" xlink:href="#m313b943659" y="210.36098084"/>
     <use style="fill:#ff0000;stroke:#ff0000;stroke-width:0.5;" x="189.09325" xlink:href="#m313b943659" y="210.459868875"/>
     <use style="fill:#ff0000;stroke:#ff0000;stroke-width:0.5;" x="202.48525" xlink:href="#m313b943659" y="212.070018457"/>
     <use style="fill:#ff0000;stroke:#ff0000;stroke-width:0.5;" x="215.87725" xlink:href="#m313b943659" y="210.445825782"/>
     <use style="fill:#ff0000;stroke:#ff0000;stroke-width:0.5;" x="229.26925" xlink:href="#m313b943659" y="210.287927024"/>
     <use style="fill:#ff0000;stroke:#ff0000;stroke-width:0.5;" x="242.66125" xlink:href="#m313b943659" y="210.370603949"/>
     <use style="fill:#ff0000;stroke:#ff0000;stroke-width:0.5;" x="256.05325" xlink:href="#m313b943659" y="210.354973571"/>
     <use style="fill:#ff0000;stroke:#ff0000;stroke-width:0.5;" x="269.44525" xlink:href="#m313b943659" y="51.4693239513"/>
     <use style="fill:#ff0000;stroke:#ff0000;stroke-width:0.5;" x="282.83725" xlink:href="#m313b943659" y="210.349085343"/>
     <use style="fill:#ff0000;stroke:#ff0000;stroke-width:0.5;" x="296.22925" xlink:href="#m313b943659" y="210.352585499"/>
     <use style="fill:#ff0000;stroke:#ff0000;stroke-width:0.5;" x="309.62125" xlink:href="#m313b943659" y="210.305808989"/>
     <use style="fill:#ff0000;stroke:#ff0000;stroke-width:0.5;" x="323.01325" xlink:href="#m313b943659" y="210.233221767"/>
     <use style="fill:#ff0000;stroke:#ff0000;stroke-width:0.5;" x="336.40525" xlink:href="#m313b943659" y="212.081092221"/>
     <use style="fill:#ff0000;stroke:#ff0000;stroke-width:0.5;" x="349.79725" xlink:href="#m313b943659" y="210.429311648"/>
     <use style="fill:#ff0000;stroke:#ff0000;stroke-width:0.5;" x="363.18925" xlink:href="#m313b943659" y="203.378959871"/>
     <use style="fill:#ff0000;stroke:#ff0000;stroke-width:0.5;" x="376.58125" xlink:href="#m313b943659" y="210.320553581"/>
    </g>
   </g>
   <g id="line2d_4">
    <path clip-path="url(#pf560e342bd)" d="M 55.17325 220.501805 
L 68.56525 221.187268 
L 81.95725 221.058923 
L 95.34925 220.845589 
L 108.74125 220.89884 
L 122.13325 220.951128 
L 135.52525 213.691773 
L 148.91725 221.008768 
L 162.30925 221.013755 
L 175.70125 220.944659 
L 189.09325 221.015823 
L 202.48525 221.281878 
L 215.87725 221.009293 
L 229.26925 221.167882 
L 242.66125 220.92093 
L 256.05325 220.928352 
L 269.44525 210.412158 
L 282.83725 221.062726 
L 296.22925 220.946178 
L 309.62125 221.117422 
L 323.01325 220.78411 
L 336.40525 221.256457 
L 349.79725 220.951614 
L 363.18925 213.223994 
L 376.58125 220.972308 
" style="fill:none;stroke:#00bfbf;stroke-linecap:square;"/>
    <defs>
     <path d="M 0 1.5 
C 0.397805 1.5 0.77937 1.341951 1.06066 1.06066 
C 1.341951 0.77937 1.5 0.397805 1.5 0 
C 1.5 -0.397805 1.341951 -0.77937 1.06066 -1.06066 
C 0.77937 -1.341951 0.397805 -1.5 0 -1.5 
C -0.397805 -1.5 -0.77937 -1.341951 -1.06066 -1.06066 
C -1.341951 -0.77937 -1.5 -0.397805 -1.5 0 
C -1.5 0.397805 -1.341951 0.77937 -1.06066 1.06066 
C -0.77937 1.341951 -0.397805 1.5 0 1.5 
z
" id="ma4d9194397" style="stroke:#00bfbf;stroke-width:0.5;"/>
    </defs>
    <g clip-path="url(#pf560e342bd)">
     <use style="fill:#00bfbf;stroke:#00bfbf;stroke-width:0.5;" x="55.17325" xlink:href="#ma4d9194397" y="220.501805"/>
     <use style="fill:#00bfbf;stroke:#00bfbf;stroke-width:0.5;" x="68.56525" xlink:href="#ma4d9194397" y="221.187268143"/>
     <use style="fill:#00bfbf;stroke:#00bfbf;stroke-width:0.5;" x="81.95725" xlink:href="#ma4d9194397" y="221.058922829"/>
     <use style="fill:#00bfbf;stroke:#00bfbf;stroke-width:0.5;" x="95.34925" xlink:href="#ma4d9194397" y="220.8455888"/>
     <use style="fill:#00bfbf;stroke:#00bfbf;stroke-width:0.5;" x="108.74125" xlink:href="#ma4d9194397" y="220.898839537"/>
     <use style="fill:#00bfbf;stroke:#00bfbf;stroke-width:0.5;" x="122.13325" xlink:href="#ma4d9194397" y="220.951127857"/>
     <use style="fill:#00bfbf;stroke:#00bfbf;stroke-width:0.5;" x="135.52525" xlink:href="#ma4d9194397" y="213.691772576"/>
     <use style="fill:#00bfbf;stroke:#00bfbf;stroke-width:0.5;" x="148.91725" xlink:href="#ma4d9194397" y="221.008767929"/>
     <use style="fill:#00bfbf;stroke:#00bfbf;stroke-width:0.5;" x="162.30925" xlink:href="#ma4d9194397" y="221.013754943"/>
     <use style="fill:#00bfbf;stroke:#00bfbf;stroke-width:0.5;" x="175.70125" xlink:href="#ma4d9194397" y="220.944659309"/>
     <use style="fill:#00bfbf;stroke:#00bfbf;stroke-width:0.5;" x="189.09325" xlink:href="#ma4d9194397" y="221.015823005"/>
     <use style="fill:#00bfbf;stroke:#00bfbf;stroke-width:0.5;" x="202.48525" xlink:href="#ma4d9194397" y="221.281878371"/>
     <use style="fill:#00bfbf;stroke:#00bfbf;stroke-width:0.5;" x="215.87725" xlink:href="#ma4d9194397" y="221.009293123"/>
     <use style="fill:#00bfbf;stroke:#00bfbf;stroke-width:0.5;" x="229.26925" xlink:href="#ma4d9194397" y="221.167881629"/>
     <use style="fill:#00bfbf;stroke:#00bfbf;stroke-width:0.5;" x="242.66125" xlink:href="#ma4d9194397" y="220.92092996"/>
     <use style="fill:#00bfbf;stroke:#00bfbf;stroke-width:0.5;" x="256.05325" xlink:href="#ma4d9194397" y="220.928352157"/>
     <use style="fill:#00bfbf;stroke:#00bfbf;stroke-width:0.5;" x="269.44525" xlink:href="#ma4d9194397" y="210.412157787"/>
     <use style="fill:#00bfbf;stroke:#00bfbf;stroke-width:0.5;" x="282.83725" xlink:href="#ma4d9194397" y="221.062726086"/>
     <use style="fill:#00bfbf;stroke:#00bfbf;stroke-width:0.5;" x="296.22925" xlink:href="#ma4d9194397" y="220.94617774"/>
     <use style="fill:#00bfbf;stroke:#00bfbf;stroke-width:0.5;" x="309.62125" xlink:href="#ma4d9194397" y="221.117422486"/>
     <use style="fill:#00bfbf;stroke:#00bfbf;stroke-width:0.5;" x="323.01325" xlink:href="#ma4d9194397" y="220.784110486"/>
     <use style="fill:#00bfbf;stroke:#00bfbf;stroke-width:0.5;" x="336.40525" xlink:href="#ma4d9194397" y="221.256457244"/>
     <use style="fill:#00bfbf;stroke:#00bfbf;stroke-width:0.5;" x="349.79725" xlink:href="#ma4d9194397" y="220.951613999"/>
     <use style="fill:#00bfbf;stroke:#00bfbf;stroke-width:0.5;" x="363.18925" xlink:href="#ma4d9194397" y="213.223994343"/>
     <use style="fill:#00bfbf;stroke:#00bfbf;stroke-width:0.5;" x="376.58125" xlink:href="#ma4d9194397" y="220.972308049"/>
    </g>
   </g>
   <g id="patch_3">
    <path d="M 376.58125 244.518125 
L 376.58125 21.318125 
" style="fill:none;stroke:#000000;stroke-linecap:square;stroke-linejoin:miter;"/>
   </g>
   <g id="patch_4">
    <path d="M 41.78125 244.518125 
L 376.58125 244.518125 
" style="fill:none;stroke:#000000;stroke-linecap:square;stroke-linejoin:miter;"/>
   </g>
   <g id="patch_5">
    <path d="M 41.78125 21.318125 
L 376.58125 21.318125 
" style="fill:none;stroke:#000000;stroke-linecap:square;stroke-linejoin:miter;"/>
   </g>
   <g id="patch_6">
    <path d="M 41.78125 244.518125 
L 41.78125 21.318125 
" style="fill:none;stroke:#000000;stroke-linecap:square;stroke-linejoin:miter;"/>
   </g>
   <g id="matplotlib.axis_1">
    <g id="xtick_1">
     <g id="line2d_5">
      <path clip-path="url(#pf560e342bd)" d="M 41.78125 244.518125 
L 41.78125 21.318125 
" style="fill:none;stroke:#000000;stroke-dasharray:1.000000,3.000000;stroke-dashoffset:0.0;stroke-width:0.5;"/>
     </g>
     <g id="line2d_6">
      <defs>
       <path d="M 0 0 
L 0 -4 
" id="m7eecec21f7" style="stroke:#000000;stroke-width:0.5;"/>
      </defs>
      <g>
       <use style="stroke:#000000;stroke-width:0.5;" x="41.78125" xlink:href="#m7eecec21f7" y="244.518125"/>
      </g>
     </g>
     <g id="line2d_7">
      <defs>
       <path d="M 0 0 
L 0 4 
" id="m46f6d64072" style="stroke:#000000;stroke-width:0.5;"/>
      </defs>
      <g>
       <use style="stroke:#000000;stroke-width:0.5;" x="41.78125" xlink:href="#m46f6d64072" y="21.318125"/>
      </g>
     </g>
     <g id="text_1">
      <!-- 0.0 -->
      <defs>
       <path d="M 31.78125 66.40625 
Q 24.171875 66.40625 20.328125 58.90625 
Q 16.5 51.421875 16.5 36.375 
Q 16.5 21.390625 20.328125 13.890625 
Q 24.171875 6.390625 31.78125 6.390625 
Q 39.453125 6.390625 43.28125 13.890625 
Q 47.125 21.390625 47.125 36.375 
Q 47.125 51.421875 43.28125 58.90625 
Q 39.453125 66.40625 31.78125 66.40625 
M 31.78125 74.21875 
Q 44.046875 74.21875 50.515625 64.515625 
Q 56.984375 54.828125 56.984375 36.375 
Q 56.984375 17.96875 50.515625 8.265625 
Q 44.046875 -1.421875 31.78125 -1.421875 
Q 19.53125 -1.421875 13.0625 8.265625 
Q 6.59375 17.96875 6.59375 36.375 
Q 6.59375 54.828125 13.0625 64.515625 
Q 19.53125 74.21875 31.78125 74.21875 
" id="BitstreamVeraSans-Roman-30"/>
       <path d="M 10.6875 12.40625 
L 21 12.40625 
L 21 0 
L 10.6875 0 
z
" id="BitstreamVeraSans-Roman-2e"/>
      </defs>
      <g transform="translate(33.8296875 256.1165625)scale(0.1 -0.1)">
       <use xlink:href="#BitstreamVeraSans-Roman-30"/>
       <use x="63.623046875" xlink:href="#BitstreamVeraSans-Roman-2e"/>
       <use x="95.41015625" xlink:href="#BitstreamVeraSans-Roman-30"/>
      </g>
     </g>
    </g>
    <g id="xtick_2">
     <g id="line2d_8">
      <path clip-path="url(#pf560e342bd)" d="M 108.74125 244.518125 
L 108.74125 21.318125 
" style="fill:none;stroke:#000000;stroke-dasharray:1.000000,3.000000;stroke-dashoffset:0.0;stroke-width:0.5;"/>
     </g>
     <g id="line2d_9">
      <g>
       <use style="stroke:#000000;stroke-width:0.5;" x="108.74125" xlink:href="#m7eecec21f7" y="244.518125"/>
      </g>
     </g>
     <g id="line2d_10">
      <g>
       <use style="stroke:#000000;stroke-width:0.5;" x="108.74125" xlink:href="#m46f6d64072" y="21.318125"/>
      </g>
     </g>
     <g id="text_2">
      <!-- 0.5 -->
      <defs>
       <path d="M 10.796875 72.90625 
L 49.515625 72.90625 
L 49.515625 64.59375 
L 19.828125 64.59375 
L 19.828125 46.734375 
Q 21.96875 47.46875 24.109375 47.828125 
Q 26.265625 48.1875 28.421875 48.1875 
Q 40.625 48.1875 47.75 41.5 
Q 54.890625 34.8125 54.890625 23.390625 
Q 54.890625 11.625 47.5625 5.09375 
Q 40.234375 -1.421875 26.90625 -1.421875 
Q 22.3125 -1.421875 17.546875 -0.640625 
Q 12.796875 0.140625 7.71875 1.703125 
L 7.71875 11.625 
Q 12.109375 9.234375 16.796875 8.0625 
Q 21.484375 6.890625 26.703125 6.890625 
Q 35.15625 6.890625 40.078125 11.328125 
Q 45.015625 15.765625 45.015625 23.390625 
Q 45.015625 31 40.078125 35.4375 
Q 35.15625 39.890625 26.703125 39.890625 
Q 22.75 39.890625 18.8125 39.015625 
Q 14.890625 38.140625 10.796875 36.28125 
z
" id="BitstreamVeraSans-Roman-35"/>
      </defs>
      <g transform="translate(100.7896875 256.1165625)scale(0.1 -0.1)">
       <use xlink:href="#BitstreamVeraSans-Roman-30"/>
       <use x="63.623046875" xlink:href="#BitstreamVeraSans-Roman-2e"/>
       <use x="95.41015625" xlink:href="#BitstreamVeraSans-Roman-35"/>
      </g>
     </g>
    </g>
    <g id="xtick_3">
     <g id="line2d_11">
      <path clip-path="url(#pf560e342bd)" d="M 175.70125 244.518125 
L 175.70125 21.318125 
" style="fill:none;stroke:#000000;stroke-dasharray:1.000000,3.000000;stroke-dashoffset:0.0;stroke-width:0.5;"/>
     </g>
     <g id="line2d_12">
      <g>
       <use style="stroke:#000000;stroke-width:0.5;" x="175.70125" xlink:href="#m7eecec21f7" y="244.518125"/>
      </g>
     </g>
     <g id="line2d_13">
      <g>
       <use style="stroke:#000000;stroke-width:0.5;" x="175.70125" xlink:href="#m46f6d64072" y="21.318125"/>
      </g>
     </g>
     <g id="text_3">
      <!-- 1.0 -->
      <defs>
       <path d="M 12.40625 8.296875 
L 28.515625 8.296875 
L 28.515625 63.921875 
L 10.984375 60.40625 
L 10.984375 69.390625 
L 28.421875 72.90625 
L 38.28125 72.90625 
L 38.28125 8.296875 
L 54.390625 8.296875 
L 54.390625 0 
L 12.40625 0 
z
" id="BitstreamVeraSans-Roman-31"/>
      </defs>
      <g transform="translate(167.7496875 256.1165625)scale(0.1 -0.1)">
       <use xlink:href="#BitstreamVeraSans-Roman-31"/>
       <use x="63.623046875" xlink:href="#BitstreamVeraSans-Roman-2e"/>
       <use x="95.41015625" xlink:href="#BitstreamVeraSans-Roman-30"/>
      </g>
     </g>
    </g>
    <g id="xtick_4">
     <g id="line2d_14">
      <path clip-path="url(#pf560e342bd)" d="M 242.66125 244.518125 
L 242.66125 21.318125 
" style="fill:none;stroke:#000000;stroke-dasharray:1.000000,3.000000;stroke-dashoffset:0.0;stroke-width:0.5;"/>
     </g>
     <g id="line2d_15">
      <g>
       <use style="stroke:#000000;stroke-width:0.5;" x="242.66125" xlink:href="#m7eecec21f7" y="244.518125"/>
      </g>
     </g>
     <g id="line2d_16">
      <g>
       <use style="stroke:#000000;stroke-width:0.5;" x="242.66125" xlink:href="#m46f6d64072" y="21.318125"/>
      </g>
     </g>
     <g id="text_4">
      <!-- 1.5 -->
      <g transform="translate(234.7096875 256.1165625)scale(0.1 -0.1)">
       <use xlink:href="#BitstreamVeraSans-Roman-31"/>
       <use x="63.623046875" xlink:href="#BitstreamVeraSans-Roman-2e"/>
       <use x="95.41015625" xlink:href="#BitstreamVeraSans-Roman-35"/>
      </g>
     </g>
    </g>
    <g id="xtick_5">
     <g id="line2d_17">
      <path clip-path="url(#pf560e342bd)" d="M 309.62125 244.518125 
L 309.62125 21.318125 
" style="fill:none;stroke:#000000;stroke-dasharray:1.000000,3.000000;stroke-dashoffset:0.0;stroke-width:0.5;"/>
     </g>
     <g id="line2d_18">
      <g>
       <use style="stroke:#000000;stroke-width:0.5;" x="309.62125" xlink:href="#m7eecec21f7" y="244.518125"/>
      </g>
     </g>
     <g id="line2d_19">
      <g>
       <use style="stroke:#000000;stroke-width:0.5;" x="309.62125" xlink:href="#m46f6d64072" y="21.318125"/>
      </g>
     </g>
     <g id="text_5">
      <!-- 2.0 -->
      <defs>
       <path d="M 19.1875 8.296875 
L 53.609375 8.296875 
L 53.609375 0 
L 7.328125 0 
L 7.328125 8.296875 
Q 12.9375 14.109375 22.625 23.890625 
Q 32.328125 33.6875 34.8125 36.53125 
Q 39.546875 41.84375 41.421875 45.53125 
Q 43.3125 49.21875 43.3125 52.78125 
Q 43.3125 58.59375 39.234375 62.25 
Q 35.15625 65.921875 28.609375 65.921875 
Q 23.96875 65.921875 18.8125 64.3125 
Q 13.671875 62.703125 7.8125 59.421875 
L 7.8125 69.390625 
Q 13.765625 71.78125 18.9375 73 
Q 24.125 74.21875 28.421875 74.21875 
Q 39.75 74.21875 46.484375 68.546875 
Q 53.21875 62.890625 53.21875 53.421875 
Q 53.21875 48.921875 51.53125 44.890625 
Q 49.859375 40.875 45.40625 35.40625 
Q 44.1875 33.984375 37.640625 27.21875 
Q 31.109375 20.453125 19.1875 8.296875 
" id="BitstreamVeraSans-Roman-32"/>
      </defs>
      <g transform="translate(301.6696875 256.1165625)scale(0.1 -0.1)">
       <use xlink:href="#BitstreamVeraSans-Roman-32"/>
       <use x="63.623046875" xlink:href="#BitstreamVeraSans-Roman-2e"/>
       <use x="95.41015625" xlink:href="#BitstreamVeraSans-Roman-30"/>
      </g>
     </g>
    </g>
    <g id="xtick_6">
     <g id="line2d_20">
      <path clip-path="url(#pf560e342bd)" d="M 376.58125 244.518125 
L 376.58125 21.318125 
" style="fill:none;stroke:#000000;stroke-dasharray:1.000000,3.000000;stroke-dashoffset:0.0;stroke-width:0.5;"/>
     </g>
     <g id="line2d_21">
      <g>
       <use style="stroke:#000000;stroke-width:0.5;" x="376.58125" xlink:href="#m7eecec21f7" y="244.518125"/>
      </g>
     </g>
     <g id="line2d_22">
      <g>
       <use style="stroke:#000000;stroke-width:0.5;" x="376.58125" xlink:href="#m46f6d64072" y="21.318125"/>
      </g>
     </g>
     <g id="text_6">
      <!-- 2.5 -->
      <g transform="translate(368.6296875 256.1165625)scale(0.1 -0.1)">
       <use xlink:href="#BitstreamVeraSans-Roman-32"/>
       <use x="63.623046875" xlink:href="#BitstreamVeraSans-Roman-2e"/>
       <use x="95.41015625" xlink:href="#BitstreamVeraSans-Roman-35"/>
      </g>
     </g>
    </g>
    <g id="text_7">
     <!-- n - pocet linearnich generatoru -->
     <defs>
      <path d="M 18.109375 8.203125 
L 18.109375 -20.796875 
L 9.078125 -20.796875 
L 9.078125 54.6875 
L 18.109375 54.6875 
L 18.109375 46.390625 
Q 20.953125 51.265625 25.265625 53.625 
Q 29.59375 56 35.59375 56 
Q 45.5625 56 51.78125 48.09375 
Q 58.015625 40.1875 58.015625 27.296875 
Q 58.015625 14.40625 51.78125 6.484375 
Q 45.5625 -1.421875 35.59375 -1.421875 
Q 29.59375 -1.421875 25.265625 0.953125 
Q 20.953125 3.328125 18.109375 8.203125 
M 48.6875 27.296875 
Q 48.6875 37.203125 44.609375 42.84375 
Q 40.53125 48.484375 33.40625 48.484375 
Q 26.265625 48.484375 22.1875 42.84375 
Q 18.109375 37.203125 18.109375 27.296875 
Q 18.109375 17.390625 22.1875 11.75 
Q 26.265625 6.109375 33.40625 6.109375 
Q 40.53125 6.109375 44.609375 11.75 
Q 48.6875 17.390625 48.6875 27.296875 
" id="BitstreamVeraSans-Roman-70"/>
      <path d="M 54.890625 33.015625 
L 54.890625 0 
L 45.90625 0 
L 45.90625 32.71875 
Q 45.90625 40.484375 42.875 44.328125 
Q 39.84375 48.1875 33.796875 48.1875 
Q 26.515625 48.1875 22.3125 43.546875 
Q 18.109375 38.921875 18.109375 30.90625 
L 18.109375 0 
L 9.078125 0 
L 9.078125 54.6875 
L 18.109375 54.6875 
L 18.109375 46.1875 
Q 21.34375 51.125 25.703125 53.5625 
Q 30.078125 56 35.796875 56 
Q 45.21875 56 50.046875 50.171875 
Q 54.890625 44.34375 54.890625 33.015625 
" id="BitstreamVeraSans-Roman-6e"/>
      <path d="M 48.78125 52.59375 
L 48.78125 44.1875 
Q 44.96875 46.296875 41.140625 47.34375 
Q 37.3125 48.390625 33.40625 48.390625 
Q 24.65625 48.390625 19.8125 42.84375 
Q 14.984375 37.3125 14.984375 27.296875 
Q 14.984375 17.28125 19.8125 11.734375 
Q 24.65625 6.203125 33.40625 6.203125 
Q 37.3125 6.203125 41.140625 7.25 
Q 44.96875 8.296875 48.78125 10.40625 
L 48.78125 2.09375 
Q 45.015625 0.34375 40.984375 -0.53125 
Q 36.96875 -1.421875 32.421875 -1.421875 
Q 20.0625 -1.421875 12.78125 6.34375 
Q 5.515625 14.109375 5.515625 27.296875 
Q 5.515625 40.671875 12.859375 48.328125 
Q 20.21875 56 33.015625 56 
Q 37.15625 56 41.109375 55.140625 
Q 45.0625 54.296875 48.78125 52.59375 
" id="BitstreamVeraSans-Roman-63"/>
      <path d="M 54.890625 33.015625 
L 54.890625 0 
L 45.90625 0 
L 45.90625 32.71875 
Q 45.90625 40.484375 42.875 44.328125 
Q 39.84375 48.1875 33.796875 48.1875 
Q 26.515625 48.1875 22.3125 43.546875 
Q 18.109375 38.921875 18.109375 30.90625 
L 18.109375 0 
L 9.078125 0 
L 9.078125 75.984375 
L 18.109375 75.984375 
L 18.109375 46.1875 
Q 21.34375 51.125 25.703125 53.5625 
Q 30.078125 56 35.796875 56 
Q 45.21875 56 50.046875 50.171875 
Q 54.890625 44.34375 54.890625 33.015625 
" id="BitstreamVeraSans-Roman-68"/>
      <path d="M 9.421875 54.6875 
L 18.40625 54.6875 
L 18.40625 0 
L 9.421875 0 
z
M 9.421875 75.984375 
L 18.40625 75.984375 
L 18.40625 64.59375 
L 9.421875 64.59375 
z
" id="BitstreamVeraSans-Roman-69"/>
      <path d="M 34.28125 27.484375 
Q 23.390625 27.484375 19.1875 25 
Q 14.984375 22.515625 14.984375 16.5 
Q 14.984375 11.71875 18.140625 8.90625 
Q 21.296875 6.109375 26.703125 6.109375 
Q 34.1875 6.109375 38.703125 11.40625 
Q 43.21875 16.703125 43.21875 25.484375 
L 43.21875 27.484375 
z
M 52.203125 31.203125 
L 52.203125 0 
L 43.21875 0 
L 43.21875 8.296875 
Q 40.140625 3.328125 35.546875 0.953125 
Q 30.953125 -1.421875 24.3125 -1.421875 
Q 15.921875 -1.421875 10.953125 3.296875 
Q 6 8.015625 6 15.921875 
Q 6 25.140625 12.171875 29.828125 
Q 18.359375 34.515625 30.609375 34.515625 
L 43.21875 34.515625 
L 43.21875 35.40625 
Q 43.21875 41.609375 39.140625 45 
Q 35.0625 48.390625 27.6875 48.390625 
Q 23 48.390625 18.546875 47.265625 
Q 14.109375 46.140625 10.015625 43.890625 
L 10.015625 52.203125 
Q 14.9375 54.109375 19.578125 55.046875 
Q 24.21875 56 28.609375 56 
Q 40.484375 56 46.34375 49.84375 
Q 52.203125 43.703125 52.203125 31.203125 
" id="BitstreamVeraSans-Roman-61"/>
      <path d="M 9.421875 75.984375 
L 18.40625 75.984375 
L 18.40625 0 
L 9.421875 0 
z
" id="BitstreamVeraSans-Roman-6c"/>
      <path d="M 41.109375 46.296875 
Q 39.59375 47.171875 37.8125 47.578125 
Q 36.03125 48 33.890625 48 
Q 26.265625 48 22.1875 43.046875 
Q 18.109375 38.09375 18.109375 28.8125 
L 18.109375 0 
L 9.078125 0 
L 9.078125 54.6875 
L 18.109375 54.6875 
L 18.109375 46.1875 
Q 20.953125 51.171875 25.484375 53.578125 
Q 30.03125 56 36.53125 56 
Q 37.453125 56 38.578125 55.875 
Q 39.703125 55.765625 41.0625 55.515625 
z
" id="BitstreamVeraSans-Roman-72"/>
      <path d="M 56.203125 29.59375 
L 56.203125 25.203125 
L 14.890625 25.203125 
Q 15.484375 15.921875 20.484375 11.0625 
Q 25.484375 6.203125 34.421875 6.203125 
Q 39.59375 6.203125 44.453125 7.46875 
Q 49.3125 8.734375 54.109375 11.28125 
L 54.109375 2.78125 
Q 49.265625 0.734375 44.1875 -0.34375 
Q 39.109375 -1.421875 33.890625 -1.421875 
Q 20.796875 -1.421875 13.15625 6.1875 
Q 5.515625 13.8125 5.515625 26.8125 
Q 5.515625 40.234375 12.765625 48.109375 
Q 20.015625 56 32.328125 56 
Q 43.359375 56 49.78125 48.890625 
Q 56.203125 41.796875 56.203125 29.59375 
M 47.21875 32.234375 
Q 47.125 39.59375 43.09375 43.984375 
Q 39.0625 48.390625 32.421875 48.390625 
Q 24.90625 48.390625 20.390625 44.140625 
Q 15.875 39.890625 15.1875 32.171875 
z
" id="BitstreamVeraSans-Roman-65"/>
      <path d="M 4.890625 31.390625 
L 31.203125 31.390625 
L 31.203125 23.390625 
L 4.890625 23.390625 
z
" id="BitstreamVeraSans-Roman-2d"/>
      <path d="M 45.40625 27.984375 
Q 45.40625 37.75 41.375 43.109375 
Q 37.359375 48.484375 30.078125 48.484375 
Q 22.859375 48.484375 18.828125 43.109375 
Q 14.796875 37.75 14.796875 27.984375 
Q 14.796875 18.265625 18.828125 12.890625 
Q 22.859375 7.515625 30.078125 7.515625 
Q 37.359375 7.515625 41.375 12.890625 
Q 45.40625 18.265625 45.40625 27.984375 
M 54.390625 6.78125 
Q 54.390625 -7.171875 48.1875 -13.984375 
Q 42 -20.796875 29.203125 -20.796875 
Q 24.46875 -20.796875 20.265625 -20.09375 
Q 16.0625 -19.390625 12.109375 -17.921875 
L 12.109375 -9.1875 
Q 16.0625 -11.328125 19.921875 -12.34375 
Q 23.78125 -13.375 27.78125 -13.375 
Q 36.625 -13.375 41.015625 -8.765625 
Q 45.40625 -4.15625 45.40625 5.171875 
L 45.40625 9.625 
Q 42.625 4.78125 38.28125 2.390625 
Q 33.9375 0 27.875 0 
Q 17.828125 0 11.671875 7.65625 
Q 5.515625 15.328125 5.515625 27.984375 
Q 5.515625 40.671875 11.671875 48.328125 
Q 17.828125 56 27.875 56 
Q 33.9375 56 38.28125 53.609375 
Q 42.625 51.21875 45.40625 46.390625 
L 45.40625 54.6875 
L 54.390625 54.6875 
z
" id="BitstreamVeraSans-Roman-67"/>
      <path d="M 30.609375 48.390625 
Q 23.390625 48.390625 19.1875 42.75 
Q 14.984375 37.109375 14.984375 27.296875 
Q 14.984375 17.484375 19.15625 11.84375 
Q 23.34375 6.203125 30.609375 6.203125 
Q 37.796875 6.203125 41.984375 11.859375 
Q 46.1875 17.53125 46.1875 27.296875 
Q 46.1875 37.015625 41.984375 42.703125 
Q 37.796875 48.390625 30.609375 48.390625 
M 30.609375 56 
Q 42.328125 56 49.015625 48.375 
Q 55.71875 40.765625 55.71875 27.296875 
Q 55.71875 13.875 49.015625 6.21875 
Q 42.328125 -1.421875 30.609375 -1.421875 
Q 18.84375 -1.421875 12.171875 6.21875 
Q 5.515625 13.875 5.515625 27.296875 
Q 5.515625 40.765625 12.171875 48.375 
Q 18.84375 56 30.609375 56 
" id="BitstreamVeraSans-Roman-6f"/>
      <path id="BitstreamVeraSans-Roman-20"/>
      <path d="M 8.5 21.578125 
L 8.5 54.6875 
L 17.484375 54.6875 
L 17.484375 21.921875 
Q 17.484375 14.15625 20.5 10.265625 
Q 23.53125 6.390625 29.59375 6.390625 
Q 36.859375 6.390625 41.078125 11.03125 
Q 45.3125 15.671875 45.3125 23.6875 
L 45.3125 54.6875 
L 54.296875 54.6875 
L 54.296875 0 
L 45.3125 0 
L 45.3125 8.40625 
Q 42.046875 3.421875 37.71875 1 
Q 33.40625 -1.421875 27.6875 -1.421875 
Q 18.265625 -1.421875 13.375 4.4375 
Q 8.5 10.296875 8.5 21.578125 
" id="BitstreamVeraSans-Roman-75"/>
      <path d="M 18.3125 70.21875 
L 18.3125 54.6875 
L 36.8125 54.6875 
L 36.8125 47.703125 
L 18.3125 47.703125 
L 18.3125 18.015625 
Q 18.3125 11.328125 20.140625 9.421875 
Q 21.96875 7.515625 27.59375 7.515625 
L 36.8125 7.515625 
L 36.8125 0 
L 27.59375 0 
Q 17.1875 0 13.234375 3.875 
Q 9.28125 7.765625 9.28125 18.015625 
L 9.28125 47.703125 
L 2.6875 47.703125 
L 2.6875 54.6875 
L 9.28125 54.6875 
L 9.28125 70.21875 
z
" id="BitstreamVeraSans-Roman-74"/>
     </defs>
     <g transform="translate(131.35546875 270.7946875)scale(0.1 -0.1)">
      <use xlink:href="#BitstreamVeraSans-Roman-6e"/>
      <use x="63.37890625" xlink:href="#BitstreamVeraSans-Roman-20"/>
      <use x="95.166015625" xlink:href="#BitstreamVeraSans-Roman-2d"/>
      <use x="131.25" xlink:href="#BitstreamVeraSans-Roman-20"/>
      <use x="163.037109375" xlink:href="#BitstreamVeraSans-Roman-70"/>
      <use x="226.513671875" xlink:href="#BitstreamVeraSans-Roman-6f"/>
      <use x="287.6953125" xlink:href="#BitstreamVeraSans-Roman-63"/>
      <use x="342.67578125" xlink:href="#BitstreamVeraSans-Roman-65"/>
      <use x="404.19921875" xlink:href="#BitstreamVeraSans-Roman-74"/>
      <use x="443.408203125" xlink:href="#BitstreamVeraSans-Roman-20"/>
      <use x="475.1953125" xlink:href="#BitstreamVeraSans-Roman-6c"/>
      <use x="502.978515625" xlink:href="#BitstreamVeraSans-Roman-69"/>
      <use x="530.76171875" xlink:href="#BitstreamVeraSans-Roman-6e"/>
      <use x="594.140625" xlink:href="#BitstreamVeraSans-Roman-65"/>
      <use x="655.6640625" xlink:href="#BitstreamVeraSans-Roman-61"/>
      <use x="716.943359375" xlink:href="#BitstreamVeraSans-Roman-72"/>
      <use x="758.041015625" xlink:href="#BitstreamVeraSans-Roman-6e"/>
      <use x="821.419921875" xlink:href="#BitstreamVeraSans-Roman-69"/>
      <use x="849.203125" xlink:href="#BitstreamVeraSans-Roman-63"/>
      <use x="904.18359375" xlink:href="#BitstreamVeraSans-Roman-68"/>
      <use x="967.5625" xlink:href="#BitstreamVeraSans-Roman-20"/>
      <use x="999.349609375" xlink:href="#BitstreamVeraSans-Roman-67"/>
      <use x="1062.826171875" xlink:href="#BitstreamVeraSans-Roman-65"/>
      <use x="1124.349609375" xlink:href="#BitstreamVeraSans-Roman-6e"/>
      <use x="1187.728515625" xlink:href="#BitstreamVeraSans-Roman-65"/>
      <use x="1249.251953125" xlink:href="#BitstreamVeraSans-Roman-72"/>
      <use x="1290.365234375" xlink:href="#BitstreamVeraSans-Roman-61"/>
      <use x="1351.64453125" xlink:href="#BitstreamVeraSans-Roman-74"/>
      <use x="1390.853515625" xlink:href="#BitstreamVeraSans-Roman-6f"/>
      <use x="1452.03515625" xlink:href="#BitstreamVeraSans-Roman-72"/>
      <use x="1493.1484375" xlink:href="#BitstreamVeraSans-Roman-75"/>
     </g>
    </g>
    <g id="text_8">
     <!-- 1e8 -->
     <defs>
      <path d="M 31.78125 34.625 
Q 24.75 34.625 20.71875 30.859375 
Q 16.703125 27.09375 16.703125 20.515625 
Q 16.703125 13.921875 20.71875 10.15625 
Q 24.75 6.390625 31.78125 6.390625 
Q 38.8125 6.390625 42.859375 10.171875 
Q 46.921875 13.96875 46.921875 20.515625 
Q 46.921875 27.09375 42.890625 30.859375 
Q 38.875 34.625 31.78125 34.625 
M 21.921875 38.8125 
Q 15.578125 40.375 12.03125 44.71875 
Q 8.5 49.078125 8.5 55.328125 
Q 8.5 64.0625 14.71875 69.140625 
Q 20.953125 74.21875 31.78125 74.21875 
Q 42.671875 74.21875 48.875 69.140625 
Q 55.078125 64.0625 55.078125 55.328125 
Q 55.078125 49.078125 51.53125 44.71875 
Q 48 40.375 41.703125 38.8125 
Q 48.828125 37.15625 52.796875 32.3125 
Q 56.78125 27.484375 56.78125 20.515625 
Q 56.78125 9.90625 50.3125 4.234375 
Q 43.84375 -1.421875 31.78125 -1.421875 
Q 19.734375 -1.421875 13.25 4.234375 
Q 6.78125 9.90625 6.78125 20.515625 
Q 6.78125 27.484375 10.78125 32.3125 
Q 14.796875 37.15625 21.921875 38.8125 
M 18.3125 54.390625 
Q 18.3125 48.734375 21.84375 45.5625 
Q 25.390625 42.390625 31.78125 42.390625 
Q 38.140625 42.390625 41.71875 45.5625 
Q 45.3125 48.734375 45.3125 54.390625 
Q 45.3125 60.0625 41.71875 63.234375 
Q 38.140625 66.40625 31.78125 66.40625 
Q 25.390625 66.40625 21.84375 63.234375 
Q 18.3125 60.0625 18.3125 54.390625 
" id="BitstreamVeraSans-Roman-38"/>
     </defs>
     <g transform="translate(357.703125 268.7946875)scale(0.1 -0.1)">
      <use xlink:href="#BitstreamVeraSans-Roman-31"/>
      <use x="63.623046875" xlink:href="#BitstreamVeraSans-Roman-65"/>
      <use x="125.146484375" xlink:href="#BitstreamVeraSans-Roman-38"/>
     </g>
    </g>
   </g>
   <g id="matplotlib.axis_2">
    <g id="ytick_1">
     <g id="line2d_23">
      <path clip-path="url(#pf560e342bd)" d="M 41.78125 244.518125 
L 376.58125 244.518125 
" style="fill:none;stroke:#000000;stroke-dasharray:1.000000,3.000000;stroke-dashoffset:0.0;stroke-width:0.5;"/>
     </g>
     <g id="line2d_24">
      <defs>
       <path d="M 0 0 
L 4 0 
" id="ma7b1a78ea0" style="stroke:#000000;stroke-width:0.5;"/>
      </defs>
      <g>
       <use style="stroke:#000000;stroke-width:0.5;" x="41.78125" xlink:href="#ma7b1a78ea0" y="244.518125"/>
      </g>
     </g>
     <g id="line2d_25">
      <defs>
       <path d="M 0 0 
L -4 0 
" id="m30de69c075" style="stroke:#000000;stroke-width:0.5;"/>
      </defs>
      <g>
       <use style="stroke:#000000;stroke-width:0.5;" x="376.58125" xlink:href="#m30de69c075" y="244.518125"/>
      </g>
     </g>
     <g id="text_9">
      <!-- 0.5 -->
      <g transform="translate(21.878125 247.2775)scale(0.1 -0.1)">
       <use xlink:href="#BitstreamVeraSans-Roman-30"/>
       <use x="63.623046875" xlink:href="#BitstreamVeraSans-Roman-2e"/>
       <use x="95.41015625" xlink:href="#BitstreamVeraSans-Roman-35"/>
      </g>
     </g>
    </g>
    <g id="ytick_2">
     <g id="line2d_26">
      <path clip-path="url(#pf560e342bd)" d="M 41.78125 212.632411 
L 376.58125 212.632411 
" style="fill:none;stroke:#000000;stroke-dasharray:1.000000,3.000000;stroke-dashoffset:0.0;stroke-width:0.5;"/>
     </g>
     <g id="line2d_27">
      <g>
       <use style="stroke:#000000;stroke-width:0.5;" x="41.78125" xlink:href="#ma7b1a78ea0" y="212.632410714"/>
      </g>
     </g>
     <g id="line2d_28">
      <g>
       <use style="stroke:#000000;stroke-width:0.5;" x="376.58125" xlink:href="#m30de69c075" y="212.632410714"/>
      </g>
     </g>
     <g id="text_10">
      <!-- 0.6 -->
      <defs>
       <path d="M 33.015625 40.375 
Q 26.375 40.375 22.484375 35.828125 
Q 18.609375 31.296875 18.609375 23.390625 
Q 18.609375 15.53125 22.484375 10.953125 
Q 26.375 6.390625 33.015625 6.390625 
Q 39.65625 6.390625 43.53125 10.953125 
Q 47.40625 15.53125 47.40625 23.390625 
Q 47.40625 31.296875 43.53125 35.828125 
Q 39.65625 40.375 33.015625 40.375 
M 52.59375 71.296875 
L 52.59375 62.3125 
Q 48.875 64.0625 45.09375 64.984375 
Q 41.3125 65.921875 37.59375 65.921875 
Q 27.828125 65.921875 22.671875 59.328125 
Q 17.53125 52.734375 16.796875 39.40625 
Q 19.671875 43.65625 24.015625 45.921875 
Q 28.375 48.1875 33.59375 48.1875 
Q 44.578125 48.1875 50.953125 41.515625 
Q 57.328125 34.859375 57.328125 23.390625 
Q 57.328125 12.15625 50.6875 5.359375 
Q 44.046875 -1.421875 33.015625 -1.421875 
Q 20.359375 -1.421875 13.671875 8.265625 
Q 6.984375 17.96875 6.984375 36.375 
Q 6.984375 53.65625 15.1875 63.9375 
Q 23.390625 74.21875 37.203125 74.21875 
Q 40.921875 74.21875 44.703125 73.484375 
Q 48.484375 72.75 52.59375 71.296875 
" id="BitstreamVeraSans-Roman-36"/>
      </defs>
      <g transform="translate(21.878125 215.391785714)scale(0.1 -0.1)">
       <use xlink:href="#BitstreamVeraSans-Roman-30"/>
       <use x="63.623046875" xlink:href="#BitstreamVeraSans-Roman-2e"/>
       <use x="95.41015625" xlink:href="#BitstreamVeraSans-Roman-36"/>
      </g>
     </g>
    </g>
    <g id="ytick_3">
     <g id="line2d_29">
      <path clip-path="url(#pf560e342bd)" d="M 41.78125 180.746696 
L 376.58125 180.746696 
" style="fill:none;stroke:#000000;stroke-dasharray:1.000000,3.000000;stroke-dashoffset:0.0;stroke-width:0.5;"/>
     </g>
     <g id="line2d_30">
      <g>
       <use style="stroke:#000000;stroke-width:0.5;" x="41.78125" xlink:href="#ma7b1a78ea0" y="180.746696429"/>
      </g>
     </g>
     <g id="line2d_31">
      <g>
       <use style="stroke:#000000;stroke-width:0.5;" x="376.58125" xlink:href="#m30de69c075" y="180.746696429"/>
      </g>
     </g>
     <g id="text_11">
      <!-- 0.7 -->
      <defs>
       <path d="M 8.203125 72.90625 
L 55.078125 72.90625 
L 55.078125 68.703125 
L 28.609375 0 
L 18.3125 0 
L 43.21875 64.59375 
L 8.203125 64.59375 
z
" id="BitstreamVeraSans-Roman-37"/>
      </defs>
      <g transform="translate(21.878125 183.506071429)scale(0.1 -0.1)">
       <use xlink:href="#BitstreamVeraSans-Roman-30"/>
       <use x="63.623046875" xlink:href="#BitstreamVeraSans-Roman-2e"/>
       <use x="95.41015625" xlink:href="#BitstreamVeraSans-Roman-37"/>
      </g>
     </g>
    </g>
    <g id="ytick_4">
     <g id="line2d_32">
      <path clip-path="url(#pf560e342bd)" d="M 41.78125 148.860982 
L 376.58125 148.860982 
" style="fill:none;stroke:#000000;stroke-dasharray:1.000000,3.000000;stroke-dashoffset:0.0;stroke-width:0.5;"/>
     </g>
     <g id="line2d_33">
      <g>
       <use style="stroke:#000000;stroke-width:0.5;" x="41.78125" xlink:href="#ma7b1a78ea0" y="148.860982143"/>
      </g>
     </g>
     <g id="line2d_34">
      <g>
       <use style="stroke:#000000;stroke-width:0.5;" x="376.58125" xlink:href="#m30de69c075" y="148.860982143"/>
      </g>
     </g>
     <g id="text_12">
      <!-- 0.8 -->
      <g transform="translate(21.878125 151.620357143)scale(0.1 -0.1)">
       <use xlink:href="#BitstreamVeraSans-Roman-30"/>
       <use x="63.623046875" xlink:href="#BitstreamVeraSans-Roman-2e"/>
       <use x="95.41015625" xlink:href="#BitstreamVeraSans-Roman-38"/>
      </g>
     </g>
    </g>
    <g id="ytick_5">
     <g id="line2d_35">
      <path clip-path="url(#pf560e342bd)" d="M 41.78125 116.975268 
L 376.58125 116.975268 
" style="fill:none;stroke:#000000;stroke-dasharray:1.000000,3.000000;stroke-dashoffset:0.0;stroke-width:0.5;"/>
     </g>
     <g id="line2d_36">
      <g>
       <use style="stroke:#000000;stroke-width:0.5;" x="41.78125" xlink:href="#ma7b1a78ea0" y="116.975267857"/>
      </g>
     </g>
     <g id="line2d_37">
      <g>
       <use style="stroke:#000000;stroke-width:0.5;" x="376.58125" xlink:href="#m30de69c075" y="116.975267857"/>
      </g>
     </g>
     <g id="text_13">
      <!-- 0.9 -->
      <defs>
       <path d="M 10.984375 1.515625 
L 10.984375 10.5 
Q 14.703125 8.734375 18.5 7.8125 
Q 22.3125 6.890625 25.984375 6.890625 
Q 35.75 6.890625 40.890625 13.453125 
Q 46.046875 20.015625 46.78125 33.40625 
Q 43.953125 29.203125 39.59375 26.953125 
Q 35.25 24.703125 29.984375 24.703125 
Q 19.046875 24.703125 12.671875 31.3125 
Q 6.296875 37.9375 6.296875 49.421875 
Q 6.296875 60.640625 12.9375 67.421875 
Q 19.578125 74.21875 30.609375 74.21875 
Q 43.265625 74.21875 49.921875 64.515625 
Q 56.59375 54.828125 56.59375 36.375 
Q 56.59375 19.140625 48.40625 8.859375 
Q 40.234375 -1.421875 26.421875 -1.421875 
Q 22.703125 -1.421875 18.890625 -0.6875 
Q 15.09375 0.046875 10.984375 1.515625 
M 30.609375 32.421875 
Q 37.25 32.421875 41.125 36.953125 
Q 45.015625 41.5 45.015625 49.421875 
Q 45.015625 57.28125 41.125 61.84375 
Q 37.25 66.40625 30.609375 66.40625 
Q 23.96875 66.40625 20.09375 61.84375 
Q 16.21875 57.28125 16.21875 49.421875 
Q 16.21875 41.5 20.09375 36.953125 
Q 23.96875 32.421875 30.609375 32.421875 
" id="BitstreamVeraSans-Roman-39"/>
      </defs>
      <g transform="translate(21.878125 119.734642857)scale(0.1 -0.1)">
       <use xlink:href="#BitstreamVeraSans-Roman-30"/>
       <use x="63.623046875" xlink:href="#BitstreamVeraSans-Roman-2e"/>
       <use x="95.41015625" xlink:href="#BitstreamVeraSans-Roman-39"/>
      </g>
     </g>
    </g>
    <g id="ytick_6">
     <g id="line2d_38">
      <path clip-path="url(#pf560e342bd)" d="M 41.78125 85.089554 
L 376.58125 85.089554 
" style="fill:none;stroke:#000000;stroke-dasharray:1.000000,3.000000;stroke-dashoffset:0.0;stroke-width:0.5;"/>
     </g>
     <g id="line2d_39">
      <g>
       <use style="stroke:#000000;stroke-width:0.5;" x="41.78125" xlink:href="#ma7b1a78ea0" y="85.0895535714"/>
      </g>
     </g>
     <g id="line2d_40">
      <g>
       <use style="stroke:#000000;stroke-width:0.5;" x="376.58125" xlink:href="#m30de69c075" y="85.0895535714"/>
      </g>
     </g>
     <g id="text_14">
      <!-- 1.0 -->
      <g transform="translate(21.878125 87.8489285714)scale(0.1 -0.1)">
       <use xlink:href="#BitstreamVeraSans-Roman-31"/>
       <use x="63.623046875" xlink:href="#BitstreamVeraSans-Roman-2e"/>
       <use x="95.41015625" xlink:href="#BitstreamVeraSans-Roman-30"/>
      </g>
     </g>
    </g>
    <g id="ytick_7">
     <g id="line2d_41">
      <path clip-path="url(#pf560e342bd)" d="M 41.78125 53.203839 
L 376.58125 53.203839 
" style="fill:none;stroke:#000000;stroke-dasharray:1.000000,3.000000;stroke-dashoffset:0.0;stroke-width:0.5;"/>
     </g>
     <g id="line2d_42">
      <g>
       <use style="stroke:#000000;stroke-width:0.5;" x="41.78125" xlink:href="#ma7b1a78ea0" y="53.2038392857"/>
      </g>
     </g>
     <g id="line2d_43">
      <g>
       <use style="stroke:#000000;stroke-width:0.5;" x="376.58125" xlink:href="#m30de69c075" y="53.2038392857"/>
      </g>
     </g>
     <g id="text_15">
      <!-- 1.1 -->
      <g transform="translate(21.878125 55.9632142857)scale(0.1 -0.1)">
       <use xlink:href="#BitstreamVeraSans-Roman-31"/>
       <use x="63.623046875" xlink:href="#BitstreamVeraSans-Roman-2e"/>
       <use x="95.41015625" xlink:href="#BitstreamVeraSans-Roman-31"/>
      </g>
     </g>
    </g>
    <g id="ytick_8">
     <g id="line2d_44">
      <path clip-path="url(#pf560e342bd)" d="M 41.78125 21.318125 
L 376.58125 21.318125 
" style="fill:none;stroke:#000000;stroke-dasharray:1.000000,3.000000;stroke-dashoffset:0.0;stroke-width:0.5;"/>
     </g>
     <g id="line2d_45">
      <g>
       <use style="stroke:#000000;stroke-width:0.5;" x="41.78125" xlink:href="#ma7b1a78ea0" y="21.318125"/>
      </g>
     </g>
     <g id="line2d_46">
      <g>
       <use style="stroke:#000000;stroke-width:0.5;" x="376.58125" xlink:href="#m30de69c075" y="21.318125"/>
      </g>
     </g>
     <g id="text_16">
      <!-- 1.2 -->
      <g transform="translate(21.878125 24.0775)scale(0.1 -0.1)">
       <use xlink:href="#BitstreamVeraSans-Roman-31"/>
       <use x="63.623046875" xlink:href="#BitstreamVeraSans-Roman-2e"/>
       <use x="95.41015625" xlink:href="#BitstreamVeraSans-Roman-32"/>
      </g>
     </g>
    </g>
    <g id="text_17">
     <!-- L1 DCM na linearni generator -->
     <defs>
      <path d="M 19.671875 64.796875 
L 19.671875 8.109375 
L 31.59375 8.109375 
Q 46.6875 8.109375 53.6875 14.9375 
Q 60.6875 21.78125 60.6875 36.53125 
Q 60.6875 51.171875 53.6875 57.984375 
Q 46.6875 64.796875 31.59375 64.796875 
z
M 9.8125 72.90625 
L 30.078125 72.90625 
Q 51.265625 72.90625 61.171875 64.09375 
Q 71.09375 55.28125 71.09375 36.53125 
Q 71.09375 17.671875 61.125 8.828125 
Q 51.171875 0 30.078125 0 
L 9.8125 0 
z
" id="BitstreamVeraSans-Roman-44"/>
      <path d="M 9.8125 72.90625 
L 24.515625 72.90625 
L 43.109375 23.296875 
L 61.8125 72.90625 
L 76.515625 72.90625 
L 76.515625 0 
L 66.890625 0 
L 66.890625 64.015625 
L 48.09375 14.015625 
L 38.1875 14.015625 
L 19.390625 64.015625 
L 19.390625 0 
L 9.8125 0 
z
" id="BitstreamVeraSans-Roman-4d"/>
      <path d="M 9.8125 72.90625 
L 19.671875 72.90625 
L 19.671875 8.296875 
L 55.171875 8.296875 
L 55.171875 0 
L 9.8125 0 
z
" id="BitstreamVeraSans-Roman-4c"/>
      <path d="M 64.40625 67.28125 
L 64.40625 56.890625 
Q 59.421875 61.53125 53.78125 63.8125 
Q 48.140625 66.109375 41.796875 66.109375 
Q 29.296875 66.109375 22.65625 58.46875 
Q 16.015625 50.828125 16.015625 36.375 
Q 16.015625 21.96875 22.65625 14.328125 
Q 29.296875 6.6875 41.796875 6.6875 
Q 48.140625 6.6875 53.78125 8.984375 
Q 59.421875 11.28125 64.40625 15.921875 
L 64.40625 5.609375 
Q 59.234375 2.09375 53.4375 0.328125 
Q 47.65625 -1.421875 41.21875 -1.421875 
Q 24.65625 -1.421875 15.125 8.703125 
Q 5.609375 18.84375 5.609375 36.375 
Q 5.609375 53.953125 15.125 64.078125 
Q 24.65625 74.21875 41.21875 74.21875 
Q 47.75 74.21875 53.53125 72.484375 
Q 59.328125 70.75 64.40625 67.28125 
" id="BitstreamVeraSans-Roman-43"/>
     </defs>
     <g transform="translate(14.7984375 206.52046875)rotate(-90.0)scale(0.1 -0.1)">
      <use xlink:href="#BitstreamVeraSans-Roman-4c"/>
      <use x="55.712890625" xlink:href="#BitstreamVeraSans-Roman-31"/>
      <use x="119.3359375" xlink:href="#BitstreamVeraSans-Roman-20"/>
      <use x="151.123046875" xlink:href="#BitstreamVeraSans-Roman-44"/>
      <use x="228.125" xlink:href="#BitstreamVeraSans-Roman-43"/>
      <use x="297.94921875" xlink:href="#BitstreamVeraSans-Roman-4d"/>
      <use x="384.228515625" xlink:href="#BitstreamVeraSans-Roman-20"/>
      <use x="416.015625" xlink:href="#BitstreamVeraSans-Roman-6e"/>
      <use x="479.39453125" xlink:href="#BitstreamVeraSans-Roman-61"/>
      <use x="540.673828125" xlink:href="#BitstreamVeraSans-Roman-20"/>
      <use x="572.4609375" xlink:href="#BitstreamVeraSans-Roman-6c"/>
      <use x="600.244140625" xlink:href="#BitstreamVeraSans-Roman-69"/>
      <use x="628.02734375" xlink:href="#BitstreamVeraSans-Roman-6e"/>
      <use x="691.40625" xlink:href="#BitstreamVeraSans-Roman-65"/>
      <use x="752.9296875" xlink:href="#BitstreamVeraSans-Roman-61"/>
      <use x="814.208984375" xlink:href="#BitstreamVeraSans-Roman-72"/>
      <use x="855.306640625" xlink:href="#BitstreamVeraSans-Roman-6e"/>
      <use x="918.685546875" xlink:href="#BitstreamVeraSans-Roman-69"/>
      <use x="946.46875" xlink:href="#BitstreamVeraSans-Roman-20"/>
      <use x="978.255859375" xlink:href="#BitstreamVeraSans-Roman-67"/>
      <use x="1041.732421875" xlink:href="#BitstreamVeraSans-Roman-65"/>
      <use x="1103.255859375" xlink:href="#BitstreamVeraSans-Roman-6e"/>
      <use x="1166.634765625" xlink:href="#BitstreamVeraSans-Roman-65"/>
      <use x="1228.158203125" xlink:href="#BitstreamVeraSans-Roman-72"/>
      <use x="1269.271484375" xlink:href="#BitstreamVeraSans-Roman-61"/>
      <use x="1330.55078125" xlink:href="#BitstreamVeraSans-Roman-74"/>
      <use x="1369.759765625" xlink:href="#BitstreamVeraSans-Roman-6f"/>
      <use x="1430.94140625" xlink:href="#BitstreamVeraSans-Roman-72"/>
     </g>
    </g>
   </g>
   <g id="text_18">
    <!-- datove vypadky L1 cache -->
    <defs>
     <path d="M 2.984375 54.6875 
L 12.5 54.6875 
L 29.59375 8.796875 
L 46.6875 54.6875 
L 56.203125 54.6875 
L 35.6875 0 
L 23.484375 0 
z
" id="BitstreamVeraSans-Roman-76"/>
     <path d="M 32.171875 -5.078125 
Q 28.375 -14.84375 24.75 -17.8125 
Q 21.140625 -20.796875 15.09375 -20.796875 
L 7.90625 -20.796875 
L 7.90625 -13.28125 
L 13.1875 -13.28125 
Q 16.890625 -13.28125 18.9375 -11.515625 
Q 21 -9.765625 23.484375 -3.21875 
L 25.09375 0.875 
L 2.984375 54.6875 
L 12.5 54.6875 
L 29.59375 11.921875 
L 46.6875 54.6875 
L 56.203125 54.6875 
z
" id="BitstreamVeraSans-Roman-79"/>
     <path d="M 45.40625 46.390625 
L 45.40625 75.984375 
L 54.390625 75.984375 
L 54.390625 0 
L 45.40625 0 
L 45.40625 8.203125 
Q 42.578125 3.328125 38.25 0.953125 
Q 33.9375 -1.421875 27.875 -1.421875 
Q 17.96875 -1.421875 11.734375 6.484375 
Q 5.515625 14.40625 5.515625 27.296875 
Q 5.515625 40.1875 11.734375 48.09375 
Q 17.96875 56 27.875 56 
Q 33.9375 56 38.25 53.625 
Q 42.578125 51.265625 45.40625 46.390625 
M 14.796875 27.296875 
Q 14.796875 17.390625 18.875 11.75 
Q 22.953125 6.109375 30.078125 6.109375 
Q 37.203125 6.109375 41.296875 11.75 
Q 45.40625 17.390625 45.40625 27.296875 
Q 45.40625 37.203125 41.296875 42.84375 
Q 37.203125 48.484375 30.078125 48.484375 
Q 22.953125 48.484375 18.875 42.84375 
Q 14.796875 37.203125 14.796875 27.296875 
" id="BitstreamVeraSans-Roman-64"/>
     <path d="M 9.078125 75.984375 
L 18.109375 75.984375 
L 18.109375 31.109375 
L 44.921875 54.6875 
L 56.390625 54.6875 
L 27.390625 29.109375 
L 57.625 0 
L 45.90625 0 
L 18.109375 26.703125 
L 18.109375 0 
L 9.078125 0 
z
" id="BitstreamVeraSans-Roman-6b"/>
    </defs>
    <g transform="translate(132.3578125 16.318125)scale(0.12 -0.12)">
     <use xlink:href="#BitstreamVeraSans-Roman-64"/>
     <use x="63.4765625" xlink:href="#BitstreamVeraSans-Roman-61"/>
     <use x="124.755859375" xlink:href="#BitstreamVeraSans-Roman-74"/>
     <use x="163.96484375" xlink:href="#BitstreamVeraSans-Roman-6f"/>
     <use x="225.146484375" xlink:href="#BitstreamVeraSans-Roman-76"/>
     <use x="284.326171875" xlink:href="#BitstreamVeraSans-Roman-65"/>
     <use x="345.849609375" xlink:href="#BitstreamVeraSans-Roman-20"/>
     <use x="377.63671875" xlink:href="#BitstreamVeraSans-Roman-76"/>
     <use x="436.81640625" xlink:href="#BitstreamVeraSans-Roman-79"/>
     <use x="495.99609375" xlink:href="#BitstreamVeraSans-Roman-70"/>
     <use x="559.47265625" xlink:href="#BitstreamVeraSans-Roman-61"/>
     <use x="620.751953125" xlink:href="#BitstreamVeraSans-Roman-64"/>
     <use x="684.228515625" xlink:href="#BitstreamVeraSans-Roman-6b"/>
     <use x="742.091796875" xlink:href="#BitstreamVeraSans-Roman-79"/>
     <use x="801.271484375" xlink:href="#BitstreamVeraSans-Roman-20"/>
     <use x="833.05859375" xlink:href="#BitstreamVeraSans-Roman-4c"/>
     <use x="888.771484375" xlink:href="#BitstreamVeraSans-Roman-31"/>
     <use x="952.39453125" xlink:href="#BitstreamVeraSans-Roman-20"/>
     <use x="984.181640625" xlink:href="#BitstreamVeraSans-Roman-63"/>
     <use x="1039.162109375" xlink:href="#BitstreamVeraSans-Roman-61"/>
     <use x="1100.44140625" xlink:href="#BitstreamVeraSans-Roman-63"/>
     <use x="1155.421875" xlink:href="#BitstreamVeraSans-Roman-68"/>
     <use x="1218.80078125" xlink:href="#BitstreamVeraSans-Roman-65"/>
    </g>
   </g>
   <g id="legend_1">
    <g id="patch_7">
     <path d="M 47.78125 101.373125 
L 146.704375 101.373125 
L 146.704375 27.318125 
L 47.78125 27.318125 
z
" style="fill:#ffffff;stroke:#000000;stroke-linejoin:miter;"/>
    </g>
    <g id="line2d_47">
     <path d="M 56.18125 37.03625 
L 72.98125 37.03625 
" style="fill:none;stroke:#0000ff;stroke-linecap:square;"/>
    </g>
    <g id="line2d_48">
     <g>
      <use style="fill:#0000ff;stroke:#0000ff;stroke-width:0.5;" x="56.18125" xlink:href="#m21f41c79f6" y="37.03625"/>
      <use style="fill:#0000ff;stroke:#0000ff;stroke-width:0.5;" x="72.98125" xlink:href="#m21f41c79f6" y="37.03625"/>
     </g>
    </g>
    <g id="text_19">
     <!-- BF = 8 -->
     <defs>
      <path d="M 9.8125 72.90625 
L 51.703125 72.90625 
L 51.703125 64.59375 
L 19.671875 64.59375 
L 19.671875 43.109375 
L 48.578125 43.109375 
L 48.578125 34.8125 
L 19.671875 34.8125 
L 19.671875 0 
L 9.8125 0 
z
" id="BitstreamVeraSans-Roman-46"/>
      <path d="M 10.59375 45.40625 
L 73.1875 45.40625 
L 73.1875 37.203125 
L 10.59375 37.203125 
z
M 10.59375 25.484375 
L 73.1875 25.484375 
L 73.1875 17.1875 
L 10.59375 17.1875 
z
" id="BitstreamVeraSans-Roman-3d"/>
      <path d="M 19.671875 34.8125 
L 19.671875 8.109375 
L 35.5 8.109375 
Q 43.453125 8.109375 47.28125 11.40625 
Q 51.125 14.703125 51.125 21.484375 
Q 51.125 28.328125 47.28125 31.5625 
Q 43.453125 34.8125 35.5 34.8125 
z
M 19.671875 64.796875 
L 19.671875 42.828125 
L 34.28125 42.828125 
Q 41.5 42.828125 45.03125 45.53125 
Q 48.578125 48.25 48.578125 53.8125 
Q 48.578125 59.328125 45.03125 62.0625 
Q 41.5 64.796875 34.28125 64.796875 
z
M 9.8125 72.90625 
L 35.015625 72.90625 
Q 46.296875 72.90625 52.390625 68.21875 
Q 58.5 63.53125 58.5 54.890625 
Q 58.5 48.1875 55.375 44.234375 
Q 52.25 40.28125 46.1875 39.3125 
Q 53.46875 37.75 57.5 32.78125 
Q 61.53125 27.828125 61.53125 20.40625 
Q 61.53125 10.640625 54.890625 5.3125 
Q 48.25 0 35.984375 0 
L 9.8125 0 
z
" id="BitstreamVeraSans-Roman-42"/>
     </defs>
     <g transform="translate(86.18125 41.23625)scale(0.12 -0.12)">
      <use xlink:href="#BitstreamVeraSans-Roman-42"/>
      <use x="68.603515625" xlink:href="#BitstreamVeraSans-Roman-46"/>
      <use x="126.123046875" xlink:href="#BitstreamVeraSans-Roman-20"/>
      <use x="157.91015625" xlink:href="#BitstreamVeraSans-Roman-3d"/>
      <use x="241.69921875" xlink:href="#BitstreamVeraSans-Roman-20"/>
      <use x="273.486328125" xlink:href="#BitstreamVeraSans-Roman-38"/>
     </g>
    </g>
    <g id="line2d_49">
     <path d="M 56.18125 54.65 
L 72.98125 54.65 
" style="fill:none;stroke:#008000;stroke-linecap:square;"/>
    </g>
    <g id="line2d_50">
     <g>
      <use style="fill:#008000;stroke:#008000;stroke-width:0.5;" x="56.18125" xlink:href="#m0b32370545" y="54.65"/>
      <use style="fill:#008000;stroke:#008000;stroke-width:0.5;" x="72.98125" xlink:href="#m0b32370545" y="54.65"/>
     </g>
    </g>
    <g id="text_20">
     <!-- BF = 16 -->
     <g transform="translate(86.18125 58.85)scale(0.12 -0.12)">
      <use xlink:href="#BitstreamVeraSans-Roman-42"/>
      <use x="68.603515625" xlink:href="#BitstreamVeraSans-Roman-46"/>
      <use x="126.123046875" xlink:href="#BitstreamVeraSans-Roman-20"/>
      <use x="157.91015625" xlink:href="#BitstreamVeraSans-Roman-3d"/>
      <use x="241.69921875" xlink:href="#BitstreamVeraSans-Roman-20"/>
      <use x="273.486328125" xlink:href="#BitstreamVeraSans-Roman-31"/>
      <use x="337.109375" xlink:href="#BitstreamVeraSans-Roman-36"/>
     </g>
    </g>
    <g id="line2d_51">
     <path d="M 56.18125 72.26375 
L 72.98125 72.26375 
" style="fill:none;stroke:#ff0000;stroke-linecap:square;"/>
    </g>
    <g id="line2d_52">
     <g>
      <use style="fill:#ff0000;stroke:#ff0000;stroke-width:0.5;" x="56.18125" xlink:href="#m313b943659" y="72.26375"/>
      <use style="fill:#ff0000;stroke:#ff0000;stroke-width:0.5;" x="72.98125" xlink:href="#m313b943659" y="72.26375"/>
     </g>
    </g>
    <g id="text_21">
     <!-- BF = 32 -->
     <defs>
      <path d="M 40.578125 39.3125 
Q 47.65625 37.796875 51.625 33 
Q 55.609375 28.21875 55.609375 21.1875 
Q 55.609375 10.40625 48.1875 4.484375 
Q 40.765625 -1.421875 27.09375 -1.421875 
Q 22.515625 -1.421875 17.65625 -0.515625 
Q 12.796875 0.390625 7.625 2.203125 
L 7.625 11.71875 
Q 11.71875 9.328125 16.59375 8.109375 
Q 21.484375 6.890625 26.8125 6.890625 
Q 36.078125 6.890625 40.9375 10.546875 
Q 45.796875 14.203125 45.796875 21.1875 
Q 45.796875 27.640625 41.28125 31.265625 
Q 36.765625 34.90625 28.71875 34.90625 
L 20.21875 34.90625 
L 20.21875 43.015625 
L 29.109375 43.015625 
Q 36.375 43.015625 40.234375 45.921875 
Q 44.09375 48.828125 44.09375 54.296875 
Q 44.09375 59.90625 40.109375 62.90625 
Q 36.140625 65.921875 28.71875 65.921875 
Q 24.65625 65.921875 20.015625 65.03125 
Q 15.375 64.15625 9.8125 62.3125 
L 9.8125 71.09375 
Q 15.4375 72.65625 20.34375 73.4375 
Q 25.25 74.21875 29.59375 74.21875 
Q 40.828125 74.21875 47.359375 69.109375 
Q 53.90625 64.015625 53.90625 55.328125 
Q 53.90625 49.265625 50.4375 45.09375 
Q 46.96875 40.921875 40.578125 39.3125 
" id="BitstreamVeraSans-Roman-33"/>
     </defs>
     <g transform="translate(86.18125 76.46375)scale(0.12 -0.12)">
      <use xlink:href="#BitstreamVeraSans-Roman-42"/>
      <use x="68.603515625" xlink:href="#BitstreamVeraSans-Roman-46"/>
      <use x="126.123046875" xlink:href="#BitstreamVeraSans-Roman-20"/>
      <use x="157.91015625" xlink:href="#BitstreamVeraSans-Roman-3d"/>
      <use x="241.69921875" xlink:href="#BitstreamVeraSans-Roman-20"/>
      <use x="273.486328125" xlink:href="#BitstreamVeraSans-Roman-33"/>
      <use x="337.109375" xlink:href="#BitstreamVeraSans-Roman-32"/>
     </g>
    </g>
    <g id="line2d_53">
     <path d="M 56.18125 89.8775 
L 72.98125 89.8775 
" style="fill:none;stroke:#00bfbf;stroke-linecap:square;"/>
    </g>
    <g id="line2d_54">
     <g>
      <use style="fill:#00bfbf;stroke:#00bfbf;stroke-width:0.5;" x="56.18125" xlink:href="#ma4d9194397" y="89.8775"/>
      <use style="fill:#00bfbf;stroke:#00bfbf;stroke-width:0.5;" x="72.98125" xlink:href="#ma4d9194397" y="89.8775"/>
     </g>
    </g>
    <g id="text_22">
     <!-- BF = 512 -->
     <g transform="translate(86.18125 94.0775)scale(0.12 -0.12)">
      <use xlink:href="#BitstreamVeraSans-Roman-42"/>
      <use x="68.603515625" xlink:href="#BitstreamVeraSans-Roman-46"/>
      <use x="126.123046875" xlink:href="#BitstreamVeraSans-Roman-20"/>
      <use x="157.91015625" xlink:href="#BitstreamVeraSans-Roman-3d"/>
      <use x="241.69921875" xlink:href="#BitstreamVeraSans-Roman-20"/>
      <use x="273.486328125" xlink:href="#BitstreamVeraSans-Roman-35"/>
      <use x="337.109375" xlink:href="#BitstreamVeraSans-Roman-31"/>
      <use x="400.732421875" xlink:href="#BitstreamVeraSans-Roman-32"/>
     </g>
    </g>
   </g>
  </g>
 </g>
 <defs>
  <clipPath id="pf560e342bd">
   <rect height="223.2" width="334.8" x="41.78125" y="21.318125"/>
  </clipPath>
 </defs>
</svg>
