<?xml version="1.0" encoding="utf-8" standalone="no"?>
<!DOCTYPE svg PUBLIC "-//W3C//DTD SVG 1.1//EN"
  "http://www.w3.org/Graphics/SVG/1.1/DTD/svg11.dtd">
<!-- Created with matplotlib (http://matplotlib.org/) -->
<svg height="408pt" version="1.1" viewBox="0 0 544 408" width="544pt" xmlns="http://www.w3.org/2000/svg" xmlns:xlink="http://www.w3.org/1999/xlink">
 <defs>
  <style type="text/css">
*{stroke-linecap:butt;stroke-linejoin:round;stroke-miterlimit:100000;}
  </style>
 </defs>
 <g id="figure_1">
  <g id="patch_1">
   <path d="M 0 408.16925 
L 544.400625 408.16925 
L 544.400625 0 
L 0 0 
z
" style="fill:#ffffff;"/>
  </g>
  <g id="axes_1">
   <g id="patch_2">
    <path d="M 81.25875 368.74175 
L 527.65875 368.74175 
L 527.65875 23.14175 
L 81.25875 23.14175 
z
" style="fill:#ffffff;"/>
   </g>
   <g id="line2d_1">
    <path clip-path="url(#pf60da9dd3b)" d="M 92.41875 88.190545 
L 103.57875 85.80955 
L 114.73875 82.06172 
L 125.89875 81.576083 
L 137.05875 80.896648 
L 148.21875 80.670196 
L 159.37875 80.851419 
L 170.53875 80.093487 
L 181.69875 80.260004 
L 192.85875 80.045348 
L 204.01875 79.867627 
L 215.17875 79.904237 
L 226.33875 80.704155 
L 237.49875 80.727777 
L 248.65875 79.697241 
L 259.81875 80.53898 
L 270.97875 150.096396 
L 282.13875 79.587753 
L 293.29875 79.578194 
L 304.45875 79.441777 
L 315.61875 79.76043 
L 326.77875 79.429412 
L 337.93875 79.407501 
L 349.09875 80.363769 
L 360.25875 213.967186 
L 371.41875 79.345758 
L 382.57875 306.416028 
L 393.73875 80.209671 
L 404.89875 79.266633 
L 416.05875 79.291775 
L 427.21875 79.297351 
L 438.37875 80.240942 
L 449.53875 79.258759 
L 460.69875 79.171417 
L 471.85875 79.474157 
L 483.01875 79.250182 
L 494.17875 79.160367 
L 505.33875 79.207802 
L 516.49875 79.195883 
" style="fill:none;stroke:#0000ff;stroke-linecap:square;"/>
    <defs>
     <path d="M 0 1.5 
C 0.397805 1.5 0.77937 1.341951 1.06066 1.06066 
C 1.341951 0.77937 1.5 0.397805 1.5 0 
C 1.5 -0.397805 1.341951 -0.77937 1.06066 -1.06066 
C 0.77937 -1.341951 0.397805 -1.5 0 -1.5 
C -0.397805 -1.5 -0.77937 -1.341951 -1.06066 -1.06066 
C -1.341951 -0.77937 -1.5 -0.397805 -1.5 0 
C -1.5 0.397805 -1.341951 0.77937 -1.06066 1.06066 
C -0.77937 1.341951 -0.397805 1.5 0 1.5 
z
" id="m270f31f8b9" style="stroke:#0000ff;stroke-width:0.5;"/>
    </defs>
    <g clip-path="url(#pf60da9dd3b)">
     <use style="fill:#0000ff;stroke:#0000ff;stroke-width:0.5;" x="92.41875" xlink:href="#m270f31f8b9" y="88.1905447493"/>
     <use style="fill:#0000ff;stroke:#0000ff;stroke-width:0.5;" x="103.57875" xlink:href="#m270f31f8b9" y="85.8095501975"/>
     <use style="fill:#0000ff;stroke:#0000ff;stroke-width:0.5;" x="114.73875" xlink:href="#m270f31f8b9" y="82.0617196364"/>
     <use style="fill:#0000ff;stroke:#0000ff;stroke-width:0.5;" x="125.89875" xlink:href="#m270f31f8b9" y="81.5760829143"/>
     <use style="fill:#0000ff;stroke:#0000ff;stroke-width:0.5;" x="137.05875" xlink:href="#m270f31f8b9" y="80.8966475839"/>
     <use style="fill:#0000ff;stroke:#0000ff;stroke-width:0.5;" x="148.21875" xlink:href="#m270f31f8b9" y="80.6701959883"/>
     <use style="fill:#0000ff;stroke:#0000ff;stroke-width:0.5;" x="159.37875" xlink:href="#m270f31f8b9" y="80.8514185024"/>
     <use style="fill:#0000ff;stroke:#0000ff;stroke-width:0.5;" x="170.53875" xlink:href="#m270f31f8b9" y="80.093486689"/>
     <use style="fill:#0000ff;stroke:#0000ff;stroke-width:0.5;" x="181.69875" xlink:href="#m270f31f8b9" y="80.2600042099"/>
     <use style="fill:#0000ff;stroke:#0000ff;stroke-width:0.5;" x="192.85875" xlink:href="#m270f31f8b9" y="80.0453479354"/>
     <use style="fill:#0000ff;stroke:#0000ff;stroke-width:0.5;" x="204.01875" xlink:href="#m270f31f8b9" y="79.867627286"/>
     <use style="fill:#0000ff;stroke:#0000ff;stroke-width:0.5;" x="215.17875" xlink:href="#m270f31f8b9" y="79.9042373131"/>
     <use style="fill:#0000ff;stroke:#0000ff;stroke-width:0.5;" x="226.33875" xlink:href="#m270f31f8b9" y="80.7041552647"/>
     <use style="fill:#0000ff;stroke:#0000ff;stroke-width:0.5;" x="237.49875" xlink:href="#m270f31f8b9" y="80.7277773208"/>
     <use style="fill:#0000ff;stroke:#0000ff;stroke-width:0.5;" x="248.65875" xlink:href="#m270f31f8b9" y="79.6972407648"/>
     <use style="fill:#0000ff;stroke:#0000ff;stroke-width:0.5;" x="259.81875" xlink:href="#m270f31f8b9" y="80.5389799007"/>
     <use style="fill:#0000ff;stroke:#0000ff;stroke-width:0.5;" x="270.97875" xlink:href="#m270f31f8b9" y="150.096396054"/>
     <use style="fill:#0000ff;stroke:#0000ff;stroke-width:0.5;" x="282.13875" xlink:href="#m270f31f8b9" y="79.587752697"/>
     <use style="fill:#0000ff;stroke:#0000ff;stroke-width:0.5;" x="293.29875" xlink:href="#m270f31f8b9" y="79.5781940132"/>
     <use style="fill:#0000ff;stroke:#0000ff;stroke-width:0.5;" x="304.45875" xlink:href="#m270f31f8b9" y="79.4417770413"/>
     <use style="fill:#0000ff;stroke:#0000ff;stroke-width:0.5;" x="315.61875" xlink:href="#m270f31f8b9" y="79.7604297475"/>
     <use style="fill:#0000ff;stroke:#0000ff;stroke-width:0.5;" x="326.77875" xlink:href="#m270f31f8b9" y="79.4294121634"/>
     <use style="fill:#0000ff;stroke:#0000ff;stroke-width:0.5;" x="337.93875" xlink:href="#m270f31f8b9" y="79.4075012156"/>
     <use style="fill:#0000ff;stroke:#0000ff;stroke-width:0.5;" x="349.09875" xlink:href="#m270f31f8b9" y="80.3637690558"/>
     <use style="fill:#0000ff;stroke:#0000ff;stroke-width:0.5;" x="360.25875" xlink:href="#m270f31f8b9" y="213.967185571"/>
     <use style="fill:#0000ff;stroke:#0000ff;stroke-width:0.5;" x="371.41875" xlink:href="#m270f31f8b9" y="79.3457584339"/>
     <use style="fill:#0000ff;stroke:#0000ff;stroke-width:0.5;" x="382.57875" xlink:href="#m270f31f8b9" y="306.416028069"/>
     <use style="fill:#0000ff;stroke:#0000ff;stroke-width:0.5;" x="393.73875" xlink:href="#m270f31f8b9" y="80.2096708231"/>
     <use style="fill:#0000ff;stroke:#0000ff;stroke-width:0.5;" x="404.89875" xlink:href="#m270f31f8b9" y="79.2666328798"/>
     <use style="fill:#0000ff;stroke:#0000ff;stroke-width:0.5;" x="416.05875" xlink:href="#m270f31f8b9" y="79.2917752053"/>
     <use style="fill:#0000ff;stroke:#0000ff;stroke-width:0.5;" x="427.21875" xlink:href="#m270f31f8b9" y="79.2973512122"/>
     <use style="fill:#0000ff;stroke:#0000ff;stroke-width:0.5;" x="438.37875" xlink:href="#m270f31f8b9" y="80.240942131"/>
     <use style="fill:#0000ff;stroke:#0000ff;stroke-width:0.5;" x="449.53875" xlink:href="#m270f31f8b9" y="79.2587590386"/>
     <use style="fill:#0000ff;stroke:#0000ff;stroke-width:0.5;" x="460.69875" xlink:href="#m270f31f8b9" y="79.1714168962"/>
     <use style="fill:#0000ff;stroke:#0000ff;stroke-width:0.5;" x="471.85875" xlink:href="#m270f31f8b9" y="79.4741570684"/>
     <use style="fill:#0000ff;stroke:#0000ff;stroke-width:0.5;" x="483.01875" xlink:href="#m270f31f8b9" y="79.2501818344"/>
     <use style="fill:#0000ff;stroke:#0000ff;stroke-width:0.5;" x="494.17875" xlink:href="#m270f31f8b9" y="79.16036695"/>
     <use style="fill:#0000ff;stroke:#0000ff;stroke-width:0.5;" x="505.33875" xlink:href="#m270f31f8b9" y="79.2078016225"/>
     <use style="fill:#0000ff;stroke:#0000ff;stroke-width:0.5;" x="516.49875" xlink:href="#m270f31f8b9" y="79.1958827496"/>
    </g>
   </g>
   <g id="line2d_2">
    <path clip-path="url(#pf60da9dd3b)" d="M 92.41875 335.543148 
L 103.57875 334.166043 
L 114.73875 333.577471 
L 125.89875 333.3563 
L 137.05875 333.090879 
L 148.21875 333.110435 
L 159.37875 333.262789 
L 170.53875 333.043304 
L 181.69875 332.872685 
L 192.85875 332.714575 
L 204.01875 332.72968 
L 215.17875 332.964206 
L 226.33875 332.689984 
L 237.49875 332.740592 
L 248.65875 332.676319 
L 259.81875 332.463793 
L 270.97875 336.106134 
L 282.13875 332.458241 
L 293.29875 332.46092 
L 304.45875 332.446047 
L 315.61875 332.461069 
L 326.77875 332.553719 
L 337.93875 332.435412 
L 349.09875 332.453531 
L 360.25875 345.003974 
L 371.41875 332.444713 
L 382.57875 334.58878 
L 393.73875 332.482774 
L 404.89875 332.705815 
L 416.05875 332.449312 
L 427.21875 332.434395 
L 438.37875 332.433574 
L 449.53875 332.432377 
L 460.69875 332.446418 
L 471.85875 332.531819 
L 483.01875 332.532377 
L 494.17875 332.538702 
L 505.33875 332.431984 
L 516.49875 332.419409 
" style="fill:none;stroke:#008000;stroke-linecap:square;"/>
    <defs>
     <path d="M 0 1.5 
C 0.397805 1.5 0.77937 1.341951 1.06066 1.06066 
C 1.341951 0.77937 1.5 0.397805 1.5 0 
C 1.5 -0.397805 1.341951 -0.77937 1.06066 -1.06066 
C 0.77937 -1.341951 0.397805 -1.5 0 -1.5 
C -0.397805 -1.5 -0.77937 -1.341951 -1.06066 -1.06066 
C -1.341951 -0.77937 -1.5 -0.397805 -1.5 0 
C -1.5 0.397805 -1.341951 0.77937 -1.06066 1.06066 
C -0.77937 1.341951 -0.397805 1.5 0 1.5 
z
" id="mf2eb13e039" style="stroke:#008000;stroke-width:0.5;"/>
    </defs>
    <g clip-path="url(#pf60da9dd3b)">
     <use style="fill:#008000;stroke:#008000;stroke-width:0.5;" x="92.41875" xlink:href="#mf2eb13e039" y="335.54314792"/>
     <use style="fill:#008000;stroke:#008000;stroke-width:0.5;" x="103.57875" xlink:href="#mf2eb13e039" y="334.16604326"/>
     <use style="fill:#008000;stroke:#008000;stroke-width:0.5;" x="114.73875" xlink:href="#mf2eb13e039" y="333.577471119"/>
     <use style="fill:#008000;stroke:#008000;stroke-width:0.5;" x="125.89875" xlink:href="#mf2eb13e039" y="333.356299559"/>
     <use style="fill:#008000;stroke:#008000;stroke-width:0.5;" x="137.05875" xlink:href="#mf2eb13e039" y="333.09087893"/>
     <use style="fill:#008000;stroke:#008000;stroke-width:0.5;" x="148.21875" xlink:href="#mf2eb13e039" y="333.110435177"/>
     <use style="fill:#008000;stroke:#008000;stroke-width:0.5;" x="159.37875" xlink:href="#mf2eb13e039" y="333.2627894"/>
     <use style="fill:#008000;stroke:#008000;stroke-width:0.5;" x="170.53875" xlink:href="#mf2eb13e039" y="333.043303699"/>
     <use style="fill:#008000;stroke:#008000;stroke-width:0.5;" x="181.69875" xlink:href="#mf2eb13e039" y="332.872684582"/>
     <use style="fill:#008000;stroke:#008000;stroke-width:0.5;" x="192.85875" xlink:href="#mf2eb13e039" y="332.714574712"/>
     <use style="fill:#008000;stroke:#008000;stroke-width:0.5;" x="204.01875" xlink:href="#mf2eb13e039" y="332.729680426"/>
     <use style="fill:#008000;stroke:#008000;stroke-width:0.5;" x="215.17875" xlink:href="#mf2eb13e039" y="332.964206435"/>
     <use style="fill:#008000;stroke:#008000;stroke-width:0.5;" x="226.33875" xlink:href="#mf2eb13e039" y="332.689983986"/>
     <use style="fill:#008000;stroke:#008000;stroke-width:0.5;" x="237.49875" xlink:href="#mf2eb13e039" y="332.740591686"/>
     <use style="fill:#008000;stroke:#008000;stroke-width:0.5;" x="248.65875" xlink:href="#mf2eb13e039" y="332.676319233"/>
     <use style="fill:#008000;stroke:#008000;stroke-width:0.5;" x="259.81875" xlink:href="#mf2eb13e039" y="332.46379277"/>
     <use style="fill:#008000;stroke:#008000;stroke-width:0.5;" x="270.97875" xlink:href="#mf2eb13e039" y="336.106133859"/>
     <use style="fill:#008000;stroke:#008000;stroke-width:0.5;" x="282.13875" xlink:href="#mf2eb13e039" y="332.458240709"/>
     <use style="fill:#008000;stroke:#008000;stroke-width:0.5;" x="293.29875" xlink:href="#mf2eb13e039" y="332.460920321"/>
     <use style="fill:#008000;stroke:#008000;stroke-width:0.5;" x="304.45875" xlink:href="#mf2eb13e039" y="332.446046609"/>
     <use style="fill:#008000;stroke:#008000;stroke-width:0.5;" x="315.61875" xlink:href="#mf2eb13e039" y="332.461069117"/>
     <use style="fill:#008000;stroke:#008000;stroke-width:0.5;" x="326.77875" xlink:href="#mf2eb13e039" y="332.553719387"/>
     <use style="fill:#008000;stroke:#008000;stroke-width:0.5;" x="337.93875" xlink:href="#mf2eb13e039" y="332.435412215"/>
     <use style="fill:#008000;stroke:#008000;stroke-width:0.5;" x="349.09875" xlink:href="#mf2eb13e039" y="332.453530771"/>
     <use style="fill:#008000;stroke:#008000;stroke-width:0.5;" x="360.25875" xlink:href="#mf2eb13e039" y="345.003974043"/>
     <use style="fill:#008000;stroke:#008000;stroke-width:0.5;" x="371.41875" xlink:href="#mf2eb13e039" y="332.444712591"/>
     <use style="fill:#008000;stroke:#008000;stroke-width:0.5;" x="382.57875" xlink:href="#mf2eb13e039" y="334.588779769"/>
     <use style="fill:#008000;stroke:#008000;stroke-width:0.5;" x="393.73875" xlink:href="#mf2eb13e039" y="332.48277381"/>
     <use style="fill:#008000;stroke:#008000;stroke-width:0.5;" x="404.89875" xlink:href="#mf2eb13e039" y="332.705815192"/>
     <use style="fill:#008000;stroke:#008000;stroke-width:0.5;" x="416.05875" xlink:href="#mf2eb13e039" y="332.44931183"/>
     <use style="fill:#008000;stroke:#008000;stroke-width:0.5;" x="427.21875" xlink:href="#mf2eb13e039" y="332.434394634"/>
     <use style="fill:#008000;stroke:#008000;stroke-width:0.5;" x="438.37875" xlink:href="#mf2eb13e039" y="332.433574181"/>
     <use style="fill:#008000;stroke:#008000;stroke-width:0.5;" x="449.53875" xlink:href="#mf2eb13e039" y="332.432376597"/>
     <use style="fill:#008000;stroke:#008000;stroke-width:0.5;" x="460.69875" xlink:href="#mf2eb13e039" y="332.446418459"/>
     <use style="fill:#008000;stroke:#008000;stroke-width:0.5;" x="471.85875" xlink:href="#mf2eb13e039" y="332.531818786"/>
     <use style="fill:#008000;stroke:#008000;stroke-width:0.5;" x="483.01875" xlink:href="#mf2eb13e039" y="332.532376925"/>
     <use style="fill:#008000;stroke:#008000;stroke-width:0.5;" x="494.17875" xlink:href="#mf2eb13e039" y="332.538701894"/>
     <use style="fill:#008000;stroke:#008000;stroke-width:0.5;" x="505.33875" xlink:href="#mf2eb13e039" y="332.431983693"/>
     <use style="fill:#008000;stroke:#008000;stroke-width:0.5;" x="516.49875" xlink:href="#mf2eb13e039" y="332.419408524"/>
    </g>
   </g>
   <g id="patch_3">
    <path d="M 81.25875 23.14175 
L 527.65875 23.14175 
" style="fill:none;stroke:#000000;stroke-linecap:square;stroke-linejoin:miter;"/>
   </g>
   <g id="patch_4">
    <path d="M 81.25875 368.74175 
L 81.25875 23.14175 
" style="fill:none;stroke:#000000;stroke-linecap:square;stroke-linejoin:miter;"/>
   </g>
   <g id="patch_5">
    <path d="M 81.25875 368.74175 
L 527.65875 368.74175 
" style="fill:none;stroke:#000000;stroke-linecap:square;stroke-linejoin:miter;"/>
   </g>
   <g id="patch_6">
    <path d="M 527.65875 368.74175 
L 527.65875 23.14175 
" style="fill:none;stroke:#000000;stroke-linecap:square;stroke-linejoin:miter;"/>
   </g>
   <g id="matplotlib.axis_1">
    <g id="xtick_1">
     <g id="line2d_3">
      <path clip-path="url(#pf60da9dd3b)" d="M 81.25875 368.74175 
L 81.25875 23.14175 
" style="fill:none;stroke:#000000;stroke-dasharray:1.000000,3.000000;stroke-dashoffset:0.0;stroke-width:0.5;"/>
     </g>
     <g id="line2d_4">
      <defs>
       <path d="M 0 0 
L 0 -4 
" id="m6571d8898e" style="stroke:#000000;stroke-width:0.5;"/>
      </defs>
      <g>
       <use style="stroke:#000000;stroke-width:0.5;" x="81.25875" xlink:href="#m6571d8898e" y="368.74175"/>
      </g>
     </g>
     <g id="line2d_5">
      <defs>
       <path d="M 0 0 
L 0 4 
" id="ma47013295e" style="stroke:#000000;stroke-width:0.5;"/>
      </defs>
      <g>
       <use style="stroke:#000000;stroke-width:0.5;" x="81.25875" xlink:href="#ma47013295e" y="23.14175"/>
      </g>
     </g>
     <g id="text_1">
      <!-- 0.0 -->
      <defs>
       <path d="M 10.6875 12.40625 
L 21 12.40625 
L 21 0 
L 10.6875 0 
z
" id="BitstreamVeraSans-Roman-2e"/>
       <path d="M 31.78125 66.40625 
Q 24.171875 66.40625 20.328125 58.90625 
Q 16.5 51.421875 16.5 36.375 
Q 16.5 21.390625 20.328125 13.890625 
Q 24.171875 6.390625 31.78125 6.390625 
Q 39.453125 6.390625 43.28125 13.890625 
Q 47.125 21.390625 47.125 36.375 
Q 47.125 51.421875 43.28125 58.90625 
Q 39.453125 66.40625 31.78125 66.40625 
M 31.78125 74.21875 
Q 44.046875 74.21875 50.515625 64.515625 
Q 56.984375 54.828125 56.984375 36.375 
Q 56.984375 17.96875 50.515625 8.265625 
Q 44.046875 -1.421875 31.78125 -1.421875 
Q 19.53125 -1.421875 13.0625 8.265625 
Q 6.59375 17.96875 6.59375 36.375 
Q 6.59375 54.828125 13.0625 64.515625 
Q 19.53125 74.21875 31.78125 74.21875 
" id="BitstreamVeraSans-Roman-30"/>
      </defs>
      <g transform="translate(71.716875 381.859875)scale(0.12 -0.12)">
       <use xlink:href="#BitstreamVeraSans-Roman-30"/>
       <use x="63.623046875" xlink:href="#BitstreamVeraSans-Roman-2e"/>
       <use x="95.41015625" xlink:href="#BitstreamVeraSans-Roman-30"/>
      </g>
     </g>
    </g>
    <g id="xtick_2">
     <g id="line2d_6">
      <path clip-path="url(#pf60da9dd3b)" d="M 137.05875 368.74175 
L 137.05875 23.14175 
" style="fill:none;stroke:#000000;stroke-dasharray:1.000000,3.000000;stroke-dashoffset:0.0;stroke-width:0.5;"/>
     </g>
     <g id="line2d_7">
      <g>
       <use style="stroke:#000000;stroke-width:0.5;" x="137.05875" xlink:href="#m6571d8898e" y="368.74175"/>
      </g>
     </g>
     <g id="line2d_8">
      <g>
       <use style="stroke:#000000;stroke-width:0.5;" x="137.05875" xlink:href="#ma47013295e" y="23.14175"/>
      </g>
     </g>
     <g id="text_2">
      <!-- 0.5 -->
      <defs>
       <path d="M 10.796875 72.90625 
L 49.515625 72.90625 
L 49.515625 64.59375 
L 19.828125 64.59375 
L 19.828125 46.734375 
Q 21.96875 47.46875 24.109375 47.828125 
Q 26.265625 48.1875 28.421875 48.1875 
Q 40.625 48.1875 47.75 41.5 
Q 54.890625 34.8125 54.890625 23.390625 
Q 54.890625 11.625 47.5625 5.09375 
Q 40.234375 -1.421875 26.90625 -1.421875 
Q 22.3125 -1.421875 17.546875 -0.640625 
Q 12.796875 0.140625 7.71875 1.703125 
L 7.71875 11.625 
Q 12.109375 9.234375 16.796875 8.0625 
Q 21.484375 6.890625 26.703125 6.890625 
Q 35.15625 6.890625 40.078125 11.328125 
Q 45.015625 15.765625 45.015625 23.390625 
Q 45.015625 31 40.078125 35.4375 
Q 35.15625 39.890625 26.703125 39.890625 
Q 22.75 39.890625 18.8125 39.015625 
Q 14.890625 38.140625 10.796875 36.28125 
z
" id="BitstreamVeraSans-Roman-35"/>
      </defs>
      <g transform="translate(127.516875 381.859875)scale(0.12 -0.12)">
       <use xlink:href="#BitstreamVeraSans-Roman-30"/>
       <use x="63.623046875" xlink:href="#BitstreamVeraSans-Roman-2e"/>
       <use x="95.41015625" xlink:href="#BitstreamVeraSans-Roman-35"/>
      </g>
     </g>
    </g>
    <g id="xtick_3">
     <g id="line2d_9">
      <path clip-path="url(#pf60da9dd3b)" d="M 192.85875 368.74175 
L 192.85875 23.14175 
" style="fill:none;stroke:#000000;stroke-dasharray:1.000000,3.000000;stroke-dashoffset:0.0;stroke-width:0.5;"/>
     </g>
     <g id="line2d_10">
      <g>
       <use style="stroke:#000000;stroke-width:0.5;" x="192.85875" xlink:href="#m6571d8898e" y="368.74175"/>
      </g>
     </g>
     <g id="line2d_11">
      <g>
       <use style="stroke:#000000;stroke-width:0.5;" x="192.85875" xlink:href="#ma47013295e" y="23.14175"/>
      </g>
     </g>
     <g id="text_3">
      <!-- 1.0 -->
      <defs>
       <path d="M 12.40625 8.296875 
L 28.515625 8.296875 
L 28.515625 63.921875 
L 10.984375 60.40625 
L 10.984375 69.390625 
L 28.421875 72.90625 
L 38.28125 72.90625 
L 38.28125 8.296875 
L 54.390625 8.296875 
L 54.390625 0 
L 12.40625 0 
z
" id="BitstreamVeraSans-Roman-31"/>
      </defs>
      <g transform="translate(183.316875 381.859875)scale(0.12 -0.12)">
       <use xlink:href="#BitstreamVeraSans-Roman-31"/>
       <use x="63.623046875" xlink:href="#BitstreamVeraSans-Roman-2e"/>
       <use x="95.41015625" xlink:href="#BitstreamVeraSans-Roman-30"/>
      </g>
     </g>
    </g>
    <g id="xtick_4">
     <g id="line2d_12">
      <path clip-path="url(#pf60da9dd3b)" d="M 248.65875 368.74175 
L 248.65875 23.14175 
" style="fill:none;stroke:#000000;stroke-dasharray:1.000000,3.000000;stroke-dashoffset:0.0;stroke-width:0.5;"/>
     </g>
     <g id="line2d_13">
      <g>
       <use style="stroke:#000000;stroke-width:0.5;" x="248.65875" xlink:href="#m6571d8898e" y="368.74175"/>
      </g>
     </g>
     <g id="line2d_14">
      <g>
       <use style="stroke:#000000;stroke-width:0.5;" x="248.65875" xlink:href="#ma47013295e" y="23.14175"/>
      </g>
     </g>
     <g id="text_4">
      <!-- 1.5 -->
      <g transform="translate(239.116875 381.859875)scale(0.12 -0.12)">
       <use xlink:href="#BitstreamVeraSans-Roman-31"/>
       <use x="63.623046875" xlink:href="#BitstreamVeraSans-Roman-2e"/>
       <use x="95.41015625" xlink:href="#BitstreamVeraSans-Roman-35"/>
      </g>
     </g>
    </g>
    <g id="xtick_5">
     <g id="line2d_15">
      <path clip-path="url(#pf60da9dd3b)" d="M 304.45875 368.74175 
L 304.45875 23.14175 
" style="fill:none;stroke:#000000;stroke-dasharray:1.000000,3.000000;stroke-dashoffset:0.0;stroke-width:0.5;"/>
     </g>
     <g id="line2d_16">
      <g>
       <use style="stroke:#000000;stroke-width:0.5;" x="304.45875" xlink:href="#m6571d8898e" y="368.74175"/>
      </g>
     </g>
     <g id="line2d_17">
      <g>
       <use style="stroke:#000000;stroke-width:0.5;" x="304.45875" xlink:href="#ma47013295e" y="23.14175"/>
      </g>
     </g>
     <g id="text_5">
      <!-- 2.0 -->
      <defs>
       <path d="M 19.1875 8.296875 
L 53.609375 8.296875 
L 53.609375 0 
L 7.328125 0 
L 7.328125 8.296875 
Q 12.9375 14.109375 22.625 23.890625 
Q 32.328125 33.6875 34.8125 36.53125 
Q 39.546875 41.84375 41.421875 45.53125 
Q 43.3125 49.21875 43.3125 52.78125 
Q 43.3125 58.59375 39.234375 62.25 
Q 35.15625 65.921875 28.609375 65.921875 
Q 23.96875 65.921875 18.8125 64.3125 
Q 13.671875 62.703125 7.8125 59.421875 
L 7.8125 69.390625 
Q 13.765625 71.78125 18.9375 73 
Q 24.125 74.21875 28.421875 74.21875 
Q 39.75 74.21875 46.484375 68.546875 
Q 53.21875 62.890625 53.21875 53.421875 
Q 53.21875 48.921875 51.53125 44.890625 
Q 49.859375 40.875 45.40625 35.40625 
Q 44.1875 33.984375 37.640625 27.21875 
Q 31.109375 20.453125 19.1875 8.296875 
" id="BitstreamVeraSans-Roman-32"/>
      </defs>
      <g transform="translate(294.916875 381.859875)scale(0.12 -0.12)">
       <use xlink:href="#BitstreamVeraSans-Roman-32"/>
       <use x="63.623046875" xlink:href="#BitstreamVeraSans-Roman-2e"/>
       <use x="95.41015625" xlink:href="#BitstreamVeraSans-Roman-30"/>
      </g>
     </g>
    </g>
    <g id="xtick_6">
     <g id="line2d_18">
      <path clip-path="url(#pf60da9dd3b)" d="M 360.25875 368.74175 
L 360.25875 23.14175 
" style="fill:none;stroke:#000000;stroke-dasharray:1.000000,3.000000;stroke-dashoffset:0.0;stroke-width:0.5;"/>
     </g>
     <g id="line2d_19">
      <g>
       <use style="stroke:#000000;stroke-width:0.5;" x="360.25875" xlink:href="#m6571d8898e" y="368.74175"/>
      </g>
     </g>
     <g id="line2d_20">
      <g>
       <use style="stroke:#000000;stroke-width:0.5;" x="360.25875" xlink:href="#ma47013295e" y="23.14175"/>
      </g>
     </g>
     <g id="text_6">
      <!-- 2.5 -->
      <g transform="translate(350.716875 381.859875)scale(0.12 -0.12)">
       <use xlink:href="#BitstreamVeraSans-Roman-32"/>
       <use x="63.623046875" xlink:href="#BitstreamVeraSans-Roman-2e"/>
       <use x="95.41015625" xlink:href="#BitstreamVeraSans-Roman-35"/>
      </g>
     </g>
    </g>
    <g id="xtick_7">
     <g id="line2d_21">
      <path clip-path="url(#pf60da9dd3b)" d="M 416.05875 368.74175 
L 416.05875 23.14175 
" style="fill:none;stroke:#000000;stroke-dasharray:1.000000,3.000000;stroke-dashoffset:0.0;stroke-width:0.5;"/>
     </g>
     <g id="line2d_22">
      <g>
       <use style="stroke:#000000;stroke-width:0.5;" x="416.05875" xlink:href="#m6571d8898e" y="368.74175"/>
      </g>
     </g>
     <g id="line2d_23">
      <g>
       <use style="stroke:#000000;stroke-width:0.5;" x="416.05875" xlink:href="#ma47013295e" y="23.14175"/>
      </g>
     </g>
     <g id="text_7">
      <!-- 3.0 -->
      <defs>
       <path d="M 40.578125 39.3125 
Q 47.65625 37.796875 51.625 33 
Q 55.609375 28.21875 55.609375 21.1875 
Q 55.609375 10.40625 48.1875 4.484375 
Q 40.765625 -1.421875 27.09375 -1.421875 
Q 22.515625 -1.421875 17.65625 -0.515625 
Q 12.796875 0.390625 7.625 2.203125 
L 7.625 11.71875 
Q 11.71875 9.328125 16.59375 8.109375 
Q 21.484375 6.890625 26.8125 6.890625 
Q 36.078125 6.890625 40.9375 10.546875 
Q 45.796875 14.203125 45.796875 21.1875 
Q 45.796875 27.640625 41.28125 31.265625 
Q 36.765625 34.90625 28.71875 34.90625 
L 20.21875 34.90625 
L 20.21875 43.015625 
L 29.109375 43.015625 
Q 36.375 43.015625 40.234375 45.921875 
Q 44.09375 48.828125 44.09375 54.296875 
Q 44.09375 59.90625 40.109375 62.90625 
Q 36.140625 65.921875 28.71875 65.921875 
Q 24.65625 65.921875 20.015625 65.03125 
Q 15.375 64.15625 9.8125 62.3125 
L 9.8125 71.09375 
Q 15.4375 72.65625 20.34375 73.4375 
Q 25.25 74.21875 29.59375 74.21875 
Q 40.828125 74.21875 47.359375 69.109375 
Q 53.90625 64.015625 53.90625 55.328125 
Q 53.90625 49.265625 50.4375 45.09375 
Q 46.96875 40.921875 40.578125 39.3125 
" id="BitstreamVeraSans-Roman-33"/>
      </defs>
      <g transform="translate(406.516875 381.859875)scale(0.12 -0.12)">
       <use xlink:href="#BitstreamVeraSans-Roman-33"/>
       <use x="63.623046875" xlink:href="#BitstreamVeraSans-Roman-2e"/>
       <use x="95.41015625" xlink:href="#BitstreamVeraSans-Roman-30"/>
      </g>
     </g>
    </g>
    <g id="xtick_8">
     <g id="line2d_24">
      <path clip-path="url(#pf60da9dd3b)" d="M 471.85875 368.74175 
L 471.85875 23.14175 
" style="fill:none;stroke:#000000;stroke-dasharray:1.000000,3.000000;stroke-dashoffset:0.0;stroke-width:0.5;"/>
     </g>
     <g id="line2d_25">
      <g>
       <use style="stroke:#000000;stroke-width:0.5;" x="471.85875" xlink:href="#m6571d8898e" y="368.74175"/>
      </g>
     </g>
     <g id="line2d_26">
      <g>
       <use style="stroke:#000000;stroke-width:0.5;" x="471.85875" xlink:href="#ma47013295e" y="23.14175"/>
      </g>
     </g>
     <g id="text_8">
      <!-- 3.5 -->
      <g transform="translate(462.316875 381.859875)scale(0.12 -0.12)">
       <use xlink:href="#BitstreamVeraSans-Roman-33"/>
       <use x="63.623046875" xlink:href="#BitstreamVeraSans-Roman-2e"/>
       <use x="95.41015625" xlink:href="#BitstreamVeraSans-Roman-35"/>
      </g>
     </g>
    </g>
    <g id="xtick_9">
     <g id="line2d_27">
      <path clip-path="url(#pf60da9dd3b)" d="M 527.65875 368.74175 
L 527.65875 23.14175 
" style="fill:none;stroke:#000000;stroke-dasharray:1.000000,3.000000;stroke-dashoffset:0.0;stroke-width:0.5;"/>
     </g>
     <g id="line2d_28">
      <g>
       <use style="stroke:#000000;stroke-width:0.5;" x="527.65875" xlink:href="#m6571d8898e" y="368.74175"/>
      </g>
     </g>
     <g id="line2d_29">
      <g>
       <use style="stroke:#000000;stroke-width:0.5;" x="527.65875" xlink:href="#ma47013295e" y="23.14175"/>
      </g>
     </g>
     <g id="text_9">
      <!-- 4.0 -->
      <defs>
       <path d="M 37.796875 64.3125 
L 12.890625 25.390625 
L 37.796875 25.390625 
z
M 35.203125 72.90625 
L 47.609375 72.90625 
L 47.609375 25.390625 
L 58.015625 25.390625 
L 58.015625 17.1875 
L 47.609375 17.1875 
L 47.609375 0 
L 37.796875 0 
L 37.796875 17.1875 
L 4.890625 17.1875 
L 4.890625 26.703125 
z
" id="BitstreamVeraSans-Roman-34"/>
      </defs>
      <g transform="translate(518.116875 381.859875)scale(0.12 -0.12)">
       <use xlink:href="#BitstreamVeraSans-Roman-34"/>
       <use x="63.623046875" xlink:href="#BitstreamVeraSans-Roman-2e"/>
       <use x="95.41015625" xlink:href="#BitstreamVeraSans-Roman-30"/>
      </g>
     </g>
    </g>
    <g id="text_10">
     <!-- n - pocet linearnich generatoru -->
     <defs>
      <path d="M 9.421875 54.6875 
L 18.40625 54.6875 
L 18.40625 0 
L 9.421875 0 
z
M 9.421875 75.984375 
L 18.40625 75.984375 
L 18.40625 64.59375 
L 9.421875 64.59375 
z
" id="BitstreamVeraSans-Roman-69"/>
      <path d="M 54.890625 33.015625 
L 54.890625 0 
L 45.90625 0 
L 45.90625 32.71875 
Q 45.90625 40.484375 42.875 44.328125 
Q 39.84375 48.1875 33.796875 48.1875 
Q 26.515625 48.1875 22.3125 43.546875 
Q 18.109375 38.921875 18.109375 30.90625 
L 18.109375 0 
L 9.078125 0 
L 9.078125 54.6875 
L 18.109375 54.6875 
L 18.109375 46.1875 
Q 21.34375 51.125 25.703125 53.5625 
Q 30.078125 56 35.796875 56 
Q 45.21875 56 50.046875 50.171875 
Q 54.890625 44.34375 54.890625 33.015625 
" id="BitstreamVeraSans-Roman-6e"/>
      <path d="M 18.109375 8.203125 
L 18.109375 -20.796875 
L 9.078125 -20.796875 
L 9.078125 54.6875 
L 18.109375 54.6875 
L 18.109375 46.390625 
Q 20.953125 51.265625 25.265625 53.625 
Q 29.59375 56 35.59375 56 
Q 45.5625 56 51.78125 48.09375 
Q 58.015625 40.1875 58.015625 27.296875 
Q 58.015625 14.40625 51.78125 6.484375 
Q 45.5625 -1.421875 35.59375 -1.421875 
Q 29.59375 -1.421875 25.265625 0.953125 
Q 20.953125 3.328125 18.109375 8.203125 
M 48.6875 27.296875 
Q 48.6875 37.203125 44.609375 42.84375 
Q 40.53125 48.484375 33.40625 48.484375 
Q 26.265625 48.484375 22.1875 42.84375 
Q 18.109375 37.203125 18.109375 27.296875 
Q 18.109375 17.390625 22.1875 11.75 
Q 26.265625 6.109375 33.40625 6.109375 
Q 40.53125 6.109375 44.609375 11.75 
Q 48.6875 17.390625 48.6875 27.296875 
" id="BitstreamVeraSans-Roman-70"/>
      <path d="M 48.78125 52.59375 
L 48.78125 44.1875 
Q 44.96875 46.296875 41.140625 47.34375 
Q 37.3125 48.390625 33.40625 48.390625 
Q 24.65625 48.390625 19.8125 42.84375 
Q 14.984375 37.3125 14.984375 27.296875 
Q 14.984375 17.28125 19.8125 11.734375 
Q 24.65625 6.203125 33.40625 6.203125 
Q 37.3125 6.203125 41.140625 7.25 
Q 44.96875 8.296875 48.78125 10.40625 
L 48.78125 2.09375 
Q 45.015625 0.34375 40.984375 -0.53125 
Q 36.96875 -1.421875 32.421875 -1.421875 
Q 20.0625 -1.421875 12.78125 6.34375 
Q 5.515625 14.109375 5.515625 27.296875 
Q 5.515625 40.671875 12.859375 48.328125 
Q 20.21875 56 33.015625 56 
Q 37.15625 56 41.109375 55.140625 
Q 45.0625 54.296875 48.78125 52.59375 
" id="BitstreamVeraSans-Roman-63"/>
      <path d="M 30.609375 48.390625 
Q 23.390625 48.390625 19.1875 42.75 
Q 14.984375 37.109375 14.984375 27.296875 
Q 14.984375 17.484375 19.15625 11.84375 
Q 23.34375 6.203125 30.609375 6.203125 
Q 37.796875 6.203125 41.984375 11.859375 
Q 46.1875 17.53125 46.1875 27.296875 
Q 46.1875 37.015625 41.984375 42.703125 
Q 37.796875 48.390625 30.609375 48.390625 
M 30.609375 56 
Q 42.328125 56 49.015625 48.375 
Q 55.71875 40.765625 55.71875 27.296875 
Q 55.71875 13.875 49.015625 6.21875 
Q 42.328125 -1.421875 30.609375 -1.421875 
Q 18.84375 -1.421875 12.171875 6.21875 
Q 5.515625 13.875 5.515625 27.296875 
Q 5.515625 40.765625 12.171875 48.375 
Q 18.84375 56 30.609375 56 
" id="BitstreamVeraSans-Roman-6f"/>
      <path d="M 54.890625 33.015625 
L 54.890625 0 
L 45.90625 0 
L 45.90625 32.71875 
Q 45.90625 40.484375 42.875 44.328125 
Q 39.84375 48.1875 33.796875 48.1875 
Q 26.515625 48.1875 22.3125 43.546875 
Q 18.109375 38.921875 18.109375 30.90625 
L 18.109375 0 
L 9.078125 0 
L 9.078125 75.984375 
L 18.109375 75.984375 
L 18.109375 46.1875 
Q 21.34375 51.125 25.703125 53.5625 
Q 30.078125 56 35.796875 56 
Q 45.21875 56 50.046875 50.171875 
Q 54.890625 44.34375 54.890625 33.015625 
" id="BitstreamVeraSans-Roman-68"/>
      <path d="M 18.3125 70.21875 
L 18.3125 54.6875 
L 36.8125 54.6875 
L 36.8125 47.703125 
L 18.3125 47.703125 
L 18.3125 18.015625 
Q 18.3125 11.328125 20.140625 9.421875 
Q 21.96875 7.515625 27.59375 7.515625 
L 36.8125 7.515625 
L 36.8125 0 
L 27.59375 0 
Q 17.1875 0 13.234375 3.875 
Q 9.28125 7.765625 9.28125 18.015625 
L 9.28125 47.703125 
L 2.6875 47.703125 
L 2.6875 54.6875 
L 9.28125 54.6875 
L 9.28125 70.21875 
z
" id="BitstreamVeraSans-Roman-74"/>
      <path id="BitstreamVeraSans-Roman-20"/>
      <path d="M 41.109375 46.296875 
Q 39.59375 47.171875 37.8125 47.578125 
Q 36.03125 48 33.890625 48 
Q 26.265625 48 22.1875 43.046875 
Q 18.109375 38.09375 18.109375 28.8125 
L 18.109375 0 
L 9.078125 0 
L 9.078125 54.6875 
L 18.109375 54.6875 
L 18.109375 46.1875 
Q 20.953125 51.171875 25.484375 53.578125 
Q 30.03125 56 36.53125 56 
Q 37.453125 56 38.578125 55.875 
Q 39.703125 55.765625 41.0625 55.515625 
z
" id="BitstreamVeraSans-Roman-72"/>
      <path d="M 9.421875 75.984375 
L 18.40625 75.984375 
L 18.40625 0 
L 9.421875 0 
z
" id="BitstreamVeraSans-Roman-6c"/>
      <path d="M 56.203125 29.59375 
L 56.203125 25.203125 
L 14.890625 25.203125 
Q 15.484375 15.921875 20.484375 11.0625 
Q 25.484375 6.203125 34.421875 6.203125 
Q 39.59375 6.203125 44.453125 7.46875 
Q 49.3125 8.734375 54.109375 11.28125 
L 54.109375 2.78125 
Q 49.265625 0.734375 44.1875 -0.34375 
Q 39.109375 -1.421875 33.890625 -1.421875 
Q 20.796875 -1.421875 13.15625 6.1875 
Q 5.515625 13.8125 5.515625 26.8125 
Q 5.515625 40.234375 12.765625 48.109375 
Q 20.015625 56 32.328125 56 
Q 43.359375 56 49.78125 48.890625 
Q 56.203125 41.796875 56.203125 29.59375 
M 47.21875 32.234375 
Q 47.125 39.59375 43.09375 43.984375 
Q 39.0625 48.390625 32.421875 48.390625 
Q 24.90625 48.390625 20.390625 44.140625 
Q 15.875 39.890625 15.1875 32.171875 
z
" id="BitstreamVeraSans-Roman-65"/>
      <path d="M 45.40625 27.984375 
Q 45.40625 37.75 41.375 43.109375 
Q 37.359375 48.484375 30.078125 48.484375 
Q 22.859375 48.484375 18.828125 43.109375 
Q 14.796875 37.75 14.796875 27.984375 
Q 14.796875 18.265625 18.828125 12.890625 
Q 22.859375 7.515625 30.078125 7.515625 
Q 37.359375 7.515625 41.375 12.890625 
Q 45.40625 18.265625 45.40625 27.984375 
M 54.390625 6.78125 
Q 54.390625 -7.171875 48.1875 -13.984375 
Q 42 -20.796875 29.203125 -20.796875 
Q 24.46875 -20.796875 20.265625 -20.09375 
Q 16.0625 -19.390625 12.109375 -17.921875 
L 12.109375 -9.1875 
Q 16.0625 -11.328125 19.921875 -12.34375 
Q 23.78125 -13.375 27.78125 -13.375 
Q 36.625 -13.375 41.015625 -8.765625 
Q 45.40625 -4.15625 45.40625 5.171875 
L 45.40625 9.625 
Q 42.625 4.78125 38.28125 2.390625 
Q 33.9375 0 27.875 0 
Q 17.828125 0 11.671875 7.65625 
Q 5.515625 15.328125 5.515625 27.984375 
Q 5.515625 40.671875 11.671875 48.328125 
Q 17.828125 56 27.875 56 
Q 33.9375 56 38.28125 53.609375 
Q 42.625 51.21875 45.40625 46.390625 
L 45.40625 54.6875 
L 54.390625 54.6875 
z
" id="BitstreamVeraSans-Roman-67"/>
      <path d="M 34.28125 27.484375 
Q 23.390625 27.484375 19.1875 25 
Q 14.984375 22.515625 14.984375 16.5 
Q 14.984375 11.71875 18.140625 8.90625 
Q 21.296875 6.109375 26.703125 6.109375 
Q 34.1875 6.109375 38.703125 11.40625 
Q 43.21875 16.703125 43.21875 25.484375 
L 43.21875 27.484375 
z
M 52.203125 31.203125 
L 52.203125 0 
L 43.21875 0 
L 43.21875 8.296875 
Q 40.140625 3.328125 35.546875 0.953125 
Q 30.953125 -1.421875 24.3125 -1.421875 
Q 15.921875 -1.421875 10.953125 3.296875 
Q 6 8.015625 6 15.921875 
Q 6 25.140625 12.171875 29.828125 
Q 18.359375 34.515625 30.609375 34.515625 
L 43.21875 34.515625 
L 43.21875 35.40625 
Q 43.21875 41.609375 39.140625 45 
Q 35.0625 48.390625 27.6875 48.390625 
Q 23 48.390625 18.546875 47.265625 
Q 14.109375 46.140625 10.015625 43.890625 
L 10.015625 52.203125 
Q 14.9375 54.109375 19.578125 55.046875 
Q 24.21875 56 28.609375 56 
Q 40.484375 56 46.34375 49.84375 
Q 52.203125 43.703125 52.203125 31.203125 
" id="BitstreamVeraSans-Roman-61"/>
      <path d="M 4.890625 31.390625 
L 31.203125 31.390625 
L 31.203125 23.390625 
L 4.890625 23.390625 
z
" id="BitstreamVeraSans-Roman-2d"/>
      <path d="M 8.5 21.578125 
L 8.5 54.6875 
L 17.484375 54.6875 
L 17.484375 21.921875 
Q 17.484375 14.15625 20.5 10.265625 
Q 23.53125 6.390625 29.59375 6.390625 
Q 36.859375 6.390625 41.078125 11.03125 
Q 45.3125 15.671875 45.3125 23.6875 
L 45.3125 54.6875 
L 54.296875 54.6875 
L 54.296875 0 
L 45.3125 0 
L 45.3125 8.40625 
Q 42.046875 3.421875 37.71875 1 
Q 33.40625 -1.421875 27.6875 -1.421875 
Q 18.265625 -1.421875 13.375 4.4375 
Q 8.5 10.296875 8.5 21.578125 
" id="BitstreamVeraSans-Roman-75"/>
     </defs>
     <g transform="translate(211.0678125 398.473625)scale(0.12 -0.12)">
      <use xlink:href="#BitstreamVeraSans-Roman-6e"/>
      <use x="63.37890625" xlink:href="#BitstreamVeraSans-Roman-20"/>
      <use x="95.166015625" xlink:href="#BitstreamVeraSans-Roman-2d"/>
      <use x="131.25" xlink:href="#BitstreamVeraSans-Roman-20"/>
      <use x="163.037109375" xlink:href="#BitstreamVeraSans-Roman-70"/>
      <use x="226.513671875" xlink:href="#BitstreamVeraSans-Roman-6f"/>
      <use x="287.6953125" xlink:href="#BitstreamVeraSans-Roman-63"/>
      <use x="342.67578125" xlink:href="#BitstreamVeraSans-Roman-65"/>
      <use x="404.19921875" xlink:href="#BitstreamVeraSans-Roman-74"/>
      <use x="443.408203125" xlink:href="#BitstreamVeraSans-Roman-20"/>
      <use x="475.1953125" xlink:href="#BitstreamVeraSans-Roman-6c"/>
      <use x="502.978515625" xlink:href="#BitstreamVeraSans-Roman-69"/>
      <use x="530.76171875" xlink:href="#BitstreamVeraSans-Roman-6e"/>
      <use x="594.140625" xlink:href="#BitstreamVeraSans-Roman-65"/>
      <use x="655.6640625" xlink:href="#BitstreamVeraSans-Roman-61"/>
      <use x="716.943359375" xlink:href="#BitstreamVeraSans-Roman-72"/>
      <use x="758.041015625" xlink:href="#BitstreamVeraSans-Roman-6e"/>
      <use x="821.419921875" xlink:href="#BitstreamVeraSans-Roman-69"/>
      <use x="849.203125" xlink:href="#BitstreamVeraSans-Roman-63"/>
      <use x="904.18359375" xlink:href="#BitstreamVeraSans-Roman-68"/>
      <use x="967.5625" xlink:href="#BitstreamVeraSans-Roman-20"/>
      <use x="999.349609375" xlink:href="#BitstreamVeraSans-Roman-67"/>
      <use x="1062.826171875" xlink:href="#BitstreamVeraSans-Roman-65"/>
      <use x="1124.349609375" xlink:href="#BitstreamVeraSans-Roman-6e"/>
      <use x="1187.728515625" xlink:href="#BitstreamVeraSans-Roman-65"/>
      <use x="1249.251953125" xlink:href="#BitstreamVeraSans-Roman-72"/>
      <use x="1290.365234375" xlink:href="#BitstreamVeraSans-Roman-61"/>
      <use x="1351.64453125" xlink:href="#BitstreamVeraSans-Roman-74"/>
      <use x="1390.853515625" xlink:href="#BitstreamVeraSans-Roman-6f"/>
      <use x="1452.03515625" xlink:href="#BitstreamVeraSans-Roman-72"/>
      <use x="1493.1484375" xlink:href="#BitstreamVeraSans-Roman-75"/>
     </g>
    </g>
    <g id="text_11">
     <!-- 1e7 -->
     <defs>
      <path d="M 8.203125 72.90625 
L 55.078125 72.90625 
L 55.078125 68.703125 
L 28.609375 0 
L 18.3125 0 
L 43.21875 64.59375 
L 8.203125 64.59375 
z
" id="BitstreamVeraSans-Roman-37"/>
     </defs>
     <g transform="translate(505.005 396.473625)scale(0.12 -0.12)">
      <use xlink:href="#BitstreamVeraSans-Roman-31"/>
      <use x="63.623046875" xlink:href="#BitstreamVeraSans-Roman-65"/>
      <use x="125.146484375" xlink:href="#BitstreamVeraSans-Roman-37"/>
     </g>
    </g>
   </g>
   <g id="matplotlib.axis_2">
    <g id="ytick_1">
     <g id="line2d_30">
      <path clip-path="url(#pf60da9dd3b)" d="M 81.25875 368.74175 
L 527.65875 368.74175 
" style="fill:none;stroke:#000000;stroke-dasharray:1.000000,3.000000;stroke-dashoffset:0.0;stroke-width:0.5;"/>
     </g>
     <g id="line2d_31">
      <defs>
       <path d="M 0 0 
L 4 0 
" id="m2d4c322208" style="stroke:#000000;stroke-width:0.5;"/>
      </defs>
      <g>
       <use style="stroke:#000000;stroke-width:0.5;" x="81.25875" xlink:href="#m2d4c322208" y="368.74175"/>
      </g>
     </g>
     <g id="line2d_32">
      <defs>
       <path d="M 0 0 
L -4 0 
" id="me392df28c3" style="stroke:#000000;stroke-width:0.5;"/>
      </defs>
      <g>
       <use style="stroke:#000000;stroke-width:0.5;" x="527.65875" xlink:href="#me392df28c3" y="368.74175"/>
      </g>
     </g>
     <g id="text_12">
      <!-- 1000000 -->
      <g transform="translate(23.81375 372.053)scale(0.12 -0.12)">
       <use xlink:href="#BitstreamVeraSans-Roman-31"/>
       <use x="63.623046875" xlink:href="#BitstreamVeraSans-Roman-30"/>
       <use x="127.24609375" xlink:href="#BitstreamVeraSans-Roman-30"/>
       <use x="190.869140625" xlink:href="#BitstreamVeraSans-Roman-30"/>
       <use x="254.4921875" xlink:href="#BitstreamVeraSans-Roman-30"/>
       <use x="318.115234375" xlink:href="#BitstreamVeraSans-Roman-30"/>
       <use x="381.73828125" xlink:href="#BitstreamVeraSans-Roman-30"/>
      </g>
     </g>
    </g>
    <g id="ytick_2">
     <g id="line2d_33">
      <path clip-path="url(#pf60da9dd3b)" d="M 81.25875 311.14175 
L 527.65875 311.14175 
" style="fill:none;stroke:#000000;stroke-dasharray:1.000000,3.000000;stroke-dashoffset:0.0;stroke-width:0.5;"/>
     </g>
     <g id="line2d_34">
      <g>
       <use style="stroke:#000000;stroke-width:0.5;" x="81.25875" xlink:href="#m2d4c322208" y="311.14175"/>
      </g>
     </g>
     <g id="line2d_35">
      <g>
       <use style="stroke:#000000;stroke-width:0.5;" x="527.65875" xlink:href="#me392df28c3" y="311.14175"/>
      </g>
     </g>
     <g id="text_13">
      <!-- 2000000 -->
      <g transform="translate(23.81375 314.453)scale(0.12 -0.12)">
       <use xlink:href="#BitstreamVeraSans-Roman-32"/>
       <use x="63.623046875" xlink:href="#BitstreamVeraSans-Roman-30"/>
       <use x="127.24609375" xlink:href="#BitstreamVeraSans-Roman-30"/>
       <use x="190.869140625" xlink:href="#BitstreamVeraSans-Roman-30"/>
       <use x="254.4921875" xlink:href="#BitstreamVeraSans-Roman-30"/>
       <use x="318.115234375" xlink:href="#BitstreamVeraSans-Roman-30"/>
       <use x="381.73828125" xlink:href="#BitstreamVeraSans-Roman-30"/>
      </g>
     </g>
    </g>
    <g id="ytick_3">
     <g id="line2d_36">
      <path clip-path="url(#pf60da9dd3b)" d="M 81.25875 253.54175 
L 527.65875 253.54175 
" style="fill:none;stroke:#000000;stroke-dasharray:1.000000,3.000000;stroke-dashoffset:0.0;stroke-width:0.5;"/>
     </g>
     <g id="line2d_37">
      <g>
       <use style="stroke:#000000;stroke-width:0.5;" x="81.25875" xlink:href="#m2d4c322208" y="253.54175"/>
      </g>
     </g>
     <g id="line2d_38">
      <g>
       <use style="stroke:#000000;stroke-width:0.5;" x="527.65875" xlink:href="#me392df28c3" y="253.54175"/>
      </g>
     </g>
     <g id="text_14">
      <!-- 3000000 -->
      <g transform="translate(23.81375 256.853)scale(0.12 -0.12)">
       <use xlink:href="#BitstreamVeraSans-Roman-33"/>
       <use x="63.623046875" xlink:href="#BitstreamVeraSans-Roman-30"/>
       <use x="127.24609375" xlink:href="#BitstreamVeraSans-Roman-30"/>
       <use x="190.869140625" xlink:href="#BitstreamVeraSans-Roman-30"/>
       <use x="254.4921875" xlink:href="#BitstreamVeraSans-Roman-30"/>
       <use x="318.115234375" xlink:href="#BitstreamVeraSans-Roman-30"/>
       <use x="381.73828125" xlink:href="#BitstreamVeraSans-Roman-30"/>
      </g>
     </g>
    </g>
    <g id="ytick_4">
     <g id="line2d_39">
      <path clip-path="url(#pf60da9dd3b)" d="M 81.25875 195.94175 
L 527.65875 195.94175 
" style="fill:none;stroke:#000000;stroke-dasharray:1.000000,3.000000;stroke-dashoffset:0.0;stroke-width:0.5;"/>
     </g>
     <g id="line2d_40">
      <g>
       <use style="stroke:#000000;stroke-width:0.5;" x="81.25875" xlink:href="#m2d4c322208" y="195.94175"/>
      </g>
     </g>
     <g id="line2d_41">
      <g>
       <use style="stroke:#000000;stroke-width:0.5;" x="527.65875" xlink:href="#me392df28c3" y="195.94175"/>
      </g>
     </g>
     <g id="text_15">
      <!-- 4000000 -->
      <g transform="translate(23.81375 199.253)scale(0.12 -0.12)">
       <use xlink:href="#BitstreamVeraSans-Roman-34"/>
       <use x="63.623046875" xlink:href="#BitstreamVeraSans-Roman-30"/>
       <use x="127.24609375" xlink:href="#BitstreamVeraSans-Roman-30"/>
       <use x="190.869140625" xlink:href="#BitstreamVeraSans-Roman-30"/>
       <use x="254.4921875" xlink:href="#BitstreamVeraSans-Roman-30"/>
       <use x="318.115234375" xlink:href="#BitstreamVeraSans-Roman-30"/>
       <use x="381.73828125" xlink:href="#BitstreamVeraSans-Roman-30"/>
      </g>
     </g>
    </g>
    <g id="ytick_5">
     <g id="line2d_42">
      <path clip-path="url(#pf60da9dd3b)" d="M 81.25875 138.34175 
L 527.65875 138.34175 
" style="fill:none;stroke:#000000;stroke-dasharray:1.000000,3.000000;stroke-dashoffset:0.0;stroke-width:0.5;"/>
     </g>
     <g id="line2d_43">
      <g>
       <use style="stroke:#000000;stroke-width:0.5;" x="81.25875" xlink:href="#m2d4c322208" y="138.34175"/>
      </g>
     </g>
     <g id="line2d_44">
      <g>
       <use style="stroke:#000000;stroke-width:0.5;" x="527.65875" xlink:href="#me392df28c3" y="138.34175"/>
      </g>
     </g>
     <g id="text_16">
      <!-- 5000000 -->
      <g transform="translate(23.81375 141.653)scale(0.12 -0.12)">
       <use xlink:href="#BitstreamVeraSans-Roman-35"/>
       <use x="63.623046875" xlink:href="#BitstreamVeraSans-Roman-30"/>
       <use x="127.24609375" xlink:href="#BitstreamVeraSans-Roman-30"/>
       <use x="190.869140625" xlink:href="#BitstreamVeraSans-Roman-30"/>
       <use x="254.4921875" xlink:href="#BitstreamVeraSans-Roman-30"/>
       <use x="318.115234375" xlink:href="#BitstreamVeraSans-Roman-30"/>
       <use x="381.73828125" xlink:href="#BitstreamVeraSans-Roman-30"/>
      </g>
     </g>
    </g>
    <g id="ytick_6">
     <g id="line2d_45">
      <path clip-path="url(#pf60da9dd3b)" d="M 81.25875 80.74175 
L 527.65875 80.74175 
" style="fill:none;stroke:#000000;stroke-dasharray:1.000000,3.000000;stroke-dashoffset:0.0;stroke-width:0.5;"/>
     </g>
     <g id="line2d_46">
      <g>
       <use style="stroke:#000000;stroke-width:0.5;" x="81.25875" xlink:href="#m2d4c322208" y="80.74175"/>
      </g>
     </g>
     <g id="line2d_47">
      <g>
       <use style="stroke:#000000;stroke-width:0.5;" x="527.65875" xlink:href="#me392df28c3" y="80.74175"/>
      </g>
     </g>
     <g id="text_17">
      <!-- 6000000 -->
      <defs>
       <path d="M 33.015625 40.375 
Q 26.375 40.375 22.484375 35.828125 
Q 18.609375 31.296875 18.609375 23.390625 
Q 18.609375 15.53125 22.484375 10.953125 
Q 26.375 6.390625 33.015625 6.390625 
Q 39.65625 6.390625 43.53125 10.953125 
Q 47.40625 15.53125 47.40625 23.390625 
Q 47.40625 31.296875 43.53125 35.828125 
Q 39.65625 40.375 33.015625 40.375 
M 52.59375 71.296875 
L 52.59375 62.3125 
Q 48.875 64.0625 45.09375 64.984375 
Q 41.3125 65.921875 37.59375 65.921875 
Q 27.828125 65.921875 22.671875 59.328125 
Q 17.53125 52.734375 16.796875 39.40625 
Q 19.671875 43.65625 24.015625 45.921875 
Q 28.375 48.1875 33.59375 48.1875 
Q 44.578125 48.1875 50.953125 41.515625 
Q 57.328125 34.859375 57.328125 23.390625 
Q 57.328125 12.15625 50.6875 5.359375 
Q 44.046875 -1.421875 33.015625 -1.421875 
Q 20.359375 -1.421875 13.671875 8.265625 
Q 6.984375 17.96875 6.984375 36.375 
Q 6.984375 53.65625 15.1875 63.9375 
Q 23.390625 74.21875 37.203125 74.21875 
Q 40.921875 74.21875 44.703125 73.484375 
Q 48.484375 72.75 52.59375 71.296875 
" id="BitstreamVeraSans-Roman-36"/>
      </defs>
      <g transform="translate(23.81375 84.053)scale(0.12 -0.12)">
       <use xlink:href="#BitstreamVeraSans-Roman-36"/>
       <use x="63.623046875" xlink:href="#BitstreamVeraSans-Roman-30"/>
       <use x="127.24609375" xlink:href="#BitstreamVeraSans-Roman-30"/>
       <use x="190.869140625" xlink:href="#BitstreamVeraSans-Roman-30"/>
       <use x="254.4921875" xlink:href="#BitstreamVeraSans-Roman-30"/>
       <use x="318.115234375" xlink:href="#BitstreamVeraSans-Roman-30"/>
       <use x="381.73828125" xlink:href="#BitstreamVeraSans-Roman-30"/>
      </g>
     </g>
    </g>
    <g id="ytick_7">
     <g id="line2d_48">
      <path clip-path="url(#pf60da9dd3b)" d="M 81.25875 23.14175 
L 527.65875 23.14175 
" style="fill:none;stroke:#000000;stroke-dasharray:1.000000,3.000000;stroke-dashoffset:0.0;stroke-width:0.5;"/>
     </g>
     <g id="line2d_49">
      <g>
       <use style="stroke:#000000;stroke-width:0.5;" x="81.25875" xlink:href="#m2d4c322208" y="23.14175"/>
      </g>
     </g>
     <g id="line2d_50">
      <g>
       <use style="stroke:#000000;stroke-width:0.5;" x="527.65875" xlink:href="#me392df28c3" y="23.14175"/>
      </g>
     </g>
     <g id="text_18">
      <!-- 7000000 -->
      <g transform="translate(23.81375 26.453)scale(0.12 -0.12)">
       <use xlink:href="#BitstreamVeraSans-Roman-37"/>
       <use x="63.623046875" xlink:href="#BitstreamVeraSans-Roman-30"/>
       <use x="127.24609375" xlink:href="#BitstreamVeraSans-Roman-30"/>
       <use x="190.869140625" xlink:href="#BitstreamVeraSans-Roman-30"/>
       <use x="254.4921875" xlink:href="#BitstreamVeraSans-Roman-30"/>
       <use x="318.115234375" xlink:href="#BitstreamVeraSans-Roman-30"/>
       <use x="381.73828125" xlink:href="#BitstreamVeraSans-Roman-30"/>
      </g>
     </g>
    </g>
    <g id="text_19">
     <!-- n / t [s ^ -1] -->
     <defs>
      <path d="M 25.390625 72.90625 
L 33.6875 72.90625 
L 8.296875 -9.28125 
L 0 -9.28125 
z
" id="BitstreamVeraSans-Roman-2f"/>
      <path d="M 8.59375 75.984375 
L 29.296875 75.984375 
L 29.296875 69 
L 17.578125 69 
L 17.578125 -6.203125 
L 29.296875 -6.203125 
L 29.296875 -13.1875 
L 8.59375 -13.1875 
z
" id="BitstreamVeraSans-Roman-5b"/>
      <path d="M 46.6875 72.90625 
L 73.1875 45.703125 
L 63.375 45.703125 
L 41.890625 64.984375 
L 20.40625 45.703125 
L 10.59375 45.703125 
L 37.109375 72.90625 
z
" id="BitstreamVeraSans-Roman-5e"/>
      <path d="M 30.421875 75.984375 
L 30.421875 -13.1875 
L 9.71875 -13.1875 
L 9.71875 -6.203125 
L 21.390625 -6.203125 
L 21.390625 69 
L 9.71875 69 
L 9.71875 75.984375 
z
" id="BitstreamVeraSans-Roman-5d"/>
      <path d="M 44.28125 53.078125 
L 44.28125 44.578125 
Q 40.484375 46.53125 36.375 47.5 
Q 32.28125 48.484375 27.875 48.484375 
Q 21.1875 48.484375 17.84375 46.4375 
Q 14.5 44.390625 14.5 40.28125 
Q 14.5 37.15625 16.890625 35.375 
Q 19.28125 33.59375 26.515625 31.984375 
L 29.59375 31.296875 
Q 39.15625 29.25 43.1875 25.515625 
Q 47.21875 21.78125 47.21875 15.09375 
Q 47.21875 7.46875 41.1875 3.015625 
Q 35.15625 -1.421875 24.609375 -1.421875 
Q 20.21875 -1.421875 15.453125 -0.5625 
Q 10.6875 0.296875 5.421875 2 
L 5.421875 11.28125 
Q 10.40625 8.6875 15.234375 7.390625 
Q 20.0625 6.109375 24.8125 6.109375 
Q 31.15625 6.109375 34.5625 8.28125 
Q 37.984375 10.453125 37.984375 14.40625 
Q 37.984375 18.0625 35.515625 20.015625 
Q 33.0625 21.96875 24.703125 23.78125 
L 21.578125 24.515625 
Q 13.234375 26.265625 9.515625 29.90625 
Q 5.8125 33.546875 5.8125 39.890625 
Q 5.8125 47.609375 11.28125 51.796875 
Q 16.75 56 26.8125 56 
Q 31.78125 56 36.171875 55.265625 
Q 40.578125 54.546875 44.28125 53.078125 
" id="BitstreamVeraSans-Roman-73"/>
     </defs>
     <g transform="translate(16.318125 232.4695625)rotate(-90.0)scale(0.12 -0.12)">
      <use xlink:href="#BitstreamVeraSans-Roman-6e"/>
      <use x="63.37890625" xlink:href="#BitstreamVeraSans-Roman-20"/>
      <use x="95.166015625" xlink:href="#BitstreamVeraSans-Roman-2f"/>
      <use x="128.857421875" xlink:href="#BitstreamVeraSans-Roman-20"/>
      <use x="160.64453125" xlink:href="#BitstreamVeraSans-Roman-74"/>
      <use x="199.853515625" xlink:href="#BitstreamVeraSans-Roman-20"/>
      <use x="231.640625" xlink:href="#BitstreamVeraSans-Roman-5b"/>
      <use x="270.654296875" xlink:href="#BitstreamVeraSans-Roman-73"/>
      <use x="322.75390625" xlink:href="#BitstreamVeraSans-Roman-20"/>
      <use x="354.541015625" xlink:href="#BitstreamVeraSans-Roman-5e"/>
      <use x="438.330078125" xlink:href="#BitstreamVeraSans-Roman-20"/>
      <use x="470.1171875" xlink:href="#BitstreamVeraSans-Roman-2d"/>
      <use x="506.201171875" xlink:href="#BitstreamVeraSans-Roman-31"/>
      <use x="569.82421875" xlink:href="#BitstreamVeraSans-Roman-5d"/>
     </g>
    </g>
   </g>
   <g id="text_20">
    <!-- casova slozitost - logical &amp; -->
    <defs>
     <path d="M 2.984375 54.6875 
L 12.5 54.6875 
L 29.59375 8.796875 
L 46.6875 54.6875 
L 56.203125 54.6875 
L 35.6875 0 
L 23.484375 0 
z
" id="BitstreamVeraSans-Roman-76"/>
     <path d="M 5.515625 54.6875 
L 48.1875 54.6875 
L 48.1875 46.484375 
L 14.40625 7.171875 
L 48.1875 7.171875 
L 48.1875 0 
L 4.296875 0 
L 4.296875 8.203125 
L 38.09375 47.515625 
L 5.515625 47.515625 
z
" id="BitstreamVeraSans-Roman-7a"/>
     <path d="M 24.3125 39.203125 
Q 19.875 35.25 17.796875 31.3125 
Q 15.71875 27.390625 15.71875 23.09375 
Q 15.71875 15.96875 20.890625 11.234375 
Q 26.078125 6.5 33.890625 6.5 
Q 38.53125 6.5 42.578125 8.03125 
Q 46.625 9.578125 50.203125 12.703125 
z
M 31.203125 44.671875 
L 56 19.28125 
Q 58.890625 23.640625 60.5 28.59375 
Q 62.109375 33.546875 62.40625 39.109375 
L 71.484375 39.109375 
Q 70.90625 32.671875 68.359375 26.359375 
Q 65.828125 20.0625 61.28125 13.921875 
L 74.90625 0 
L 62.59375 0 
L 55.609375 7.171875 
Q 50.53125 2.828125 44.96875 0.703125 
Q 39.40625 -1.421875 33.015625 -1.421875 
Q 21.234375 -1.421875 13.765625 5.296875 
Q 6.296875 12.015625 6.296875 22.515625 
Q 6.296875 28.765625 9.5625 34.25 
Q 12.84375 39.75 19.390625 44.578125 
Q 17.046875 47.65625 15.8125 50.703125 
Q 14.59375 53.765625 14.59375 56.6875 
Q 14.59375 64.59375 20.015625 69.40625 
Q 25.4375 74.21875 34.421875 74.21875 
Q 38.484375 74.21875 42.5 73.34375 
Q 46.53125 72.46875 50.6875 70.703125 
L 50.6875 61.8125 
Q 46.4375 64.109375 42.578125 65.296875 
Q 38.71875 66.5 35.40625 66.5 
Q 30.28125 66.5 27.078125 63.78125 
Q 23.875 61.078125 23.875 56.78125 
Q 23.875 54.296875 25.3125 51.78125 
Q 26.765625 49.265625 31.203125 44.671875 
" id="BitstreamVeraSans-Roman-26"/>
    </defs>
    <g transform="translate(208.80675 18.14175)scale(0.144 -0.144)">
     <use xlink:href="#BitstreamVeraSans-Roman-63"/>
     <use x="54.98046875" xlink:href="#BitstreamVeraSans-Roman-61"/>
     <use x="116.259765625" xlink:href="#BitstreamVeraSans-Roman-73"/>
     <use x="168.359375" xlink:href="#BitstreamVeraSans-Roman-6f"/>
     <use x="229.541015625" xlink:href="#BitstreamVeraSans-Roman-76"/>
     <use x="288.720703125" xlink:href="#BitstreamVeraSans-Roman-61"/>
     <use x="350.0" xlink:href="#BitstreamVeraSans-Roman-20"/>
     <use x="381.787109375" xlink:href="#BitstreamVeraSans-Roman-73"/>
     <use x="433.88671875" xlink:href="#BitstreamVeraSans-Roman-6c"/>
     <use x="461.669921875" xlink:href="#BitstreamVeraSans-Roman-6f"/>
     <use x="522.8515625" xlink:href="#BitstreamVeraSans-Roman-7a"/>
     <use x="575.341796875" xlink:href="#BitstreamVeraSans-Roman-69"/>
     <use x="603.125" xlink:href="#BitstreamVeraSans-Roman-74"/>
     <use x="642.333984375" xlink:href="#BitstreamVeraSans-Roman-6f"/>
     <use x="703.515625" xlink:href="#BitstreamVeraSans-Roman-73"/>
     <use x="755.615234375" xlink:href="#BitstreamVeraSans-Roman-74"/>
     <use x="794.82421875" xlink:href="#BitstreamVeraSans-Roman-20"/>
     <use x="826.611328125" xlink:href="#BitstreamVeraSans-Roman-2d"/>
     <use x="862.6953125" xlink:href="#BitstreamVeraSans-Roman-20"/>
     <use x="894.482421875" xlink:href="#BitstreamVeraSans-Roman-6c"/>
     <use x="922.265625" xlink:href="#BitstreamVeraSans-Roman-6f"/>
     <use x="983.447265625" xlink:href="#BitstreamVeraSans-Roman-67"/>
     <use x="1046.923828125" xlink:href="#BitstreamVeraSans-Roman-69"/>
     <use x="1074.70703125" xlink:href="#BitstreamVeraSans-Roman-63"/>
     <use x="1129.6875" xlink:href="#BitstreamVeraSans-Roman-61"/>
     <use x="1190.966796875" xlink:href="#BitstreamVeraSans-Roman-6c"/>
     <use x="1218.75" xlink:href="#BitstreamVeraSans-Roman-20"/>
     <use x="1250.537109375" xlink:href="#BitstreamVeraSans-Roman-26"/>
    </g>
   </g>
   <g id="legend_1">
    <g id="patch_7">
     <path d="M 370.99125 76.93475 
L 520.45875 76.93475 
L 520.45875 30.34175 
L 370.99125 30.34175 
z
" style="fill:#ffffff;stroke:#000000;stroke-linejoin:miter;"/>
    </g>
    <g id="line2d_51">
     <path d="M 381.07125 42.0035 
L 401.23125 42.0035 
" style="fill:none;stroke:#0000ff;stroke-linecap:square;"/>
    </g>
    <g id="line2d_52">
     <g>
      <use style="fill:#0000ff;stroke:#0000ff;stroke-width:0.5;" x="381.07125" xlink:href="#m270f31f8b9" y="42.0035"/>
      <use style="fill:#0000ff;stroke:#0000ff;stroke-width:0.5;" x="401.23125" xlink:href="#m270f31f8b9" y="42.0035"/>
     </g>
    </g>
    <g id="text_21">
     <!-- wiht logical &amp; -->
     <defs>
      <path d="M 4.203125 54.6875 
L 13.1875 54.6875 
L 24.421875 12.015625 
L 35.59375 54.6875 
L 46.1875 54.6875 
L 57.421875 12.015625 
L 68.609375 54.6875 
L 77.59375 54.6875 
L 63.28125 0 
L 52.6875 0 
L 40.921875 44.828125 
L 29.109375 0 
L 18.5 0 
z
" id="BitstreamVeraSans-Roman-77"/>
     </defs>
     <g transform="translate(417.07125 47.0435)scale(0.144 -0.144)">
      <use xlink:href="#BitstreamVeraSans-Roman-77"/>
      <use x="81.787109375" xlink:href="#BitstreamVeraSans-Roman-69"/>
      <use x="109.5703125" xlink:href="#BitstreamVeraSans-Roman-68"/>
      <use x="172.94921875" xlink:href="#BitstreamVeraSans-Roman-74"/>
      <use x="212.158203125" xlink:href="#BitstreamVeraSans-Roman-20"/>
      <use x="243.9453125" xlink:href="#BitstreamVeraSans-Roman-6c"/>
      <use x="271.728515625" xlink:href="#BitstreamVeraSans-Roman-6f"/>
      <use x="332.91015625" xlink:href="#BitstreamVeraSans-Roman-67"/>
      <use x="396.38671875" xlink:href="#BitstreamVeraSans-Roman-69"/>
      <use x="424.169921875" xlink:href="#BitstreamVeraSans-Roman-63"/>
      <use x="479.150390625" xlink:href="#BitstreamVeraSans-Roman-61"/>
      <use x="540.4296875" xlink:href="#BitstreamVeraSans-Roman-6c"/>
      <use x="568.212890625" xlink:href="#BitstreamVeraSans-Roman-20"/>
      <use x="600.0" xlink:href="#BitstreamVeraSans-Roman-26"/>
     </g>
    </g>
    <g id="line2d_53">
     <path d="M 381.07125 63.14 
L 401.23125 63.14 
" style="fill:none;stroke:#008000;stroke-linecap:square;"/>
    </g>
    <g id="line2d_54">
     <g>
      <use style="fill:#008000;stroke:#008000;stroke-width:0.5;" x="381.07125" xlink:href="#mf2eb13e039" y="63.14"/>
      <use style="fill:#008000;stroke:#008000;stroke-width:0.5;" x="401.23125" xlink:href="#mf2eb13e039" y="63.14"/>
     </g>
    </g>
    <g id="text_22">
     <!-- bf = 72 -->
     <defs>
      <path d="M 37.109375 75.984375 
L 37.109375 68.5 
L 28.515625 68.5 
Q 23.6875 68.5 21.796875 66.546875 
Q 19.921875 64.59375 19.921875 59.515625 
L 19.921875 54.6875 
L 34.71875 54.6875 
L 34.71875 47.703125 
L 19.921875 47.703125 
L 19.921875 0 
L 10.890625 0 
L 10.890625 47.703125 
L 2.296875 47.703125 
L 2.296875 54.6875 
L 10.890625 54.6875 
L 10.890625 58.5 
Q 10.890625 67.625 15.140625 71.796875 
Q 19.390625 75.984375 28.609375 75.984375 
z
" id="BitstreamVeraSans-Roman-66"/>
      <path d="M 48.6875 27.296875 
Q 48.6875 37.203125 44.609375 42.84375 
Q 40.53125 48.484375 33.40625 48.484375 
Q 26.265625 48.484375 22.1875 42.84375 
Q 18.109375 37.203125 18.109375 27.296875 
Q 18.109375 17.390625 22.1875 11.75 
Q 26.265625 6.109375 33.40625 6.109375 
Q 40.53125 6.109375 44.609375 11.75 
Q 48.6875 17.390625 48.6875 27.296875 
M 18.109375 46.390625 
Q 20.953125 51.265625 25.265625 53.625 
Q 29.59375 56 35.59375 56 
Q 45.5625 56 51.78125 48.09375 
Q 58.015625 40.1875 58.015625 27.296875 
Q 58.015625 14.40625 51.78125 6.484375 
Q 45.5625 -1.421875 35.59375 -1.421875 
Q 29.59375 -1.421875 25.265625 0.953125 
Q 20.953125 3.328125 18.109375 8.203125 
L 18.109375 0 
L 9.078125 0 
L 9.078125 75.984375 
L 18.109375 75.984375 
z
" id="BitstreamVeraSans-Roman-62"/>
      <path d="M 10.59375 45.40625 
L 73.1875 45.40625 
L 73.1875 37.203125 
L 10.59375 37.203125 
z
M 10.59375 25.484375 
L 73.1875 25.484375 
L 73.1875 17.1875 
L 10.59375 17.1875 
z
" id="BitstreamVeraSans-Roman-3d"/>
     </defs>
     <g transform="translate(417.07125 68.18)scale(0.144 -0.144)">
      <use xlink:href="#BitstreamVeraSans-Roman-62"/>
      <use x="63.4765625" xlink:href="#BitstreamVeraSans-Roman-66"/>
      <use x="98.681640625" xlink:href="#BitstreamVeraSans-Roman-20"/>
      <use x="130.46875" xlink:href="#BitstreamVeraSans-Roman-3d"/>
      <use x="214.2578125" xlink:href="#BitstreamVeraSans-Roman-20"/>
      <use x="246.044921875" xlink:href="#BitstreamVeraSans-Roman-37"/>
      <use x="309.66796875" xlink:href="#BitstreamVeraSans-Roman-32"/>
     </g>
    </g>
   </g>
  </g>
 </g>
 <defs>
  <clipPath id="pf60da9dd3b">
   <rect height="345.6" width="446.4" x="81.25875" y="23.14175"/>
  </clipPath>
 </defs>
</svg>
