<?xml version="1.0" encoding="utf-8" standalone="no"?>
<!DOCTYPE svg PUBLIC "-//W3C//DTD SVG 1.1//EN"
  "http://www.w3.org/Graphics/SVG/1.1/DTD/svg11.dtd">
<!-- Created with matplotlib (http://matplotlib.org/) -->
<svg height="398pt" version="1.1" viewBox="0 0 519 398" width="519pt" xmlns="http://www.w3.org/2000/svg" xmlns:xlink="http://www.w3.org/1999/xlink">
 <defs>
  <style type="text/css">
*{stroke-linecap:butt;stroke-linejoin:round;stroke-miterlimit:100000;}
  </style>
 </defs>
 <g id="figure_1">
  <g id="patch_1">
   <path d="M 0 398.034375 
L 519.585 398.034375 
L 519.585 0 
L 0 0 
z
" style="fill:#ffffff;"/>
  </g>
  <g id="axes_1">
   <g id="patch_2">
    <path d="M 62.1675 170.097784 
L 508.5675 170.097784 
L 508.5675 13.006875 
L 62.1675 13.006875 
z
" style="fill:#ffffff;"/>
   </g>
   <g id="line2d_1">
    <path clip-path="url(#peb2094dc87)" d="M 71.0955 92.188787 
L 80.0235 78.758394 
L 88.9515 93.430867 
L 97.8795 86.22845 
L 106.8075 92.401215 
L 115.7355 82.347122 
L 124.6635 81.172546 
L 133.5915 91.971018 
L 142.5195 80.575429 
L 151.4475 75.86075 
L 160.3755 84.348772 
L 169.3035 86.184778 
L 178.2315 55.633487 
L 187.1595 72.968533 
L 196.0875 88.110685 
L 205.0155 81.585999 
L 213.9435 103.182602 
L 222.8715 79.560493 
L 231.7995 92.955076 
L 240.7275 86.608634 
L 249.6555 90.746257 
L 258.5835 87.068014 
L 267.5115 77.596249 
L 276.4395 88.996714 
L 285.3675 131.175807 
L 294.2955 84.567675 
L 303.2235 27.030182 
L 312.1515 49.912597 
L 321.0795 85.488482 
L 330.0075 84.744812 
L 338.9355 85.326426 
L 347.8635 80.263174 
L 356.7915 85.953732 
L 365.7195 93.812293 
L 374.6475 81.296221 
L 383.5755 76.091314 
L 392.5035 88.346921 
L 401.4315 89.740385 
L 410.3595 82.693013 
L 419.2875 92.593503 
L 428.2155 71.226104 
L 437.1435 157.983534 
L 446.0715 76.574712 
L 454.9995 84.194594 
L 463.9275 87.30643 
L 472.8555 88.394758 
L 481.7835 78.49249 
L 490.7115 90.330241 
L 499.6395 87.193455 
L 508.5675 86.409965 
" style="fill:none;stroke:#0000ff;stroke-linecap:square;"/>
    <defs>
     <path d="M 0 1.5 
C 0.397805 1.5 0.77937 1.341951 1.06066 1.06066 
C 1.341951 0.77937 1.5 0.397805 1.5 0 
C 1.5 -0.397805 1.341951 -0.77937 1.06066 -1.06066 
C 0.77937 -1.341951 0.397805 -1.5 0 -1.5 
C -0.397805 -1.5 -0.77937 -1.341951 -1.06066 -1.06066 
C -1.341951 -0.77937 -1.5 -0.397805 -1.5 0 
C -1.5 0.397805 -1.341951 0.77937 -1.06066 1.06066 
C -0.77937 1.341951 -0.397805 1.5 0 1.5 
z
" id="m99793ff9a4" style="stroke:#0000ff;stroke-width:0.5;"/>
    </defs>
    <g clip-path="url(#peb2094dc87)">
     <use style="fill:#0000ff;stroke:#0000ff;stroke-width:0.5;" x="71.0955" xlink:href="#m99793ff9a4" y="92.1887868052"/>
     <use style="fill:#0000ff;stroke:#0000ff;stroke-width:0.5;" x="80.0235" xlink:href="#m99793ff9a4" y="78.7583938674"/>
     <use style="fill:#0000ff;stroke:#0000ff;stroke-width:0.5;" x="88.9515" xlink:href="#m99793ff9a4" y="93.4308673573"/>
     <use style="fill:#0000ff;stroke:#0000ff;stroke-width:0.5;" x="97.8795" xlink:href="#m99793ff9a4" y="86.2284495059"/>
     <use style="fill:#0000ff;stroke:#0000ff;stroke-width:0.5;" x="106.8075" xlink:href="#m99793ff9a4" y="92.4012147731"/>
     <use style="fill:#0000ff;stroke:#0000ff;stroke-width:0.5;" x="115.7355" xlink:href="#m99793ff9a4" y="82.3471221055"/>
     <use style="fill:#0000ff;stroke:#0000ff;stroke-width:0.5;" x="124.6635" xlink:href="#m99793ff9a4" y="81.1725463932"/>
     <use style="fill:#0000ff;stroke:#0000ff;stroke-width:0.5;" x="133.5915" xlink:href="#m99793ff9a4" y="91.9710176309"/>
     <use style="fill:#0000ff;stroke:#0000ff;stroke-width:0.5;" x="142.5195" xlink:href="#m99793ff9a4" y="80.5754292059"/>
     <use style="fill:#0000ff;stroke:#0000ff;stroke-width:0.5;" x="151.4475" xlink:href="#m99793ff9a4" y="75.8607501552"/>
     <use style="fill:#0000ff;stroke:#0000ff;stroke-width:0.5;" x="160.3755" xlink:href="#m99793ff9a4" y="84.3487717585"/>
     <use style="fill:#0000ff;stroke:#0000ff;stroke-width:0.5;" x="169.3035" xlink:href="#m99793ff9a4" y="86.1847784302"/>
     <use style="fill:#0000ff;stroke:#0000ff;stroke-width:0.5;" x="178.2315" xlink:href="#m99793ff9a4" y="55.6334870997"/>
     <use style="fill:#0000ff;stroke:#0000ff;stroke-width:0.5;" x="187.1595" xlink:href="#m99793ff9a4" y="72.9685326767"/>
     <use style="fill:#0000ff;stroke:#0000ff;stroke-width:0.5;" x="196.0875" xlink:href="#m99793ff9a4" y="88.1106850955"/>
     <use style="fill:#0000ff;stroke:#0000ff;stroke-width:0.5;" x="205.0155" xlink:href="#m99793ff9a4" y="81.58599947"/>
     <use style="fill:#0000ff;stroke:#0000ff;stroke-width:0.5;" x="213.9435" xlink:href="#m99793ff9a4" y="103.182602128"/>
     <use style="fill:#0000ff;stroke:#0000ff;stroke-width:0.5;" x="222.8715" xlink:href="#m99793ff9a4" y="79.5604933827"/>
     <use style="fill:#0000ff;stroke:#0000ff;stroke-width:0.5;" x="231.7995" xlink:href="#m99793ff9a4" y="92.9550763665"/>
     <use style="fill:#0000ff;stroke:#0000ff;stroke-width:0.5;" x="240.7275" xlink:href="#m99793ff9a4" y="86.6086342499"/>
     <use style="fill:#0000ff;stroke:#0000ff;stroke-width:0.5;" x="249.6555" xlink:href="#m99793ff9a4" y="90.7462568966"/>
     <use style="fill:#0000ff;stroke:#0000ff;stroke-width:0.5;" x="258.5835" xlink:href="#m99793ff9a4" y="87.0680143726"/>
     <use style="fill:#0000ff;stroke:#0000ff;stroke-width:0.5;" x="267.5115" xlink:href="#m99793ff9a4" y="77.5962491333"/>
     <use style="fill:#0000ff;stroke:#0000ff;stroke-width:0.5;" x="276.4395" xlink:href="#m99793ff9a4" y="88.9967141911"/>
     <use style="fill:#0000ff;stroke:#0000ff;stroke-width:0.5;" x="285.3675" xlink:href="#m99793ff9a4" y="131.175806718"/>
     <use style="fill:#0000ff;stroke:#0000ff;stroke-width:0.5;" x="294.2955" xlink:href="#m99793ff9a4" y="84.5676748281"/>
     <use style="fill:#0000ff;stroke:#0000ff;stroke-width:0.5;" x="303.2235" xlink:href="#m99793ff9a4" y="27.0301822832"/>
     <use style="fill:#0000ff;stroke:#0000ff;stroke-width:0.5;" x="312.1515" xlink:href="#m99793ff9a4" y="49.9125968321"/>
     <use style="fill:#0000ff;stroke:#0000ff;stroke-width:0.5;" x="321.0795" xlink:href="#m99793ff9a4" y="85.4884816893"/>
     <use style="fill:#0000ff;stroke:#0000ff;stroke-width:0.5;" x="330.0075" xlink:href="#m99793ff9a4" y="84.7448121987"/>
     <use style="fill:#0000ff;stroke:#0000ff;stroke-width:0.5;" x="338.9355" xlink:href="#m99793ff9a4" y="85.3264259824"/>
     <use style="fill:#0000ff;stroke:#0000ff;stroke-width:0.5;" x="347.8635" xlink:href="#m99793ff9a4" y="80.2631738792"/>
     <use style="fill:#0000ff;stroke:#0000ff;stroke-width:0.5;" x="356.7915" xlink:href="#m99793ff9a4" y="85.9537318022"/>
     <use style="fill:#0000ff;stroke:#0000ff;stroke-width:0.5;" x="365.7195" xlink:href="#m99793ff9a4" y="93.8122933294"/>
     <use style="fill:#0000ff;stroke:#0000ff;stroke-width:0.5;" x="374.6475" xlink:href="#m99793ff9a4" y="81.2962205171"/>
     <use style="fill:#0000ff;stroke:#0000ff;stroke-width:0.5;" x="383.5755" xlink:href="#m99793ff9a4" y="76.0913137632"/>
     <use style="fill:#0000ff;stroke:#0000ff;stroke-width:0.5;" x="392.5035" xlink:href="#m99793ff9a4" y="88.3469207253"/>
     <use style="fill:#0000ff;stroke:#0000ff;stroke-width:0.5;" x="401.4315" xlink:href="#m99793ff9a4" y="89.7403846001"/>
     <use style="fill:#0000ff;stroke:#0000ff;stroke-width:0.5;" x="410.3595" xlink:href="#m99793ff9a4" y="82.693012794"/>
     <use style="fill:#0000ff;stroke:#0000ff;stroke-width:0.5;" x="419.2875" xlink:href="#m99793ff9a4" y="92.5935028463"/>
     <use style="fill:#0000ff;stroke:#0000ff;stroke-width:0.5;" x="428.2155" xlink:href="#m99793ff9a4" y="71.2261035351"/>
     <use style="fill:#0000ff;stroke:#0000ff;stroke-width:0.5;" x="437.1435" xlink:href="#m99793ff9a4" y="157.983534391"/>
     <use style="fill:#0000ff;stroke:#0000ff;stroke-width:0.5;" x="446.0715" xlink:href="#m99793ff9a4" y="76.5747117348"/>
     <use style="fill:#0000ff;stroke:#0000ff;stroke-width:0.5;" x="454.9995" xlink:href="#m99793ff9a4" y="84.1945937718"/>
     <use style="fill:#0000ff;stroke:#0000ff;stroke-width:0.5;" x="463.9275" xlink:href="#m99793ff9a4" y="87.3064301358"/>
     <use style="fill:#0000ff;stroke:#0000ff;stroke-width:0.5;" x="472.8555" xlink:href="#m99793ff9a4" y="88.3947581357"/>
     <use style="fill:#0000ff;stroke:#0000ff;stroke-width:0.5;" x="481.7835" xlink:href="#m99793ff9a4" y="78.4924898916"/>
     <use style="fill:#0000ff;stroke:#0000ff;stroke-width:0.5;" x="490.7115" xlink:href="#m99793ff9a4" y="90.3302407178"/>
     <use style="fill:#0000ff;stroke:#0000ff;stroke-width:0.5;" x="499.6395" xlink:href="#m99793ff9a4" y="87.1934545884"/>
     <use style="fill:#0000ff;stroke:#0000ff;stroke-width:0.5;" x="508.5675" xlink:href="#m99793ff9a4" y="86.4099652136"/>
    </g>
   </g>
   <g id="patch_3">
    <path d="M 508.5675 170.097784 
L 508.5675 13.006875 
" style="fill:none;stroke:#000000;stroke-linecap:square;stroke-linejoin:miter;"/>
   </g>
   <g id="patch_4">
    <path d="M 62.1675 170.097784 
L 508.5675 170.097784 
" style="fill:none;stroke:#000000;stroke-linecap:square;stroke-linejoin:miter;"/>
   </g>
   <g id="patch_5">
    <path d="M 62.1675 170.097784 
L 62.1675 13.006875 
" style="fill:none;stroke:#000000;stroke-linecap:square;stroke-linejoin:miter;"/>
   </g>
   <g id="patch_6">
    <path d="M 62.1675 13.006875 
L 508.5675 13.006875 
" style="fill:none;stroke:#000000;stroke-linecap:square;stroke-linejoin:miter;"/>
   </g>
   <g id="matplotlib.axis_1">
    <g id="xtick_1">
     <g id="line2d_2">
      <path clip-path="url(#peb2094dc87)" d="M 62.1675 170.097784 
L 62.1675 13.006875 
" style="fill:none;stroke:#000000;stroke-dasharray:1.000000,3.000000;stroke-dashoffset:0.0;stroke-width:0.5;"/>
     </g>
     <g id="line2d_3">
      <defs>
       <path d="M 0 0 
L 0 -4 
" id="m2a4d39e2a7" style="stroke:#000000;stroke-width:0.5;"/>
      </defs>
      <g>
       <use style="stroke:#000000;stroke-width:0.5;" x="62.1675" xlink:href="#m2a4d39e2a7" y="170.097784091"/>
      </g>
     </g>
     <g id="line2d_4">
      <defs>
       <path d="M 0 0 
L 0 4 
" id="m7c2ff624e6" style="stroke:#000000;stroke-width:0.5;"/>
      </defs>
      <g>
       <use style="stroke:#000000;stroke-width:0.5;" x="62.1675" xlink:href="#m7c2ff624e6" y="13.006875"/>
      </g>
     </g>
     <g id="text_1">
      <!-- 0 -->
      <defs>
       <path d="M 31.78125 66.40625 
Q 24.171875 66.40625 20.328125 58.90625 
Q 16.5 51.421875 16.5 36.375 
Q 16.5 21.390625 20.328125 13.890625 
Q 24.171875 6.390625 31.78125 6.390625 
Q 39.453125 6.390625 43.28125 13.890625 
Q 47.125 21.390625 47.125 36.375 
Q 47.125 51.421875 43.28125 58.90625 
Q 39.453125 66.40625 31.78125 66.40625 
M 31.78125 74.21875 
Q 44.046875 74.21875 50.515625 64.515625 
Q 56.984375 54.828125 56.984375 36.375 
Q 56.984375 17.96875 50.515625 8.265625 
Q 44.046875 -1.421875 31.78125 -1.421875 
Q 19.53125 -1.421875 13.0625 8.265625 
Q 6.59375 17.96875 6.59375 36.375 
Q 6.59375 54.828125 13.0625 64.515625 
Q 19.53125 74.21875 31.78125 74.21875 
" id="BitstreamVeraSans-Roman-30"/>
      </defs>
      <g transform="translate(58.35 183.215909091)scale(0.12 -0.12)">
       <use xlink:href="#BitstreamVeraSans-Roman-30"/>
      </g>
     </g>
    </g>
    <g id="xtick_2">
     <g id="line2d_5">
      <path clip-path="url(#peb2094dc87)" d="M 151.4475 170.097784 
L 151.4475 13.006875 
" style="fill:none;stroke:#000000;stroke-dasharray:1.000000,3.000000;stroke-dashoffset:0.0;stroke-width:0.5;"/>
     </g>
     <g id="line2d_6">
      <g>
       <use style="stroke:#000000;stroke-width:0.5;" x="151.4475" xlink:href="#m2a4d39e2a7" y="170.097784091"/>
      </g>
     </g>
     <g id="line2d_7">
      <g>
       <use style="stroke:#000000;stroke-width:0.5;" x="151.4475" xlink:href="#m7c2ff624e6" y="13.006875"/>
      </g>
     </g>
     <g id="text_2">
      <!-- 1 -->
      <defs>
       <path d="M 12.40625 8.296875 
L 28.515625 8.296875 
L 28.515625 63.921875 
L 10.984375 60.40625 
L 10.984375 69.390625 
L 28.421875 72.90625 
L 38.28125 72.90625 
L 38.28125 8.296875 
L 54.390625 8.296875 
L 54.390625 0 
L 12.40625 0 
z
" id="BitstreamVeraSans-Roman-31"/>
      </defs>
      <g transform="translate(147.63 183.215909091)scale(0.12 -0.12)">
       <use xlink:href="#BitstreamVeraSans-Roman-31"/>
      </g>
     </g>
    </g>
    <g id="xtick_3">
     <g id="line2d_8">
      <path clip-path="url(#peb2094dc87)" d="M 240.7275 170.097784 
L 240.7275 13.006875 
" style="fill:none;stroke:#000000;stroke-dasharray:1.000000,3.000000;stroke-dashoffset:0.0;stroke-width:0.5;"/>
     </g>
     <g id="line2d_9">
      <g>
       <use style="stroke:#000000;stroke-width:0.5;" x="240.7275" xlink:href="#m2a4d39e2a7" y="170.097784091"/>
      </g>
     </g>
     <g id="line2d_10">
      <g>
       <use style="stroke:#000000;stroke-width:0.5;" x="240.7275" xlink:href="#m7c2ff624e6" y="13.006875"/>
      </g>
     </g>
     <g id="text_3">
      <!-- 2 -->
      <defs>
       <path d="M 19.1875 8.296875 
L 53.609375 8.296875 
L 53.609375 0 
L 7.328125 0 
L 7.328125 8.296875 
Q 12.9375 14.109375 22.625 23.890625 
Q 32.328125 33.6875 34.8125 36.53125 
Q 39.546875 41.84375 41.421875 45.53125 
Q 43.3125 49.21875 43.3125 52.78125 
Q 43.3125 58.59375 39.234375 62.25 
Q 35.15625 65.921875 28.609375 65.921875 
Q 23.96875 65.921875 18.8125 64.3125 
Q 13.671875 62.703125 7.8125 59.421875 
L 7.8125 69.390625 
Q 13.765625 71.78125 18.9375 73 
Q 24.125 74.21875 28.421875 74.21875 
Q 39.75 74.21875 46.484375 68.546875 
Q 53.21875 62.890625 53.21875 53.421875 
Q 53.21875 48.921875 51.53125 44.890625 
Q 49.859375 40.875 45.40625 35.40625 
Q 44.1875 33.984375 37.640625 27.21875 
Q 31.109375 20.453125 19.1875 8.296875 
" id="BitstreamVeraSans-Roman-32"/>
      </defs>
      <g transform="translate(236.91 183.215909091)scale(0.12 -0.12)">
       <use xlink:href="#BitstreamVeraSans-Roman-32"/>
      </g>
     </g>
    </g>
    <g id="xtick_4">
     <g id="line2d_11">
      <path clip-path="url(#peb2094dc87)" d="M 330.0075 170.097784 
L 330.0075 13.006875 
" style="fill:none;stroke:#000000;stroke-dasharray:1.000000,3.000000;stroke-dashoffset:0.0;stroke-width:0.5;"/>
     </g>
     <g id="line2d_12">
      <g>
       <use style="stroke:#000000;stroke-width:0.5;" x="330.0075" xlink:href="#m2a4d39e2a7" y="170.097784091"/>
      </g>
     </g>
     <g id="line2d_13">
      <g>
       <use style="stroke:#000000;stroke-width:0.5;" x="330.0075" xlink:href="#m7c2ff624e6" y="13.006875"/>
      </g>
     </g>
     <g id="text_4">
      <!-- 3 -->
      <defs>
       <path d="M 40.578125 39.3125 
Q 47.65625 37.796875 51.625 33 
Q 55.609375 28.21875 55.609375 21.1875 
Q 55.609375 10.40625 48.1875 4.484375 
Q 40.765625 -1.421875 27.09375 -1.421875 
Q 22.515625 -1.421875 17.65625 -0.515625 
Q 12.796875 0.390625 7.625 2.203125 
L 7.625 11.71875 
Q 11.71875 9.328125 16.59375 8.109375 
Q 21.484375 6.890625 26.8125 6.890625 
Q 36.078125 6.890625 40.9375 10.546875 
Q 45.796875 14.203125 45.796875 21.1875 
Q 45.796875 27.640625 41.28125 31.265625 
Q 36.765625 34.90625 28.71875 34.90625 
L 20.21875 34.90625 
L 20.21875 43.015625 
L 29.109375 43.015625 
Q 36.375 43.015625 40.234375 45.921875 
Q 44.09375 48.828125 44.09375 54.296875 
Q 44.09375 59.90625 40.109375 62.90625 
Q 36.140625 65.921875 28.71875 65.921875 
Q 24.65625 65.921875 20.015625 65.03125 
Q 15.375 64.15625 9.8125 62.3125 
L 9.8125 71.09375 
Q 15.4375 72.65625 20.34375 73.4375 
Q 25.25 74.21875 29.59375 74.21875 
Q 40.828125 74.21875 47.359375 69.109375 
Q 53.90625 64.015625 53.90625 55.328125 
Q 53.90625 49.265625 50.4375 45.09375 
Q 46.96875 40.921875 40.578125 39.3125 
" id="BitstreamVeraSans-Roman-33"/>
      </defs>
      <g transform="translate(326.19 183.215909091)scale(0.12 -0.12)">
       <use xlink:href="#BitstreamVeraSans-Roman-33"/>
      </g>
     </g>
    </g>
    <g id="xtick_5">
     <g id="line2d_14">
      <path clip-path="url(#peb2094dc87)" d="M 419.2875 170.097784 
L 419.2875 13.006875 
" style="fill:none;stroke:#000000;stroke-dasharray:1.000000,3.000000;stroke-dashoffset:0.0;stroke-width:0.5;"/>
     </g>
     <g id="line2d_15">
      <g>
       <use style="stroke:#000000;stroke-width:0.5;" x="419.2875" xlink:href="#m2a4d39e2a7" y="170.097784091"/>
      </g>
     </g>
     <g id="line2d_16">
      <g>
       <use style="stroke:#000000;stroke-width:0.5;" x="419.2875" xlink:href="#m7c2ff624e6" y="13.006875"/>
      </g>
     </g>
     <g id="text_5">
      <!-- 4 -->
      <defs>
       <path d="M 37.796875 64.3125 
L 12.890625 25.390625 
L 37.796875 25.390625 
z
M 35.203125 72.90625 
L 47.609375 72.90625 
L 47.609375 25.390625 
L 58.015625 25.390625 
L 58.015625 17.1875 
L 47.609375 17.1875 
L 47.609375 0 
L 37.796875 0 
L 37.796875 17.1875 
L 4.890625 17.1875 
L 4.890625 26.703125 
z
" id="BitstreamVeraSans-Roman-34"/>
      </defs>
      <g transform="translate(415.47 183.215909091)scale(0.12 -0.12)">
       <use xlink:href="#BitstreamVeraSans-Roman-34"/>
      </g>
     </g>
    </g>
    <g id="xtick_6">
     <g id="line2d_17">
      <path clip-path="url(#peb2094dc87)" d="M 508.5675 170.097784 
L 508.5675 13.006875 
" style="fill:none;stroke:#000000;stroke-dasharray:1.000000,3.000000;stroke-dashoffset:0.0;stroke-width:0.5;"/>
     </g>
     <g id="line2d_18">
      <g>
       <use style="stroke:#000000;stroke-width:0.5;" x="508.5675" xlink:href="#m2a4d39e2a7" y="170.097784091"/>
      </g>
     </g>
     <g id="line2d_19">
      <g>
       <use style="stroke:#000000;stroke-width:0.5;" x="508.5675" xlink:href="#m7c2ff624e6" y="13.006875"/>
      </g>
     </g>
     <g id="text_6">
      <!-- 5 -->
      <defs>
       <path d="M 10.796875 72.90625 
L 49.515625 72.90625 
L 49.515625 64.59375 
L 19.828125 64.59375 
L 19.828125 46.734375 
Q 21.96875 47.46875 24.109375 47.828125 
Q 26.265625 48.1875 28.421875 48.1875 
Q 40.625 48.1875 47.75 41.5 
Q 54.890625 34.8125 54.890625 23.390625 
Q 54.890625 11.625 47.5625 5.09375 
Q 40.234375 -1.421875 26.90625 -1.421875 
Q 22.3125 -1.421875 17.546875 -0.640625 
Q 12.796875 0.140625 7.71875 1.703125 
L 7.71875 11.625 
Q 12.109375 9.234375 16.796875 8.0625 
Q 21.484375 6.890625 26.703125 6.890625 
Q 35.15625 6.890625 40.078125 11.328125 
Q 45.015625 15.765625 45.015625 23.390625 
Q 45.015625 31 40.078125 35.4375 
Q 35.15625 39.890625 26.703125 39.890625 
Q 22.75 39.890625 18.8125 39.015625 
Q 14.890625 38.140625 10.796875 36.28125 
z
" id="BitstreamVeraSans-Roman-35"/>
      </defs>
      <g transform="translate(504.75 183.215909091)scale(0.12 -0.12)">
       <use xlink:href="#BitstreamVeraSans-Roman-35"/>
      </g>
     </g>
    </g>
    <g id="text_7">
     <!-- n - pocet linearnich generatoru -->
     <defs>
      <path d="M 56.203125 29.59375 
L 56.203125 25.203125 
L 14.890625 25.203125 
Q 15.484375 15.921875 20.484375 11.0625 
Q 25.484375 6.203125 34.421875 6.203125 
Q 39.59375 6.203125 44.453125 7.46875 
Q 49.3125 8.734375 54.109375 11.28125 
L 54.109375 2.78125 
Q 49.265625 0.734375 44.1875 -0.34375 
Q 39.109375 -1.421875 33.890625 -1.421875 
Q 20.796875 -1.421875 13.15625 6.1875 
Q 5.515625 13.8125 5.515625 26.8125 
Q 5.515625 40.234375 12.765625 48.109375 
Q 20.015625 56 32.328125 56 
Q 43.359375 56 49.78125 48.890625 
Q 56.203125 41.796875 56.203125 29.59375 
M 47.21875 32.234375 
Q 47.125 39.59375 43.09375 43.984375 
Q 39.0625 48.390625 32.421875 48.390625 
Q 24.90625 48.390625 20.390625 44.140625 
Q 15.875 39.890625 15.1875 32.171875 
z
" id="BitstreamVeraSans-Roman-65"/>
      <path d="M 48.78125 52.59375 
L 48.78125 44.1875 
Q 44.96875 46.296875 41.140625 47.34375 
Q 37.3125 48.390625 33.40625 48.390625 
Q 24.65625 48.390625 19.8125 42.84375 
Q 14.984375 37.3125 14.984375 27.296875 
Q 14.984375 17.28125 19.8125 11.734375 
Q 24.65625 6.203125 33.40625 6.203125 
Q 37.3125 6.203125 41.140625 7.25 
Q 44.96875 8.296875 48.78125 10.40625 
L 48.78125 2.09375 
Q 45.015625 0.34375 40.984375 -0.53125 
Q 36.96875 -1.421875 32.421875 -1.421875 
Q 20.0625 -1.421875 12.78125 6.34375 
Q 5.515625 14.109375 5.515625 27.296875 
Q 5.515625 40.671875 12.859375 48.328125 
Q 20.21875 56 33.015625 56 
Q 37.15625 56 41.109375 55.140625 
Q 45.0625 54.296875 48.78125 52.59375 
" id="BitstreamVeraSans-Roman-63"/>
      <path d="M 45.40625 27.984375 
Q 45.40625 37.75 41.375 43.109375 
Q 37.359375 48.484375 30.078125 48.484375 
Q 22.859375 48.484375 18.828125 43.109375 
Q 14.796875 37.75 14.796875 27.984375 
Q 14.796875 18.265625 18.828125 12.890625 
Q 22.859375 7.515625 30.078125 7.515625 
Q 37.359375 7.515625 41.375 12.890625 
Q 45.40625 18.265625 45.40625 27.984375 
M 54.390625 6.78125 
Q 54.390625 -7.171875 48.1875 -13.984375 
Q 42 -20.796875 29.203125 -20.796875 
Q 24.46875 -20.796875 20.265625 -20.09375 
Q 16.0625 -19.390625 12.109375 -17.921875 
L 12.109375 -9.1875 
Q 16.0625 -11.328125 19.921875 -12.34375 
Q 23.78125 -13.375 27.78125 -13.375 
Q 36.625 -13.375 41.015625 -8.765625 
Q 45.40625 -4.15625 45.40625 5.171875 
L 45.40625 9.625 
Q 42.625 4.78125 38.28125 2.390625 
Q 33.9375 0 27.875 0 
Q 17.828125 0 11.671875 7.65625 
Q 5.515625 15.328125 5.515625 27.984375 
Q 5.515625 40.671875 11.671875 48.328125 
Q 17.828125 56 27.875 56 
Q 33.9375 56 38.28125 53.609375 
Q 42.625 51.21875 45.40625 46.390625 
L 45.40625 54.6875 
L 54.390625 54.6875 
z
" id="BitstreamVeraSans-Roman-67"/>
      <path d="M 9.421875 75.984375 
L 18.40625 75.984375 
L 18.40625 0 
L 9.421875 0 
z
" id="BitstreamVeraSans-Roman-6c"/>
      <path d="M 54.890625 33.015625 
L 54.890625 0 
L 45.90625 0 
L 45.90625 32.71875 
Q 45.90625 40.484375 42.875 44.328125 
Q 39.84375 48.1875 33.796875 48.1875 
Q 26.515625 48.1875 22.3125 43.546875 
Q 18.109375 38.921875 18.109375 30.90625 
L 18.109375 0 
L 9.078125 0 
L 9.078125 75.984375 
L 18.109375 75.984375 
L 18.109375 46.1875 
Q 21.34375 51.125 25.703125 53.5625 
Q 30.078125 56 35.796875 56 
Q 45.21875 56 50.046875 50.171875 
Q 54.890625 44.34375 54.890625 33.015625 
" id="BitstreamVeraSans-Roman-68"/>
      <path d="M 4.890625 31.390625 
L 31.203125 31.390625 
L 31.203125 23.390625 
L 4.890625 23.390625 
z
" id="BitstreamVeraSans-Roman-2d"/>
      <path d="M 34.28125 27.484375 
Q 23.390625 27.484375 19.1875 25 
Q 14.984375 22.515625 14.984375 16.5 
Q 14.984375 11.71875 18.140625 8.90625 
Q 21.296875 6.109375 26.703125 6.109375 
Q 34.1875 6.109375 38.703125 11.40625 
Q 43.21875 16.703125 43.21875 25.484375 
L 43.21875 27.484375 
z
M 52.203125 31.203125 
L 52.203125 0 
L 43.21875 0 
L 43.21875 8.296875 
Q 40.140625 3.328125 35.546875 0.953125 
Q 30.953125 -1.421875 24.3125 -1.421875 
Q 15.921875 -1.421875 10.953125 3.296875 
Q 6 8.015625 6 15.921875 
Q 6 25.140625 12.171875 29.828125 
Q 18.359375 34.515625 30.609375 34.515625 
L 43.21875 34.515625 
L 43.21875 35.40625 
Q 43.21875 41.609375 39.140625 45 
Q 35.0625 48.390625 27.6875 48.390625 
Q 23 48.390625 18.546875 47.265625 
Q 14.109375 46.140625 10.015625 43.890625 
L 10.015625 52.203125 
Q 14.9375 54.109375 19.578125 55.046875 
Q 24.21875 56 28.609375 56 
Q 40.484375 56 46.34375 49.84375 
Q 52.203125 43.703125 52.203125 31.203125 
" id="BitstreamVeraSans-Roman-61"/>
      <path d="M 41.109375 46.296875 
Q 39.59375 47.171875 37.8125 47.578125 
Q 36.03125 48 33.890625 48 
Q 26.265625 48 22.1875 43.046875 
Q 18.109375 38.09375 18.109375 28.8125 
L 18.109375 0 
L 9.078125 0 
L 9.078125 54.6875 
L 18.109375 54.6875 
L 18.109375 46.1875 
Q 20.953125 51.171875 25.484375 53.578125 
Q 30.03125 56 36.53125 56 
Q 37.453125 56 38.578125 55.875 
Q 39.703125 55.765625 41.0625 55.515625 
z
" id="BitstreamVeraSans-Roman-72"/>
      <path d="M 18.3125 70.21875 
L 18.3125 54.6875 
L 36.8125 54.6875 
L 36.8125 47.703125 
L 18.3125 47.703125 
L 18.3125 18.015625 
Q 18.3125 11.328125 20.140625 9.421875 
Q 21.96875 7.515625 27.59375 7.515625 
L 36.8125 7.515625 
L 36.8125 0 
L 27.59375 0 
Q 17.1875 0 13.234375 3.875 
Q 9.28125 7.765625 9.28125 18.015625 
L 9.28125 47.703125 
L 2.6875 47.703125 
L 2.6875 54.6875 
L 9.28125 54.6875 
L 9.28125 70.21875 
z
" id="BitstreamVeraSans-Roman-74"/>
      <path d="M 8.5 21.578125 
L 8.5 54.6875 
L 17.484375 54.6875 
L 17.484375 21.921875 
Q 17.484375 14.15625 20.5 10.265625 
Q 23.53125 6.390625 29.59375 6.390625 
Q 36.859375 6.390625 41.078125 11.03125 
Q 45.3125 15.671875 45.3125 23.6875 
L 45.3125 54.6875 
L 54.296875 54.6875 
L 54.296875 0 
L 45.3125 0 
L 45.3125 8.40625 
Q 42.046875 3.421875 37.71875 1 
Q 33.40625 -1.421875 27.6875 -1.421875 
Q 18.265625 -1.421875 13.375 4.4375 
Q 8.5 10.296875 8.5 21.578125 
" id="BitstreamVeraSans-Roman-75"/>
      <path d="M 9.421875 54.6875 
L 18.40625 54.6875 
L 18.40625 0 
L 9.421875 0 
z
M 9.421875 75.984375 
L 18.40625 75.984375 
L 18.40625 64.59375 
L 9.421875 64.59375 
z
" id="BitstreamVeraSans-Roman-69"/>
      <path d="M 30.609375 48.390625 
Q 23.390625 48.390625 19.1875 42.75 
Q 14.984375 37.109375 14.984375 27.296875 
Q 14.984375 17.484375 19.15625 11.84375 
Q 23.34375 6.203125 30.609375 6.203125 
Q 37.796875 6.203125 41.984375 11.859375 
Q 46.1875 17.53125 46.1875 27.296875 
Q 46.1875 37.015625 41.984375 42.703125 
Q 37.796875 48.390625 30.609375 48.390625 
M 30.609375 56 
Q 42.328125 56 49.015625 48.375 
Q 55.71875 40.765625 55.71875 27.296875 
Q 55.71875 13.875 49.015625 6.21875 
Q 42.328125 -1.421875 30.609375 -1.421875 
Q 18.84375 -1.421875 12.171875 6.21875 
Q 5.515625 13.875 5.515625 27.296875 
Q 5.515625 40.765625 12.171875 48.375 
Q 18.84375 56 30.609375 56 
" id="BitstreamVeraSans-Roman-6f"/>
      <path d="M 54.890625 33.015625 
L 54.890625 0 
L 45.90625 0 
L 45.90625 32.71875 
Q 45.90625 40.484375 42.875 44.328125 
Q 39.84375 48.1875 33.796875 48.1875 
Q 26.515625 48.1875 22.3125 43.546875 
Q 18.109375 38.921875 18.109375 30.90625 
L 18.109375 0 
L 9.078125 0 
L 9.078125 54.6875 
L 18.109375 54.6875 
L 18.109375 46.1875 
Q 21.34375 51.125 25.703125 53.5625 
Q 30.078125 56 35.796875 56 
Q 45.21875 56 50.046875 50.171875 
Q 54.890625 44.34375 54.890625 33.015625 
" id="BitstreamVeraSans-Roman-6e"/>
      <path d="M 18.109375 8.203125 
L 18.109375 -20.796875 
L 9.078125 -20.796875 
L 9.078125 54.6875 
L 18.109375 54.6875 
L 18.109375 46.390625 
Q 20.953125 51.265625 25.265625 53.625 
Q 29.59375 56 35.59375 56 
Q 45.5625 56 51.78125 48.09375 
Q 58.015625 40.1875 58.015625 27.296875 
Q 58.015625 14.40625 51.78125 6.484375 
Q 45.5625 -1.421875 35.59375 -1.421875 
Q 29.59375 -1.421875 25.265625 0.953125 
Q 20.953125 3.328125 18.109375 8.203125 
M 48.6875 27.296875 
Q 48.6875 37.203125 44.609375 42.84375 
Q 40.53125 48.484375 33.40625 48.484375 
Q 26.265625 48.484375 22.1875 42.84375 
Q 18.109375 37.203125 18.109375 27.296875 
Q 18.109375 17.390625 22.1875 11.75 
Q 26.265625 6.109375 33.40625 6.109375 
Q 40.53125 6.109375 44.609375 11.75 
Q 48.6875 17.390625 48.6875 27.296875 
" id="BitstreamVeraSans-Roman-70"/>
      <path id="BitstreamVeraSans-Roman-20"/>
     </defs>
     <g transform="translate(191.9765625 199.829659091)scale(0.12 -0.12)">
      <use xlink:href="#BitstreamVeraSans-Roman-6e"/>
      <use x="63.37890625" xlink:href="#BitstreamVeraSans-Roman-20"/>
      <use x="95.166015625" xlink:href="#BitstreamVeraSans-Roman-2d"/>
      <use x="131.25" xlink:href="#BitstreamVeraSans-Roman-20"/>
      <use x="163.037109375" xlink:href="#BitstreamVeraSans-Roman-70"/>
      <use x="226.513671875" xlink:href="#BitstreamVeraSans-Roman-6f"/>
      <use x="287.6953125" xlink:href="#BitstreamVeraSans-Roman-63"/>
      <use x="342.67578125" xlink:href="#BitstreamVeraSans-Roman-65"/>
      <use x="404.19921875" xlink:href="#BitstreamVeraSans-Roman-74"/>
      <use x="443.408203125" xlink:href="#BitstreamVeraSans-Roman-20"/>
      <use x="475.1953125" xlink:href="#BitstreamVeraSans-Roman-6c"/>
      <use x="502.978515625" xlink:href="#BitstreamVeraSans-Roman-69"/>
      <use x="530.76171875" xlink:href="#BitstreamVeraSans-Roman-6e"/>
      <use x="594.140625" xlink:href="#BitstreamVeraSans-Roman-65"/>
      <use x="655.6640625" xlink:href="#BitstreamVeraSans-Roman-61"/>
      <use x="716.943359375" xlink:href="#BitstreamVeraSans-Roman-72"/>
      <use x="758.041015625" xlink:href="#BitstreamVeraSans-Roman-6e"/>
      <use x="821.419921875" xlink:href="#BitstreamVeraSans-Roman-69"/>
      <use x="849.203125" xlink:href="#BitstreamVeraSans-Roman-63"/>
      <use x="904.18359375" xlink:href="#BitstreamVeraSans-Roman-68"/>
      <use x="967.5625" xlink:href="#BitstreamVeraSans-Roman-20"/>
      <use x="999.349609375" xlink:href="#BitstreamVeraSans-Roman-67"/>
      <use x="1062.826171875" xlink:href="#BitstreamVeraSans-Roman-65"/>
      <use x="1124.349609375" xlink:href="#BitstreamVeraSans-Roman-6e"/>
      <use x="1187.728515625" xlink:href="#BitstreamVeraSans-Roman-65"/>
      <use x="1249.251953125" xlink:href="#BitstreamVeraSans-Roman-72"/>
      <use x="1290.365234375" xlink:href="#BitstreamVeraSans-Roman-61"/>
      <use x="1351.64453125" xlink:href="#BitstreamVeraSans-Roman-74"/>
      <use x="1390.853515625" xlink:href="#BitstreamVeraSans-Roman-6f"/>
      <use x="1452.03515625" xlink:href="#BitstreamVeraSans-Roman-72"/>
      <use x="1493.1484375" xlink:href="#BitstreamVeraSans-Roman-75"/>
     </g>
    </g>
    <g id="text_8">
     <!-- 1e7 -->
     <defs>
      <path d="M 8.203125 72.90625 
L 55.078125 72.90625 
L 55.078125 68.703125 
L 28.609375 0 
L 18.3125 0 
L 43.21875 64.59375 
L 8.203125 64.59375 
z
" id="BitstreamVeraSans-Roman-37"/>
     </defs>
     <g transform="translate(485.91375 197.829659091)scale(0.12 -0.12)">
      <use xlink:href="#BitstreamVeraSans-Roman-31"/>
      <use x="63.623046875" xlink:href="#BitstreamVeraSans-Roman-65"/>
      <use x="125.146484375" xlink:href="#BitstreamVeraSans-Roman-37"/>
     </g>
    </g>
   </g>
   <g id="matplotlib.axis_2">
    <g id="ytick_1">
     <g id="line2d_20">
      <path clip-path="url(#peb2094dc87)" d="M 62.1675 170.097784 
L 508.5675 170.097784 
" style="fill:none;stroke:#000000;stroke-dasharray:1.000000,3.000000;stroke-dashoffset:0.0;stroke-width:0.5;"/>
     </g>
     <g id="line2d_21">
      <defs>
       <path d="M 0 0 
L 4 0 
" id="mfd35debe9d" style="stroke:#000000;stroke-width:0.5;"/>
      </defs>
      <g>
       <use style="stroke:#000000;stroke-width:0.5;" x="62.1675" xlink:href="#mfd35debe9d" y="170.097784091"/>
      </g>
     </g>
     <g id="line2d_22">
      <defs>
       <path d="M 0 0 
L -4 0 
" id="m1ba6326b52" style="stroke:#000000;stroke-width:0.5;"/>
      </defs>
      <g>
       <use style="stroke:#000000;stroke-width:0.5;" x="508.5675" xlink:href="#m1ba6326b52" y="170.097784091"/>
      </g>
     </g>
     <g id="text_9">
      <!-- 0.045 -->
      <defs>
       <path d="M 10.6875 12.40625 
L 21 12.40625 
L 21 0 
L 10.6875 0 
z
" id="BitstreamVeraSans-Roman-2e"/>
      </defs>
      <g transform="translate(23.81375 173.409034091)scale(0.12 -0.12)">
       <use xlink:href="#BitstreamVeraSans-Roman-30"/>
       <use x="63.623046875" xlink:href="#BitstreamVeraSans-Roman-2e"/>
       <use x="95.41015625" xlink:href="#BitstreamVeraSans-Roman-30"/>
       <use x="159.033203125" xlink:href="#BitstreamVeraSans-Roman-34"/>
       <use x="222.65625" xlink:href="#BitstreamVeraSans-Roman-35"/>
      </g>
     </g>
    </g>
    <g id="ytick_2">
     <g id="line2d_23">
      <path clip-path="url(#peb2094dc87)" d="M 62.1675 147.656226 
L 508.5675 147.656226 
" style="fill:none;stroke:#000000;stroke-dasharray:1.000000,3.000000;stroke-dashoffset:0.0;stroke-width:0.5;"/>
     </g>
     <g id="line2d_24">
      <g>
       <use style="stroke:#000000;stroke-width:0.5;" x="62.1675" xlink:href="#mfd35debe9d" y="147.656225649"/>
      </g>
     </g>
     <g id="line2d_25">
      <g>
       <use style="stroke:#000000;stroke-width:0.5;" x="508.5675" xlink:href="#m1ba6326b52" y="147.656225649"/>
      </g>
     </g>
     <g id="text_10">
      <!-- 0.050 -->
      <g transform="translate(23.81375 150.967475649)scale(0.12 -0.12)">
       <use xlink:href="#BitstreamVeraSans-Roman-30"/>
       <use x="63.623046875" xlink:href="#BitstreamVeraSans-Roman-2e"/>
       <use x="95.41015625" xlink:href="#BitstreamVeraSans-Roman-30"/>
       <use x="159.033203125" xlink:href="#BitstreamVeraSans-Roman-35"/>
       <use x="222.65625" xlink:href="#BitstreamVeraSans-Roman-30"/>
      </g>
     </g>
    </g>
    <g id="ytick_3">
     <g id="line2d_26">
      <path clip-path="url(#peb2094dc87)" d="M 62.1675 125.214667 
L 508.5675 125.214667 
" style="fill:none;stroke:#000000;stroke-dasharray:1.000000,3.000000;stroke-dashoffset:0.0;stroke-width:0.5;"/>
     </g>
     <g id="line2d_27">
      <g>
       <use style="stroke:#000000;stroke-width:0.5;" x="62.1675" xlink:href="#mfd35debe9d" y="125.214667208"/>
      </g>
     </g>
     <g id="line2d_28">
      <g>
       <use style="stroke:#000000;stroke-width:0.5;" x="508.5675" xlink:href="#m1ba6326b52" y="125.214667208"/>
      </g>
     </g>
     <g id="text_11">
      <!-- 0.055 -->
      <g transform="translate(23.81375 128.525917208)scale(0.12 -0.12)">
       <use xlink:href="#BitstreamVeraSans-Roman-30"/>
       <use x="63.623046875" xlink:href="#BitstreamVeraSans-Roman-2e"/>
       <use x="95.41015625" xlink:href="#BitstreamVeraSans-Roman-30"/>
       <use x="159.033203125" xlink:href="#BitstreamVeraSans-Roman-35"/>
       <use x="222.65625" xlink:href="#BitstreamVeraSans-Roman-35"/>
      </g>
     </g>
    </g>
    <g id="ytick_4">
     <g id="line2d_29">
      <path clip-path="url(#peb2094dc87)" d="M 62.1675 102.773109 
L 508.5675 102.773109 
" style="fill:none;stroke:#000000;stroke-dasharray:1.000000,3.000000;stroke-dashoffset:0.0;stroke-width:0.5;"/>
     </g>
     <g id="line2d_30">
      <g>
       <use style="stroke:#000000;stroke-width:0.5;" x="62.1675" xlink:href="#mfd35debe9d" y="102.773108766"/>
      </g>
     </g>
     <g id="line2d_31">
      <g>
       <use style="stroke:#000000;stroke-width:0.5;" x="508.5675" xlink:href="#m1ba6326b52" y="102.773108766"/>
      </g>
     </g>
     <g id="text_12">
      <!-- 0.060 -->
      <defs>
       <path d="M 33.015625 40.375 
Q 26.375 40.375 22.484375 35.828125 
Q 18.609375 31.296875 18.609375 23.390625 
Q 18.609375 15.53125 22.484375 10.953125 
Q 26.375 6.390625 33.015625 6.390625 
Q 39.65625 6.390625 43.53125 10.953125 
Q 47.40625 15.53125 47.40625 23.390625 
Q 47.40625 31.296875 43.53125 35.828125 
Q 39.65625 40.375 33.015625 40.375 
M 52.59375 71.296875 
L 52.59375 62.3125 
Q 48.875 64.0625 45.09375 64.984375 
Q 41.3125 65.921875 37.59375 65.921875 
Q 27.828125 65.921875 22.671875 59.328125 
Q 17.53125 52.734375 16.796875 39.40625 
Q 19.671875 43.65625 24.015625 45.921875 
Q 28.375 48.1875 33.59375 48.1875 
Q 44.578125 48.1875 50.953125 41.515625 
Q 57.328125 34.859375 57.328125 23.390625 
Q 57.328125 12.15625 50.6875 5.359375 
Q 44.046875 -1.421875 33.015625 -1.421875 
Q 20.359375 -1.421875 13.671875 8.265625 
Q 6.984375 17.96875 6.984375 36.375 
Q 6.984375 53.65625 15.1875 63.9375 
Q 23.390625 74.21875 37.203125 74.21875 
Q 40.921875 74.21875 44.703125 73.484375 
Q 48.484375 72.75 52.59375 71.296875 
" id="BitstreamVeraSans-Roman-36"/>
      </defs>
      <g transform="translate(23.81375 106.084358766)scale(0.12 -0.12)">
       <use xlink:href="#BitstreamVeraSans-Roman-30"/>
       <use x="63.623046875" xlink:href="#BitstreamVeraSans-Roman-2e"/>
       <use x="95.41015625" xlink:href="#BitstreamVeraSans-Roman-30"/>
       <use x="159.033203125" xlink:href="#BitstreamVeraSans-Roman-36"/>
       <use x="222.65625" xlink:href="#BitstreamVeraSans-Roman-30"/>
      </g>
     </g>
    </g>
    <g id="ytick_5">
     <g id="line2d_32">
      <path clip-path="url(#peb2094dc87)" d="M 62.1675 80.33155 
L 508.5675 80.33155 
" style="fill:none;stroke:#000000;stroke-dasharray:1.000000,3.000000;stroke-dashoffset:0.0;stroke-width:0.5;"/>
     </g>
     <g id="line2d_33">
      <g>
       <use style="stroke:#000000;stroke-width:0.5;" x="62.1675" xlink:href="#mfd35debe9d" y="80.3315503247"/>
      </g>
     </g>
     <g id="line2d_34">
      <g>
       <use style="stroke:#000000;stroke-width:0.5;" x="508.5675" xlink:href="#m1ba6326b52" y="80.3315503247"/>
      </g>
     </g>
     <g id="text_13">
      <!-- 0.065 -->
      <g transform="translate(23.81375 83.6428003247)scale(0.12 -0.12)">
       <use xlink:href="#BitstreamVeraSans-Roman-30"/>
       <use x="63.623046875" xlink:href="#BitstreamVeraSans-Roman-2e"/>
       <use x="95.41015625" xlink:href="#BitstreamVeraSans-Roman-30"/>
       <use x="159.033203125" xlink:href="#BitstreamVeraSans-Roman-36"/>
       <use x="222.65625" xlink:href="#BitstreamVeraSans-Roman-35"/>
      </g>
     </g>
    </g>
    <g id="ytick_6">
     <g id="line2d_35">
      <path clip-path="url(#peb2094dc87)" d="M 62.1675 57.889992 
L 508.5675 57.889992 
" style="fill:none;stroke:#000000;stroke-dasharray:1.000000,3.000000;stroke-dashoffset:0.0;stroke-width:0.5;"/>
     </g>
     <g id="line2d_36">
      <g>
       <use style="stroke:#000000;stroke-width:0.5;" x="62.1675" xlink:href="#mfd35debe9d" y="57.8899918831"/>
      </g>
     </g>
     <g id="line2d_37">
      <g>
       <use style="stroke:#000000;stroke-width:0.5;" x="508.5675" xlink:href="#m1ba6326b52" y="57.8899918831"/>
      </g>
     </g>
     <g id="text_14">
      <!-- 0.070 -->
      <g transform="translate(23.81375 61.2012418831)scale(0.12 -0.12)">
       <use xlink:href="#BitstreamVeraSans-Roman-30"/>
       <use x="63.623046875" xlink:href="#BitstreamVeraSans-Roman-2e"/>
       <use x="95.41015625" xlink:href="#BitstreamVeraSans-Roman-30"/>
       <use x="159.033203125" xlink:href="#BitstreamVeraSans-Roman-37"/>
       <use x="222.65625" xlink:href="#BitstreamVeraSans-Roman-30"/>
      </g>
     </g>
    </g>
    <g id="ytick_7">
     <g id="line2d_38">
      <path clip-path="url(#peb2094dc87)" d="M 62.1675 35.448433 
L 508.5675 35.448433 
" style="fill:none;stroke:#000000;stroke-dasharray:1.000000,3.000000;stroke-dashoffset:0.0;stroke-width:0.5;"/>
     </g>
     <g id="line2d_39">
      <g>
       <use style="stroke:#000000;stroke-width:0.5;" x="62.1675" xlink:href="#mfd35debe9d" y="35.4484334416"/>
      </g>
     </g>
     <g id="line2d_40">
      <g>
       <use style="stroke:#000000;stroke-width:0.5;" x="508.5675" xlink:href="#m1ba6326b52" y="35.4484334416"/>
      </g>
     </g>
     <g id="text_15">
      <!-- 0.075 -->
      <g transform="translate(23.81375 38.7596834416)scale(0.12 -0.12)">
       <use xlink:href="#BitstreamVeraSans-Roman-30"/>
       <use x="63.623046875" xlink:href="#BitstreamVeraSans-Roman-2e"/>
       <use x="95.41015625" xlink:href="#BitstreamVeraSans-Roman-30"/>
       <use x="159.033203125" xlink:href="#BitstreamVeraSans-Roman-37"/>
       <use x="222.65625" xlink:href="#BitstreamVeraSans-Roman-35"/>
      </g>
     </g>
    </g>
    <g id="ytick_8">
     <g id="line2d_41">
      <path clip-path="url(#peb2094dc87)" d="M 62.1675 13.006875 
L 508.5675 13.006875 
" style="fill:none;stroke:#000000;stroke-dasharray:1.000000,3.000000;stroke-dashoffset:0.0;stroke-width:0.5;"/>
     </g>
     <g id="line2d_42">
      <g>
       <use style="stroke:#000000;stroke-width:0.5;" x="62.1675" xlink:href="#mfd35debe9d" y="13.006875"/>
      </g>
     </g>
     <g id="line2d_43">
      <g>
       <use style="stroke:#000000;stroke-width:0.5;" x="508.5675" xlink:href="#m1ba6326b52" y="13.006875"/>
      </g>
     </g>
     <g id="text_16">
      <!-- 0.080 -->
      <defs>
       <path d="M 31.78125 34.625 
Q 24.75 34.625 20.71875 30.859375 
Q 16.703125 27.09375 16.703125 20.515625 
Q 16.703125 13.921875 20.71875 10.15625 
Q 24.75 6.390625 31.78125 6.390625 
Q 38.8125 6.390625 42.859375 10.171875 
Q 46.921875 13.96875 46.921875 20.515625 
Q 46.921875 27.09375 42.890625 30.859375 
Q 38.875 34.625 31.78125 34.625 
M 21.921875 38.8125 
Q 15.578125 40.375 12.03125 44.71875 
Q 8.5 49.078125 8.5 55.328125 
Q 8.5 64.0625 14.71875 69.140625 
Q 20.953125 74.21875 31.78125 74.21875 
Q 42.671875 74.21875 48.875 69.140625 
Q 55.078125 64.0625 55.078125 55.328125 
Q 55.078125 49.078125 51.53125 44.71875 
Q 48 40.375 41.703125 38.8125 
Q 48.828125 37.15625 52.796875 32.3125 
Q 56.78125 27.484375 56.78125 20.515625 
Q 56.78125 9.90625 50.3125 4.234375 
Q 43.84375 -1.421875 31.78125 -1.421875 
Q 19.734375 -1.421875 13.25 4.234375 
Q 6.78125 9.90625 6.78125 20.515625 
Q 6.78125 27.484375 10.78125 32.3125 
Q 14.796875 37.15625 21.921875 38.8125 
M 18.3125 54.390625 
Q 18.3125 48.734375 21.84375 45.5625 
Q 25.390625 42.390625 31.78125 42.390625 
Q 38.140625 42.390625 41.71875 45.5625 
Q 45.3125 48.734375 45.3125 54.390625 
Q 45.3125 60.0625 41.71875 63.234375 
Q 38.140625 66.40625 31.78125 66.40625 
Q 25.390625 66.40625 21.84375 63.234375 
Q 18.3125 60.0625 18.3125 54.390625 
" id="BitstreamVeraSans-Roman-38"/>
      </defs>
      <g transform="translate(23.81375 16.318125)scale(0.12 -0.12)">
       <use xlink:href="#BitstreamVeraSans-Roman-30"/>
       <use x="63.623046875" xlink:href="#BitstreamVeraSans-Roman-2e"/>
       <use x="95.41015625" xlink:href="#BitstreamVeraSans-Roman-30"/>
       <use x="159.033203125" xlink:href="#BitstreamVeraSans-Roman-38"/>
       <use x="222.65625" xlink:href="#BitstreamVeraSans-Roman-30"/>
      </g>
     </g>
    </g>
    <g id="text_17">
     <!-- L2 cache misses ratio -->
     <defs>
      <path d="M 44.28125 53.078125 
L 44.28125 44.578125 
Q 40.484375 46.53125 36.375 47.5 
Q 32.28125 48.484375 27.875 48.484375 
Q 21.1875 48.484375 17.84375 46.4375 
Q 14.5 44.390625 14.5 40.28125 
Q 14.5 37.15625 16.890625 35.375 
Q 19.28125 33.59375 26.515625 31.984375 
L 29.59375 31.296875 
Q 39.15625 29.25 43.1875 25.515625 
Q 47.21875 21.78125 47.21875 15.09375 
Q 47.21875 7.46875 41.1875 3.015625 
Q 35.15625 -1.421875 24.609375 -1.421875 
Q 20.21875 -1.421875 15.453125 -0.5625 
Q 10.6875 0.296875 5.421875 2 
L 5.421875 11.28125 
Q 10.40625 8.6875 15.234375 7.390625 
Q 20.0625 6.109375 24.8125 6.109375 
Q 31.15625 6.109375 34.5625 8.28125 
Q 37.984375 10.453125 37.984375 14.40625 
Q 37.984375 18.0625 35.515625 20.015625 
Q 33.0625 21.96875 24.703125 23.78125 
L 21.578125 24.515625 
Q 13.234375 26.265625 9.515625 29.90625 
Q 5.8125 33.546875 5.8125 39.890625 
Q 5.8125 47.609375 11.28125 51.796875 
Q 16.75 56 26.8125 56 
Q 31.78125 56 36.171875 55.265625 
Q 40.578125 54.546875 44.28125 53.078125 
" id="BitstreamVeraSans-Roman-73"/>
      <path d="M 52 44.1875 
Q 55.375 50.25 60.0625 53.125 
Q 64.75 56 71.09375 56 
Q 79.640625 56 84.28125 50.015625 
Q 88.921875 44.046875 88.921875 33.015625 
L 88.921875 0 
L 79.890625 0 
L 79.890625 32.71875 
Q 79.890625 40.578125 77.09375 44.375 
Q 74.3125 48.1875 68.609375 48.1875 
Q 61.625 48.1875 57.5625 43.546875 
Q 53.515625 38.921875 53.515625 30.90625 
L 53.515625 0 
L 44.484375 0 
L 44.484375 32.71875 
Q 44.484375 40.625 41.703125 44.40625 
Q 38.921875 48.1875 33.109375 48.1875 
Q 26.21875 48.1875 22.15625 43.53125 
Q 18.109375 38.875 18.109375 30.90625 
L 18.109375 0 
L 9.078125 0 
L 9.078125 54.6875 
L 18.109375 54.6875 
L 18.109375 46.1875 
Q 21.1875 51.21875 25.484375 53.609375 
Q 29.78125 56 35.6875 56 
Q 41.65625 56 45.828125 52.96875 
Q 50 49.953125 52 44.1875 
" id="BitstreamVeraSans-Roman-6d"/>
      <path d="M 9.8125 72.90625 
L 19.671875 72.90625 
L 19.671875 8.296875 
L 55.171875 8.296875 
L 55.171875 0 
L 9.8125 0 
z
" id="BitstreamVeraSans-Roman-4c"/>
     </defs>
     <g transform="translate(16.318125 156.616704545)rotate(-90.0)scale(0.12 -0.12)">
      <use xlink:href="#BitstreamVeraSans-Roman-4c"/>
      <use x="55.712890625" xlink:href="#BitstreamVeraSans-Roman-32"/>
      <use x="119.3359375" xlink:href="#BitstreamVeraSans-Roman-20"/>
      <use x="151.123046875" xlink:href="#BitstreamVeraSans-Roman-63"/>
      <use x="206.103515625" xlink:href="#BitstreamVeraSans-Roman-61"/>
      <use x="267.3828125" xlink:href="#BitstreamVeraSans-Roman-63"/>
      <use x="322.36328125" xlink:href="#BitstreamVeraSans-Roman-68"/>
      <use x="385.7421875" xlink:href="#BitstreamVeraSans-Roman-65"/>
      <use x="447.265625" xlink:href="#BitstreamVeraSans-Roman-20"/>
      <use x="479.052734375" xlink:href="#BitstreamVeraSans-Roman-6d"/>
      <use x="576.46484375" xlink:href="#BitstreamVeraSans-Roman-69"/>
      <use x="604.248046875" xlink:href="#BitstreamVeraSans-Roman-73"/>
      <use x="656.34765625" xlink:href="#BitstreamVeraSans-Roman-73"/>
      <use x="708.447265625" xlink:href="#BitstreamVeraSans-Roman-65"/>
      <use x="769.970703125" xlink:href="#BitstreamVeraSans-Roman-73"/>
      <use x="822.0703125" xlink:href="#BitstreamVeraSans-Roman-20"/>
      <use x="853.857421875" xlink:href="#BitstreamVeraSans-Roman-72"/>
      <use x="894.970703125" xlink:href="#BitstreamVeraSans-Roman-61"/>
      <use x="956.25" xlink:href="#BitstreamVeraSans-Roman-74"/>
      <use x="995.458984375" xlink:href="#BitstreamVeraSans-Roman-69"/>
      <use x="1023.2421875" xlink:href="#BitstreamVeraSans-Roman-6f"/>
     </g>
    </g>
   </g>
   <g id="legend_1">
    <g id="patch_7">
     <path d="M 378.27225 45.663375 
L 501.3675 45.663375 
L 501.3675 20.206875 
L 378.27225 20.206875 
z
" style="fill:#ffffff;stroke:#000000;stroke-linejoin:miter;"/>
    </g>
    <g id="line2d_44">
     <path d="M 388.35225 31.868625 
L 408.51225 31.868625 
" style="fill:none;stroke:#0000ff;stroke-linecap:square;"/>
    </g>
    <g id="line2d_45">
     <g>
      <use style="fill:#0000ff;stroke:#0000ff;stroke-width:0.5;" x="388.35225" xlink:href="#m99793ff9a4" y="31.868625"/>
      <use style="fill:#0000ff;stroke:#0000ff;stroke-width:0.5;" x="408.51225" xlink:href="#m99793ff9a4" y="31.868625"/>
     </g>
    </g>
    <g id="text_18">
     <!-- loop tiling -->
     <g transform="translate(424.35225 36.908625)scale(0.144 -0.144)">
      <use xlink:href="#BitstreamVeraSans-Roman-6c"/>
      <use x="27.783203125" xlink:href="#BitstreamVeraSans-Roman-6f"/>
      <use x="88.96484375" xlink:href="#BitstreamVeraSans-Roman-6f"/>
      <use x="150.146484375" xlink:href="#BitstreamVeraSans-Roman-70"/>
      <use x="213.623046875" xlink:href="#BitstreamVeraSans-Roman-20"/>
      <use x="245.41015625" xlink:href="#BitstreamVeraSans-Roman-74"/>
      <use x="284.619140625" xlink:href="#BitstreamVeraSans-Roman-69"/>
      <use x="312.40234375" xlink:href="#BitstreamVeraSans-Roman-6c"/>
      <use x="340.185546875" xlink:href="#BitstreamVeraSans-Roman-69"/>
      <use x="367.96875" xlink:href="#BitstreamVeraSans-Roman-6e"/>
      <use x="431.34765625" xlink:href="#BitstreamVeraSans-Roman-67"/>
     </g>
    </g>
   </g>
  </g>
  <g id="axes_2">
   <g id="patch_8">
    <path d="M 62.1675 358.606875 
L 508.5675 358.606875 
L 508.5675 201.515966 
L 62.1675 201.515966 
z
" style="fill:#ffffff;"/>
   </g>
   <g id="line2d_46">
    <path clip-path="url(#pc350a3f171)" d="M 71.0955 339.466919 
L 80.0235 344.799108 
L 88.9515 347.039748 
L 97.8795 347.126148 
L 106.8075 348.400469 
L 115.7355 348.51457 
L 124.6635 349.19885 
L 133.5915 349.154977 
L 142.5195 349.443646 
L 151.4475 348.674855 
L 160.3755 349.672734 
L 169.3035 349.09825 
L 178.2315 349.264679 
L 187.1595 349.653703 
L 196.0875 350.119707 
L 205.0155 350.143275 
L 213.9435 332.963786 
L 222.8715 350.206991 
L 231.7995 350.224504 
L 240.7275 350.127815 
L 249.6555 349.967324 
L 258.5835 350.107281 
L 267.5115 350.255239 
L 276.4395 350.11526 
L 285.3675 292.591306 
L 294.2955 349.833992 
L 303.2235 341.69951 
L 312.1515 350.345876 
L 321.0795 350.437227 
L 330.0075 350.15219 
L 338.9355 350.47585 
L 347.8635 350.815297 
L 356.7915 350.618295 
L 365.7195 350.570027 
L 374.6475 350.519506 
L 383.5755 350.50017 
L 392.5035 350.610948 
L 401.4315 350.591973 
L 410.3595 350.258393 
L 419.2875 350.656727 
L 428.2155 350.592339 
L 437.1435 202.075658 
L 446.0715 350.48866 
L 454.9995 350.615399 
L 463.9275 350.716676 
L 472.8555 350.636526 
L 481.7835 350.616173 
L 490.7115 350.695362 
L 499.6395 349.612822 
L 508.5675 350.843044 
" style="fill:none;stroke:#008000;stroke-linecap:square;"/>
    <defs>
     <path d="M 0 1.5 
C 0.397805 1.5 0.77937 1.341951 1.06066 1.06066 
C 1.341951 0.77937 1.5 0.397805 1.5 0 
C 1.5 -0.397805 1.341951 -0.77937 1.06066 -1.06066 
C 0.77937 -1.341951 0.397805 -1.5 0 -1.5 
C -0.397805 -1.5 -0.77937 -1.341951 -1.06066 -1.06066 
C -1.341951 -0.77937 -1.5 -0.397805 -1.5 0 
C -1.5 0.397805 -1.341951 0.77937 -1.06066 1.06066 
C -0.77937 1.341951 -0.397805 1.5 0 1.5 
z
" id="mf2db5a427a" style="stroke:#008000;stroke-width:0.5;"/>
    </defs>
    <g clip-path="url(#pc350a3f171)">
     <use style="fill:#008000;stroke:#008000;stroke-width:0.5;" x="71.0955" xlink:href="#mf2db5a427a" y="339.466918636"/>
     <use style="fill:#008000;stroke:#008000;stroke-width:0.5;" x="80.0235" xlink:href="#mf2db5a427a" y="344.799107727"/>
     <use style="fill:#008000;stroke:#008000;stroke-width:0.5;" x="88.9515" xlink:href="#mf2db5a427a" y="347.039747727"/>
     <use style="fill:#008000;stroke:#008000;stroke-width:0.5;" x="97.8795" xlink:href="#mf2db5a427a" y="347.126147727"/>
     <use style="fill:#008000;stroke:#008000;stroke-width:0.5;" x="106.8075" xlink:href="#mf2db5a427a" y="348.400469182"/>
     <use style="fill:#008000;stroke:#008000;stroke-width:0.5;" x="115.7355" xlink:href="#mf2db5a427a" y="348.514569545"/>
     <use style="fill:#008000;stroke:#008000;stroke-width:0.5;" x="124.6635" xlink:href="#mf2db5a427a" y="349.198850065"/>
     <use style="fill:#008000;stroke:#008000;stroke-width:0.5;" x="133.5915" xlink:href="#mf2db5a427a" y="349.154976818"/>
     <use style="fill:#008000;stroke:#008000;stroke-width:0.5;" x="142.5195" xlink:href="#mf2db5a427a" y="349.443645909"/>
     <use style="fill:#008000;stroke:#008000;stroke-width:0.5;" x="151.4475" xlink:href="#mf2db5a427a" y="348.674854636"/>
     <use style="fill:#008000;stroke:#008000;stroke-width:0.5;" x="160.3755" xlink:href="#mf2db5a427a" y="349.672734174"/>
     <use style="fill:#008000;stroke:#008000;stroke-width:0.5;" x="169.3035" xlink:href="#mf2db5a427a" y="349.098249545"/>
     <use style="fill:#008000;stroke:#008000;stroke-width:0.5;" x="178.2315" xlink:href="#mf2db5a427a" y="349.264678636"/>
     <use style="fill:#008000;stroke:#008000;stroke-width:0.5;" x="187.1595" xlink:href="#mf2db5a427a" y="349.653703052"/>
     <use style="fill:#008000;stroke:#008000;stroke-width:0.5;" x="196.0875" xlink:href="#mf2db5a427a" y="350.119707"/>
     <use style="fill:#008000;stroke:#008000;stroke-width:0.5;" x="205.0155" xlink:href="#mf2db5a427a" y="350.143275"/>
     <use style="fill:#008000;stroke:#008000;stroke-width:0.5;" x="213.9435" xlink:href="#mf2db5a427a" y="332.96378623"/>
     <use style="fill:#008000;stroke:#008000;stroke-width:0.5;" x="222.8715" xlink:href="#mf2db5a427a" y="350.206991364"/>
     <use style="fill:#008000;stroke:#008000;stroke-width:0.5;" x="231.7995" xlink:href="#mf2db5a427a" y="350.224504091"/>
     <use style="fill:#008000;stroke:#008000;stroke-width:0.5;" x="240.7275" xlink:href="#mf2db5a427a" y="350.127814636"/>
     <use style="fill:#008000;stroke:#008000;stroke-width:0.5;" x="249.6555" xlink:href="#mf2db5a427a" y="349.967323831"/>
     <use style="fill:#008000;stroke:#008000;stroke-width:0.5;" x="258.5835" xlink:href="#mf2db5a427a" y="350.10728095"/>
     <use style="fill:#008000;stroke:#008000;stroke-width:0.5;" x="267.5115" xlink:href="#mf2db5a427a" y="350.255239269"/>
     <use style="fill:#008000;stroke:#008000;stroke-width:0.5;" x="276.4395" xlink:href="#mf2db5a427a" y="350.115260455"/>
     <use style="fill:#008000;stroke:#008000;stroke-width:0.5;" x="285.3675" xlink:href="#mf2db5a427a" y="292.591305545"/>
     <use style="fill:#008000;stroke:#008000;stroke-width:0.5;" x="294.2955" xlink:href="#mf2db5a427a" y="349.833992203"/>
     <use style="fill:#008000;stroke:#008000;stroke-width:0.5;" x="303.2235" xlink:href="#mf2db5a427a" y="341.699510152"/>
     <use style="fill:#008000;stroke:#008000;stroke-width:0.5;" x="312.1515" xlink:href="#mf2db5a427a" y="350.345875519"/>
     <use style="fill:#008000;stroke:#008000;stroke-width:0.5;" x="321.0795" xlink:href="#mf2db5a427a" y="350.43722685"/>
     <use style="fill:#008000;stroke:#008000;stroke-width:0.5;" x="330.0075" xlink:href="#mf2db5a427a" y="350.152189909"/>
     <use style="fill:#008000;stroke:#008000;stroke-width:0.5;" x="338.9355" xlink:href="#mf2db5a427a" y="350.475849545"/>
     <use style="fill:#008000;stroke:#008000;stroke-width:0.5;" x="347.8635" xlink:href="#mf2db5a427a" y="350.815296818"/>
     <use style="fill:#008000;stroke:#008000;stroke-width:0.5;" x="356.7915" xlink:href="#mf2db5a427a" y="350.618294504"/>
     <use style="fill:#008000;stroke:#008000;stroke-width:0.5;" x="365.7195" xlink:href="#mf2db5a427a" y="350.570027086"/>
     <use style="fill:#008000;stroke:#008000;stroke-width:0.5;" x="374.6475" xlink:href="#mf2db5a427a" y="350.519505857"/>
     <use style="fill:#008000;stroke:#008000;stroke-width:0.5;" x="383.5755" xlink:href="#mf2db5a427a" y="350.500169545"/>
     <use style="fill:#008000;stroke:#008000;stroke-width:0.5;" x="392.5035" xlink:href="#mf2db5a427a" y="350.610947727"/>
     <use style="fill:#008000;stroke:#008000;stroke-width:0.5;" x="401.4315" xlink:href="#mf2db5a427a" y="350.591972799"/>
     <use style="fill:#008000;stroke:#008000;stroke-width:0.5;" x="410.3595" xlink:href="#mf2db5a427a" y="350.258392762"/>
     <use style="fill:#008000;stroke:#008000;stroke-width:0.5;" x="419.2875" xlink:href="#mf2db5a427a" y="350.656726636"/>
     <use style="fill:#008000;stroke:#008000;stroke-width:0.5;" x="428.2155" xlink:href="#mf2db5a427a" y="350.592339479"/>
     <use style="fill:#008000;stroke:#008000;stroke-width:0.5;" x="437.1435" xlink:href="#mf2db5a427a" y="202.075658377"/>
     <use style="fill:#008000;stroke:#008000;stroke-width:0.5;" x="446.0715" xlink:href="#mf2db5a427a" y="350.48866037"/>
     <use style="fill:#008000;stroke:#008000;stroke-width:0.5;" x="454.9995" xlink:href="#mf2db5a427a" y="350.615398636"/>
     <use style="fill:#008000;stroke:#008000;stroke-width:0.5;" x="463.9275" xlink:href="#mf2db5a427a" y="350.716675727"/>
     <use style="fill:#008000;stroke:#008000;stroke-width:0.5;" x="472.8555" xlink:href="#mf2db5a427a" y="350.636526225"/>
     <use style="fill:#008000;stroke:#008000;stroke-width:0.5;" x="481.7835" xlink:href="#mf2db5a427a" y="350.61617295"/>
     <use style="fill:#008000;stroke:#008000;stroke-width:0.5;" x="490.7115" xlink:href="#mf2db5a427a" y="350.695362273"/>
     <use style="fill:#008000;stroke:#008000;stroke-width:0.5;" x="499.6395" xlink:href="#mf2db5a427a" y="349.612822013"/>
     <use style="fill:#008000;stroke:#008000;stroke-width:0.5;" x="508.5675" xlink:href="#mf2db5a427a" y="350.843044309"/>
    </g>
   </g>
   <g id="patch_9">
    <path d="M 508.5675 358.606875 
L 508.5675 201.515966 
" style="fill:none;stroke:#000000;stroke-linecap:square;stroke-linejoin:miter;"/>
   </g>
   <g id="patch_10">
    <path d="M 62.1675 358.606875 
L 508.5675 358.606875 
" style="fill:none;stroke:#000000;stroke-linecap:square;stroke-linejoin:miter;"/>
   </g>
   <g id="patch_11">
    <path d="M 62.1675 358.606875 
L 62.1675 201.515966 
" style="fill:none;stroke:#000000;stroke-linecap:square;stroke-linejoin:miter;"/>
   </g>
   <g id="patch_12">
    <path d="M 62.1675 201.515966 
L 508.5675 201.515966 
" style="fill:none;stroke:#000000;stroke-linecap:square;stroke-linejoin:miter;"/>
   </g>
   <g id="matplotlib.axis_3">
    <g id="xtick_7">
     <g id="line2d_47">
      <path clip-path="url(#pc350a3f171)" d="M 62.1675 358.606875 
L 62.1675 201.515966 
" style="fill:none;stroke:#000000;stroke-dasharray:1.000000,3.000000;stroke-dashoffset:0.0;stroke-width:0.5;"/>
     </g>
     <g id="line2d_48">
      <g>
       <use style="stroke:#000000;stroke-width:0.5;" x="62.1675" xlink:href="#m2a4d39e2a7" y="358.606875"/>
      </g>
     </g>
     <g id="line2d_49">
      <g>
       <use style="stroke:#000000;stroke-width:0.5;" x="62.1675" xlink:href="#m7c2ff624e6" y="201.515965909"/>
      </g>
     </g>
     <g id="text_19">
      <!-- 0 -->
      <g transform="translate(58.35 371.725)scale(0.12 -0.12)">
       <use xlink:href="#BitstreamVeraSans-Roman-30"/>
      </g>
     </g>
    </g>
    <g id="xtick_8">
     <g id="line2d_50">
      <path clip-path="url(#pc350a3f171)" d="M 151.4475 358.606875 
L 151.4475 201.515966 
" style="fill:none;stroke:#000000;stroke-dasharray:1.000000,3.000000;stroke-dashoffset:0.0;stroke-width:0.5;"/>
     </g>
     <g id="line2d_51">
      <g>
       <use style="stroke:#000000;stroke-width:0.5;" x="151.4475" xlink:href="#m2a4d39e2a7" y="358.606875"/>
      </g>
     </g>
     <g id="line2d_52">
      <g>
       <use style="stroke:#000000;stroke-width:0.5;" x="151.4475" xlink:href="#m7c2ff624e6" y="201.515965909"/>
      </g>
     </g>
     <g id="text_20">
      <!-- 1 -->
      <g transform="translate(147.63 371.725)scale(0.12 -0.12)">
       <use xlink:href="#BitstreamVeraSans-Roman-31"/>
      </g>
     </g>
    </g>
    <g id="xtick_9">
     <g id="line2d_53">
      <path clip-path="url(#pc350a3f171)" d="M 240.7275 358.606875 
L 240.7275 201.515966 
" style="fill:none;stroke:#000000;stroke-dasharray:1.000000,3.000000;stroke-dashoffset:0.0;stroke-width:0.5;"/>
     </g>
     <g id="line2d_54">
      <g>
       <use style="stroke:#000000;stroke-width:0.5;" x="240.7275" xlink:href="#m2a4d39e2a7" y="358.606875"/>
      </g>
     </g>
     <g id="line2d_55">
      <g>
       <use style="stroke:#000000;stroke-width:0.5;" x="240.7275" xlink:href="#m7c2ff624e6" y="201.515965909"/>
      </g>
     </g>
     <g id="text_21">
      <!-- 2 -->
      <g transform="translate(236.91 371.725)scale(0.12 -0.12)">
       <use xlink:href="#BitstreamVeraSans-Roman-32"/>
      </g>
     </g>
    </g>
    <g id="xtick_10">
     <g id="line2d_56">
      <path clip-path="url(#pc350a3f171)" d="M 330.0075 358.606875 
L 330.0075 201.515966 
" style="fill:none;stroke:#000000;stroke-dasharray:1.000000,3.000000;stroke-dashoffset:0.0;stroke-width:0.5;"/>
     </g>
     <g id="line2d_57">
      <g>
       <use style="stroke:#000000;stroke-width:0.5;" x="330.0075" xlink:href="#m2a4d39e2a7" y="358.606875"/>
      </g>
     </g>
     <g id="line2d_58">
      <g>
       <use style="stroke:#000000;stroke-width:0.5;" x="330.0075" xlink:href="#m7c2ff624e6" y="201.515965909"/>
      </g>
     </g>
     <g id="text_22">
      <!-- 3 -->
      <g transform="translate(326.19 371.725)scale(0.12 -0.12)">
       <use xlink:href="#BitstreamVeraSans-Roman-33"/>
      </g>
     </g>
    </g>
    <g id="xtick_11">
     <g id="line2d_59">
      <path clip-path="url(#pc350a3f171)" d="M 419.2875 358.606875 
L 419.2875 201.515966 
" style="fill:none;stroke:#000000;stroke-dasharray:1.000000,3.000000;stroke-dashoffset:0.0;stroke-width:0.5;"/>
     </g>
     <g id="line2d_60">
      <g>
       <use style="stroke:#000000;stroke-width:0.5;" x="419.2875" xlink:href="#m2a4d39e2a7" y="358.606875"/>
      </g>
     </g>
     <g id="line2d_61">
      <g>
       <use style="stroke:#000000;stroke-width:0.5;" x="419.2875" xlink:href="#m7c2ff624e6" y="201.515965909"/>
      </g>
     </g>
     <g id="text_23">
      <!-- 4 -->
      <g transform="translate(415.47 371.725)scale(0.12 -0.12)">
       <use xlink:href="#BitstreamVeraSans-Roman-34"/>
      </g>
     </g>
    </g>
    <g id="xtick_12">
     <g id="line2d_62">
      <path clip-path="url(#pc350a3f171)" d="M 508.5675 358.606875 
L 508.5675 201.515966 
" style="fill:none;stroke:#000000;stroke-dasharray:1.000000,3.000000;stroke-dashoffset:0.0;stroke-width:0.5;"/>
     </g>
     <g id="line2d_63">
      <g>
       <use style="stroke:#000000;stroke-width:0.5;" x="508.5675" xlink:href="#m2a4d39e2a7" y="358.606875"/>
      </g>
     </g>
     <g id="line2d_64">
      <g>
       <use style="stroke:#000000;stroke-width:0.5;" x="508.5675" xlink:href="#m7c2ff624e6" y="201.515965909"/>
      </g>
     </g>
     <g id="text_24">
      <!-- 5 -->
      <g transform="translate(504.75 371.725)scale(0.12 -0.12)">
       <use xlink:href="#BitstreamVeraSans-Roman-35"/>
      </g>
     </g>
    </g>
    <g id="text_25">
     <!-- n - pocet linearnich generatoru -->
     <g transform="translate(191.9765625 388.33875)scale(0.12 -0.12)">
      <use xlink:href="#BitstreamVeraSans-Roman-6e"/>
      <use x="63.37890625" xlink:href="#BitstreamVeraSans-Roman-20"/>
      <use x="95.166015625" xlink:href="#BitstreamVeraSans-Roman-2d"/>
      <use x="131.25" xlink:href="#BitstreamVeraSans-Roman-20"/>
      <use x="163.037109375" xlink:href="#BitstreamVeraSans-Roman-70"/>
      <use x="226.513671875" xlink:href="#BitstreamVeraSans-Roman-6f"/>
      <use x="287.6953125" xlink:href="#BitstreamVeraSans-Roman-63"/>
      <use x="342.67578125" xlink:href="#BitstreamVeraSans-Roman-65"/>
      <use x="404.19921875" xlink:href="#BitstreamVeraSans-Roman-74"/>
      <use x="443.408203125" xlink:href="#BitstreamVeraSans-Roman-20"/>
      <use x="475.1953125" xlink:href="#BitstreamVeraSans-Roman-6c"/>
      <use x="502.978515625" xlink:href="#BitstreamVeraSans-Roman-69"/>
      <use x="530.76171875" xlink:href="#BitstreamVeraSans-Roman-6e"/>
      <use x="594.140625" xlink:href="#BitstreamVeraSans-Roman-65"/>
      <use x="655.6640625" xlink:href="#BitstreamVeraSans-Roman-61"/>
      <use x="716.943359375" xlink:href="#BitstreamVeraSans-Roman-72"/>
      <use x="758.041015625" xlink:href="#BitstreamVeraSans-Roman-6e"/>
      <use x="821.419921875" xlink:href="#BitstreamVeraSans-Roman-69"/>
      <use x="849.203125" xlink:href="#BitstreamVeraSans-Roman-63"/>
      <use x="904.18359375" xlink:href="#BitstreamVeraSans-Roman-68"/>
      <use x="967.5625" xlink:href="#BitstreamVeraSans-Roman-20"/>
      <use x="999.349609375" xlink:href="#BitstreamVeraSans-Roman-67"/>
      <use x="1062.826171875" xlink:href="#BitstreamVeraSans-Roman-65"/>
      <use x="1124.349609375" xlink:href="#BitstreamVeraSans-Roman-6e"/>
      <use x="1187.728515625" xlink:href="#BitstreamVeraSans-Roman-65"/>
      <use x="1249.251953125" xlink:href="#BitstreamVeraSans-Roman-72"/>
      <use x="1290.365234375" xlink:href="#BitstreamVeraSans-Roman-61"/>
      <use x="1351.64453125" xlink:href="#BitstreamVeraSans-Roman-74"/>
      <use x="1390.853515625" xlink:href="#BitstreamVeraSans-Roman-6f"/>
      <use x="1452.03515625" xlink:href="#BitstreamVeraSans-Roman-72"/>
      <use x="1493.1484375" xlink:href="#BitstreamVeraSans-Roman-75"/>
     </g>
    </g>
    <g id="text_26">
     <!-- 1e7 -->
     <g transform="translate(485.91375 386.33875)scale(0.12 -0.12)">
      <use xlink:href="#BitstreamVeraSans-Roman-31"/>
      <use x="63.623046875" xlink:href="#BitstreamVeraSans-Roman-65"/>
      <use x="125.146484375" xlink:href="#BitstreamVeraSans-Roman-37"/>
     </g>
    </g>
   </g>
   <g id="matplotlib.axis_4">
    <g id="ytick_9">
     <g id="line2d_65">
      <path clip-path="url(#pc350a3f171)" d="M 62.1675 358.606875 
L 508.5675 358.606875 
" style="fill:none;stroke:#000000;stroke-dasharray:1.000000,3.000000;stroke-dashoffset:0.0;stroke-width:0.5;"/>
     </g>
     <g id="line2d_66">
      <g>
       <use style="stroke:#000000;stroke-width:0.5;" x="62.1675" xlink:href="#mfd35debe9d" y="358.606875"/>
      </g>
     </g>
     <g id="line2d_67">
      <g>
       <use style="stroke:#000000;stroke-width:0.5;" x="508.5675" xlink:href="#m1ba6326b52" y="358.606875"/>
      </g>
     </g>
     <g id="text_27">
      <!-- 6.0 -->
      <g transform="translate(39.08375 361.918125)scale(0.12 -0.12)">
       <use xlink:href="#BitstreamVeraSans-Roman-36"/>
       <use x="63.623046875" xlink:href="#BitstreamVeraSans-Roman-2e"/>
       <use x="95.41015625" xlink:href="#BitstreamVeraSans-Roman-30"/>
      </g>
     </g>
    </g>
    <g id="ytick_10">
     <g id="line2d_68">
      <path clip-path="url(#pc350a3f171)" d="M 62.1675 332.425057 
L 508.5675 332.425057 
" style="fill:none;stroke:#000000;stroke-dasharray:1.000000,3.000000;stroke-dashoffset:0.0;stroke-width:0.5;"/>
     </g>
     <g id="line2d_69">
      <g>
       <use style="stroke:#000000;stroke-width:0.5;" x="62.1675" xlink:href="#mfd35debe9d" y="332.425056818"/>
      </g>
     </g>
     <g id="line2d_70">
      <g>
       <use style="stroke:#000000;stroke-width:0.5;" x="508.5675" xlink:href="#m1ba6326b52" y="332.425056818"/>
      </g>
     </g>
     <g id="text_28">
      <!-- 6.5 -->
      <g transform="translate(39.08375 335.736306818)scale(0.12 -0.12)">
       <use xlink:href="#BitstreamVeraSans-Roman-36"/>
       <use x="63.623046875" xlink:href="#BitstreamVeraSans-Roman-2e"/>
       <use x="95.41015625" xlink:href="#BitstreamVeraSans-Roman-35"/>
      </g>
     </g>
    </g>
    <g id="ytick_11">
     <g id="line2d_71">
      <path clip-path="url(#pc350a3f171)" d="M 62.1675 306.243239 
L 508.5675 306.243239 
" style="fill:none;stroke:#000000;stroke-dasharray:1.000000,3.000000;stroke-dashoffset:0.0;stroke-width:0.5;"/>
     </g>
     <g id="line2d_72">
      <g>
       <use style="stroke:#000000;stroke-width:0.5;" x="62.1675" xlink:href="#mfd35debe9d" y="306.243238636"/>
      </g>
     </g>
     <g id="line2d_73">
      <g>
       <use style="stroke:#000000;stroke-width:0.5;" x="508.5675" xlink:href="#m1ba6326b52" y="306.243238636"/>
      </g>
     </g>
     <g id="text_29">
      <!-- 7.0 -->
      <g transform="translate(39.08375 309.554488636)scale(0.12 -0.12)">
       <use xlink:href="#BitstreamVeraSans-Roman-37"/>
       <use x="63.623046875" xlink:href="#BitstreamVeraSans-Roman-2e"/>
       <use x="95.41015625" xlink:href="#BitstreamVeraSans-Roman-30"/>
      </g>
     </g>
    </g>
    <g id="ytick_12">
     <g id="line2d_74">
      <path clip-path="url(#pc350a3f171)" d="M 62.1675 280.06142 
L 508.5675 280.06142 
" style="fill:none;stroke:#000000;stroke-dasharray:1.000000,3.000000;stroke-dashoffset:0.0;stroke-width:0.5;"/>
     </g>
     <g id="line2d_75">
      <g>
       <use style="stroke:#000000;stroke-width:0.5;" x="62.1675" xlink:href="#mfd35debe9d" y="280.061420455"/>
      </g>
     </g>
     <g id="line2d_76">
      <g>
       <use style="stroke:#000000;stroke-width:0.5;" x="508.5675" xlink:href="#m1ba6326b52" y="280.061420455"/>
      </g>
     </g>
     <g id="text_30">
      <!-- 7.5 -->
      <g transform="translate(39.08375 283.372670455)scale(0.12 -0.12)">
       <use xlink:href="#BitstreamVeraSans-Roman-37"/>
       <use x="63.623046875" xlink:href="#BitstreamVeraSans-Roman-2e"/>
       <use x="95.41015625" xlink:href="#BitstreamVeraSans-Roman-35"/>
      </g>
     </g>
    </g>
    <g id="ytick_13">
     <g id="line2d_77">
      <path clip-path="url(#pc350a3f171)" d="M 62.1675 253.879602 
L 508.5675 253.879602 
" style="fill:none;stroke:#000000;stroke-dasharray:1.000000,3.000000;stroke-dashoffset:0.0;stroke-width:0.5;"/>
     </g>
     <g id="line2d_78">
      <g>
       <use style="stroke:#000000;stroke-width:0.5;" x="62.1675" xlink:href="#mfd35debe9d" y="253.879602273"/>
      </g>
     </g>
     <g id="line2d_79">
      <g>
       <use style="stroke:#000000;stroke-width:0.5;" x="508.5675" xlink:href="#m1ba6326b52" y="253.879602273"/>
      </g>
     </g>
     <g id="text_31">
      <!-- 8.0 -->
      <g transform="translate(39.08375 257.190852273)scale(0.12 -0.12)">
       <use xlink:href="#BitstreamVeraSans-Roman-38"/>
       <use x="63.623046875" xlink:href="#BitstreamVeraSans-Roman-2e"/>
       <use x="95.41015625" xlink:href="#BitstreamVeraSans-Roman-30"/>
      </g>
     </g>
    </g>
    <g id="ytick_14">
     <g id="line2d_80">
      <path clip-path="url(#pc350a3f171)" d="M 62.1675 227.697784 
L 508.5675 227.697784 
" style="fill:none;stroke:#000000;stroke-dasharray:1.000000,3.000000;stroke-dashoffset:0.0;stroke-width:0.5;"/>
     </g>
     <g id="line2d_81">
      <g>
       <use style="stroke:#000000;stroke-width:0.5;" x="62.1675" xlink:href="#mfd35debe9d" y="227.697784091"/>
      </g>
     </g>
     <g id="line2d_82">
      <g>
       <use style="stroke:#000000;stroke-width:0.5;" x="508.5675" xlink:href="#m1ba6326b52" y="227.697784091"/>
      </g>
     </g>
     <g id="text_32">
      <!-- 8.5 -->
      <g transform="translate(39.08375 231.009034091)scale(0.12 -0.12)">
       <use xlink:href="#BitstreamVeraSans-Roman-38"/>
       <use x="63.623046875" xlink:href="#BitstreamVeraSans-Roman-2e"/>
       <use x="95.41015625" xlink:href="#BitstreamVeraSans-Roman-35"/>
      </g>
     </g>
    </g>
    <g id="ytick_15">
     <g id="line2d_83">
      <path clip-path="url(#pc350a3f171)" d="M 62.1675 201.515966 
L 508.5675 201.515966 
" style="fill:none;stroke:#000000;stroke-dasharray:1.000000,3.000000;stroke-dashoffset:0.0;stroke-width:0.5;"/>
     </g>
     <g id="line2d_84">
      <g>
       <use style="stroke:#000000;stroke-width:0.5;" x="62.1675" xlink:href="#mfd35debe9d" y="201.515965909"/>
      </g>
     </g>
     <g id="line2d_85">
      <g>
       <use style="stroke:#000000;stroke-width:0.5;" x="508.5675" xlink:href="#m1ba6326b52" y="201.515965909"/>
      </g>
     </g>
     <g id="text_33">
      <!-- 9.0 -->
      <defs>
       <path d="M 10.984375 1.515625 
L 10.984375 10.5 
Q 14.703125 8.734375 18.5 7.8125 
Q 22.3125 6.890625 25.984375 6.890625 
Q 35.75 6.890625 40.890625 13.453125 
Q 46.046875 20.015625 46.78125 33.40625 
Q 43.953125 29.203125 39.59375 26.953125 
Q 35.25 24.703125 29.984375 24.703125 
Q 19.046875 24.703125 12.671875 31.3125 
Q 6.296875 37.9375 6.296875 49.421875 
Q 6.296875 60.640625 12.9375 67.421875 
Q 19.578125 74.21875 30.609375 74.21875 
Q 43.265625 74.21875 49.921875 64.515625 
Q 56.59375 54.828125 56.59375 36.375 
Q 56.59375 19.140625 48.40625 8.859375 
Q 40.234375 -1.421875 26.421875 -1.421875 
Q 22.703125 -1.421875 18.890625 -0.6875 
Q 15.09375 0.046875 10.984375 1.515625 
M 30.609375 32.421875 
Q 37.25 32.421875 41.125 36.953125 
Q 45.015625 41.5 45.015625 49.421875 
Q 45.015625 57.28125 41.125 61.84375 
Q 37.25 66.40625 30.609375 66.40625 
Q 23.96875 66.40625 20.09375 61.84375 
Q 16.21875 57.28125 16.21875 49.421875 
Q 16.21875 41.5 20.09375 36.953125 
Q 23.96875 32.421875 30.609375 32.421875 
" id="BitstreamVeraSans-Roman-39"/>
      </defs>
      <g transform="translate(39.08375 204.827215909)scale(0.12 -0.12)">
       <use xlink:href="#BitstreamVeraSans-Roman-39"/>
       <use x="63.623046875" xlink:href="#BitstreamVeraSans-Roman-2e"/>
       <use x="95.41015625" xlink:href="#BitstreamVeraSans-Roman-30"/>
      </g>
     </g>
    </g>
    <g id="text_34">
     <!-- n / t [s ^ -1] -->
     <defs>
      <path d="M 30.421875 75.984375 
L 30.421875 -13.1875 
L 9.71875 -13.1875 
L 9.71875 -6.203125 
L 21.390625 -6.203125 
L 21.390625 69 
L 9.71875 69 
L 9.71875 75.984375 
z
" id="BitstreamVeraSans-Roman-5d"/>
      <path d="M 8.59375 75.984375 
L 29.296875 75.984375 
L 29.296875 69 
L 17.578125 69 
L 17.578125 -6.203125 
L 29.296875 -6.203125 
L 29.296875 -13.1875 
L 8.59375 -13.1875 
z
" id="BitstreamVeraSans-Roman-5b"/>
      <path d="M 46.6875 72.90625 
L 73.1875 45.703125 
L 63.375 45.703125 
L 41.890625 64.984375 
L 20.40625 45.703125 
L 10.59375 45.703125 
L 37.109375 72.90625 
z
" id="BitstreamVeraSans-Roman-5e"/>
      <path d="M 25.390625 72.90625 
L 33.6875 72.90625 
L 8.296875 -9.28125 
L 0 -9.28125 
z
" id="BitstreamVeraSans-Roman-2f"/>
     </defs>
     <g transform="translate(31.588125 316.589232955)rotate(-90.0)scale(0.12 -0.12)">
      <use xlink:href="#BitstreamVeraSans-Roman-6e"/>
      <use x="63.37890625" xlink:href="#BitstreamVeraSans-Roman-20"/>
      <use x="95.166015625" xlink:href="#BitstreamVeraSans-Roman-2f"/>
      <use x="128.857421875" xlink:href="#BitstreamVeraSans-Roman-20"/>
      <use x="160.64453125" xlink:href="#BitstreamVeraSans-Roman-74"/>
      <use x="199.853515625" xlink:href="#BitstreamVeraSans-Roman-20"/>
      <use x="231.640625" xlink:href="#BitstreamVeraSans-Roman-5b"/>
      <use x="270.654296875" xlink:href="#BitstreamVeraSans-Roman-73"/>
      <use x="322.75390625" xlink:href="#BitstreamVeraSans-Roman-20"/>
      <use x="354.541015625" xlink:href="#BitstreamVeraSans-Roman-5e"/>
      <use x="438.330078125" xlink:href="#BitstreamVeraSans-Roman-20"/>
      <use x="470.1171875" xlink:href="#BitstreamVeraSans-Roman-2d"/>
      <use x="506.201171875" xlink:href="#BitstreamVeraSans-Roman-31"/>
      <use x="569.82421875" xlink:href="#BitstreamVeraSans-Roman-5d"/>
     </g>
    </g>
    <g id="text_35">
     <!-- 1e7 -->
     <defs>
      <path d="M 10.59375 35.5 
L 73.1875 35.5 
L 73.1875 27.203125 
L 10.59375 27.203125 
z
" id="BitstreamVeraSans-Roman-2212"/>
     </defs>
     <g transform="translate(62.1675 198.515965909)scale(0.12 -0.12)">
      <use xlink:href="#BitstreamVeraSans-Roman-31"/>
      <use x="63.623046875" xlink:href="#BitstreamVeraSans-Roman-65"/>
      <use x="125.146484375" xlink:href="#BitstreamVeraSans-Roman-2212"/>
      <use x="208.935546875" xlink:href="#BitstreamVeraSans-Roman-37"/>
     </g>
    </g>
   </g>
   <g id="legend_2">
    <g id="patch_13">
     <path d="M 69.3675 234.172466 
L 192.46275 234.172466 
L 192.46275 208.715966 
L 69.3675 208.715966 
z
" style="fill:#ffffff;stroke:#000000;stroke-linejoin:miter;"/>
    </g>
    <g id="line2d_86">
     <path d="M 79.4475 220.377716 
L 99.6075 220.377716 
" style="fill:none;stroke:#008000;stroke-linecap:square;"/>
    </g>
    <g id="line2d_87">
     <g>
      <use style="fill:#008000;stroke:#008000;stroke-width:0.5;" x="79.4475" xlink:href="#mf2db5a427a" y="220.377715909"/>
      <use style="fill:#008000;stroke:#008000;stroke-width:0.5;" x="99.6075" xlink:href="#mf2db5a427a" y="220.377715909"/>
     </g>
    </g>
    <g id="text_36">
     <!-- loop tiling -->
     <g transform="translate(115.4475 225.417715909)scale(0.144 -0.144)">
      <use xlink:href="#BitstreamVeraSans-Roman-6c"/>
      <use x="27.783203125" xlink:href="#BitstreamVeraSans-Roman-6f"/>
      <use x="88.96484375" xlink:href="#BitstreamVeraSans-Roman-6f"/>
      <use x="150.146484375" xlink:href="#BitstreamVeraSans-Roman-70"/>
      <use x="213.623046875" xlink:href="#BitstreamVeraSans-Roman-20"/>
      <use x="245.41015625" xlink:href="#BitstreamVeraSans-Roman-74"/>
      <use x="284.619140625" xlink:href="#BitstreamVeraSans-Roman-69"/>
      <use x="312.40234375" xlink:href="#BitstreamVeraSans-Roman-6c"/>
      <use x="340.185546875" xlink:href="#BitstreamVeraSans-Roman-69"/>
      <use x="367.96875" xlink:href="#BitstreamVeraSans-Roman-6e"/>
      <use x="431.34765625" xlink:href="#BitstreamVeraSans-Roman-67"/>
     </g>
    </g>
   </g>
  </g>
 </g>
 <defs>
  <clipPath id="peb2094dc87">
   <rect height="157.090909091" width="446.4" x="62.1675" y="13.006875"/>
  </clipPath>
  <clipPath id="pc350a3f171">
   <rect height="157.090909091" width="446.4" x="62.1675" y="201.515965909"/>
  </clipPath>
 </defs>
</svg>
