<?xml version="1.0" encoding="utf-8" standalone="no"?>
<!DOCTYPE svg PUBLIC "-//W3C//DTD SVG 1.1//EN"
  "http://www.w3.org/Graphics/SVG/1.1/DTD/svg11.dtd">
<!-- Created with matplotlib (http://matplotlib.org/) -->
<svg height="280pt" version="1.1" viewBox="0 0 420 280" width="420pt" xmlns="http://www.w3.org/2000/svg" xmlns:xlink="http://www.w3.org/1999/xlink">
 <defs>
  <style type="text/css">
*{stroke-linecap:butt;stroke-linejoin:round;stroke-miterlimit:100000;}
  </style>
 </defs>
 <g id="figure_1">
  <g id="patch_1">
   <path d="M 0 280.074375 
L 420.367188 280.074375 
L 420.367188 0 
L 0 0 
z
" style="fill:#ffffff;"/>
  </g>
  <g id="axes_1">
   <g id="patch_2">
    <path d="M 70.415625 244.518125 
L 405.215625 244.518125 
L 405.215625 21.318125 
L 70.415625 21.318125 
z
" style="fill:#ffffff;"/>
   </g>
   <g id="line2d_1">
    <path clip-path="url(#p8037e7ce6d)" d="M 83.807625 45.985077 
L 97.199625 43.998484 
L 110.591625 45.31026 
L 123.983625 43.663463 
L 137.375625 44.825585 
L 150.767625 44.761946 
L 164.159625 45.606999 
L 177.551625 44.711432 
L 190.943625 43.483823 
L 204.335625 43.489776 
L 217.727625 44.707678 
L 231.119625 51.538772 
L 244.511625 44.696106 
L 257.903625 43.644911 
L 271.295625 43.361536 
L 284.687625 44.477478 
L 298.079625 44.095275 
L 311.471625 44.507763 
L 324.863625 44.515603 
L 338.255625 44.651019 
L 351.647625 44.646296 
L 365.039625 44.468976 
L 378.431625 44.454892 
L 391.823625 43.824787 
L 405.215625 43.358001 
" style="fill:none;stroke:#0000ff;stroke-linecap:square;"/>
    <defs>
     <path d="M 0 1.5 
C 0.397805 1.5 0.77937 1.341951 1.06066 1.06066 
C 1.341951 0.77937 1.5 0.397805 1.5 0 
C 1.5 -0.397805 1.341951 -0.77937 1.06066 -1.06066 
C 0.77937 -1.341951 0.397805 -1.5 0 -1.5 
C -0.397805 -1.5 -0.77937 -1.341951 -1.06066 -1.06066 
C -1.341951 -0.77937 -1.5 -0.397805 -1.5 0 
C -1.5 0.397805 -1.341951 0.77937 -1.06066 1.06066 
C -0.77937 1.341951 -0.397805 1.5 0 1.5 
z
" id="mf6e79cebcf" style="stroke:#0000ff;stroke-width:0.5;"/>
    </defs>
    <g clip-path="url(#p8037e7ce6d)">
     <use style="fill:#0000ff;stroke:#0000ff;stroke-width:0.5;" x="83.807625" xlink:href="#mf6e79cebcf" y="45.9850772903"/>
     <use style="fill:#0000ff;stroke:#0000ff;stroke-width:0.5;" x="97.199625" xlink:href="#mf6e79cebcf" y="43.9984837135"/>
     <use style="fill:#0000ff;stroke:#0000ff;stroke-width:0.5;" x="110.591625" xlink:href="#mf6e79cebcf" y="45.3102603168"/>
     <use style="fill:#0000ff;stroke:#0000ff;stroke-width:0.5;" x="123.983625" xlink:href="#mf6e79cebcf" y="43.6634632572"/>
     <use style="fill:#0000ff;stroke:#0000ff;stroke-width:0.5;" x="137.375625" xlink:href="#mf6e79cebcf" y="44.8255854732"/>
     <use style="fill:#0000ff;stroke:#0000ff;stroke-width:0.5;" x="150.767625" xlink:href="#mf6e79cebcf" y="44.7619463696"/>
     <use style="fill:#0000ff;stroke:#0000ff;stroke-width:0.5;" x="164.159625" xlink:href="#mf6e79cebcf" y="45.6069994103"/>
     <use style="fill:#0000ff;stroke:#0000ff;stroke-width:0.5;" x="177.551625" xlink:href="#mf6e79cebcf" y="44.7114317613"/>
     <use style="fill:#0000ff;stroke:#0000ff;stroke-width:0.5;" x="190.943625" xlink:href="#mf6e79cebcf" y="43.4838227181"/>
     <use style="fill:#0000ff;stroke:#0000ff;stroke-width:0.5;" x="204.335625" xlink:href="#mf6e79cebcf" y="43.4897763764"/>
     <use style="fill:#0000ff;stroke:#0000ff;stroke-width:0.5;" x="217.727625" xlink:href="#mf6e79cebcf" y="44.7076779892"/>
     <use style="fill:#0000ff;stroke:#0000ff;stroke-width:0.5;" x="231.119625" xlink:href="#mf6e79cebcf" y="51.5387715916"/>
     <use style="fill:#0000ff;stroke:#0000ff;stroke-width:0.5;" x="244.511625" xlink:href="#mf6e79cebcf" y="44.6961064531"/>
     <use style="fill:#0000ff;stroke:#0000ff;stroke-width:0.5;" x="257.903625" xlink:href="#mf6e79cebcf" y="43.644910541"/>
     <use style="fill:#0000ff;stroke:#0000ff;stroke-width:0.5;" x="271.295625" xlink:href="#mf6e79cebcf" y="43.3615360296"/>
     <use style="fill:#0000ff;stroke:#0000ff;stroke-width:0.5;" x="284.687625" xlink:href="#mf6e79cebcf" y="44.4774776875"/>
     <use style="fill:#0000ff;stroke:#0000ff;stroke-width:0.5;" x="298.079625" xlink:href="#mf6e79cebcf" y="44.095274929"/>
     <use style="fill:#0000ff;stroke:#0000ff;stroke-width:0.5;" x="311.471625" xlink:href="#mf6e79cebcf" y="44.5077631449"/>
     <use style="fill:#0000ff;stroke:#0000ff;stroke-width:0.5;" x="324.863625" xlink:href="#mf6e79cebcf" y="44.5156030881"/>
     <use style="fill:#0000ff;stroke:#0000ff;stroke-width:0.5;" x="338.255625" xlink:href="#mf6e79cebcf" y="44.6510186635"/>
     <use style="fill:#0000ff;stroke:#0000ff;stroke-width:0.5;" x="351.647625" xlink:href="#mf6e79cebcf" y="44.6462955363"/>
     <use style="fill:#0000ff;stroke:#0000ff;stroke-width:0.5;" x="365.039625" xlink:href="#mf6e79cebcf" y="44.4689757266"/>
     <use style="fill:#0000ff;stroke:#0000ff;stroke-width:0.5;" x="378.431625" xlink:href="#mf6e79cebcf" y="44.4548918873"/>
     <use style="fill:#0000ff;stroke:#0000ff;stroke-width:0.5;" x="391.823625" xlink:href="#mf6e79cebcf" y="43.8247869593"/>
     <use style="fill:#0000ff;stroke:#0000ff;stroke-width:0.5;" x="405.215625" xlink:href="#mf6e79cebcf" y="43.3580013674"/>
    </g>
   </g>
   <g id="line2d_2">
    <path clip-path="url(#p8037e7ce6d)" d="M 83.807625 39.999144 
L 97.199625 36.327608 
L 110.591625 35.162214 
L 123.983625 35.008071 
L 137.375625 35.014042 
L 150.767625 34.930596 
L 164.159625 35.195182 
L 177.551625 34.852215 
L 190.943625 34.846474 
L 204.335625 34.857827 
L 217.727625 34.853269 
L 231.119625 34.890368 
L 244.511625 34.848901 
L 257.903625 34.947915 
L 271.295625 34.846315 
L 284.687625 34.777127 
L 298.079625 35.260364 
L 311.471625 34.900856 
L 324.863625 34.863083 
L 338.255625 34.820458 
L 351.647625 34.798159 
L 365.039625 34.748407 
L 378.431625 34.797929 
L 391.823625 34.912257 
L 405.215625 34.786117 
" style="fill:none;stroke:#008000;stroke-linecap:square;"/>
    <defs>
     <path d="M 0 1.5 
C 0.397805 1.5 0.77937 1.341951 1.06066 1.06066 
C 1.341951 0.77937 1.5 0.397805 1.5 0 
C 1.5 -0.397805 1.341951 -0.77937 1.06066 -1.06066 
C 0.77937 -1.341951 0.397805 -1.5 0 -1.5 
C -0.397805 -1.5 -0.77937 -1.341951 -1.06066 -1.06066 
C -1.341951 -0.77937 -1.5 -0.397805 -1.5 0 
C -1.5 0.397805 -1.341951 0.77937 -1.06066 1.06066 
C -0.77937 1.341951 -0.397805 1.5 0 1.5 
z
" id="m1a71ae73d2" style="stroke:#008000;stroke-width:0.5;"/>
    </defs>
    <g clip-path="url(#p8037e7ce6d)">
     <use style="fill:#008000;stroke:#008000;stroke-width:0.5;" x="83.807625" xlink:href="#m1a71ae73d2" y="39.9991444716"/>
     <use style="fill:#008000;stroke:#008000;stroke-width:0.5;" x="97.199625" xlink:href="#m1a71ae73d2" y="36.3276081288"/>
     <use style="fill:#008000;stroke:#008000;stroke-width:0.5;" x="110.591625" xlink:href="#m1a71ae73d2" y="35.162213654"/>
     <use style="fill:#008000;stroke:#008000;stroke-width:0.5;" x="123.983625" xlink:href="#m1a71ae73d2" y="35.0080711775"/>
     <use style="fill:#008000;stroke:#008000;stroke-width:0.5;" x="137.375625" xlink:href="#m1a71ae73d2" y="35.0140422631"/>
     <use style="fill:#008000;stroke:#008000;stroke-width:0.5;" x="150.767625" xlink:href="#m1a71ae73d2" y="34.930595575"/>
     <use style="fill:#008000;stroke:#008000;stroke-width:0.5;" x="164.159625" xlink:href="#m1a71ae73d2" y="35.1951821971"/>
     <use style="fill:#008000;stroke:#008000;stroke-width:0.5;" x="177.551625" xlink:href="#m1a71ae73d2" y="34.8522145238"/>
     <use style="fill:#008000;stroke:#008000;stroke-width:0.5;" x="190.943625" xlink:href="#m1a71ae73d2" y="34.8464736203"/>
     <use style="fill:#008000;stroke:#008000;stroke-width:0.5;" x="204.335625" xlink:href="#m1a71ae73d2" y="34.8578274213"/>
     <use style="fill:#008000;stroke:#008000;stroke-width:0.5;" x="217.727625" xlink:href="#m1a71ae73d2" y="34.8532693226"/>
     <use style="fill:#008000;stroke:#008000;stroke-width:0.5;" x="231.119625" xlink:href="#m1a71ae73d2" y="34.8903684756"/>
     <use style="fill:#008000;stroke:#008000;stroke-width:0.5;" x="244.511625" xlink:href="#m1a71ae73d2" y="34.8489012161"/>
     <use style="fill:#008000;stroke:#008000;stroke-width:0.5;" x="257.903625" xlink:href="#m1a71ae73d2" y="34.9479146853"/>
     <use style="fill:#008000;stroke:#008000;stroke-width:0.5;" x="271.295625" xlink:href="#m1a71ae73d2" y="34.8463149439"/>
     <use style="fill:#008000;stroke:#008000;stroke-width:0.5;" x="284.687625" xlink:href="#m1a71ae73d2" y="34.7771268665"/>
     <use style="fill:#008000;stroke:#008000;stroke-width:0.5;" x="298.079625" xlink:href="#m1a71ae73d2" y="35.260363505"/>
     <use style="fill:#008000;stroke:#008000;stroke-width:0.5;" x="311.471625" xlink:href="#m1a71ae73d2" y="34.9008557468"/>
     <use style="fill:#008000;stroke:#008000;stroke-width:0.5;" x="324.863625" xlink:href="#m1a71ae73d2" y="34.8630828005"/>
     <use style="fill:#008000;stroke:#008000;stroke-width:0.5;" x="338.255625" xlink:href="#m1a71ae73d2" y="34.8204575405"/>
     <use style="fill:#008000;stroke:#008000;stroke-width:0.5;" x="351.647625" xlink:href="#m1a71ae73d2" y="34.7981586866"/>
     <use style="fill:#008000;stroke:#008000;stroke-width:0.5;" x="365.039625" xlink:href="#m1a71ae73d2" y="34.7484068793"/>
     <use style="fill:#008000;stroke:#008000;stroke-width:0.5;" x="378.431625" xlink:href="#m1a71ae73d2" y="34.797928656"/>
     <use style="fill:#008000;stroke:#008000;stroke-width:0.5;" x="391.823625" xlink:href="#m1a71ae73d2" y="34.9122566229"/>
     <use style="fill:#008000;stroke:#008000;stroke-width:0.5;" x="405.215625" xlink:href="#m1a71ae73d2" y="34.7861166311"/>
    </g>
   </g>
   <g id="line2d_3">
    <path clip-path="url(#p8037e7ce6d)" d="M 83.807625 115.331415 
L 97.199625 114.875794 
L 110.591625 114.711833 
L 123.983625 114.640728 
L 137.375625 114.615011 
L 150.767625 114.582581 
L 164.159625 114.788845 
L 177.551625 114.527952 
L 190.943625 114.543196 
L 204.335625 114.506649 
L 217.727625 114.558772 
L 231.119625 114.500886 
L 244.511625 114.521721 
L 257.903625 114.539801 
L 271.295625 114.491361 
L 284.687625 114.486804 
L 298.079625 224.038382 
L 311.471625 114.494678 
L 324.863625 114.492802 
L 338.255625 114.500844 
L 351.647625 114.492262 
L 365.039625 114.464898 
L 378.431625 114.459316 
L 391.823625 114.622234 
L 405.215625 114.472018 
" style="fill:none;stroke:#ff0000;stroke-linecap:square;"/>
    <defs>
     <path d="M 0 1.5 
C 0.397805 1.5 0.77937 1.341951 1.06066 1.06066 
C 1.341951 0.77937 1.5 0.397805 1.5 0 
C 1.5 -0.397805 1.341951 -0.77937 1.06066 -1.06066 
C 0.77937 -1.341951 0.397805 -1.5 0 -1.5 
C -0.397805 -1.5 -0.77937 -1.341951 -1.06066 -1.06066 
C -1.341951 -0.77937 -1.5 -0.397805 -1.5 0 
C -1.5 0.397805 -1.341951 0.77937 -1.06066 1.06066 
C -0.77937 1.341951 -0.397805 1.5 0 1.5 
z
" id="m6ff3b31a4e" style="stroke:#ff0000;stroke-width:0.5;"/>
    </defs>
    <g clip-path="url(#p8037e7ce6d)">
     <use style="fill:#ff0000;stroke:#ff0000;stroke-width:0.5;" x="83.807625" xlink:href="#m6ff3b31a4e" y="115.331414718"/>
     <use style="fill:#ff0000;stroke:#ff0000;stroke-width:0.5;" x="97.199625" xlink:href="#m6ff3b31a4e" y="114.875794339"/>
     <use style="fill:#ff0000;stroke:#ff0000;stroke-width:0.5;" x="110.591625" xlink:href="#m6ff3b31a4e" y="114.71183319"/>
     <use style="fill:#ff0000;stroke:#ff0000;stroke-width:0.5;" x="123.983625" xlink:href="#m6ff3b31a4e" y="114.640727783"/>
     <use style="fill:#ff0000;stroke:#ff0000;stroke-width:0.5;" x="137.375625" xlink:href="#m6ff3b31a4e" y="114.615011306"/>
     <use style="fill:#ff0000;stroke:#ff0000;stroke-width:0.5;" x="150.767625" xlink:href="#m6ff3b31a4e" y="114.582581182"/>
     <use style="fill:#ff0000;stroke:#ff0000;stroke-width:0.5;" x="164.159625" xlink:href="#m6ff3b31a4e" y="114.788845365"/>
     <use style="fill:#ff0000;stroke:#ff0000;stroke-width:0.5;" x="177.551625" xlink:href="#m6ff3b31a4e" y="114.527952006"/>
     <use style="fill:#ff0000;stroke:#ff0000;stroke-width:0.5;" x="190.943625" xlink:href="#m6ff3b31a4e" y="114.543195854"/>
     <use style="fill:#ff0000;stroke:#ff0000;stroke-width:0.5;" x="204.335625" xlink:href="#m6ff3b31a4e" y="114.506649274"/>
     <use style="fill:#ff0000;stroke:#ff0000;stroke-width:0.5;" x="217.727625" xlink:href="#m6ff3b31a4e" y="114.558771775"/>
     <use style="fill:#ff0000;stroke:#ff0000;stroke-width:0.5;" x="231.119625" xlink:href="#m6ff3b31a4e" y="114.500885775"/>
     <use style="fill:#ff0000;stroke:#ff0000;stroke-width:0.5;" x="244.511625" xlink:href="#m6ff3b31a4e" y="114.521721449"/>
     <use style="fill:#ff0000;stroke:#ff0000;stroke-width:0.5;" x="257.903625" xlink:href="#m6ff3b31a4e" y="114.539800849"/>
     <use style="fill:#ff0000;stroke:#ff0000;stroke-width:0.5;" x="271.295625" xlink:href="#m6ff3b31a4e" y="114.491360886"/>
     <use style="fill:#ff0000;stroke:#ff0000;stroke-width:0.5;" x="284.687625" xlink:href="#m6ff3b31a4e" y="114.486804329"/>
     <use style="fill:#ff0000;stroke:#ff0000;stroke-width:0.5;" x="298.079625" xlink:href="#m6ff3b31a4e" y="224.038382382"/>
     <use style="fill:#ff0000;stroke:#ff0000;stroke-width:0.5;" x="311.471625" xlink:href="#m6ff3b31a4e" y="114.494678116"/>
     <use style="fill:#ff0000;stroke:#ff0000;stroke-width:0.5;" x="324.863625" xlink:href="#m6ff3b31a4e" y="114.492802162"/>
     <use style="fill:#ff0000;stroke:#ff0000;stroke-width:0.5;" x="338.255625" xlink:href="#m6ff3b31a4e" y="114.500844161"/>
     <use style="fill:#ff0000;stroke:#ff0000;stroke-width:0.5;" x="351.647625" xlink:href="#m6ff3b31a4e" y="114.492261608"/>
     <use style="fill:#ff0000;stroke:#ff0000;stroke-width:0.5;" x="365.039625" xlink:href="#m6ff3b31a4e" y="114.464898414"/>
     <use style="fill:#ff0000;stroke:#ff0000;stroke-width:0.5;" x="378.431625" xlink:href="#m6ff3b31a4e" y="114.459315501"/>
     <use style="fill:#ff0000;stroke:#ff0000;stroke-width:0.5;" x="391.823625" xlink:href="#m6ff3b31a4e" y="114.622234096"/>
     <use style="fill:#ff0000;stroke:#ff0000;stroke-width:0.5;" x="405.215625" xlink:href="#m6ff3b31a4e" y="114.472017681"/>
    </g>
   </g>
   <g id="line2d_4">
    <path clip-path="url(#p8037e7ce6d)" d="M 83.807625 128.809297 
L 97.199625 119.643364 
L 110.591625 119.794309 
L 123.983625 119.686229 
L 137.375625 119.695775 
L 150.767625 119.564448 
L 164.159625 120.087919 
L 177.551625 119.431062 
L 190.943625 119.422978 
L 204.335625 119.415278 
L 217.727625 119.509315 
L 231.119625 119.275925 
L 244.511625 119.508738 
L 257.903625 119.881205 
L 271.295625 119.375759 
L 284.687625 119.388357 
L 298.079625 223.642521 
L 311.471625 119.442331 
L 324.863625 119.400169 
L 338.255625 119.518206 
L 351.647625 119.342313 
L 365.039625 119.2476 
L 378.431625 119.337876 
L 391.823625 119.727512 
L 405.215625 119.434277 
" style="fill:none;stroke:#00bfbf;stroke-linecap:square;"/>
    <defs>
     <path d="M 0 1.5 
C 0.397805 1.5 0.77937 1.341951 1.06066 1.06066 
C 1.341951 0.77937 1.5 0.397805 1.5 0 
C 1.5 -0.397805 1.341951 -0.77937 1.06066 -1.06066 
C 0.77937 -1.341951 0.397805 -1.5 0 -1.5 
C -0.397805 -1.5 -0.77937 -1.341951 -1.06066 -1.06066 
C -1.341951 -0.77937 -1.5 -0.397805 -1.5 0 
C -1.5 0.397805 -1.341951 0.77937 -1.06066 1.06066 
C -0.77937 1.341951 -0.397805 1.5 0 1.5 
z
" id="m9d7ad3d1a8" style="stroke:#00bfbf;stroke-width:0.5;"/>
    </defs>
    <g clip-path="url(#p8037e7ce6d)">
     <use style="fill:#00bfbf;stroke:#00bfbf;stroke-width:0.5;" x="83.807625" xlink:href="#m9d7ad3d1a8" y="128.809296897"/>
     <use style="fill:#00bfbf;stroke:#00bfbf;stroke-width:0.5;" x="97.199625" xlink:href="#m9d7ad3d1a8" y="119.643364203"/>
     <use style="fill:#00bfbf;stroke:#00bfbf;stroke-width:0.5;" x="110.591625" xlink:href="#m9d7ad3d1a8" y="119.794309324"/>
     <use style="fill:#00bfbf;stroke:#00bfbf;stroke-width:0.5;" x="123.983625" xlink:href="#m9d7ad3d1a8" y="119.686229029"/>
     <use style="fill:#00bfbf;stroke:#00bfbf;stroke-width:0.5;" x="137.375625" xlink:href="#m9d7ad3d1a8" y="119.695775114"/>
     <use style="fill:#00bfbf;stroke:#00bfbf;stroke-width:0.5;" x="150.767625" xlink:href="#m9d7ad3d1a8" y="119.564447796"/>
     <use style="fill:#00bfbf;stroke:#00bfbf;stroke-width:0.5;" x="164.159625" xlink:href="#m9d7ad3d1a8" y="120.087918596"/>
     <use style="fill:#00bfbf;stroke:#00bfbf;stroke-width:0.5;" x="177.551625" xlink:href="#m9d7ad3d1a8" y="119.431062285"/>
     <use style="fill:#00bfbf;stroke:#00bfbf;stroke-width:0.5;" x="190.943625" xlink:href="#m9d7ad3d1a8" y="119.422978261"/>
     <use style="fill:#00bfbf;stroke:#00bfbf;stroke-width:0.5;" x="204.335625" xlink:href="#m9d7ad3d1a8" y="119.415278245"/>
     <use style="fill:#00bfbf;stroke:#00bfbf;stroke-width:0.5;" x="217.727625" xlink:href="#m9d7ad3d1a8" y="119.509315342"/>
     <use style="fill:#00bfbf;stroke:#00bfbf;stroke-width:0.5;" x="231.119625" xlink:href="#m9d7ad3d1a8" y="119.275925061"/>
     <use style="fill:#00bfbf;stroke:#00bfbf;stroke-width:0.5;" x="244.511625" xlink:href="#m9d7ad3d1a8" y="119.508737692"/>
     <use style="fill:#00bfbf;stroke:#00bfbf;stroke-width:0.5;" x="257.903625" xlink:href="#m9d7ad3d1a8" y="119.881204912"/>
     <use style="fill:#00bfbf;stroke:#00bfbf;stroke-width:0.5;" x="271.295625" xlink:href="#m9d7ad3d1a8" y="119.375758985"/>
     <use style="fill:#00bfbf;stroke:#00bfbf;stroke-width:0.5;" x="284.687625" xlink:href="#m9d7ad3d1a8" y="119.388357152"/>
     <use style="fill:#00bfbf;stroke:#00bfbf;stroke-width:0.5;" x="298.079625" xlink:href="#m9d7ad3d1a8" y="223.64252096"/>
     <use style="fill:#00bfbf;stroke:#00bfbf;stroke-width:0.5;" x="311.471625" xlink:href="#m9d7ad3d1a8" y="119.442330652"/>
     <use style="fill:#00bfbf;stroke:#00bfbf;stroke-width:0.5;" x="324.863625" xlink:href="#m9d7ad3d1a8" y="119.400169294"/>
     <use style="fill:#00bfbf;stroke:#00bfbf;stroke-width:0.5;" x="338.255625" xlink:href="#m9d7ad3d1a8" y="119.518206193"/>
     <use style="fill:#00bfbf;stroke:#00bfbf;stroke-width:0.5;" x="351.647625" xlink:href="#m9d7ad3d1a8" y="119.34231256"/>
     <use style="fill:#00bfbf;stroke:#00bfbf;stroke-width:0.5;" x="365.039625" xlink:href="#m9d7ad3d1a8" y="119.247600276"/>
     <use style="fill:#00bfbf;stroke:#00bfbf;stroke-width:0.5;" x="378.431625" xlink:href="#m9d7ad3d1a8" y="119.337876052"/>
     <use style="fill:#00bfbf;stroke:#00bfbf;stroke-width:0.5;" x="391.823625" xlink:href="#m9d7ad3d1a8" y="119.727511594"/>
     <use style="fill:#00bfbf;stroke:#00bfbf;stroke-width:0.5;" x="405.215625" xlink:href="#m9d7ad3d1a8" y="119.43427747"/>
    </g>
   </g>
   <g id="line2d_5">
    <path clip-path="url(#p8037e7ce6d)" d="M 83.807625 144.052419 
L 97.199625 136.958021 
L 110.591625 136.242785 
L 123.983625 136.167456 
L 137.375625 136.147304 
L 150.767625 136.08866 
L 164.159625 138.070799 
L 177.551625 136.04768 
L 190.943625 135.992348 
L 204.335625 136.053832 
L 217.727625 135.998179 
L 231.119625 136.59568 
L 244.511625 136.063374 
L 257.903625 136.526878 
L 271.295625 136.019192 
L 284.687625 136.126755 
L 298.079625 226.284129 
L 311.471625 136.007263 
L 324.863625 135.979572 
L 338.255625 136.074914 
L 351.647625 136.016378 
L 365.039625 136.527665 
L 378.431625 135.938359 
L 391.823625 137.687473 
L 405.215625 136.051177 
" style="fill:none;stroke:#bf00bf;stroke-linecap:square;"/>
    <defs>
     <path d="M 0 1.5 
C 0.397805 1.5 0.77937 1.341951 1.06066 1.06066 
C 1.341951 0.77937 1.5 0.397805 1.5 0 
C 1.5 -0.397805 1.341951 -0.77937 1.06066 -1.06066 
C 0.77937 -1.341951 0.397805 -1.5 0 -1.5 
C -0.397805 -1.5 -0.77937 -1.341951 -1.06066 -1.06066 
C -1.341951 -0.77937 -1.5 -0.397805 -1.5 0 
C -1.5 0.397805 -1.341951 0.77937 -1.06066 1.06066 
C -0.77937 1.341951 -0.397805 1.5 0 1.5 
z
" id="mcad5f1404a" style="stroke:#bf00bf;stroke-width:0.5;"/>
    </defs>
    <g clip-path="url(#p8037e7ce6d)">
     <use style="fill:#bf00bf;stroke:#bf00bf;stroke-width:0.5;" x="83.807625" xlink:href="#mcad5f1404a" y="144.052418748"/>
     <use style="fill:#bf00bf;stroke:#bf00bf;stroke-width:0.5;" x="97.199625" xlink:href="#mcad5f1404a" y="136.958020737"/>
     <use style="fill:#bf00bf;stroke:#bf00bf;stroke-width:0.5;" x="110.591625" xlink:href="#mcad5f1404a" y="136.242784837"/>
     <use style="fill:#bf00bf;stroke:#bf00bf;stroke-width:0.5;" x="123.983625" xlink:href="#mcad5f1404a" y="136.167456182"/>
     <use style="fill:#bf00bf;stroke:#bf00bf;stroke-width:0.5;" x="137.375625" xlink:href="#mcad5f1404a" y="136.14730437"/>
     <use style="fill:#bf00bf;stroke:#bf00bf;stroke-width:0.5;" x="150.767625" xlink:href="#mcad5f1404a" y="136.088659858"/>
     <use style="fill:#bf00bf;stroke:#bf00bf;stroke-width:0.5;" x="164.159625" xlink:href="#mcad5f1404a" y="138.07079868"/>
     <use style="fill:#bf00bf;stroke:#bf00bf;stroke-width:0.5;" x="177.551625" xlink:href="#mcad5f1404a" y="136.047679549"/>
     <use style="fill:#bf00bf;stroke:#bf00bf;stroke-width:0.5;" x="190.943625" xlink:href="#mcad5f1404a" y="135.992348225"/>
     <use style="fill:#bf00bf;stroke:#bf00bf;stroke-width:0.5;" x="204.335625" xlink:href="#mcad5f1404a" y="136.053832414"/>
     <use style="fill:#bf00bf;stroke:#bf00bf;stroke-width:0.5;" x="217.727625" xlink:href="#mcad5f1404a" y="135.998179049"/>
     <use style="fill:#bf00bf;stroke:#bf00bf;stroke-width:0.5;" x="231.119625" xlink:href="#mcad5f1404a" y="136.595679971"/>
     <use style="fill:#bf00bf;stroke:#bf00bf;stroke-width:0.5;" x="244.511625" xlink:href="#mcad5f1404a" y="136.063373673"/>
     <use style="fill:#bf00bf;stroke:#bf00bf;stroke-width:0.5;" x="257.903625" xlink:href="#mcad5f1404a" y="136.526877505"/>
     <use style="fill:#bf00bf;stroke:#bf00bf;stroke-width:0.5;" x="271.295625" xlink:href="#mcad5f1404a" y="136.019192429"/>
     <use style="fill:#bf00bf;stroke:#bf00bf;stroke-width:0.5;" x="284.687625" xlink:href="#mcad5f1404a" y="136.126754618"/>
     <use style="fill:#bf00bf;stroke:#bf00bf;stroke-width:0.5;" x="298.079625" xlink:href="#mcad5f1404a" y="226.284128827"/>
     <use style="fill:#bf00bf;stroke:#bf00bf;stroke-width:0.5;" x="311.471625" xlink:href="#mcad5f1404a" y="136.007263218"/>
     <use style="fill:#bf00bf;stroke:#bf00bf;stroke-width:0.5;" x="324.863625" xlink:href="#mcad5f1404a" y="135.979571946"/>
     <use style="fill:#bf00bf;stroke:#bf00bf;stroke-width:0.5;" x="338.255625" xlink:href="#mcad5f1404a" y="136.074914302"/>
     <use style="fill:#bf00bf;stroke:#bf00bf;stroke-width:0.5;" x="351.647625" xlink:href="#mcad5f1404a" y="136.016377672"/>
     <use style="fill:#bf00bf;stroke:#bf00bf;stroke-width:0.5;" x="365.039625" xlink:href="#mcad5f1404a" y="136.527664927"/>
     <use style="fill:#bf00bf;stroke:#bf00bf;stroke-width:0.5;" x="378.431625" xlink:href="#mcad5f1404a" y="135.938359417"/>
     <use style="fill:#bf00bf;stroke:#bf00bf;stroke-width:0.5;" x="391.823625" xlink:href="#mcad5f1404a" y="137.687472664"/>
     <use style="fill:#bf00bf;stroke:#bf00bf;stroke-width:0.5;" x="405.215625" xlink:href="#mcad5f1404a" y="136.051176521"/>
    </g>
   </g>
   <g id="patch_3">
    <path d="M 405.215625 244.518125 
L 405.215625 21.318125 
" style="fill:none;stroke:#000000;stroke-linecap:square;stroke-linejoin:miter;"/>
   </g>
   <g id="patch_4">
    <path d="M 70.415625 244.518125 
L 405.215625 244.518125 
" style="fill:none;stroke:#000000;stroke-linecap:square;stroke-linejoin:miter;"/>
   </g>
   <g id="patch_5">
    <path d="M 70.415625 21.318125 
L 405.215625 21.318125 
" style="fill:none;stroke:#000000;stroke-linecap:square;stroke-linejoin:miter;"/>
   </g>
   <g id="patch_6">
    <path d="M 70.415625 244.518125 
L 70.415625 21.318125 
" style="fill:none;stroke:#000000;stroke-linecap:square;stroke-linejoin:miter;"/>
   </g>
   <g id="matplotlib.axis_1">
    <g id="xtick_1">
     <g id="line2d_6">
      <path clip-path="url(#p8037e7ce6d)" d="M 70.415625 244.518125 
L 70.415625 21.318125 
" style="fill:none;stroke:#000000;stroke-dasharray:1.000000,3.000000;stroke-dashoffset:0.0;stroke-width:0.5;"/>
     </g>
     <g id="line2d_7">
      <defs>
       <path d="M 0 0 
L 0 -4 
" id="maa6132e9c6" style="stroke:#000000;stroke-width:0.5;"/>
      </defs>
      <g>
       <use style="stroke:#000000;stroke-width:0.5;" x="70.415625" xlink:href="#maa6132e9c6" y="244.518125"/>
      </g>
     </g>
     <g id="line2d_8">
      <defs>
       <path d="M 0 0 
L 0 4 
" id="m5d17b50dbc" style="stroke:#000000;stroke-width:0.5;"/>
      </defs>
      <g>
       <use style="stroke:#000000;stroke-width:0.5;" x="70.415625" xlink:href="#m5d17b50dbc" y="21.318125"/>
      </g>
     </g>
     <g id="text_1">
      <!-- 0.0 -->
      <defs>
       <path d="M 31.78125 66.40625 
Q 24.171875 66.40625 20.328125 58.90625 
Q 16.5 51.421875 16.5 36.375 
Q 16.5 21.390625 20.328125 13.890625 
Q 24.171875 6.390625 31.78125 6.390625 
Q 39.453125 6.390625 43.28125 13.890625 
Q 47.125 21.390625 47.125 36.375 
Q 47.125 51.421875 43.28125 58.90625 
Q 39.453125 66.40625 31.78125 66.40625 
M 31.78125 74.21875 
Q 44.046875 74.21875 50.515625 64.515625 
Q 56.984375 54.828125 56.984375 36.375 
Q 56.984375 17.96875 50.515625 8.265625 
Q 44.046875 -1.421875 31.78125 -1.421875 
Q 19.53125 -1.421875 13.0625 8.265625 
Q 6.59375 17.96875 6.59375 36.375 
Q 6.59375 54.828125 13.0625 64.515625 
Q 19.53125 74.21875 31.78125 74.21875 
" id="BitstreamVeraSans-Roman-30"/>
       <path d="M 10.6875 12.40625 
L 21 12.40625 
L 21 0 
L 10.6875 0 
z
" id="BitstreamVeraSans-Roman-2e"/>
      </defs>
      <g transform="translate(62.4640625 256.1165625)scale(0.1 -0.1)">
       <use xlink:href="#BitstreamVeraSans-Roman-30"/>
       <use x="63.623046875" xlink:href="#BitstreamVeraSans-Roman-2e"/>
       <use x="95.41015625" xlink:href="#BitstreamVeraSans-Roman-30"/>
      </g>
     </g>
    </g>
    <g id="xtick_2">
     <g id="line2d_9">
      <path clip-path="url(#p8037e7ce6d)" d="M 137.375625 244.518125 
L 137.375625 21.318125 
" style="fill:none;stroke:#000000;stroke-dasharray:1.000000,3.000000;stroke-dashoffset:0.0;stroke-width:0.5;"/>
     </g>
     <g id="line2d_10">
      <g>
       <use style="stroke:#000000;stroke-width:0.5;" x="137.375625" xlink:href="#maa6132e9c6" y="244.518125"/>
      </g>
     </g>
     <g id="line2d_11">
      <g>
       <use style="stroke:#000000;stroke-width:0.5;" x="137.375625" xlink:href="#m5d17b50dbc" y="21.318125"/>
      </g>
     </g>
     <g id="text_2">
      <!-- 0.5 -->
      <defs>
       <path d="M 10.796875 72.90625 
L 49.515625 72.90625 
L 49.515625 64.59375 
L 19.828125 64.59375 
L 19.828125 46.734375 
Q 21.96875 47.46875 24.109375 47.828125 
Q 26.265625 48.1875 28.421875 48.1875 
Q 40.625 48.1875 47.75 41.5 
Q 54.890625 34.8125 54.890625 23.390625 
Q 54.890625 11.625 47.5625 5.09375 
Q 40.234375 -1.421875 26.90625 -1.421875 
Q 22.3125 -1.421875 17.546875 -0.640625 
Q 12.796875 0.140625 7.71875 1.703125 
L 7.71875 11.625 
Q 12.109375 9.234375 16.796875 8.0625 
Q 21.484375 6.890625 26.703125 6.890625 
Q 35.15625 6.890625 40.078125 11.328125 
Q 45.015625 15.765625 45.015625 23.390625 
Q 45.015625 31 40.078125 35.4375 
Q 35.15625 39.890625 26.703125 39.890625 
Q 22.75 39.890625 18.8125 39.015625 
Q 14.890625 38.140625 10.796875 36.28125 
z
" id="BitstreamVeraSans-Roman-35"/>
      </defs>
      <g transform="translate(129.4240625 256.1165625)scale(0.1 -0.1)">
       <use xlink:href="#BitstreamVeraSans-Roman-30"/>
       <use x="63.623046875" xlink:href="#BitstreamVeraSans-Roman-2e"/>
       <use x="95.41015625" xlink:href="#BitstreamVeraSans-Roman-35"/>
      </g>
     </g>
    </g>
    <g id="xtick_3">
     <g id="line2d_12">
      <path clip-path="url(#p8037e7ce6d)" d="M 204.335625 244.518125 
L 204.335625 21.318125 
" style="fill:none;stroke:#000000;stroke-dasharray:1.000000,3.000000;stroke-dashoffset:0.0;stroke-width:0.5;"/>
     </g>
     <g id="line2d_13">
      <g>
       <use style="stroke:#000000;stroke-width:0.5;" x="204.335625" xlink:href="#maa6132e9c6" y="244.518125"/>
      </g>
     </g>
     <g id="line2d_14">
      <g>
       <use style="stroke:#000000;stroke-width:0.5;" x="204.335625" xlink:href="#m5d17b50dbc" y="21.318125"/>
      </g>
     </g>
     <g id="text_3">
      <!-- 1.0 -->
      <defs>
       <path d="M 12.40625 8.296875 
L 28.515625 8.296875 
L 28.515625 63.921875 
L 10.984375 60.40625 
L 10.984375 69.390625 
L 28.421875 72.90625 
L 38.28125 72.90625 
L 38.28125 8.296875 
L 54.390625 8.296875 
L 54.390625 0 
L 12.40625 0 
z
" id="BitstreamVeraSans-Roman-31"/>
      </defs>
      <g transform="translate(196.3840625 256.1165625)scale(0.1 -0.1)">
       <use xlink:href="#BitstreamVeraSans-Roman-31"/>
       <use x="63.623046875" xlink:href="#BitstreamVeraSans-Roman-2e"/>
       <use x="95.41015625" xlink:href="#BitstreamVeraSans-Roman-30"/>
      </g>
     </g>
    </g>
    <g id="xtick_4">
     <g id="line2d_15">
      <path clip-path="url(#p8037e7ce6d)" d="M 271.295625 244.518125 
L 271.295625 21.318125 
" style="fill:none;stroke:#000000;stroke-dasharray:1.000000,3.000000;stroke-dashoffset:0.0;stroke-width:0.5;"/>
     </g>
     <g id="line2d_16">
      <g>
       <use style="stroke:#000000;stroke-width:0.5;" x="271.295625" xlink:href="#maa6132e9c6" y="244.518125"/>
      </g>
     </g>
     <g id="line2d_17">
      <g>
       <use style="stroke:#000000;stroke-width:0.5;" x="271.295625" xlink:href="#m5d17b50dbc" y="21.318125"/>
      </g>
     </g>
     <g id="text_4">
      <!-- 1.5 -->
      <g transform="translate(263.3440625 256.1165625)scale(0.1 -0.1)">
       <use xlink:href="#BitstreamVeraSans-Roman-31"/>
       <use x="63.623046875" xlink:href="#BitstreamVeraSans-Roman-2e"/>
       <use x="95.41015625" xlink:href="#BitstreamVeraSans-Roman-35"/>
      </g>
     </g>
    </g>
    <g id="xtick_5">
     <g id="line2d_18">
      <path clip-path="url(#p8037e7ce6d)" d="M 338.255625 244.518125 
L 338.255625 21.318125 
" style="fill:none;stroke:#000000;stroke-dasharray:1.000000,3.000000;stroke-dashoffset:0.0;stroke-width:0.5;"/>
     </g>
     <g id="line2d_19">
      <g>
       <use style="stroke:#000000;stroke-width:0.5;" x="338.255625" xlink:href="#maa6132e9c6" y="244.518125"/>
      </g>
     </g>
     <g id="line2d_20">
      <g>
       <use style="stroke:#000000;stroke-width:0.5;" x="338.255625" xlink:href="#m5d17b50dbc" y="21.318125"/>
      </g>
     </g>
     <g id="text_5">
      <!-- 2.0 -->
      <defs>
       <path d="M 19.1875 8.296875 
L 53.609375 8.296875 
L 53.609375 0 
L 7.328125 0 
L 7.328125 8.296875 
Q 12.9375 14.109375 22.625 23.890625 
Q 32.328125 33.6875 34.8125 36.53125 
Q 39.546875 41.84375 41.421875 45.53125 
Q 43.3125 49.21875 43.3125 52.78125 
Q 43.3125 58.59375 39.234375 62.25 
Q 35.15625 65.921875 28.609375 65.921875 
Q 23.96875 65.921875 18.8125 64.3125 
Q 13.671875 62.703125 7.8125 59.421875 
L 7.8125 69.390625 
Q 13.765625 71.78125 18.9375 73 
Q 24.125 74.21875 28.421875 74.21875 
Q 39.75 74.21875 46.484375 68.546875 
Q 53.21875 62.890625 53.21875 53.421875 
Q 53.21875 48.921875 51.53125 44.890625 
Q 49.859375 40.875 45.40625 35.40625 
Q 44.1875 33.984375 37.640625 27.21875 
Q 31.109375 20.453125 19.1875 8.296875 
" id="BitstreamVeraSans-Roman-32"/>
      </defs>
      <g transform="translate(330.3040625 256.1165625)scale(0.1 -0.1)">
       <use xlink:href="#BitstreamVeraSans-Roman-32"/>
       <use x="63.623046875" xlink:href="#BitstreamVeraSans-Roman-2e"/>
       <use x="95.41015625" xlink:href="#BitstreamVeraSans-Roman-30"/>
      </g>
     </g>
    </g>
    <g id="xtick_6">
     <g id="line2d_21">
      <path clip-path="url(#p8037e7ce6d)" d="M 405.215625 244.518125 
L 405.215625 21.318125 
" style="fill:none;stroke:#000000;stroke-dasharray:1.000000,3.000000;stroke-dashoffset:0.0;stroke-width:0.5;"/>
     </g>
     <g id="line2d_22">
      <g>
       <use style="stroke:#000000;stroke-width:0.5;" x="405.215625" xlink:href="#maa6132e9c6" y="244.518125"/>
      </g>
     </g>
     <g id="line2d_23">
      <g>
       <use style="stroke:#000000;stroke-width:0.5;" x="405.215625" xlink:href="#m5d17b50dbc" y="21.318125"/>
      </g>
     </g>
     <g id="text_6">
      <!-- 2.5 -->
      <g transform="translate(397.2640625 256.1165625)scale(0.1 -0.1)">
       <use xlink:href="#BitstreamVeraSans-Roman-32"/>
       <use x="63.623046875" xlink:href="#BitstreamVeraSans-Roman-2e"/>
       <use x="95.41015625" xlink:href="#BitstreamVeraSans-Roman-35"/>
      </g>
     </g>
    </g>
    <g id="text_7">
     <!-- n - pocet linearnich generatoru -->
     <defs>
      <path d="M 18.109375 8.203125 
L 18.109375 -20.796875 
L 9.078125 -20.796875 
L 9.078125 54.6875 
L 18.109375 54.6875 
L 18.109375 46.390625 
Q 20.953125 51.265625 25.265625 53.625 
Q 29.59375 56 35.59375 56 
Q 45.5625 56 51.78125 48.09375 
Q 58.015625 40.1875 58.015625 27.296875 
Q 58.015625 14.40625 51.78125 6.484375 
Q 45.5625 -1.421875 35.59375 -1.421875 
Q 29.59375 -1.421875 25.265625 0.953125 
Q 20.953125 3.328125 18.109375 8.203125 
M 48.6875 27.296875 
Q 48.6875 37.203125 44.609375 42.84375 
Q 40.53125 48.484375 33.40625 48.484375 
Q 26.265625 48.484375 22.1875 42.84375 
Q 18.109375 37.203125 18.109375 27.296875 
Q 18.109375 17.390625 22.1875 11.75 
Q 26.265625 6.109375 33.40625 6.109375 
Q 40.53125 6.109375 44.609375 11.75 
Q 48.6875 17.390625 48.6875 27.296875 
" id="BitstreamVeraSans-Roman-70"/>
      <path d="M 54.890625 33.015625 
L 54.890625 0 
L 45.90625 0 
L 45.90625 32.71875 
Q 45.90625 40.484375 42.875 44.328125 
Q 39.84375 48.1875 33.796875 48.1875 
Q 26.515625 48.1875 22.3125 43.546875 
Q 18.109375 38.921875 18.109375 30.90625 
L 18.109375 0 
L 9.078125 0 
L 9.078125 54.6875 
L 18.109375 54.6875 
L 18.109375 46.1875 
Q 21.34375 51.125 25.703125 53.5625 
Q 30.078125 56 35.796875 56 
Q 45.21875 56 50.046875 50.171875 
Q 54.890625 44.34375 54.890625 33.015625 
" id="BitstreamVeraSans-Roman-6e"/>
      <path d="M 48.78125 52.59375 
L 48.78125 44.1875 
Q 44.96875 46.296875 41.140625 47.34375 
Q 37.3125 48.390625 33.40625 48.390625 
Q 24.65625 48.390625 19.8125 42.84375 
Q 14.984375 37.3125 14.984375 27.296875 
Q 14.984375 17.28125 19.8125 11.734375 
Q 24.65625 6.203125 33.40625 6.203125 
Q 37.3125 6.203125 41.140625 7.25 
Q 44.96875 8.296875 48.78125 10.40625 
L 48.78125 2.09375 
Q 45.015625 0.34375 40.984375 -0.53125 
Q 36.96875 -1.421875 32.421875 -1.421875 
Q 20.0625 -1.421875 12.78125 6.34375 
Q 5.515625 14.109375 5.515625 27.296875 
Q 5.515625 40.671875 12.859375 48.328125 
Q 20.21875 56 33.015625 56 
Q 37.15625 56 41.109375 55.140625 
Q 45.0625 54.296875 48.78125 52.59375 
" id="BitstreamVeraSans-Roman-63"/>
      <path d="M 54.890625 33.015625 
L 54.890625 0 
L 45.90625 0 
L 45.90625 32.71875 
Q 45.90625 40.484375 42.875 44.328125 
Q 39.84375 48.1875 33.796875 48.1875 
Q 26.515625 48.1875 22.3125 43.546875 
Q 18.109375 38.921875 18.109375 30.90625 
L 18.109375 0 
L 9.078125 0 
L 9.078125 75.984375 
L 18.109375 75.984375 
L 18.109375 46.1875 
Q 21.34375 51.125 25.703125 53.5625 
Q 30.078125 56 35.796875 56 
Q 45.21875 56 50.046875 50.171875 
Q 54.890625 44.34375 54.890625 33.015625 
" id="BitstreamVeraSans-Roman-68"/>
      <path d="M 9.421875 54.6875 
L 18.40625 54.6875 
L 18.40625 0 
L 9.421875 0 
z
M 9.421875 75.984375 
L 18.40625 75.984375 
L 18.40625 64.59375 
L 9.421875 64.59375 
z
" id="BitstreamVeraSans-Roman-69"/>
      <path d="M 34.28125 27.484375 
Q 23.390625 27.484375 19.1875 25 
Q 14.984375 22.515625 14.984375 16.5 
Q 14.984375 11.71875 18.140625 8.90625 
Q 21.296875 6.109375 26.703125 6.109375 
Q 34.1875 6.109375 38.703125 11.40625 
Q 43.21875 16.703125 43.21875 25.484375 
L 43.21875 27.484375 
z
M 52.203125 31.203125 
L 52.203125 0 
L 43.21875 0 
L 43.21875 8.296875 
Q 40.140625 3.328125 35.546875 0.953125 
Q 30.953125 -1.421875 24.3125 -1.421875 
Q 15.921875 -1.421875 10.953125 3.296875 
Q 6 8.015625 6 15.921875 
Q 6 25.140625 12.171875 29.828125 
Q 18.359375 34.515625 30.609375 34.515625 
L 43.21875 34.515625 
L 43.21875 35.40625 
Q 43.21875 41.609375 39.140625 45 
Q 35.0625 48.390625 27.6875 48.390625 
Q 23 48.390625 18.546875 47.265625 
Q 14.109375 46.140625 10.015625 43.890625 
L 10.015625 52.203125 
Q 14.9375 54.109375 19.578125 55.046875 
Q 24.21875 56 28.609375 56 
Q 40.484375 56 46.34375 49.84375 
Q 52.203125 43.703125 52.203125 31.203125 
" id="BitstreamVeraSans-Roman-61"/>
      <path d="M 9.421875 75.984375 
L 18.40625 75.984375 
L 18.40625 0 
L 9.421875 0 
z
" id="BitstreamVeraSans-Roman-6c"/>
      <path d="M 41.109375 46.296875 
Q 39.59375 47.171875 37.8125 47.578125 
Q 36.03125 48 33.890625 48 
Q 26.265625 48 22.1875 43.046875 
Q 18.109375 38.09375 18.109375 28.8125 
L 18.109375 0 
L 9.078125 0 
L 9.078125 54.6875 
L 18.109375 54.6875 
L 18.109375 46.1875 
Q 20.953125 51.171875 25.484375 53.578125 
Q 30.03125 56 36.53125 56 
Q 37.453125 56 38.578125 55.875 
Q 39.703125 55.765625 41.0625 55.515625 
z
" id="BitstreamVeraSans-Roman-72"/>
      <path d="M 56.203125 29.59375 
L 56.203125 25.203125 
L 14.890625 25.203125 
Q 15.484375 15.921875 20.484375 11.0625 
Q 25.484375 6.203125 34.421875 6.203125 
Q 39.59375 6.203125 44.453125 7.46875 
Q 49.3125 8.734375 54.109375 11.28125 
L 54.109375 2.78125 
Q 49.265625 0.734375 44.1875 -0.34375 
Q 39.109375 -1.421875 33.890625 -1.421875 
Q 20.796875 -1.421875 13.15625 6.1875 
Q 5.515625 13.8125 5.515625 26.8125 
Q 5.515625 40.234375 12.765625 48.109375 
Q 20.015625 56 32.328125 56 
Q 43.359375 56 49.78125 48.890625 
Q 56.203125 41.796875 56.203125 29.59375 
M 47.21875 32.234375 
Q 47.125 39.59375 43.09375 43.984375 
Q 39.0625 48.390625 32.421875 48.390625 
Q 24.90625 48.390625 20.390625 44.140625 
Q 15.875 39.890625 15.1875 32.171875 
z
" id="BitstreamVeraSans-Roman-65"/>
      <path d="M 4.890625 31.390625 
L 31.203125 31.390625 
L 31.203125 23.390625 
L 4.890625 23.390625 
z
" id="BitstreamVeraSans-Roman-2d"/>
      <path d="M 45.40625 27.984375 
Q 45.40625 37.75 41.375 43.109375 
Q 37.359375 48.484375 30.078125 48.484375 
Q 22.859375 48.484375 18.828125 43.109375 
Q 14.796875 37.75 14.796875 27.984375 
Q 14.796875 18.265625 18.828125 12.890625 
Q 22.859375 7.515625 30.078125 7.515625 
Q 37.359375 7.515625 41.375 12.890625 
Q 45.40625 18.265625 45.40625 27.984375 
M 54.390625 6.78125 
Q 54.390625 -7.171875 48.1875 -13.984375 
Q 42 -20.796875 29.203125 -20.796875 
Q 24.46875 -20.796875 20.265625 -20.09375 
Q 16.0625 -19.390625 12.109375 -17.921875 
L 12.109375 -9.1875 
Q 16.0625 -11.328125 19.921875 -12.34375 
Q 23.78125 -13.375 27.78125 -13.375 
Q 36.625 -13.375 41.015625 -8.765625 
Q 45.40625 -4.15625 45.40625 5.171875 
L 45.40625 9.625 
Q 42.625 4.78125 38.28125 2.390625 
Q 33.9375 0 27.875 0 
Q 17.828125 0 11.671875 7.65625 
Q 5.515625 15.328125 5.515625 27.984375 
Q 5.515625 40.671875 11.671875 48.328125 
Q 17.828125 56 27.875 56 
Q 33.9375 56 38.28125 53.609375 
Q 42.625 51.21875 45.40625 46.390625 
L 45.40625 54.6875 
L 54.390625 54.6875 
z
" id="BitstreamVeraSans-Roman-67"/>
      <path d="M 30.609375 48.390625 
Q 23.390625 48.390625 19.1875 42.75 
Q 14.984375 37.109375 14.984375 27.296875 
Q 14.984375 17.484375 19.15625 11.84375 
Q 23.34375 6.203125 30.609375 6.203125 
Q 37.796875 6.203125 41.984375 11.859375 
Q 46.1875 17.53125 46.1875 27.296875 
Q 46.1875 37.015625 41.984375 42.703125 
Q 37.796875 48.390625 30.609375 48.390625 
M 30.609375 56 
Q 42.328125 56 49.015625 48.375 
Q 55.71875 40.765625 55.71875 27.296875 
Q 55.71875 13.875 49.015625 6.21875 
Q 42.328125 -1.421875 30.609375 -1.421875 
Q 18.84375 -1.421875 12.171875 6.21875 
Q 5.515625 13.875 5.515625 27.296875 
Q 5.515625 40.765625 12.171875 48.375 
Q 18.84375 56 30.609375 56 
" id="BitstreamVeraSans-Roman-6f"/>
      <path id="BitstreamVeraSans-Roman-20"/>
      <path d="M 8.5 21.578125 
L 8.5 54.6875 
L 17.484375 54.6875 
L 17.484375 21.921875 
Q 17.484375 14.15625 20.5 10.265625 
Q 23.53125 6.390625 29.59375 6.390625 
Q 36.859375 6.390625 41.078125 11.03125 
Q 45.3125 15.671875 45.3125 23.6875 
L 45.3125 54.6875 
L 54.296875 54.6875 
L 54.296875 0 
L 45.3125 0 
L 45.3125 8.40625 
Q 42.046875 3.421875 37.71875 1 
Q 33.40625 -1.421875 27.6875 -1.421875 
Q 18.265625 -1.421875 13.375 4.4375 
Q 8.5 10.296875 8.5 21.578125 
" id="BitstreamVeraSans-Roman-75"/>
      <path d="M 18.3125 70.21875 
L 18.3125 54.6875 
L 36.8125 54.6875 
L 36.8125 47.703125 
L 18.3125 47.703125 
L 18.3125 18.015625 
Q 18.3125 11.328125 20.140625 9.421875 
Q 21.96875 7.515625 27.59375 7.515625 
L 36.8125 7.515625 
L 36.8125 0 
L 27.59375 0 
Q 17.1875 0 13.234375 3.875 
Q 9.28125 7.765625 9.28125 18.015625 
L 9.28125 47.703125 
L 2.6875 47.703125 
L 2.6875 54.6875 
L 9.28125 54.6875 
L 9.28125 70.21875 
z
" id="BitstreamVeraSans-Roman-74"/>
     </defs>
     <g transform="translate(159.98984375 270.7946875)scale(0.1 -0.1)">
      <use xlink:href="#BitstreamVeraSans-Roman-6e"/>
      <use x="63.37890625" xlink:href="#BitstreamVeraSans-Roman-20"/>
      <use x="95.166015625" xlink:href="#BitstreamVeraSans-Roman-2d"/>
      <use x="131.25" xlink:href="#BitstreamVeraSans-Roman-20"/>
      <use x="163.037109375" xlink:href="#BitstreamVeraSans-Roman-70"/>
      <use x="226.513671875" xlink:href="#BitstreamVeraSans-Roman-6f"/>
      <use x="287.6953125" xlink:href="#BitstreamVeraSans-Roman-63"/>
      <use x="342.67578125" xlink:href="#BitstreamVeraSans-Roman-65"/>
      <use x="404.19921875" xlink:href="#BitstreamVeraSans-Roman-74"/>
      <use x="443.408203125" xlink:href="#BitstreamVeraSans-Roman-20"/>
      <use x="475.1953125" xlink:href="#BitstreamVeraSans-Roman-6c"/>
      <use x="502.978515625" xlink:href="#BitstreamVeraSans-Roman-69"/>
      <use x="530.76171875" xlink:href="#BitstreamVeraSans-Roman-6e"/>
      <use x="594.140625" xlink:href="#BitstreamVeraSans-Roman-65"/>
      <use x="655.6640625" xlink:href="#BitstreamVeraSans-Roman-61"/>
      <use x="716.943359375" xlink:href="#BitstreamVeraSans-Roman-72"/>
      <use x="758.041015625" xlink:href="#BitstreamVeraSans-Roman-6e"/>
      <use x="821.419921875" xlink:href="#BitstreamVeraSans-Roman-69"/>
      <use x="849.203125" xlink:href="#BitstreamVeraSans-Roman-63"/>
      <use x="904.18359375" xlink:href="#BitstreamVeraSans-Roman-68"/>
      <use x="967.5625" xlink:href="#BitstreamVeraSans-Roman-20"/>
      <use x="999.349609375" xlink:href="#BitstreamVeraSans-Roman-67"/>
      <use x="1062.826171875" xlink:href="#BitstreamVeraSans-Roman-65"/>
      <use x="1124.349609375" xlink:href="#BitstreamVeraSans-Roman-6e"/>
      <use x="1187.728515625" xlink:href="#BitstreamVeraSans-Roman-65"/>
      <use x="1249.251953125" xlink:href="#BitstreamVeraSans-Roman-72"/>
      <use x="1290.365234375" xlink:href="#BitstreamVeraSans-Roman-61"/>
      <use x="1351.64453125" xlink:href="#BitstreamVeraSans-Roman-74"/>
      <use x="1390.853515625" xlink:href="#BitstreamVeraSans-Roman-6f"/>
      <use x="1452.03515625" xlink:href="#BitstreamVeraSans-Roman-72"/>
      <use x="1493.1484375" xlink:href="#BitstreamVeraSans-Roman-75"/>
     </g>
    </g>
    <g id="text_8">
     <!-- 1e8 -->
     <defs>
      <path d="M 31.78125 34.625 
Q 24.75 34.625 20.71875 30.859375 
Q 16.703125 27.09375 16.703125 20.515625 
Q 16.703125 13.921875 20.71875 10.15625 
Q 24.75 6.390625 31.78125 6.390625 
Q 38.8125 6.390625 42.859375 10.171875 
Q 46.921875 13.96875 46.921875 20.515625 
Q 46.921875 27.09375 42.890625 30.859375 
Q 38.875 34.625 31.78125 34.625 
M 21.921875 38.8125 
Q 15.578125 40.375 12.03125 44.71875 
Q 8.5 49.078125 8.5 55.328125 
Q 8.5 64.0625 14.71875 69.140625 
Q 20.953125 74.21875 31.78125 74.21875 
Q 42.671875 74.21875 48.875 69.140625 
Q 55.078125 64.0625 55.078125 55.328125 
Q 55.078125 49.078125 51.53125 44.71875 
Q 48 40.375 41.703125 38.8125 
Q 48.828125 37.15625 52.796875 32.3125 
Q 56.78125 27.484375 56.78125 20.515625 
Q 56.78125 9.90625 50.3125 4.234375 
Q 43.84375 -1.421875 31.78125 -1.421875 
Q 19.734375 -1.421875 13.25 4.234375 
Q 6.78125 9.90625 6.78125 20.515625 
Q 6.78125 27.484375 10.78125 32.3125 
Q 14.796875 37.15625 21.921875 38.8125 
M 18.3125 54.390625 
Q 18.3125 48.734375 21.84375 45.5625 
Q 25.390625 42.390625 31.78125 42.390625 
Q 38.140625 42.390625 41.71875 45.5625 
Q 45.3125 48.734375 45.3125 54.390625 
Q 45.3125 60.0625 41.71875 63.234375 
Q 38.140625 66.40625 31.78125 66.40625 
Q 25.390625 66.40625 21.84375 63.234375 
Q 18.3125 60.0625 18.3125 54.390625 
" id="BitstreamVeraSans-Roman-38"/>
     </defs>
     <g transform="translate(386.3375 268.7946875)scale(0.1 -0.1)">
      <use xlink:href="#BitstreamVeraSans-Roman-31"/>
      <use x="63.623046875" xlink:href="#BitstreamVeraSans-Roman-65"/>
      <use x="125.146484375" xlink:href="#BitstreamVeraSans-Roman-38"/>
     </g>
    </g>
   </g>
   <g id="matplotlib.axis_2">
    <g id="ytick_1">
     <g id="line2d_24">
      <path clip-path="url(#p8037e7ce6d)" d="M 70.415625 244.518125 
L 405.215625 244.518125 
" style="fill:none;stroke:#000000;stroke-dasharray:1.000000,3.000000;stroke-dashoffset:0.0;stroke-width:0.5;"/>
     </g>
     <g id="line2d_25">
      <defs>
       <path d="M 0 0 
L 4 0 
" id="mce4eba4d94" style="stroke:#000000;stroke-width:0.5;"/>
      </defs>
      <g>
       <use style="stroke:#000000;stroke-width:0.5;" x="70.415625" xlink:href="#mce4eba4d94" y="244.518125"/>
      </g>
     </g>
     <g id="line2d_26">
      <defs>
       <path d="M 0 0 
L -4 0 
" id="ma9bd57e7e5" style="stroke:#000000;stroke-width:0.5;"/>
      </defs>
      <g>
       <use style="stroke:#000000;stroke-width:0.5;" x="405.215625" xlink:href="#ma9bd57e7e5" y="244.518125"/>
      </g>
     </g>
     <g id="text_9">
      <!-- 3000000 -->
      <defs>
       <path d="M 40.578125 39.3125 
Q 47.65625 37.796875 51.625 33 
Q 55.609375 28.21875 55.609375 21.1875 
Q 55.609375 10.40625 48.1875 4.484375 
Q 40.765625 -1.421875 27.09375 -1.421875 
Q 22.515625 -1.421875 17.65625 -0.515625 
Q 12.796875 0.390625 7.625 2.203125 
L 7.625 11.71875 
Q 11.71875 9.328125 16.59375 8.109375 
Q 21.484375 6.890625 26.8125 6.890625 
Q 36.078125 6.890625 40.9375 10.546875 
Q 45.796875 14.203125 45.796875 21.1875 
Q 45.796875 27.640625 41.28125 31.265625 
Q 36.765625 34.90625 28.71875 34.90625 
L 20.21875 34.90625 
L 20.21875 43.015625 
L 29.109375 43.015625 
Q 36.375 43.015625 40.234375 45.921875 
Q 44.09375 48.828125 44.09375 54.296875 
Q 44.09375 59.90625 40.109375 62.90625 
Q 36.140625 65.921875 28.71875 65.921875 
Q 24.65625 65.921875 20.015625 65.03125 
Q 15.375 64.15625 9.8125 62.3125 
L 9.8125 71.09375 
Q 15.4375 72.65625 20.34375 73.4375 
Q 25.25 74.21875 29.59375 74.21875 
Q 40.828125 74.21875 47.359375 69.109375 
Q 53.90625 64.015625 53.90625 55.328125 
Q 53.90625 49.265625 50.4375 45.09375 
Q 46.96875 40.921875 40.578125 39.3125 
" id="BitstreamVeraSans-Roman-33"/>
      </defs>
      <g transform="translate(21.878125 247.2775)scale(0.1 -0.1)">
       <use xlink:href="#BitstreamVeraSans-Roman-33"/>
       <use x="63.623046875" xlink:href="#BitstreamVeraSans-Roman-30"/>
       <use x="127.24609375" xlink:href="#BitstreamVeraSans-Roman-30"/>
       <use x="190.869140625" xlink:href="#BitstreamVeraSans-Roman-30"/>
       <use x="254.4921875" xlink:href="#BitstreamVeraSans-Roman-30"/>
       <use x="318.115234375" xlink:href="#BitstreamVeraSans-Roman-30"/>
       <use x="381.73828125" xlink:href="#BitstreamVeraSans-Roman-30"/>
      </g>
     </g>
    </g>
    <g id="ytick_2">
     <g id="line2d_27">
      <path clip-path="url(#p8037e7ce6d)" d="M 70.415625 199.878125 
L 405.215625 199.878125 
" style="fill:none;stroke:#000000;stroke-dasharray:1.000000,3.000000;stroke-dashoffset:0.0;stroke-width:0.5;"/>
     </g>
     <g id="line2d_28">
      <g>
       <use style="stroke:#000000;stroke-width:0.5;" x="70.415625" xlink:href="#mce4eba4d94" y="199.878125"/>
      </g>
     </g>
     <g id="line2d_29">
      <g>
       <use style="stroke:#000000;stroke-width:0.5;" x="405.215625" xlink:href="#ma9bd57e7e5" y="199.878125"/>
      </g>
     </g>
     <g id="text_10">
      <!-- 4000000 -->
      <defs>
       <path d="M 37.796875 64.3125 
L 12.890625 25.390625 
L 37.796875 25.390625 
z
M 35.203125 72.90625 
L 47.609375 72.90625 
L 47.609375 25.390625 
L 58.015625 25.390625 
L 58.015625 17.1875 
L 47.609375 17.1875 
L 47.609375 0 
L 37.796875 0 
L 37.796875 17.1875 
L 4.890625 17.1875 
L 4.890625 26.703125 
z
" id="BitstreamVeraSans-Roman-34"/>
      </defs>
      <g transform="translate(21.878125 202.6375)scale(0.1 -0.1)">
       <use xlink:href="#BitstreamVeraSans-Roman-34"/>
       <use x="63.623046875" xlink:href="#BitstreamVeraSans-Roman-30"/>
       <use x="127.24609375" xlink:href="#BitstreamVeraSans-Roman-30"/>
       <use x="190.869140625" xlink:href="#BitstreamVeraSans-Roman-30"/>
       <use x="254.4921875" xlink:href="#BitstreamVeraSans-Roman-30"/>
       <use x="318.115234375" xlink:href="#BitstreamVeraSans-Roman-30"/>
       <use x="381.73828125" xlink:href="#BitstreamVeraSans-Roman-30"/>
      </g>
     </g>
    </g>
    <g id="ytick_3">
     <g id="line2d_30">
      <path clip-path="url(#p8037e7ce6d)" d="M 70.415625 155.238125 
L 405.215625 155.238125 
" style="fill:none;stroke:#000000;stroke-dasharray:1.000000,3.000000;stroke-dashoffset:0.0;stroke-width:0.5;"/>
     </g>
     <g id="line2d_31">
      <g>
       <use style="stroke:#000000;stroke-width:0.5;" x="70.415625" xlink:href="#mce4eba4d94" y="155.238125"/>
      </g>
     </g>
     <g id="line2d_32">
      <g>
       <use style="stroke:#000000;stroke-width:0.5;" x="405.215625" xlink:href="#ma9bd57e7e5" y="155.238125"/>
      </g>
     </g>
     <g id="text_11">
      <!-- 5000000 -->
      <g transform="translate(21.878125 157.9975)scale(0.1 -0.1)">
       <use xlink:href="#BitstreamVeraSans-Roman-35"/>
       <use x="63.623046875" xlink:href="#BitstreamVeraSans-Roman-30"/>
       <use x="127.24609375" xlink:href="#BitstreamVeraSans-Roman-30"/>
       <use x="190.869140625" xlink:href="#BitstreamVeraSans-Roman-30"/>
       <use x="254.4921875" xlink:href="#BitstreamVeraSans-Roman-30"/>
       <use x="318.115234375" xlink:href="#BitstreamVeraSans-Roman-30"/>
       <use x="381.73828125" xlink:href="#BitstreamVeraSans-Roman-30"/>
      </g>
     </g>
    </g>
    <g id="ytick_4">
     <g id="line2d_33">
      <path clip-path="url(#p8037e7ce6d)" d="M 70.415625 110.598125 
L 405.215625 110.598125 
" style="fill:none;stroke:#000000;stroke-dasharray:1.000000,3.000000;stroke-dashoffset:0.0;stroke-width:0.5;"/>
     </g>
     <g id="line2d_34">
      <g>
       <use style="stroke:#000000;stroke-width:0.5;" x="70.415625" xlink:href="#mce4eba4d94" y="110.598125"/>
      </g>
     </g>
     <g id="line2d_35">
      <g>
       <use style="stroke:#000000;stroke-width:0.5;" x="405.215625" xlink:href="#ma9bd57e7e5" y="110.598125"/>
      </g>
     </g>
     <g id="text_12">
      <!-- 6000000 -->
      <defs>
       <path d="M 33.015625 40.375 
Q 26.375 40.375 22.484375 35.828125 
Q 18.609375 31.296875 18.609375 23.390625 
Q 18.609375 15.53125 22.484375 10.953125 
Q 26.375 6.390625 33.015625 6.390625 
Q 39.65625 6.390625 43.53125 10.953125 
Q 47.40625 15.53125 47.40625 23.390625 
Q 47.40625 31.296875 43.53125 35.828125 
Q 39.65625 40.375 33.015625 40.375 
M 52.59375 71.296875 
L 52.59375 62.3125 
Q 48.875 64.0625 45.09375 64.984375 
Q 41.3125 65.921875 37.59375 65.921875 
Q 27.828125 65.921875 22.671875 59.328125 
Q 17.53125 52.734375 16.796875 39.40625 
Q 19.671875 43.65625 24.015625 45.921875 
Q 28.375 48.1875 33.59375 48.1875 
Q 44.578125 48.1875 50.953125 41.515625 
Q 57.328125 34.859375 57.328125 23.390625 
Q 57.328125 12.15625 50.6875 5.359375 
Q 44.046875 -1.421875 33.015625 -1.421875 
Q 20.359375 -1.421875 13.671875 8.265625 
Q 6.984375 17.96875 6.984375 36.375 
Q 6.984375 53.65625 15.1875 63.9375 
Q 23.390625 74.21875 37.203125 74.21875 
Q 40.921875 74.21875 44.703125 73.484375 
Q 48.484375 72.75 52.59375 71.296875 
" id="BitstreamVeraSans-Roman-36"/>
      </defs>
      <g transform="translate(21.878125 113.3575)scale(0.1 -0.1)">
       <use xlink:href="#BitstreamVeraSans-Roman-36"/>
       <use x="63.623046875" xlink:href="#BitstreamVeraSans-Roman-30"/>
       <use x="127.24609375" xlink:href="#BitstreamVeraSans-Roman-30"/>
       <use x="190.869140625" xlink:href="#BitstreamVeraSans-Roman-30"/>
       <use x="254.4921875" xlink:href="#BitstreamVeraSans-Roman-30"/>
       <use x="318.115234375" xlink:href="#BitstreamVeraSans-Roman-30"/>
       <use x="381.73828125" xlink:href="#BitstreamVeraSans-Roman-30"/>
      </g>
     </g>
    </g>
    <g id="ytick_5">
     <g id="line2d_36">
      <path clip-path="url(#p8037e7ce6d)" d="M 70.415625 65.958125 
L 405.215625 65.958125 
" style="fill:none;stroke:#000000;stroke-dasharray:1.000000,3.000000;stroke-dashoffset:0.0;stroke-width:0.5;"/>
     </g>
     <g id="line2d_37">
      <g>
       <use style="stroke:#000000;stroke-width:0.5;" x="70.415625" xlink:href="#mce4eba4d94" y="65.958125"/>
      </g>
     </g>
     <g id="line2d_38">
      <g>
       <use style="stroke:#000000;stroke-width:0.5;" x="405.215625" xlink:href="#ma9bd57e7e5" y="65.958125"/>
      </g>
     </g>
     <g id="text_13">
      <!-- 7000000 -->
      <defs>
       <path d="M 8.203125 72.90625 
L 55.078125 72.90625 
L 55.078125 68.703125 
L 28.609375 0 
L 18.3125 0 
L 43.21875 64.59375 
L 8.203125 64.59375 
z
" id="BitstreamVeraSans-Roman-37"/>
      </defs>
      <g transform="translate(21.878125 68.7175)scale(0.1 -0.1)">
       <use xlink:href="#BitstreamVeraSans-Roman-37"/>
       <use x="63.623046875" xlink:href="#BitstreamVeraSans-Roman-30"/>
       <use x="127.24609375" xlink:href="#BitstreamVeraSans-Roman-30"/>
       <use x="190.869140625" xlink:href="#BitstreamVeraSans-Roman-30"/>
       <use x="254.4921875" xlink:href="#BitstreamVeraSans-Roman-30"/>
       <use x="318.115234375" xlink:href="#BitstreamVeraSans-Roman-30"/>
       <use x="381.73828125" xlink:href="#BitstreamVeraSans-Roman-30"/>
      </g>
     </g>
    </g>
    <g id="ytick_6">
     <g id="line2d_39">
      <path clip-path="url(#p8037e7ce6d)" d="M 70.415625 21.318125 
L 405.215625 21.318125 
" style="fill:none;stroke:#000000;stroke-dasharray:1.000000,3.000000;stroke-dashoffset:0.0;stroke-width:0.5;"/>
     </g>
     <g id="line2d_40">
      <g>
       <use style="stroke:#000000;stroke-width:0.5;" x="70.415625" xlink:href="#mce4eba4d94" y="21.318125"/>
      </g>
     </g>
     <g id="line2d_41">
      <g>
       <use style="stroke:#000000;stroke-width:0.5;" x="405.215625" xlink:href="#ma9bd57e7e5" y="21.318125"/>
      </g>
     </g>
     <g id="text_14">
      <!-- 8000000 -->
      <g transform="translate(21.878125 24.0775)scale(0.1 -0.1)">
       <use xlink:href="#BitstreamVeraSans-Roman-38"/>
       <use x="63.623046875" xlink:href="#BitstreamVeraSans-Roman-30"/>
       <use x="127.24609375" xlink:href="#BitstreamVeraSans-Roman-30"/>
       <use x="190.869140625" xlink:href="#BitstreamVeraSans-Roman-30"/>
       <use x="254.4921875" xlink:href="#BitstreamVeraSans-Roman-30"/>
       <use x="318.115234375" xlink:href="#BitstreamVeraSans-Roman-30"/>
       <use x="381.73828125" xlink:href="#BitstreamVeraSans-Roman-30"/>
      </g>
     </g>
    </g>
    <g id="text_15">
     <!-- n / t [s ^ -1] -->
     <defs>
      <path d="M 25.390625 72.90625 
L 33.6875 72.90625 
L 8.296875 -9.28125 
L 0 -9.28125 
z
" id="BitstreamVeraSans-Roman-2f"/>
      <path d="M 8.59375 75.984375 
L 29.296875 75.984375 
L 29.296875 69 
L 17.578125 69 
L 17.578125 -6.203125 
L 29.296875 -6.203125 
L 29.296875 -13.1875 
L 8.59375 -13.1875 
z
" id="BitstreamVeraSans-Roman-5b"/>
      <path d="M 44.28125 53.078125 
L 44.28125 44.578125 
Q 40.484375 46.53125 36.375 47.5 
Q 32.28125 48.484375 27.875 48.484375 
Q 21.1875 48.484375 17.84375 46.4375 
Q 14.5 44.390625 14.5 40.28125 
Q 14.5 37.15625 16.890625 35.375 
Q 19.28125 33.59375 26.515625 31.984375 
L 29.59375 31.296875 
Q 39.15625 29.25 43.1875 25.515625 
Q 47.21875 21.78125 47.21875 15.09375 
Q 47.21875 7.46875 41.1875 3.015625 
Q 35.15625 -1.421875 24.609375 -1.421875 
Q 20.21875 -1.421875 15.453125 -0.5625 
Q 10.6875 0.296875 5.421875 2 
L 5.421875 11.28125 
Q 10.40625 8.6875 15.234375 7.390625 
Q 20.0625 6.109375 24.8125 6.109375 
Q 31.15625 6.109375 34.5625 8.28125 
Q 37.984375 10.453125 37.984375 14.40625 
Q 37.984375 18.0625 35.515625 20.015625 
Q 33.0625 21.96875 24.703125 23.78125 
L 21.578125 24.515625 
Q 13.234375 26.265625 9.515625 29.90625 
Q 5.8125 33.546875 5.8125 39.890625 
Q 5.8125 47.609375 11.28125 51.796875 
Q 16.75 56 26.8125 56 
Q 31.78125 56 36.171875 55.265625 
Q 40.578125 54.546875 44.28125 53.078125 
" id="BitstreamVeraSans-Roman-73"/>
      <path d="M 46.6875 72.90625 
L 73.1875 45.703125 
L 63.375 45.703125 
L 41.890625 64.984375 
L 20.40625 45.703125 
L 10.59375 45.703125 
L 37.109375 72.90625 
z
" id="BitstreamVeraSans-Roman-5e"/>
      <path d="M 30.421875 75.984375 
L 30.421875 -13.1875 
L 9.71875 -13.1875 
L 9.71875 -6.203125 
L 21.390625 -6.203125 
L 21.390625 69 
L 9.71875 69 
L 9.71875 75.984375 
z
" id="BitstreamVeraSans-Roman-5d"/>
     </defs>
     <g transform="translate(14.7984375 163.35796875)rotate(-90.0)scale(0.1 -0.1)">
      <use xlink:href="#BitstreamVeraSans-Roman-6e"/>
      <use x="63.37890625" xlink:href="#BitstreamVeraSans-Roman-20"/>
      <use x="95.166015625" xlink:href="#BitstreamVeraSans-Roman-2f"/>
      <use x="128.857421875" xlink:href="#BitstreamVeraSans-Roman-20"/>
      <use x="160.64453125" xlink:href="#BitstreamVeraSans-Roman-74"/>
      <use x="199.853515625" xlink:href="#BitstreamVeraSans-Roman-20"/>
      <use x="231.640625" xlink:href="#BitstreamVeraSans-Roman-5b"/>
      <use x="270.654296875" xlink:href="#BitstreamVeraSans-Roman-73"/>
      <use x="322.75390625" xlink:href="#BitstreamVeraSans-Roman-20"/>
      <use x="354.541015625" xlink:href="#BitstreamVeraSans-Roman-5e"/>
      <use x="438.330078125" xlink:href="#BitstreamVeraSans-Roman-20"/>
      <use x="470.1171875" xlink:href="#BitstreamVeraSans-Roman-2d"/>
      <use x="506.201171875" xlink:href="#BitstreamVeraSans-Roman-31"/>
      <use x="569.82421875" xlink:href="#BitstreamVeraSans-Roman-5d"/>
     </g>
    </g>
   </g>
   <g id="text_16">
    <!-- casova slozitost - parametr BF -->
    <defs>
     <path d="M 5.515625 54.6875 
L 48.1875 54.6875 
L 48.1875 46.484375 
L 14.40625 7.171875 
L 48.1875 7.171875 
L 48.1875 0 
L 4.296875 0 
L 4.296875 8.203125 
L 38.09375 47.515625 
L 5.515625 47.515625 
z
" id="BitstreamVeraSans-Roman-7a"/>
     <path d="M 2.984375 54.6875 
L 12.5 54.6875 
L 29.59375 8.796875 
L 46.6875 54.6875 
L 56.203125 54.6875 
L 35.6875 0 
L 23.484375 0 
z
" id="BitstreamVeraSans-Roman-76"/>
     <path d="M 9.8125 72.90625 
L 51.703125 72.90625 
L 51.703125 64.59375 
L 19.671875 64.59375 
L 19.671875 43.109375 
L 48.578125 43.109375 
L 48.578125 34.8125 
L 19.671875 34.8125 
L 19.671875 0 
L 9.8125 0 
z
" id="BitstreamVeraSans-Roman-46"/>
     <path d="M 52 44.1875 
Q 55.375 50.25 60.0625 53.125 
Q 64.75 56 71.09375 56 
Q 79.640625 56 84.28125 50.015625 
Q 88.921875 44.046875 88.921875 33.015625 
L 88.921875 0 
L 79.890625 0 
L 79.890625 32.71875 
Q 79.890625 40.578125 77.09375 44.375 
Q 74.3125 48.1875 68.609375 48.1875 
Q 61.625 48.1875 57.5625 43.546875 
Q 53.515625 38.921875 53.515625 30.90625 
L 53.515625 0 
L 44.484375 0 
L 44.484375 32.71875 
Q 44.484375 40.625 41.703125 44.40625 
Q 38.921875 48.1875 33.109375 48.1875 
Q 26.21875 48.1875 22.15625 43.53125 
Q 18.109375 38.875 18.109375 30.90625 
L 18.109375 0 
L 9.078125 0 
L 9.078125 54.6875 
L 18.109375 54.6875 
L 18.109375 46.1875 
Q 21.1875 51.21875 25.484375 53.609375 
Q 29.78125 56 35.6875 56 
Q 41.65625 56 45.828125 52.96875 
Q 50 49.953125 52 44.1875 
" id="BitstreamVeraSans-Roman-6d"/>
     <path d="M 19.671875 34.8125 
L 19.671875 8.109375 
L 35.5 8.109375 
Q 43.453125 8.109375 47.28125 11.40625 
Q 51.125 14.703125 51.125 21.484375 
Q 51.125 28.328125 47.28125 31.5625 
Q 43.453125 34.8125 35.5 34.8125 
z
M 19.671875 64.796875 
L 19.671875 42.828125 
L 34.28125 42.828125 
Q 41.5 42.828125 45.03125 45.53125 
Q 48.578125 48.25 48.578125 53.8125 
Q 48.578125 59.328125 45.03125 62.0625 
Q 41.5 64.796875 34.28125 64.796875 
z
M 9.8125 72.90625 
L 35.015625 72.90625 
Q 46.296875 72.90625 52.390625 68.21875 
Q 58.5 63.53125 58.5 54.890625 
Q 58.5 48.1875 55.375 44.234375 
Q 52.25 40.28125 46.1875 39.3125 
Q 53.46875 37.75 57.5 32.78125 
Q 61.53125 27.828125 61.53125 20.40625 
Q 61.53125 10.640625 54.890625 5.3125 
Q 48.25 0 35.984375 0 
L 9.8125 0 
z
" id="BitstreamVeraSans-Roman-42"/>
    </defs>
    <g transform="translate(146.6896875 16.318125)scale(0.12 -0.12)">
     <use xlink:href="#BitstreamVeraSans-Roman-63"/>
     <use x="54.98046875" xlink:href="#BitstreamVeraSans-Roman-61"/>
     <use x="116.259765625" xlink:href="#BitstreamVeraSans-Roman-73"/>
     <use x="168.359375" xlink:href="#BitstreamVeraSans-Roman-6f"/>
     <use x="229.541015625" xlink:href="#BitstreamVeraSans-Roman-76"/>
     <use x="288.720703125" xlink:href="#BitstreamVeraSans-Roman-61"/>
     <use x="350.0" xlink:href="#BitstreamVeraSans-Roman-20"/>
     <use x="381.787109375" xlink:href="#BitstreamVeraSans-Roman-73"/>
     <use x="433.88671875" xlink:href="#BitstreamVeraSans-Roman-6c"/>
     <use x="461.669921875" xlink:href="#BitstreamVeraSans-Roman-6f"/>
     <use x="522.8515625" xlink:href="#BitstreamVeraSans-Roman-7a"/>
     <use x="575.341796875" xlink:href="#BitstreamVeraSans-Roman-69"/>
     <use x="603.125" xlink:href="#BitstreamVeraSans-Roman-74"/>
     <use x="642.333984375" xlink:href="#BitstreamVeraSans-Roman-6f"/>
     <use x="703.515625" xlink:href="#BitstreamVeraSans-Roman-73"/>
     <use x="755.615234375" xlink:href="#BitstreamVeraSans-Roman-74"/>
     <use x="794.82421875" xlink:href="#BitstreamVeraSans-Roman-20"/>
     <use x="826.611328125" xlink:href="#BitstreamVeraSans-Roman-2d"/>
     <use x="862.6953125" xlink:href="#BitstreamVeraSans-Roman-20"/>
     <use x="894.482421875" xlink:href="#BitstreamVeraSans-Roman-70"/>
     <use x="957.958984375" xlink:href="#BitstreamVeraSans-Roman-61"/>
     <use x="1019.23828125" xlink:href="#BitstreamVeraSans-Roman-72"/>
     <use x="1060.3515625" xlink:href="#BitstreamVeraSans-Roman-61"/>
     <use x="1121.630859375" xlink:href="#BitstreamVeraSans-Roman-6d"/>
     <use x="1219.04296875" xlink:href="#BitstreamVeraSans-Roman-65"/>
     <use x="1280.56640625" xlink:href="#BitstreamVeraSans-Roman-74"/>
     <use x="1319.775390625" xlink:href="#BitstreamVeraSans-Roman-72"/>
     <use x="1360.888671875" xlink:href="#BitstreamVeraSans-Roman-20"/>
     <use x="1392.67578125" xlink:href="#BitstreamVeraSans-Roman-42"/>
     <use x="1461.279296875" xlink:href="#BitstreamVeraSans-Roman-46"/>
    </g>
   </g>
   <g id="legend_1">
    <g id="patch_7">
     <path d="M 76.415625 238.518125 
L 182.97375 238.518125 
L 182.97375 146.849375 
L 76.415625 146.849375 
z
" style="fill:#ffffff;stroke:#000000;stroke-linejoin:miter;"/>
    </g>
    <g id="line2d_42">
     <path d="M 84.815625 156.5675 
L 101.615625 156.5675 
" style="fill:none;stroke:#0000ff;stroke-linecap:square;"/>
    </g>
    <g id="line2d_43">
     <g>
      <use style="fill:#0000ff;stroke:#0000ff;stroke-width:0.5;" x="84.815625" xlink:href="#mf6e79cebcf" y="156.5675"/>
      <use style="fill:#0000ff;stroke:#0000ff;stroke-width:0.5;" x="101.615625" xlink:href="#mf6e79cebcf" y="156.5675"/>
     </g>
    </g>
    <g id="text_17">
     <!-- BF = 8 -->
     <defs>
      <path d="M 10.59375 45.40625 
L 73.1875 45.40625 
L 73.1875 37.203125 
L 10.59375 37.203125 
z
M 10.59375 25.484375 
L 73.1875 25.484375 
L 73.1875 17.1875 
L 10.59375 17.1875 
z
" id="BitstreamVeraSans-Roman-3d"/>
     </defs>
     <g transform="translate(114.815625 160.7675)scale(0.12 -0.12)">
      <use xlink:href="#BitstreamVeraSans-Roman-42"/>
      <use x="68.603515625" xlink:href="#BitstreamVeraSans-Roman-46"/>
      <use x="126.123046875" xlink:href="#BitstreamVeraSans-Roman-20"/>
      <use x="157.91015625" xlink:href="#BitstreamVeraSans-Roman-3d"/>
      <use x="241.69921875" xlink:href="#BitstreamVeraSans-Roman-20"/>
      <use x="273.486328125" xlink:href="#BitstreamVeraSans-Roman-38"/>
     </g>
    </g>
    <g id="line2d_44">
     <path d="M 84.815625 174.18125 
L 101.615625 174.18125 
" style="fill:none;stroke:#008000;stroke-linecap:square;"/>
    </g>
    <g id="line2d_45">
     <g>
      <use style="fill:#008000;stroke:#008000;stroke-width:0.5;" x="84.815625" xlink:href="#m1a71ae73d2" y="174.18125"/>
      <use style="fill:#008000;stroke:#008000;stroke-width:0.5;" x="101.615625" xlink:href="#m1a71ae73d2" y="174.18125"/>
     </g>
    </g>
    <g id="text_18">
     <!-- BF = 16 -->
     <g transform="translate(114.815625 178.38125)scale(0.12 -0.12)">
      <use xlink:href="#BitstreamVeraSans-Roman-42"/>
      <use x="68.603515625" xlink:href="#BitstreamVeraSans-Roman-46"/>
      <use x="126.123046875" xlink:href="#BitstreamVeraSans-Roman-20"/>
      <use x="157.91015625" xlink:href="#BitstreamVeraSans-Roman-3d"/>
      <use x="241.69921875" xlink:href="#BitstreamVeraSans-Roman-20"/>
      <use x="273.486328125" xlink:href="#BitstreamVeraSans-Roman-31"/>
      <use x="337.109375" xlink:href="#BitstreamVeraSans-Roman-36"/>
     </g>
    </g>
    <g id="line2d_46">
     <path d="M 84.815625 191.795 
L 101.615625 191.795 
" style="fill:none;stroke:#ff0000;stroke-linecap:square;"/>
    </g>
    <g id="line2d_47">
     <g>
      <use style="fill:#ff0000;stroke:#ff0000;stroke-width:0.5;" x="84.815625" xlink:href="#m6ff3b31a4e" y="191.795"/>
      <use style="fill:#ff0000;stroke:#ff0000;stroke-width:0.5;" x="101.615625" xlink:href="#m6ff3b31a4e" y="191.795"/>
     </g>
    </g>
    <g id="text_19">
     <!-- BF = 32 -->
     <g transform="translate(114.815625 195.995)scale(0.12 -0.12)">
      <use xlink:href="#BitstreamVeraSans-Roman-42"/>
      <use x="68.603515625" xlink:href="#BitstreamVeraSans-Roman-46"/>
      <use x="126.123046875" xlink:href="#BitstreamVeraSans-Roman-20"/>
      <use x="157.91015625" xlink:href="#BitstreamVeraSans-Roman-3d"/>
      <use x="241.69921875" xlink:href="#BitstreamVeraSans-Roman-20"/>
      <use x="273.486328125" xlink:href="#BitstreamVeraSans-Roman-33"/>
      <use x="337.109375" xlink:href="#BitstreamVeraSans-Roman-32"/>
     </g>
    </g>
    <g id="line2d_48">
     <path d="M 84.815625 209.40875 
L 101.615625 209.40875 
" style="fill:none;stroke:#00bfbf;stroke-linecap:square;"/>
    </g>
    <g id="line2d_49">
     <g>
      <use style="fill:#00bfbf;stroke:#00bfbf;stroke-width:0.5;" x="84.815625" xlink:href="#m9d7ad3d1a8" y="209.40875"/>
      <use style="fill:#00bfbf;stroke:#00bfbf;stroke-width:0.5;" x="101.615625" xlink:href="#m9d7ad3d1a8" y="209.40875"/>
     </g>
    </g>
    <g id="text_20">
     <!-- BF = 512 -->
     <g transform="translate(114.815625 213.60875)scale(0.12 -0.12)">
      <use xlink:href="#BitstreamVeraSans-Roman-42"/>
      <use x="68.603515625" xlink:href="#BitstreamVeraSans-Roman-46"/>
      <use x="126.123046875" xlink:href="#BitstreamVeraSans-Roman-20"/>
      <use x="157.91015625" xlink:href="#BitstreamVeraSans-Roman-3d"/>
      <use x="241.69921875" xlink:href="#BitstreamVeraSans-Roman-20"/>
      <use x="273.486328125" xlink:href="#BitstreamVeraSans-Roman-35"/>
      <use x="337.109375" xlink:href="#BitstreamVeraSans-Roman-31"/>
      <use x="400.732421875" xlink:href="#BitstreamVeraSans-Roman-32"/>
     </g>
    </g>
    <g id="line2d_50">
     <path d="M 84.815625 227.0225 
L 101.615625 227.0225 
" style="fill:none;stroke:#bf00bf;stroke-linecap:square;"/>
    </g>
    <g id="line2d_51">
     <g>
      <use style="fill:#bf00bf;stroke:#bf00bf;stroke-width:0.5;" x="84.815625" xlink:href="#mcad5f1404a" y="227.0225"/>
      <use style="fill:#bf00bf;stroke:#bf00bf;stroke-width:0.5;" x="101.615625" xlink:href="#mcad5f1404a" y="227.0225"/>
     </g>
    </g>
    <g id="text_21">
     <!-- BF = 1186 -->
     <g transform="translate(114.815625 231.2225)scale(0.12 -0.12)">
      <use xlink:href="#BitstreamVeraSans-Roman-42"/>
      <use x="68.603515625" xlink:href="#BitstreamVeraSans-Roman-46"/>
      <use x="126.123046875" xlink:href="#BitstreamVeraSans-Roman-20"/>
      <use x="157.91015625" xlink:href="#BitstreamVeraSans-Roman-3d"/>
      <use x="241.69921875" xlink:href="#BitstreamVeraSans-Roman-20"/>
      <use x="273.486328125" xlink:href="#BitstreamVeraSans-Roman-31"/>
      <use x="337.109375" xlink:href="#BitstreamVeraSans-Roman-31"/>
      <use x="400.732421875" xlink:href="#BitstreamVeraSans-Roman-38"/>
      <use x="464.35546875" xlink:href="#BitstreamVeraSans-Roman-36"/>
     </g>
    </g>
   </g>
  </g>
 </g>
 <defs>
  <clipPath id="p8037e7ce6d">
   <rect height="223.2" width="334.8" x="70.415625" y="21.318125"/>
  </clipPath>
 </defs>
</svg>
