<?xml version="1.0" encoding="utf-8" standalone="no"?>
<!DOCTYPE svg PUBLIC "-//W3C//DTD SVG 1.1//EN"
  "http://www.w3.org/Graphics/SVG/1.1/DTD/svg11.dtd">
<!-- Created with matplotlib (http://matplotlib.org/) -->
<svg height="280pt" version="1.1" viewBox="0 0 398 280" width="398pt" xmlns="http://www.w3.org/2000/svg" xmlns:xlink="http://www.w3.org/1999/xlink">
 <defs>
  <style type="text/css">
*{stroke-linecap:butt;stroke-linejoin:round;stroke-miterlimit:100000;}
  </style>
 </defs>
 <g id="figure_1">
  <g id="patch_1">
   <path d="M 0 280.074375 
L 398.095312 280.074375 
L 398.095312 0 
L 0 0 
z
" style="fill:#ffffff;"/>
  </g>
  <g id="axes_1">
   <g id="patch_2">
    <path d="M 48.14375 244.518125 
L 382.94375 244.518125 
L 382.94375 21.318125 
L 48.14375 21.318125 
z
" style="fill:#ffffff;"/>
   </g>
   <g id="line2d_1">
    <path clip-path="url(#p525ec8fe8f)" d="M 61.53575 220.829929 
L 74.92775 221.033365 
L 88.31975 220.453635 
L 101.71175 220.549588 
L 115.10375 220.622583 
L 128.49575 222.118443 
L 141.88775 218.976955 
L 155.27975 220.522202 
L 168.67175 220.569782 
L 182.06375 220.308525 
L 195.45575 220.585957 
L 208.84775 220.976483 
L 222.23975 220.162266 
L 235.63175 220.665041 
L 249.02375 220.649386 
L 262.41575 220.691604 
L 275.80775 219.267589 
L 289.19975 220.774918 
L 302.59175 220.635531 
L 315.98375 220.737298 
L 329.37575 220.548383 
L 342.76775 220.700612 
L 356.15975 220.756167 
L 369.55175 219.305196 
L 382.94375 220.615541 
" style="fill:none;stroke:#0000ff;stroke-linecap:square;"/>
    <defs>
     <path d="M 0 1.5 
C 0.397805 1.5 0.77937 1.341951 1.06066 1.06066 
C 1.341951 0.77937 1.5 0.397805 1.5 0 
C 1.5 -0.397805 1.341951 -0.77937 1.06066 -1.06066 
C 0.77937 -1.341951 0.397805 -1.5 0 -1.5 
C -0.397805 -1.5 -0.77937 -1.341951 -1.06066 -1.06066 
C -1.341951 -0.77937 -1.5 -0.397805 -1.5 0 
C -1.5 0.397805 -1.341951 0.77937 -1.06066 1.06066 
C -0.77937 1.341951 -0.397805 1.5 0 1.5 
z
" id="ma677c84670" style="stroke:#0000ff;stroke-width:0.5;"/>
    </defs>
    <g clip-path="url(#p525ec8fe8f)">
     <use style="fill:#0000ff;stroke:#0000ff;stroke-width:0.5;" x="61.53575" xlink:href="#ma677c84670" y="220.829928555"/>
     <use style="fill:#0000ff;stroke:#0000ff;stroke-width:0.5;" x="74.92775" xlink:href="#ma677c84670" y="221.033365255"/>
     <use style="fill:#0000ff;stroke:#0000ff;stroke-width:0.5;" x="88.31975" xlink:href="#ma677c84670" y="220.453635365"/>
     <use style="fill:#0000ff;stroke:#0000ff;stroke-width:0.5;" x="101.71175" xlink:href="#ma677c84670" y="220.549588439"/>
     <use style="fill:#0000ff;stroke:#0000ff;stroke-width:0.5;" x="115.10375" xlink:href="#ma677c84670" y="220.622583381"/>
     <use style="fill:#0000ff;stroke:#0000ff;stroke-width:0.5;" x="128.49575" xlink:href="#ma677c84670" y="222.118443129"/>
     <use style="fill:#0000ff;stroke:#0000ff;stroke-width:0.5;" x="141.88775" xlink:href="#ma677c84670" y="218.976954673"/>
     <use style="fill:#0000ff;stroke:#0000ff;stroke-width:0.5;" x="155.27975" xlink:href="#ma677c84670" y="220.52220221"/>
     <use style="fill:#0000ff;stroke:#0000ff;stroke-width:0.5;" x="168.67175" xlink:href="#ma677c84670" y="220.569782317"/>
     <use style="fill:#0000ff;stroke:#0000ff;stroke-width:0.5;" x="182.06375" xlink:href="#ma677c84670" y="220.308524537"/>
     <use style="fill:#0000ff;stroke:#0000ff;stroke-width:0.5;" x="195.45575" xlink:href="#ma677c84670" y="220.585956713"/>
     <use style="fill:#0000ff;stroke:#0000ff;stroke-width:0.5;" x="208.84775" xlink:href="#ma677c84670" y="220.976483249"/>
     <use style="fill:#0000ff;stroke:#0000ff;stroke-width:0.5;" x="222.23975" xlink:href="#ma677c84670" y="220.162265646"/>
     <use style="fill:#0000ff;stroke:#0000ff;stroke-width:0.5;" x="235.63175" xlink:href="#ma677c84670" y="220.665040515"/>
     <use style="fill:#0000ff;stroke:#0000ff;stroke-width:0.5;" x="249.02375" xlink:href="#ma677c84670" y="220.649385906"/>
     <use style="fill:#0000ff;stroke:#0000ff;stroke-width:0.5;" x="262.41575" xlink:href="#ma677c84670" y="220.691604128"/>
     <use style="fill:#0000ff;stroke:#0000ff;stroke-width:0.5;" x="275.80775" xlink:href="#ma677c84670" y="219.267589454"/>
     <use style="fill:#0000ff;stroke:#0000ff;stroke-width:0.5;" x="289.19975" xlink:href="#ma677c84670" y="220.774918281"/>
     <use style="fill:#0000ff;stroke:#0000ff;stroke-width:0.5;" x="302.59175" xlink:href="#ma677c84670" y="220.635530979"/>
     <use style="fill:#0000ff;stroke:#0000ff;stroke-width:0.5;" x="315.98375" xlink:href="#ma677c84670" y="220.737298323"/>
     <use style="fill:#0000ff;stroke:#0000ff;stroke-width:0.5;" x="329.37575" xlink:href="#ma677c84670" y="220.548382739"/>
     <use style="fill:#0000ff;stroke:#0000ff;stroke-width:0.5;" x="342.76775" xlink:href="#ma677c84670" y="220.700611972"/>
     <use style="fill:#0000ff;stroke:#0000ff;stroke-width:0.5;" x="356.15975" xlink:href="#ma677c84670" y="220.756167219"/>
     <use style="fill:#0000ff;stroke:#0000ff;stroke-width:0.5;" x="369.55175" xlink:href="#ma677c84670" y="219.305195604"/>
     <use style="fill:#0000ff;stroke:#0000ff;stroke-width:0.5;" x="382.94375" xlink:href="#ma677c84670" y="220.615540935"/>
    </g>
   </g>
   <g id="line2d_2">
    <path clip-path="url(#p525ec8fe8f)" d="M 61.53575 210.030838 
L 74.92775 212.865869 
L 88.31975 211.490629 
L 101.71175 212.821395 
L 115.10375 211.356441 
L 128.49575 210.620685 
L 141.88775 216.529545 
L 155.27975 213.071486 
L 168.67175 213.070755 
L 182.06375 213.220933 
L 195.45575 210.430801 
L 208.84775 210.069754 
L 222.23975 212.487166 
L 235.63175 213.22916 
L 249.02375 210.448491 
L 262.41575 213.073021 
L 275.80775 213.014639 
L 289.19975 210.745537 
L 302.59175 213.068156 
L 315.98375 212.625499 
L 329.37575 213.281729 
L 342.76775 213.829024 
L 356.15975 210.128545 
L 369.55175 216.374287 
L 382.94375 211.309288 
" style="fill:none;stroke:#008000;stroke-linecap:square;"/>
    <defs>
     <path d="M 0 1.5 
C 0.397805 1.5 0.77937 1.341951 1.06066 1.06066 
C 1.341951 0.77937 1.5 0.397805 1.5 0 
C 1.5 -0.397805 1.341951 -0.77937 1.06066 -1.06066 
C 0.77937 -1.341951 0.397805 -1.5 0 -1.5 
C -0.397805 -1.5 -0.77937 -1.341951 -1.06066 -1.06066 
C -1.341951 -0.77937 -1.5 -0.397805 -1.5 0 
C -1.5 0.397805 -1.341951 0.77937 -1.06066 1.06066 
C -0.77937 1.341951 -0.397805 1.5 0 1.5 
z
" id="ma5664bac95" style="stroke:#008000;stroke-width:0.5;"/>
    </defs>
    <g clip-path="url(#p525ec8fe8f)">
     <use style="fill:#008000;stroke:#008000;stroke-width:0.5;" x="61.53575" xlink:href="#ma5664bac95" y="210.030837623"/>
     <use style="fill:#008000;stroke:#008000;stroke-width:0.5;" x="74.92775" xlink:href="#ma5664bac95" y="212.865868679"/>
     <use style="fill:#008000;stroke:#008000;stroke-width:0.5;" x="88.31975" xlink:href="#ma5664bac95" y="211.490629079"/>
     <use style="fill:#008000;stroke:#008000;stroke-width:0.5;" x="101.71175" xlink:href="#ma5664bac95" y="212.82139509"/>
     <use style="fill:#008000;stroke:#008000;stroke-width:0.5;" x="115.10375" xlink:href="#ma5664bac95" y="211.356441217"/>
     <use style="fill:#008000;stroke:#008000;stroke-width:0.5;" x="128.49575" xlink:href="#ma5664bac95" y="210.62068466"/>
     <use style="fill:#008000;stroke:#008000;stroke-width:0.5;" x="141.88775" xlink:href="#ma5664bac95" y="216.529545024"/>
     <use style="fill:#008000;stroke:#008000;stroke-width:0.5;" x="155.27975" xlink:href="#ma5664bac95" y="213.071485975"/>
     <use style="fill:#008000;stroke:#008000;stroke-width:0.5;" x="168.67175" xlink:href="#ma5664bac95" y="213.070755363"/>
     <use style="fill:#008000;stroke:#008000;stroke-width:0.5;" x="182.06375" xlink:href="#ma5664bac95" y="213.220933235"/>
     <use style="fill:#008000;stroke:#008000;stroke-width:0.5;" x="195.45575" xlink:href="#ma5664bac95" y="210.430800581"/>
     <use style="fill:#008000;stroke:#008000;stroke-width:0.5;" x="208.84775" xlink:href="#ma5664bac95" y="210.06975394"/>
     <use style="fill:#008000;stroke:#008000;stroke-width:0.5;" x="222.23975" xlink:href="#ma5664bac95" y="212.487166074"/>
     <use style="fill:#008000;stroke:#008000;stroke-width:0.5;" x="235.63175" xlink:href="#ma5664bac95" y="213.229160111"/>
     <use style="fill:#008000;stroke:#008000;stroke-width:0.5;" x="249.02375" xlink:href="#ma5664bac95" y="210.448490941"/>
     <use style="fill:#008000;stroke:#008000;stroke-width:0.5;" x="262.41575" xlink:href="#ma5664bac95" y="213.073020537"/>
     <use style="fill:#008000;stroke:#008000;stroke-width:0.5;" x="275.80775" xlink:href="#ma5664bac95" y="213.014639318"/>
     <use style="fill:#008000;stroke:#008000;stroke-width:0.5;" x="289.19975" xlink:href="#ma5664bac95" y="210.745537338"/>
     <use style="fill:#008000;stroke:#008000;stroke-width:0.5;" x="302.59175" xlink:href="#ma5664bac95" y="213.068155661"/>
     <use style="fill:#008000;stroke:#008000;stroke-width:0.5;" x="315.98375" xlink:href="#ma5664bac95" y="212.625499136"/>
     <use style="fill:#008000;stroke:#008000;stroke-width:0.5;" x="329.37575" xlink:href="#ma5664bac95" y="213.281729202"/>
     <use style="fill:#008000;stroke:#008000;stroke-width:0.5;" x="342.76775" xlink:href="#ma5664bac95" y="213.829024209"/>
     <use style="fill:#008000;stroke:#008000;stroke-width:0.5;" x="356.15975" xlink:href="#ma5664bac95" y="210.128544969"/>
     <use style="fill:#008000;stroke:#008000;stroke-width:0.5;" x="369.55175" xlink:href="#ma5664bac95" y="216.374287269"/>
     <use style="fill:#008000;stroke:#008000;stroke-width:0.5;" x="382.94375" xlink:href="#ma5664bac95" y="211.309287611"/>
    </g>
   </g>
   <g id="line2d_3">
    <path clip-path="url(#p525ec8fe8f)" d="M 61.53575 167.503398 
L 74.92775 165.926051 
L 88.31975 167.073924 
L 101.71175 167.684505 
L 115.10375 167.46005 
L 128.49575 167.186506 
L 141.88775 176.247247 
L 155.27975 167.333237 
L 168.67175 166.982376 
L 182.06375 167.058924 
L 195.45575 167.351517 
L 208.84775 164.866843 
L 222.23975 167.549418 
L 235.63175 167.356788 
L 249.02375 166.892074 
L 262.41575 166.968177 
L 275.80775 203.920316 
L 289.19975 168.115991 
L 302.59175 167.288444 
L 315.98375 167.627093 
L 329.37575 167.930601 
L 342.76775 165.154741 
L 356.15975 167.278688 
L 369.55175 176.589399 
L 382.94375 167.501538 
" style="fill:none;stroke:#ff0000;stroke-linecap:square;"/>
    <defs>
     <path d="M 0 1.5 
C 0.397805 1.5 0.77937 1.341951 1.06066 1.06066 
C 1.341951 0.77937 1.5 0.397805 1.5 0 
C 1.5 -0.397805 1.341951 -0.77937 1.06066 -1.06066 
C 0.77937 -1.341951 0.397805 -1.5 0 -1.5 
C -0.397805 -1.5 -0.77937 -1.341951 -1.06066 -1.06066 
C -1.341951 -0.77937 -1.5 -0.397805 -1.5 0 
C -1.5 0.397805 -1.341951 0.77937 -1.06066 1.06066 
C -0.77937 1.341951 -0.397805 1.5 0 1.5 
z
" id="mb1d4c7b28c" style="stroke:#ff0000;stroke-width:0.5;"/>
    </defs>
    <g clip-path="url(#p525ec8fe8f)">
     <use style="fill:#ff0000;stroke:#ff0000;stroke-width:0.5;" x="61.53575" xlink:href="#mb1d4c7b28c" y="167.503397686"/>
     <use style="fill:#ff0000;stroke:#ff0000;stroke-width:0.5;" x="74.92775" xlink:href="#mb1d4c7b28c" y="165.926050713"/>
     <use style="fill:#ff0000;stroke:#ff0000;stroke-width:0.5;" x="88.31975" xlink:href="#mb1d4c7b28c" y="167.073923829"/>
     <use style="fill:#ff0000;stroke:#ff0000;stroke-width:0.5;" x="101.71175" xlink:href="#mb1d4c7b28c" y="167.684504581"/>
     <use style="fill:#ff0000;stroke:#ff0000;stroke-width:0.5;" x="115.10375" xlink:href="#mb1d4c7b28c" y="167.460049575"/>
     <use style="fill:#ff0000;stroke:#ff0000;stroke-width:0.5;" x="128.49575" xlink:href="#mb1d4c7b28c" y="167.186506228"/>
     <use style="fill:#ff0000;stroke:#ff0000;stroke-width:0.5;" x="141.88775" xlink:href="#mb1d4c7b28c" y="176.247246895"/>
     <use style="fill:#ff0000;stroke:#ff0000;stroke-width:0.5;" x="155.27975" xlink:href="#mb1d4c7b28c" y="167.333236992"/>
     <use style="fill:#ff0000;stroke:#ff0000;stroke-width:0.5;" x="168.67175" xlink:href="#mb1d4c7b28c" y="166.982376248"/>
     <use style="fill:#ff0000;stroke:#ff0000;stroke-width:0.5;" x="182.06375" xlink:href="#mb1d4c7b28c" y="167.058923822"/>
     <use style="fill:#ff0000;stroke:#ff0000;stroke-width:0.5;" x="195.45575" xlink:href="#mb1d4c7b28c" y="167.351516651"/>
     <use style="fill:#ff0000;stroke:#ff0000;stroke-width:0.5;" x="208.84775" xlink:href="#mb1d4c7b28c" y="164.866843149"/>
     <use style="fill:#ff0000;stroke:#ff0000;stroke-width:0.5;" x="222.23975" xlink:href="#mb1d4c7b28c" y="167.549417833"/>
     <use style="fill:#ff0000;stroke:#ff0000;stroke-width:0.5;" x="235.63175" xlink:href="#mb1d4c7b28c" y="167.356787581"/>
     <use style="fill:#ff0000;stroke:#ff0000;stroke-width:0.5;" x="249.02375" xlink:href="#mb1d4c7b28c" y="166.892074"/>
     <use style="fill:#ff0000;stroke:#ff0000;stroke-width:0.5;" x="262.41575" xlink:href="#mb1d4c7b28c" y="166.968177315"/>
     <use style="fill:#ff0000;stroke:#ff0000;stroke-width:0.5;" x="275.80775" xlink:href="#mb1d4c7b28c" y="203.920315985"/>
     <use style="fill:#ff0000;stroke:#ff0000;stroke-width:0.5;" x="289.19975" xlink:href="#mb1d4c7b28c" y="168.115990563"/>
     <use style="fill:#ff0000;stroke:#ff0000;stroke-width:0.5;" x="302.59175" xlink:href="#mb1d4c7b28c" y="167.288444166"/>
     <use style="fill:#ff0000;stroke:#ff0000;stroke-width:0.5;" x="315.98375" xlink:href="#mb1d4c7b28c" y="167.627093024"/>
     <use style="fill:#ff0000;stroke:#ff0000;stroke-width:0.5;" x="329.37575" xlink:href="#mb1d4c7b28c" y="167.930600993"/>
     <use style="fill:#ff0000;stroke:#ff0000;stroke-width:0.5;" x="342.76775" xlink:href="#mb1d4c7b28c" y="165.154741284"/>
     <use style="fill:#ff0000;stroke:#ff0000;stroke-width:0.5;" x="356.15975" xlink:href="#mb1d4c7b28c" y="167.278687921"/>
     <use style="fill:#ff0000;stroke:#ff0000;stroke-width:0.5;" x="369.55175" xlink:href="#mb1d4c7b28c" y="176.589399061"/>
     <use style="fill:#ff0000;stroke:#ff0000;stroke-width:0.5;" x="382.94375" xlink:href="#mb1d4c7b28c" y="167.501537801"/>
    </g>
   </g>
   <g id="line2d_4">
    <path clip-path="url(#p525ec8fe8f)" d="M 61.53575 47.689182 
L 74.92775 50.132065 
L 88.31975 44.57277 
L 101.71175 45.476036 
L 115.10375 46.048386 
L 128.49575 45.920269 
L 141.88775 62.824875 
L 155.27975 46.248012 
L 168.67175 46.130137 
L 182.06375 46.040529 
L 195.45575 45.87076 
L 208.84775 49.770415 
L 222.23975 45.157976 
L 235.63175 42.796699 
L 249.02375 46.321477 
L 262.41575 46.446648 
L 275.80775 67.807493 
L 289.19975 45.837775 
L 302.59175 46.297807 
L 315.98375 44.111794 
L 329.37575 45.297145 
L 342.76775 49.926824 
L 356.15975 46.321077 
L 369.55175 63.47886 
L 382.94375 45.78095 
" style="fill:none;stroke:#00bfbf;stroke-linecap:square;"/>
    <defs>
     <path d="M 0 1.5 
C 0.397805 1.5 0.77937 1.341951 1.06066 1.06066 
C 1.341951 0.77937 1.5 0.397805 1.5 0 
C 1.5 -0.397805 1.341951 -0.77937 1.06066 -1.06066 
C 0.77937 -1.341951 0.397805 -1.5 0 -1.5 
C -0.397805 -1.5 -0.77937 -1.341951 -1.06066 -1.06066 
C -1.341951 -0.77937 -1.5 -0.397805 -1.5 0 
C -1.5 0.397805 -1.341951 0.77937 -1.06066 1.06066 
C -0.77937 1.341951 -0.397805 1.5 0 1.5 
z
" id="m7d03b2ba3b" style="stroke:#00bfbf;stroke-width:0.5;"/>
    </defs>
    <g clip-path="url(#p525ec8fe8f)">
     <use style="fill:#00bfbf;stroke:#00bfbf;stroke-width:0.5;" x="61.53575" xlink:href="#m7d03b2ba3b" y="47.6891824984"/>
     <use style="fill:#00bfbf;stroke:#00bfbf;stroke-width:0.5;" x="74.92775" xlink:href="#m7d03b2ba3b" y="50.1320653607"/>
     <use style="fill:#00bfbf;stroke:#00bfbf;stroke-width:0.5;" x="88.31975" xlink:href="#m7d03b2ba3b" y="44.5727700863"/>
     <use style="fill:#00bfbf;stroke:#00bfbf;stroke-width:0.5;" x="101.71175" xlink:href="#m7d03b2ba3b" y="45.4760355458"/>
     <use style="fill:#00bfbf;stroke:#00bfbf;stroke-width:0.5;" x="115.10375" xlink:href="#m7d03b2ba3b" y="46.0483856026"/>
     <use style="fill:#00bfbf;stroke:#00bfbf;stroke-width:0.5;" x="128.49575" xlink:href="#m7d03b2ba3b" y="45.9202685386"/>
     <use style="fill:#00bfbf;stroke:#00bfbf;stroke-width:0.5;" x="141.88775" xlink:href="#m7d03b2ba3b" y="62.8248751346"/>
     <use style="fill:#00bfbf;stroke:#00bfbf;stroke-width:0.5;" x="155.27975" xlink:href="#m7d03b2ba3b" y="46.2480120843"/>
     <use style="fill:#00bfbf;stroke:#00bfbf;stroke-width:0.5;" x="168.67175" xlink:href="#m7d03b2ba3b" y="46.1301368453"/>
     <use style="fill:#00bfbf;stroke:#00bfbf;stroke-width:0.5;" x="182.06375" xlink:href="#m7d03b2ba3b" y="46.0405286292"/>
     <use style="fill:#00bfbf;stroke:#00bfbf;stroke-width:0.5;" x="195.45575" xlink:href="#m7d03b2ba3b" y="45.8707597497"/>
     <use style="fill:#00bfbf;stroke:#00bfbf;stroke-width:0.5;" x="208.84775" xlink:href="#m7d03b2ba3b" y="49.7704153252"/>
     <use style="fill:#00bfbf;stroke:#00bfbf;stroke-width:0.5;" x="222.23975" xlink:href="#m7d03b2ba3b" y="45.157975852"/>
     <use style="fill:#00bfbf;stroke:#00bfbf;stroke-width:0.5;" x="235.63175" xlink:href="#m7d03b2ba3b" y="42.7966989587"/>
     <use style="fill:#00bfbf;stroke:#00bfbf;stroke-width:0.5;" x="249.02375" xlink:href="#m7d03b2ba3b" y="46.3214774206"/>
     <use style="fill:#00bfbf;stroke:#00bfbf;stroke-width:0.5;" x="262.41575" xlink:href="#m7d03b2ba3b" y="46.4466476606"/>
     <use style="fill:#00bfbf;stroke:#00bfbf;stroke-width:0.5;" x="275.80775" xlink:href="#m7d03b2ba3b" y="67.8074934787"/>
     <use style="fill:#00bfbf;stroke:#00bfbf;stroke-width:0.5;" x="289.19975" xlink:href="#m7d03b2ba3b" y="45.8377746805"/>
     <use style="fill:#00bfbf;stroke:#00bfbf;stroke-width:0.5;" x="302.59175" xlink:href="#m7d03b2ba3b" y="46.2978068385"/>
     <use style="fill:#00bfbf;stroke:#00bfbf;stroke-width:0.5;" x="315.98375" xlink:href="#m7d03b2ba3b" y="44.1117944842"/>
     <use style="fill:#00bfbf;stroke:#00bfbf;stroke-width:0.5;" x="329.37575" xlink:href="#m7d03b2ba3b" y="45.2971445997"/>
     <use style="fill:#00bfbf;stroke:#00bfbf;stroke-width:0.5;" x="342.76775" xlink:href="#m7d03b2ba3b" y="49.9268239977"/>
     <use style="fill:#00bfbf;stroke:#00bfbf;stroke-width:0.5;" x="356.15975" xlink:href="#m7d03b2ba3b" y="46.3210773086"/>
     <use style="fill:#00bfbf;stroke:#00bfbf;stroke-width:0.5;" x="369.55175" xlink:href="#m7d03b2ba3b" y="63.4788597503"/>
     <use style="fill:#00bfbf;stroke:#00bfbf;stroke-width:0.5;" x="382.94375" xlink:href="#m7d03b2ba3b" y="45.7809503615"/>
    </g>
   </g>
   <g id="line2d_5">
    <path clip-path="url(#p525ec8fe8f)" d="M 61.53575 237.564879 
L 74.92775 237.518317 
L 88.31975 237.408464 
L 101.71175 237.435837 
L 115.10375 237.425841 
L 128.49575 237.425274 
L 141.88775 237.239911 
L 155.27975 237.435903 
L 168.67175 237.251729 
L 182.06375 237.441416 
L 195.45575 237.219857 
L 208.84775 237.630632 
L 222.23975 237.19891 
L 235.63175 237.287804 
L 249.02375 237.441217 
L 262.41575 237.489302 
L 275.80775 238.092593 
L 289.19975 237.310017 
L 302.59175 237.380492 
L 315.98375 237.304989 
L 329.37575 237.361154 
L 342.76775 237.581308 
L 356.15975 237.362744 
L 369.55175 237.471871 
L 382.94375 237.368517 
" style="fill:none;stroke:#bf00bf;stroke-linecap:square;"/>
    <defs>
     <path d="M 0 1.5 
C 0.397805 1.5 0.77937 1.341951 1.06066 1.06066 
C 1.341951 0.77937 1.5 0.397805 1.5 0 
C 1.5 -0.397805 1.341951 -0.77937 1.06066 -1.06066 
C 0.77937 -1.341951 0.397805 -1.5 0 -1.5 
C -0.397805 -1.5 -0.77937 -1.341951 -1.06066 -1.06066 
C -1.341951 -0.77937 -1.5 -0.397805 -1.5 0 
C -1.5 0.397805 -1.341951 0.77937 -1.06066 1.06066 
C -0.77937 1.341951 -0.397805 1.5 0 1.5 
z
" id="md7ca05594a" style="stroke:#bf00bf;stroke-width:0.5;"/>
    </defs>
    <g clip-path="url(#p525ec8fe8f)">
     <use style="fill:#bf00bf;stroke:#bf00bf;stroke-width:0.5;" x="61.53575" xlink:href="#md7ca05594a" y="237.564878548"/>
     <use style="fill:#bf00bf;stroke:#bf00bf;stroke-width:0.5;" x="74.92775" xlink:href="#md7ca05594a" y="237.518317478"/>
     <use style="fill:#bf00bf;stroke:#bf00bf;stroke-width:0.5;" x="88.31975" xlink:href="#md7ca05594a" y="237.408463612"/>
     <use style="fill:#bf00bf;stroke:#bf00bf;stroke-width:0.5;" x="101.71175" xlink:href="#md7ca05594a" y="237.43583657"/>
     <use style="fill:#bf00bf;stroke:#bf00bf;stroke-width:0.5;" x="115.10375" xlink:href="#md7ca05594a" y="237.425840692"/>
     <use style="fill:#bf00bf;stroke:#bf00bf;stroke-width:0.5;" x="128.49575" xlink:href="#md7ca05594a" y="237.425274027"/>
     <use style="fill:#bf00bf;stroke:#bf00bf;stroke-width:0.5;" x="141.88775" xlink:href="#md7ca05594a" y="237.239911351"/>
     <use style="fill:#bf00bf;stroke:#bf00bf;stroke-width:0.5;" x="155.27975" xlink:href="#md7ca05594a" y="237.435902736"/>
     <use style="fill:#bf00bf;stroke:#bf00bf;stroke-width:0.5;" x="168.67175" xlink:href="#md7ca05594a" y="237.251729318"/>
     <use style="fill:#bf00bf;stroke:#bf00bf;stroke-width:0.5;" x="182.06375" xlink:href="#md7ca05594a" y="237.441415977"/>
     <use style="fill:#bf00bf;stroke:#bf00bf;stroke-width:0.5;" x="195.45575" xlink:href="#md7ca05594a" y="237.219857216"/>
     <use style="fill:#bf00bf;stroke:#bf00bf;stroke-width:0.5;" x="208.84775" xlink:href="#md7ca05594a" y="237.630631991"/>
     <use style="fill:#bf00bf;stroke:#bf00bf;stroke-width:0.5;" x="222.23975" xlink:href="#md7ca05594a" y="237.198910157"/>
     <use style="fill:#bf00bf;stroke:#bf00bf;stroke-width:0.5;" x="235.63175" xlink:href="#md7ca05594a" y="237.287804428"/>
     <use style="fill:#bf00bf;stroke:#bf00bf;stroke-width:0.5;" x="249.02375" xlink:href="#md7ca05594a" y="237.441217364"/>
     <use style="fill:#bf00bf;stroke:#bf00bf;stroke-width:0.5;" x="262.41575" xlink:href="#md7ca05594a" y="237.489302341"/>
     <use style="fill:#bf00bf;stroke:#bf00bf;stroke-width:0.5;" x="275.80775" xlink:href="#md7ca05594a" y="238.092593484"/>
     <use style="fill:#bf00bf;stroke:#bf00bf;stroke-width:0.5;" x="289.19975" xlink:href="#md7ca05594a" y="237.310016605"/>
     <use style="fill:#bf00bf;stroke:#bf00bf;stroke-width:0.5;" x="302.59175" xlink:href="#md7ca05594a" y="237.380492357"/>
     <use style="fill:#bf00bf;stroke:#bf00bf;stroke-width:0.5;" x="315.98375" xlink:href="#md7ca05594a" y="237.304988528"/>
     <use style="fill:#bf00bf;stroke:#bf00bf;stroke-width:0.5;" x="329.37575" xlink:href="#md7ca05594a" y="237.361153925"/>
     <use style="fill:#bf00bf;stroke:#bf00bf;stroke-width:0.5;" x="342.76775" xlink:href="#md7ca05594a" y="237.581307667"/>
     <use style="fill:#bf00bf;stroke:#bf00bf;stroke-width:0.5;" x="356.15975" xlink:href="#md7ca05594a" y="237.362743617"/>
     <use style="fill:#bf00bf;stroke:#bf00bf;stroke-width:0.5;" x="369.55175" xlink:href="#md7ca05594a" y="237.47187076"/>
     <use style="fill:#bf00bf;stroke:#bf00bf;stroke-width:0.5;" x="382.94375" xlink:href="#md7ca05594a" y="237.368516812"/>
    </g>
   </g>
   <g id="patch_3">
    <path d="M 382.94375 244.518125 
L 382.94375 21.318125 
" style="fill:none;stroke:#000000;stroke-linecap:square;stroke-linejoin:miter;"/>
   </g>
   <g id="patch_4">
    <path d="M 48.14375 21.318125 
L 382.94375 21.318125 
" style="fill:none;stroke:#000000;stroke-linecap:square;stroke-linejoin:miter;"/>
   </g>
   <g id="patch_5">
    <path d="M 48.14375 244.518125 
L 382.94375 244.518125 
" style="fill:none;stroke:#000000;stroke-linecap:square;stroke-linejoin:miter;"/>
   </g>
   <g id="patch_6">
    <path d="M 48.14375 244.518125 
L 48.14375 21.318125 
" style="fill:none;stroke:#000000;stroke-linecap:square;stroke-linejoin:miter;"/>
   </g>
   <g id="matplotlib.axis_1">
    <g id="xtick_1">
     <g id="line2d_6">
      <path clip-path="url(#p525ec8fe8f)" d="M 48.14375 244.518125 
L 48.14375 21.318125 
" style="fill:none;stroke:#000000;stroke-dasharray:1.000000,3.000000;stroke-dashoffset:0.0;stroke-width:0.5;"/>
     </g>
     <g id="line2d_7">
      <defs>
       <path d="M 0 0 
L 0 -4 
" id="mf4ef10359b" style="stroke:#000000;stroke-width:0.5;"/>
      </defs>
      <g>
       <use style="stroke:#000000;stroke-width:0.5;" x="48.14375" xlink:href="#mf4ef10359b" y="244.518125"/>
      </g>
     </g>
     <g id="line2d_8">
      <defs>
       <path d="M 0 0 
L 0 4 
" id="mb711da06ad" style="stroke:#000000;stroke-width:0.5;"/>
      </defs>
      <g>
       <use style="stroke:#000000;stroke-width:0.5;" x="48.14375" xlink:href="#mb711da06ad" y="21.318125"/>
      </g>
     </g>
     <g id="text_1">
      <!-- 0.0 -->
      <defs>
       <path d="M 10.6875 12.40625 
L 21 12.40625 
L 21 0 
L 10.6875 0 
z
" id="BitstreamVeraSans-Roman-2e"/>
       <path d="M 31.78125 66.40625 
Q 24.171875 66.40625 20.328125 58.90625 
Q 16.5 51.421875 16.5 36.375 
Q 16.5 21.390625 20.328125 13.890625 
Q 24.171875 6.390625 31.78125 6.390625 
Q 39.453125 6.390625 43.28125 13.890625 
Q 47.125 21.390625 47.125 36.375 
Q 47.125 51.421875 43.28125 58.90625 
Q 39.453125 66.40625 31.78125 66.40625 
M 31.78125 74.21875 
Q 44.046875 74.21875 50.515625 64.515625 
Q 56.984375 54.828125 56.984375 36.375 
Q 56.984375 17.96875 50.515625 8.265625 
Q 44.046875 -1.421875 31.78125 -1.421875 
Q 19.53125 -1.421875 13.0625 8.265625 
Q 6.59375 17.96875 6.59375 36.375 
Q 6.59375 54.828125 13.0625 64.515625 
Q 19.53125 74.21875 31.78125 74.21875 
" id="BitstreamVeraSans-Roman-30"/>
      </defs>
      <g transform="translate(40.1921875 256.1165625)scale(0.1 -0.1)">
       <use xlink:href="#BitstreamVeraSans-Roman-30"/>
       <use x="63.623046875" xlink:href="#BitstreamVeraSans-Roman-2e"/>
       <use x="95.41015625" xlink:href="#BitstreamVeraSans-Roman-30"/>
      </g>
     </g>
    </g>
    <g id="xtick_2">
     <g id="line2d_9">
      <path clip-path="url(#p525ec8fe8f)" d="M 115.10375 244.518125 
L 115.10375 21.318125 
" style="fill:none;stroke:#000000;stroke-dasharray:1.000000,3.000000;stroke-dashoffset:0.0;stroke-width:0.5;"/>
     </g>
     <g id="line2d_10">
      <g>
       <use style="stroke:#000000;stroke-width:0.5;" x="115.10375" xlink:href="#mf4ef10359b" y="244.518125"/>
      </g>
     </g>
     <g id="line2d_11">
      <g>
       <use style="stroke:#000000;stroke-width:0.5;" x="115.10375" xlink:href="#mb711da06ad" y="21.318125"/>
      </g>
     </g>
     <g id="text_2">
      <!-- 0.5 -->
      <defs>
       <path d="M 10.796875 72.90625 
L 49.515625 72.90625 
L 49.515625 64.59375 
L 19.828125 64.59375 
L 19.828125 46.734375 
Q 21.96875 47.46875 24.109375 47.828125 
Q 26.265625 48.1875 28.421875 48.1875 
Q 40.625 48.1875 47.75 41.5 
Q 54.890625 34.8125 54.890625 23.390625 
Q 54.890625 11.625 47.5625 5.09375 
Q 40.234375 -1.421875 26.90625 -1.421875 
Q 22.3125 -1.421875 17.546875 -0.640625 
Q 12.796875 0.140625 7.71875 1.703125 
L 7.71875 11.625 
Q 12.109375 9.234375 16.796875 8.0625 
Q 21.484375 6.890625 26.703125 6.890625 
Q 35.15625 6.890625 40.078125 11.328125 
Q 45.015625 15.765625 45.015625 23.390625 
Q 45.015625 31 40.078125 35.4375 
Q 35.15625 39.890625 26.703125 39.890625 
Q 22.75 39.890625 18.8125 39.015625 
Q 14.890625 38.140625 10.796875 36.28125 
z
" id="BitstreamVeraSans-Roman-35"/>
      </defs>
      <g transform="translate(107.1521875 256.1165625)scale(0.1 -0.1)">
       <use xlink:href="#BitstreamVeraSans-Roman-30"/>
       <use x="63.623046875" xlink:href="#BitstreamVeraSans-Roman-2e"/>
       <use x="95.41015625" xlink:href="#BitstreamVeraSans-Roman-35"/>
      </g>
     </g>
    </g>
    <g id="xtick_3">
     <g id="line2d_12">
      <path clip-path="url(#p525ec8fe8f)" d="M 182.06375 244.518125 
L 182.06375 21.318125 
" style="fill:none;stroke:#000000;stroke-dasharray:1.000000,3.000000;stroke-dashoffset:0.0;stroke-width:0.5;"/>
     </g>
     <g id="line2d_13">
      <g>
       <use style="stroke:#000000;stroke-width:0.5;" x="182.06375" xlink:href="#mf4ef10359b" y="244.518125"/>
      </g>
     </g>
     <g id="line2d_14">
      <g>
       <use style="stroke:#000000;stroke-width:0.5;" x="182.06375" xlink:href="#mb711da06ad" y="21.318125"/>
      </g>
     </g>
     <g id="text_3">
      <!-- 1.0 -->
      <defs>
       <path d="M 12.40625 8.296875 
L 28.515625 8.296875 
L 28.515625 63.921875 
L 10.984375 60.40625 
L 10.984375 69.390625 
L 28.421875 72.90625 
L 38.28125 72.90625 
L 38.28125 8.296875 
L 54.390625 8.296875 
L 54.390625 0 
L 12.40625 0 
z
" id="BitstreamVeraSans-Roman-31"/>
      </defs>
      <g transform="translate(174.1121875 256.1165625)scale(0.1 -0.1)">
       <use xlink:href="#BitstreamVeraSans-Roman-31"/>
       <use x="63.623046875" xlink:href="#BitstreamVeraSans-Roman-2e"/>
       <use x="95.41015625" xlink:href="#BitstreamVeraSans-Roman-30"/>
      </g>
     </g>
    </g>
    <g id="xtick_4">
     <g id="line2d_15">
      <path clip-path="url(#p525ec8fe8f)" d="M 249.02375 244.518125 
L 249.02375 21.318125 
" style="fill:none;stroke:#000000;stroke-dasharray:1.000000,3.000000;stroke-dashoffset:0.0;stroke-width:0.5;"/>
     </g>
     <g id="line2d_16">
      <g>
       <use style="stroke:#000000;stroke-width:0.5;" x="249.02375" xlink:href="#mf4ef10359b" y="244.518125"/>
      </g>
     </g>
     <g id="line2d_17">
      <g>
       <use style="stroke:#000000;stroke-width:0.5;" x="249.02375" xlink:href="#mb711da06ad" y="21.318125"/>
      </g>
     </g>
     <g id="text_4">
      <!-- 1.5 -->
      <g transform="translate(241.0721875 256.1165625)scale(0.1 -0.1)">
       <use xlink:href="#BitstreamVeraSans-Roman-31"/>
       <use x="63.623046875" xlink:href="#BitstreamVeraSans-Roman-2e"/>
       <use x="95.41015625" xlink:href="#BitstreamVeraSans-Roman-35"/>
      </g>
     </g>
    </g>
    <g id="xtick_5">
     <g id="line2d_18">
      <path clip-path="url(#p525ec8fe8f)" d="M 315.98375 244.518125 
L 315.98375 21.318125 
" style="fill:none;stroke:#000000;stroke-dasharray:1.000000,3.000000;stroke-dashoffset:0.0;stroke-width:0.5;"/>
     </g>
     <g id="line2d_19">
      <g>
       <use style="stroke:#000000;stroke-width:0.5;" x="315.98375" xlink:href="#mf4ef10359b" y="244.518125"/>
      </g>
     </g>
     <g id="line2d_20">
      <g>
       <use style="stroke:#000000;stroke-width:0.5;" x="315.98375" xlink:href="#mb711da06ad" y="21.318125"/>
      </g>
     </g>
     <g id="text_5">
      <!-- 2.0 -->
      <defs>
       <path d="M 19.1875 8.296875 
L 53.609375 8.296875 
L 53.609375 0 
L 7.328125 0 
L 7.328125 8.296875 
Q 12.9375 14.109375 22.625 23.890625 
Q 32.328125 33.6875 34.8125 36.53125 
Q 39.546875 41.84375 41.421875 45.53125 
Q 43.3125 49.21875 43.3125 52.78125 
Q 43.3125 58.59375 39.234375 62.25 
Q 35.15625 65.921875 28.609375 65.921875 
Q 23.96875 65.921875 18.8125 64.3125 
Q 13.671875 62.703125 7.8125 59.421875 
L 7.8125 69.390625 
Q 13.765625 71.78125 18.9375 73 
Q 24.125 74.21875 28.421875 74.21875 
Q 39.75 74.21875 46.484375 68.546875 
Q 53.21875 62.890625 53.21875 53.421875 
Q 53.21875 48.921875 51.53125 44.890625 
Q 49.859375 40.875 45.40625 35.40625 
Q 44.1875 33.984375 37.640625 27.21875 
Q 31.109375 20.453125 19.1875 8.296875 
" id="BitstreamVeraSans-Roman-32"/>
      </defs>
      <g transform="translate(308.0321875 256.1165625)scale(0.1 -0.1)">
       <use xlink:href="#BitstreamVeraSans-Roman-32"/>
       <use x="63.623046875" xlink:href="#BitstreamVeraSans-Roman-2e"/>
       <use x="95.41015625" xlink:href="#BitstreamVeraSans-Roman-30"/>
      </g>
     </g>
    </g>
    <g id="xtick_6">
     <g id="line2d_21">
      <path clip-path="url(#p525ec8fe8f)" d="M 382.94375 244.518125 
L 382.94375 21.318125 
" style="fill:none;stroke:#000000;stroke-dasharray:1.000000,3.000000;stroke-dashoffset:0.0;stroke-width:0.5;"/>
     </g>
     <g id="line2d_22">
      <g>
       <use style="stroke:#000000;stroke-width:0.5;" x="382.94375" xlink:href="#mf4ef10359b" y="244.518125"/>
      </g>
     </g>
     <g id="line2d_23">
      <g>
       <use style="stroke:#000000;stroke-width:0.5;" x="382.94375" xlink:href="#mb711da06ad" y="21.318125"/>
      </g>
     </g>
     <g id="text_6">
      <!-- 2.5 -->
      <g transform="translate(374.9921875 256.1165625)scale(0.1 -0.1)">
       <use xlink:href="#BitstreamVeraSans-Roman-32"/>
       <use x="63.623046875" xlink:href="#BitstreamVeraSans-Roman-2e"/>
       <use x="95.41015625" xlink:href="#BitstreamVeraSans-Roman-35"/>
      </g>
     </g>
    </g>
    <g id="text_7">
     <!-- n - pocet linearnich generatoru -->
     <defs>
      <path d="M 54.890625 33.015625 
L 54.890625 0 
L 45.90625 0 
L 45.90625 32.71875 
Q 45.90625 40.484375 42.875 44.328125 
Q 39.84375 48.1875 33.796875 48.1875 
Q 26.515625 48.1875 22.3125 43.546875 
Q 18.109375 38.921875 18.109375 30.90625 
L 18.109375 0 
L 9.078125 0 
L 9.078125 54.6875 
L 18.109375 54.6875 
L 18.109375 46.1875 
Q 21.34375 51.125 25.703125 53.5625 
Q 30.078125 56 35.796875 56 
Q 45.21875 56 50.046875 50.171875 
Q 54.890625 44.34375 54.890625 33.015625 
" id="BitstreamVeraSans-Roman-6e"/>
      <path d="M 30.609375 48.390625 
Q 23.390625 48.390625 19.1875 42.75 
Q 14.984375 37.109375 14.984375 27.296875 
Q 14.984375 17.484375 19.15625 11.84375 
Q 23.34375 6.203125 30.609375 6.203125 
Q 37.796875 6.203125 41.984375 11.859375 
Q 46.1875 17.53125 46.1875 27.296875 
Q 46.1875 37.015625 41.984375 42.703125 
Q 37.796875 48.390625 30.609375 48.390625 
M 30.609375 56 
Q 42.328125 56 49.015625 48.375 
Q 55.71875 40.765625 55.71875 27.296875 
Q 55.71875 13.875 49.015625 6.21875 
Q 42.328125 -1.421875 30.609375 -1.421875 
Q 18.84375 -1.421875 12.171875 6.21875 
Q 5.515625 13.875 5.515625 27.296875 
Q 5.515625 40.765625 12.171875 48.375 
Q 18.84375 56 30.609375 56 
" id="BitstreamVeraSans-Roman-6f"/>
      <path d="M 41.109375 46.296875 
Q 39.59375 47.171875 37.8125 47.578125 
Q 36.03125 48 33.890625 48 
Q 26.265625 48 22.1875 43.046875 
Q 18.109375 38.09375 18.109375 28.8125 
L 18.109375 0 
L 9.078125 0 
L 9.078125 54.6875 
L 18.109375 54.6875 
L 18.109375 46.1875 
Q 20.953125 51.171875 25.484375 53.578125 
Q 30.03125 56 36.53125 56 
Q 37.453125 56 38.578125 55.875 
Q 39.703125 55.765625 41.0625 55.515625 
z
" id="BitstreamVeraSans-Roman-72"/>
      <path d="M 9.421875 75.984375 
L 18.40625 75.984375 
L 18.40625 0 
L 9.421875 0 
z
" id="BitstreamVeraSans-Roman-6c"/>
      <path d="M 18.3125 70.21875 
L 18.3125 54.6875 
L 36.8125 54.6875 
L 36.8125 47.703125 
L 18.3125 47.703125 
L 18.3125 18.015625 
Q 18.3125 11.328125 20.140625 9.421875 
Q 21.96875 7.515625 27.59375 7.515625 
L 36.8125 7.515625 
L 36.8125 0 
L 27.59375 0 
Q 17.1875 0 13.234375 3.875 
Q 9.28125 7.765625 9.28125 18.015625 
L 9.28125 47.703125 
L 2.6875 47.703125 
L 2.6875 54.6875 
L 9.28125 54.6875 
L 9.28125 70.21875 
z
" id="BitstreamVeraSans-Roman-74"/>
      <path d="M 8.5 21.578125 
L 8.5 54.6875 
L 17.484375 54.6875 
L 17.484375 21.921875 
Q 17.484375 14.15625 20.5 10.265625 
Q 23.53125 6.390625 29.59375 6.390625 
Q 36.859375 6.390625 41.078125 11.03125 
Q 45.3125 15.671875 45.3125 23.6875 
L 45.3125 54.6875 
L 54.296875 54.6875 
L 54.296875 0 
L 45.3125 0 
L 45.3125 8.40625 
Q 42.046875 3.421875 37.71875 1 
Q 33.40625 -1.421875 27.6875 -1.421875 
Q 18.265625 -1.421875 13.375 4.4375 
Q 8.5 10.296875 8.5 21.578125 
" id="BitstreamVeraSans-Roman-75"/>
      <path id="BitstreamVeraSans-Roman-20"/>
      <path d="M 54.890625 33.015625 
L 54.890625 0 
L 45.90625 0 
L 45.90625 32.71875 
Q 45.90625 40.484375 42.875 44.328125 
Q 39.84375 48.1875 33.796875 48.1875 
Q 26.515625 48.1875 22.3125 43.546875 
Q 18.109375 38.921875 18.109375 30.90625 
L 18.109375 0 
L 9.078125 0 
L 9.078125 75.984375 
L 18.109375 75.984375 
L 18.109375 46.1875 
Q 21.34375 51.125 25.703125 53.5625 
Q 30.078125 56 35.796875 56 
Q 45.21875 56 50.046875 50.171875 
Q 54.890625 44.34375 54.890625 33.015625 
" id="BitstreamVeraSans-Roman-68"/>
      <path d="M 48.78125 52.59375 
L 48.78125 44.1875 
Q 44.96875 46.296875 41.140625 47.34375 
Q 37.3125 48.390625 33.40625 48.390625 
Q 24.65625 48.390625 19.8125 42.84375 
Q 14.984375 37.3125 14.984375 27.296875 
Q 14.984375 17.28125 19.8125 11.734375 
Q 24.65625 6.203125 33.40625 6.203125 
Q 37.3125 6.203125 41.140625 7.25 
Q 44.96875 8.296875 48.78125 10.40625 
L 48.78125 2.09375 
Q 45.015625 0.34375 40.984375 -0.53125 
Q 36.96875 -1.421875 32.421875 -1.421875 
Q 20.0625 -1.421875 12.78125 6.34375 
Q 5.515625 14.109375 5.515625 27.296875 
Q 5.515625 40.671875 12.859375 48.328125 
Q 20.21875 56 33.015625 56 
Q 37.15625 56 41.109375 55.140625 
Q 45.0625 54.296875 48.78125 52.59375 
" id="BitstreamVeraSans-Roman-63"/>
      <path d="M 45.40625 27.984375 
Q 45.40625 37.75 41.375 43.109375 
Q 37.359375 48.484375 30.078125 48.484375 
Q 22.859375 48.484375 18.828125 43.109375 
Q 14.796875 37.75 14.796875 27.984375 
Q 14.796875 18.265625 18.828125 12.890625 
Q 22.859375 7.515625 30.078125 7.515625 
Q 37.359375 7.515625 41.375 12.890625 
Q 45.40625 18.265625 45.40625 27.984375 
M 54.390625 6.78125 
Q 54.390625 -7.171875 48.1875 -13.984375 
Q 42 -20.796875 29.203125 -20.796875 
Q 24.46875 -20.796875 20.265625 -20.09375 
Q 16.0625 -19.390625 12.109375 -17.921875 
L 12.109375 -9.1875 
Q 16.0625 -11.328125 19.921875 -12.34375 
Q 23.78125 -13.375 27.78125 -13.375 
Q 36.625 -13.375 41.015625 -8.765625 
Q 45.40625 -4.15625 45.40625 5.171875 
L 45.40625 9.625 
Q 42.625 4.78125 38.28125 2.390625 
Q 33.9375 0 27.875 0 
Q 17.828125 0 11.671875 7.65625 
Q 5.515625 15.328125 5.515625 27.984375 
Q 5.515625 40.671875 11.671875 48.328125 
Q 17.828125 56 27.875 56 
Q 33.9375 56 38.28125 53.609375 
Q 42.625 51.21875 45.40625 46.390625 
L 45.40625 54.6875 
L 54.390625 54.6875 
z
" id="BitstreamVeraSans-Roman-67"/>
      <path d="M 18.109375 8.203125 
L 18.109375 -20.796875 
L 9.078125 -20.796875 
L 9.078125 54.6875 
L 18.109375 54.6875 
L 18.109375 46.390625 
Q 20.953125 51.265625 25.265625 53.625 
Q 29.59375 56 35.59375 56 
Q 45.5625 56 51.78125 48.09375 
Q 58.015625 40.1875 58.015625 27.296875 
Q 58.015625 14.40625 51.78125 6.484375 
Q 45.5625 -1.421875 35.59375 -1.421875 
Q 29.59375 -1.421875 25.265625 0.953125 
Q 20.953125 3.328125 18.109375 8.203125 
M 48.6875 27.296875 
Q 48.6875 37.203125 44.609375 42.84375 
Q 40.53125 48.484375 33.40625 48.484375 
Q 26.265625 48.484375 22.1875 42.84375 
Q 18.109375 37.203125 18.109375 27.296875 
Q 18.109375 17.390625 22.1875 11.75 
Q 26.265625 6.109375 33.40625 6.109375 
Q 40.53125 6.109375 44.609375 11.75 
Q 48.6875 17.390625 48.6875 27.296875 
" id="BitstreamVeraSans-Roman-70"/>
      <path d="M 34.28125 27.484375 
Q 23.390625 27.484375 19.1875 25 
Q 14.984375 22.515625 14.984375 16.5 
Q 14.984375 11.71875 18.140625 8.90625 
Q 21.296875 6.109375 26.703125 6.109375 
Q 34.1875 6.109375 38.703125 11.40625 
Q 43.21875 16.703125 43.21875 25.484375 
L 43.21875 27.484375 
z
M 52.203125 31.203125 
L 52.203125 0 
L 43.21875 0 
L 43.21875 8.296875 
Q 40.140625 3.328125 35.546875 0.953125 
Q 30.953125 -1.421875 24.3125 -1.421875 
Q 15.921875 -1.421875 10.953125 3.296875 
Q 6 8.015625 6 15.921875 
Q 6 25.140625 12.171875 29.828125 
Q 18.359375 34.515625 30.609375 34.515625 
L 43.21875 34.515625 
L 43.21875 35.40625 
Q 43.21875 41.609375 39.140625 45 
Q 35.0625 48.390625 27.6875 48.390625 
Q 23 48.390625 18.546875 47.265625 
Q 14.109375 46.140625 10.015625 43.890625 
L 10.015625 52.203125 
Q 14.9375 54.109375 19.578125 55.046875 
Q 24.21875 56 28.609375 56 
Q 40.484375 56 46.34375 49.84375 
Q 52.203125 43.703125 52.203125 31.203125 
" id="BitstreamVeraSans-Roman-61"/>
      <path d="M 4.890625 31.390625 
L 31.203125 31.390625 
L 31.203125 23.390625 
L 4.890625 23.390625 
z
" id="BitstreamVeraSans-Roman-2d"/>
      <path d="M 56.203125 29.59375 
L 56.203125 25.203125 
L 14.890625 25.203125 
Q 15.484375 15.921875 20.484375 11.0625 
Q 25.484375 6.203125 34.421875 6.203125 
Q 39.59375 6.203125 44.453125 7.46875 
Q 49.3125 8.734375 54.109375 11.28125 
L 54.109375 2.78125 
Q 49.265625 0.734375 44.1875 -0.34375 
Q 39.109375 -1.421875 33.890625 -1.421875 
Q 20.796875 -1.421875 13.15625 6.1875 
Q 5.515625 13.8125 5.515625 26.8125 
Q 5.515625 40.234375 12.765625 48.109375 
Q 20.015625 56 32.328125 56 
Q 43.359375 56 49.78125 48.890625 
Q 56.203125 41.796875 56.203125 29.59375 
M 47.21875 32.234375 
Q 47.125 39.59375 43.09375 43.984375 
Q 39.0625 48.390625 32.421875 48.390625 
Q 24.90625 48.390625 20.390625 44.140625 
Q 15.875 39.890625 15.1875 32.171875 
z
" id="BitstreamVeraSans-Roman-65"/>
      <path d="M 9.421875 54.6875 
L 18.40625 54.6875 
L 18.40625 0 
L 9.421875 0 
z
M 9.421875 75.984375 
L 18.40625 75.984375 
L 18.40625 64.59375 
L 9.421875 64.59375 
z
" id="BitstreamVeraSans-Roman-69"/>
     </defs>
     <g transform="translate(137.71796875 270.7946875)scale(0.1 -0.1)">
      <use xlink:href="#BitstreamVeraSans-Roman-6e"/>
      <use x="63.37890625" xlink:href="#BitstreamVeraSans-Roman-20"/>
      <use x="95.166015625" xlink:href="#BitstreamVeraSans-Roman-2d"/>
      <use x="131.25" xlink:href="#BitstreamVeraSans-Roman-20"/>
      <use x="163.037109375" xlink:href="#BitstreamVeraSans-Roman-70"/>
      <use x="226.513671875" xlink:href="#BitstreamVeraSans-Roman-6f"/>
      <use x="287.6953125" xlink:href="#BitstreamVeraSans-Roman-63"/>
      <use x="342.67578125" xlink:href="#BitstreamVeraSans-Roman-65"/>
      <use x="404.19921875" xlink:href="#BitstreamVeraSans-Roman-74"/>
      <use x="443.408203125" xlink:href="#BitstreamVeraSans-Roman-20"/>
      <use x="475.1953125" xlink:href="#BitstreamVeraSans-Roman-6c"/>
      <use x="502.978515625" xlink:href="#BitstreamVeraSans-Roman-69"/>
      <use x="530.76171875" xlink:href="#BitstreamVeraSans-Roman-6e"/>
      <use x="594.140625" xlink:href="#BitstreamVeraSans-Roman-65"/>
      <use x="655.6640625" xlink:href="#BitstreamVeraSans-Roman-61"/>
      <use x="716.943359375" xlink:href="#BitstreamVeraSans-Roman-72"/>
      <use x="758.041015625" xlink:href="#BitstreamVeraSans-Roman-6e"/>
      <use x="821.419921875" xlink:href="#BitstreamVeraSans-Roman-69"/>
      <use x="849.203125" xlink:href="#BitstreamVeraSans-Roman-63"/>
      <use x="904.18359375" xlink:href="#BitstreamVeraSans-Roman-68"/>
      <use x="967.5625" xlink:href="#BitstreamVeraSans-Roman-20"/>
      <use x="999.349609375" xlink:href="#BitstreamVeraSans-Roman-67"/>
      <use x="1062.826171875" xlink:href="#BitstreamVeraSans-Roman-65"/>
      <use x="1124.349609375" xlink:href="#BitstreamVeraSans-Roman-6e"/>
      <use x="1187.728515625" xlink:href="#BitstreamVeraSans-Roman-65"/>
      <use x="1249.251953125" xlink:href="#BitstreamVeraSans-Roman-72"/>
      <use x="1290.365234375" xlink:href="#BitstreamVeraSans-Roman-61"/>
      <use x="1351.64453125" xlink:href="#BitstreamVeraSans-Roman-74"/>
      <use x="1390.853515625" xlink:href="#BitstreamVeraSans-Roman-6f"/>
      <use x="1452.03515625" xlink:href="#BitstreamVeraSans-Roman-72"/>
      <use x="1493.1484375" xlink:href="#BitstreamVeraSans-Roman-75"/>
     </g>
    </g>
    <g id="text_8">
     <!-- 1e8 -->
     <defs>
      <path d="M 31.78125 34.625 
Q 24.75 34.625 20.71875 30.859375 
Q 16.703125 27.09375 16.703125 20.515625 
Q 16.703125 13.921875 20.71875 10.15625 
Q 24.75 6.390625 31.78125 6.390625 
Q 38.8125 6.390625 42.859375 10.171875 
Q 46.921875 13.96875 46.921875 20.515625 
Q 46.921875 27.09375 42.890625 30.859375 
Q 38.875 34.625 31.78125 34.625 
M 21.921875 38.8125 
Q 15.578125 40.375 12.03125 44.71875 
Q 8.5 49.078125 8.5 55.328125 
Q 8.5 64.0625 14.71875 69.140625 
Q 20.953125 74.21875 31.78125 74.21875 
Q 42.671875 74.21875 48.875 69.140625 
Q 55.078125 64.0625 55.078125 55.328125 
Q 55.078125 49.078125 51.53125 44.71875 
Q 48 40.375 41.703125 38.8125 
Q 48.828125 37.15625 52.796875 32.3125 
Q 56.78125 27.484375 56.78125 20.515625 
Q 56.78125 9.90625 50.3125 4.234375 
Q 43.84375 -1.421875 31.78125 -1.421875 
Q 19.734375 -1.421875 13.25 4.234375 
Q 6.78125 9.90625 6.78125 20.515625 
Q 6.78125 27.484375 10.78125 32.3125 
Q 14.796875 37.15625 21.921875 38.8125 
M 18.3125 54.390625 
Q 18.3125 48.734375 21.84375 45.5625 
Q 25.390625 42.390625 31.78125 42.390625 
Q 38.140625 42.390625 41.71875 45.5625 
Q 45.3125 48.734375 45.3125 54.390625 
Q 45.3125 60.0625 41.71875 63.234375 
Q 38.140625 66.40625 31.78125 66.40625 
Q 25.390625 66.40625 21.84375 63.234375 
Q 18.3125 60.0625 18.3125 54.390625 
" id="BitstreamVeraSans-Roman-38"/>
     </defs>
     <g transform="translate(364.065625 268.7946875)scale(0.1 -0.1)">
      <use xlink:href="#BitstreamVeraSans-Roman-31"/>
      <use x="63.623046875" xlink:href="#BitstreamVeraSans-Roman-65"/>
      <use x="125.146484375" xlink:href="#BitstreamVeraSans-Roman-38"/>
     </g>
    </g>
   </g>
   <g id="matplotlib.axis_2">
    <g id="ytick_1">
     <g id="line2d_24">
      <path clip-path="url(#p525ec8fe8f)" d="M 48.14375 244.518125 
L 382.94375 244.518125 
" style="fill:none;stroke:#000000;stroke-dasharray:1.000000,3.000000;stroke-dashoffset:0.0;stroke-width:0.5;"/>
     </g>
     <g id="line2d_25">
      <defs>
       <path d="M 0 0 
L 4 0 
" id="m5307ffa873" style="stroke:#000000;stroke-width:0.5;"/>
      </defs>
      <g>
       <use style="stroke:#000000;stroke-width:0.5;" x="48.14375" xlink:href="#m5307ffa873" y="244.518125"/>
      </g>
     </g>
     <g id="line2d_26">
      <defs>
       <path d="M 0 0 
L -4 0 
" id="mbdb6e2bcbd" style="stroke:#000000;stroke-width:0.5;"/>
      </defs>
      <g>
       <use style="stroke:#000000;stroke-width:0.5;" x="382.94375" xlink:href="#mbdb6e2bcbd" y="244.518125"/>
      </g>
     </g>
     <g id="text_9">
      <!-- 0.00 -->
      <g transform="translate(21.878125 247.2775)scale(0.1 -0.1)">
       <use xlink:href="#BitstreamVeraSans-Roman-30"/>
       <use x="63.623046875" xlink:href="#BitstreamVeraSans-Roman-2e"/>
       <use x="95.41015625" xlink:href="#BitstreamVeraSans-Roman-30"/>
       <use x="159.033203125" xlink:href="#BitstreamVeraSans-Roman-30"/>
      </g>
     </g>
    </g>
    <g id="ytick_2">
     <g id="line2d_27">
      <path clip-path="url(#p525ec8fe8f)" d="M 48.14375 216.618125 
L 382.94375 216.618125 
" style="fill:none;stroke:#000000;stroke-dasharray:1.000000,3.000000;stroke-dashoffset:0.0;stroke-width:0.5;"/>
     </g>
     <g id="line2d_28">
      <g>
       <use style="stroke:#000000;stroke-width:0.5;" x="48.14375" xlink:href="#m5307ffa873" y="216.618125"/>
      </g>
     </g>
     <g id="line2d_29">
      <g>
       <use style="stroke:#000000;stroke-width:0.5;" x="382.94375" xlink:href="#mbdb6e2bcbd" y="216.618125"/>
      </g>
     </g>
     <g id="text_10">
      <!-- 0.05 -->
      <g transform="translate(21.878125 219.3775)scale(0.1 -0.1)">
       <use xlink:href="#BitstreamVeraSans-Roman-30"/>
       <use x="63.623046875" xlink:href="#BitstreamVeraSans-Roman-2e"/>
       <use x="95.41015625" xlink:href="#BitstreamVeraSans-Roman-30"/>
       <use x="159.033203125" xlink:href="#BitstreamVeraSans-Roman-35"/>
      </g>
     </g>
    </g>
    <g id="ytick_3">
     <g id="line2d_30">
      <path clip-path="url(#p525ec8fe8f)" d="M 48.14375 188.718125 
L 382.94375 188.718125 
" style="fill:none;stroke:#000000;stroke-dasharray:1.000000,3.000000;stroke-dashoffset:0.0;stroke-width:0.5;"/>
     </g>
     <g id="line2d_31">
      <g>
       <use style="stroke:#000000;stroke-width:0.5;" x="48.14375" xlink:href="#m5307ffa873" y="188.718125"/>
      </g>
     </g>
     <g id="line2d_32">
      <g>
       <use style="stroke:#000000;stroke-width:0.5;" x="382.94375" xlink:href="#mbdb6e2bcbd" y="188.718125"/>
      </g>
     </g>
     <g id="text_11">
      <!-- 0.10 -->
      <g transform="translate(21.878125 191.4775)scale(0.1 -0.1)">
       <use xlink:href="#BitstreamVeraSans-Roman-30"/>
       <use x="63.623046875" xlink:href="#BitstreamVeraSans-Roman-2e"/>
       <use x="95.41015625" xlink:href="#BitstreamVeraSans-Roman-31"/>
       <use x="159.033203125" xlink:href="#BitstreamVeraSans-Roman-30"/>
      </g>
     </g>
    </g>
    <g id="ytick_4">
     <g id="line2d_33">
      <path clip-path="url(#p525ec8fe8f)" d="M 48.14375 160.818125 
L 382.94375 160.818125 
" style="fill:none;stroke:#000000;stroke-dasharray:1.000000,3.000000;stroke-dashoffset:0.0;stroke-width:0.5;"/>
     </g>
     <g id="line2d_34">
      <g>
       <use style="stroke:#000000;stroke-width:0.5;" x="48.14375" xlink:href="#m5307ffa873" y="160.818125"/>
      </g>
     </g>
     <g id="line2d_35">
      <g>
       <use style="stroke:#000000;stroke-width:0.5;" x="382.94375" xlink:href="#mbdb6e2bcbd" y="160.818125"/>
      </g>
     </g>
     <g id="text_12">
      <!-- 0.15 -->
      <g transform="translate(21.878125 163.5775)scale(0.1 -0.1)">
       <use xlink:href="#BitstreamVeraSans-Roman-30"/>
       <use x="63.623046875" xlink:href="#BitstreamVeraSans-Roman-2e"/>
       <use x="95.41015625" xlink:href="#BitstreamVeraSans-Roman-31"/>
       <use x="159.033203125" xlink:href="#BitstreamVeraSans-Roman-35"/>
      </g>
     </g>
    </g>
    <g id="ytick_5">
     <g id="line2d_36">
      <path clip-path="url(#p525ec8fe8f)" d="M 48.14375 132.918125 
L 382.94375 132.918125 
" style="fill:none;stroke:#000000;stroke-dasharray:1.000000,3.000000;stroke-dashoffset:0.0;stroke-width:0.5;"/>
     </g>
     <g id="line2d_37">
      <g>
       <use style="stroke:#000000;stroke-width:0.5;" x="48.14375" xlink:href="#m5307ffa873" y="132.918125"/>
      </g>
     </g>
     <g id="line2d_38">
      <g>
       <use style="stroke:#000000;stroke-width:0.5;" x="382.94375" xlink:href="#mbdb6e2bcbd" y="132.918125"/>
      </g>
     </g>
     <g id="text_13">
      <!-- 0.20 -->
      <g transform="translate(21.878125 135.6775)scale(0.1 -0.1)">
       <use xlink:href="#BitstreamVeraSans-Roman-30"/>
       <use x="63.623046875" xlink:href="#BitstreamVeraSans-Roman-2e"/>
       <use x="95.41015625" xlink:href="#BitstreamVeraSans-Roman-32"/>
       <use x="159.033203125" xlink:href="#BitstreamVeraSans-Roman-30"/>
      </g>
     </g>
    </g>
    <g id="ytick_6">
     <g id="line2d_39">
      <path clip-path="url(#p525ec8fe8f)" d="M 48.14375 105.018125 
L 382.94375 105.018125 
" style="fill:none;stroke:#000000;stroke-dasharray:1.000000,3.000000;stroke-dashoffset:0.0;stroke-width:0.5;"/>
     </g>
     <g id="line2d_40">
      <g>
       <use style="stroke:#000000;stroke-width:0.5;" x="48.14375" xlink:href="#m5307ffa873" y="105.018125"/>
      </g>
     </g>
     <g id="line2d_41">
      <g>
       <use style="stroke:#000000;stroke-width:0.5;" x="382.94375" xlink:href="#mbdb6e2bcbd" y="105.018125"/>
      </g>
     </g>
     <g id="text_14">
      <!-- 0.25 -->
      <g transform="translate(21.878125 107.7775)scale(0.1 -0.1)">
       <use xlink:href="#BitstreamVeraSans-Roman-30"/>
       <use x="63.623046875" xlink:href="#BitstreamVeraSans-Roman-2e"/>
       <use x="95.41015625" xlink:href="#BitstreamVeraSans-Roman-32"/>
       <use x="159.033203125" xlink:href="#BitstreamVeraSans-Roman-35"/>
      </g>
     </g>
    </g>
    <g id="ytick_7">
     <g id="line2d_42">
      <path clip-path="url(#p525ec8fe8f)" d="M 48.14375 77.118125 
L 382.94375 77.118125 
" style="fill:none;stroke:#000000;stroke-dasharray:1.000000,3.000000;stroke-dashoffset:0.0;stroke-width:0.5;"/>
     </g>
     <g id="line2d_43">
      <g>
       <use style="stroke:#000000;stroke-width:0.5;" x="48.14375" xlink:href="#m5307ffa873" y="77.118125"/>
      </g>
     </g>
     <g id="line2d_44">
      <g>
       <use style="stroke:#000000;stroke-width:0.5;" x="382.94375" xlink:href="#mbdb6e2bcbd" y="77.118125"/>
      </g>
     </g>
     <g id="text_15">
      <!-- 0.30 -->
      <defs>
       <path d="M 40.578125 39.3125 
Q 47.65625 37.796875 51.625 33 
Q 55.609375 28.21875 55.609375 21.1875 
Q 55.609375 10.40625 48.1875 4.484375 
Q 40.765625 -1.421875 27.09375 -1.421875 
Q 22.515625 -1.421875 17.65625 -0.515625 
Q 12.796875 0.390625 7.625 2.203125 
L 7.625 11.71875 
Q 11.71875 9.328125 16.59375 8.109375 
Q 21.484375 6.890625 26.8125 6.890625 
Q 36.078125 6.890625 40.9375 10.546875 
Q 45.796875 14.203125 45.796875 21.1875 
Q 45.796875 27.640625 41.28125 31.265625 
Q 36.765625 34.90625 28.71875 34.90625 
L 20.21875 34.90625 
L 20.21875 43.015625 
L 29.109375 43.015625 
Q 36.375 43.015625 40.234375 45.921875 
Q 44.09375 48.828125 44.09375 54.296875 
Q 44.09375 59.90625 40.109375 62.90625 
Q 36.140625 65.921875 28.71875 65.921875 
Q 24.65625 65.921875 20.015625 65.03125 
Q 15.375 64.15625 9.8125 62.3125 
L 9.8125 71.09375 
Q 15.4375 72.65625 20.34375 73.4375 
Q 25.25 74.21875 29.59375 74.21875 
Q 40.828125 74.21875 47.359375 69.109375 
Q 53.90625 64.015625 53.90625 55.328125 
Q 53.90625 49.265625 50.4375 45.09375 
Q 46.96875 40.921875 40.578125 39.3125 
" id="BitstreamVeraSans-Roman-33"/>
      </defs>
      <g transform="translate(21.878125 79.8775)scale(0.1 -0.1)">
       <use xlink:href="#BitstreamVeraSans-Roman-30"/>
       <use x="63.623046875" xlink:href="#BitstreamVeraSans-Roman-2e"/>
       <use x="95.41015625" xlink:href="#BitstreamVeraSans-Roman-33"/>
       <use x="159.033203125" xlink:href="#BitstreamVeraSans-Roman-30"/>
      </g>
     </g>
    </g>
    <g id="ytick_8">
     <g id="line2d_45">
      <path clip-path="url(#p525ec8fe8f)" d="M 48.14375 49.218125 
L 382.94375 49.218125 
" style="fill:none;stroke:#000000;stroke-dasharray:1.000000,3.000000;stroke-dashoffset:0.0;stroke-width:0.5;"/>
     </g>
     <g id="line2d_46">
      <g>
       <use style="stroke:#000000;stroke-width:0.5;" x="48.14375" xlink:href="#m5307ffa873" y="49.218125"/>
      </g>
     </g>
     <g id="line2d_47">
      <g>
       <use style="stroke:#000000;stroke-width:0.5;" x="382.94375" xlink:href="#mbdb6e2bcbd" y="49.218125"/>
      </g>
     </g>
     <g id="text_16">
      <!-- 0.35 -->
      <g transform="translate(21.878125 51.9775)scale(0.1 -0.1)">
       <use xlink:href="#BitstreamVeraSans-Roman-30"/>
       <use x="63.623046875" xlink:href="#BitstreamVeraSans-Roman-2e"/>
       <use x="95.41015625" xlink:href="#BitstreamVeraSans-Roman-33"/>
       <use x="159.033203125" xlink:href="#BitstreamVeraSans-Roman-35"/>
      </g>
     </g>
    </g>
    <g id="ytick_9">
     <g id="line2d_48">
      <path clip-path="url(#p525ec8fe8f)" d="M 48.14375 21.318125 
L 382.94375 21.318125 
" style="fill:none;stroke:#000000;stroke-dasharray:1.000000,3.000000;stroke-dashoffset:0.0;stroke-width:0.5;"/>
     </g>
     <g id="line2d_49">
      <g>
       <use style="stroke:#000000;stroke-width:0.5;" x="48.14375" xlink:href="#m5307ffa873" y="21.318125"/>
      </g>
     </g>
     <g id="line2d_50">
      <g>
       <use style="stroke:#000000;stroke-width:0.5;" x="382.94375" xlink:href="#mbdb6e2bcbd" y="21.318125"/>
      </g>
     </g>
     <g id="text_17">
      <!-- 0.40 -->
      <defs>
       <path d="M 37.796875 64.3125 
L 12.890625 25.390625 
L 37.796875 25.390625 
z
M 35.203125 72.90625 
L 47.609375 72.90625 
L 47.609375 25.390625 
L 58.015625 25.390625 
L 58.015625 17.1875 
L 47.609375 17.1875 
L 47.609375 0 
L 37.796875 0 
L 37.796875 17.1875 
L 4.890625 17.1875 
L 4.890625 26.703125 
z
" id="BitstreamVeraSans-Roman-34"/>
      </defs>
      <g transform="translate(21.878125 24.0775)scale(0.1 -0.1)">
       <use xlink:href="#BitstreamVeraSans-Roman-30"/>
       <use x="63.623046875" xlink:href="#BitstreamVeraSans-Roman-2e"/>
       <use x="95.41015625" xlink:href="#BitstreamVeraSans-Roman-34"/>
       <use x="159.033203125" xlink:href="#BitstreamVeraSans-Roman-30"/>
      </g>
     </g>
    </g>
    <g id="text_18">
     <!-- L2 cache miss rate -->
     <defs>
      <path d="M 52 44.1875 
Q 55.375 50.25 60.0625 53.125 
Q 64.75 56 71.09375 56 
Q 79.640625 56 84.28125 50.015625 
Q 88.921875 44.046875 88.921875 33.015625 
L 88.921875 0 
L 79.890625 0 
L 79.890625 32.71875 
Q 79.890625 40.578125 77.09375 44.375 
Q 74.3125 48.1875 68.609375 48.1875 
Q 61.625 48.1875 57.5625 43.546875 
Q 53.515625 38.921875 53.515625 30.90625 
L 53.515625 0 
L 44.484375 0 
L 44.484375 32.71875 
Q 44.484375 40.625 41.703125 44.40625 
Q 38.921875 48.1875 33.109375 48.1875 
Q 26.21875 48.1875 22.15625 43.53125 
Q 18.109375 38.875 18.109375 30.90625 
L 18.109375 0 
L 9.078125 0 
L 9.078125 54.6875 
L 18.109375 54.6875 
L 18.109375 46.1875 
Q 21.1875 51.21875 25.484375 53.609375 
Q 29.78125 56 35.6875 56 
Q 41.65625 56 45.828125 52.96875 
Q 50 49.953125 52 44.1875 
" id="BitstreamVeraSans-Roman-6d"/>
      <path d="M 44.28125 53.078125 
L 44.28125 44.578125 
Q 40.484375 46.53125 36.375 47.5 
Q 32.28125 48.484375 27.875 48.484375 
Q 21.1875 48.484375 17.84375 46.4375 
Q 14.5 44.390625 14.5 40.28125 
Q 14.5 37.15625 16.890625 35.375 
Q 19.28125 33.59375 26.515625 31.984375 
L 29.59375 31.296875 
Q 39.15625 29.25 43.1875 25.515625 
Q 47.21875 21.78125 47.21875 15.09375 
Q 47.21875 7.46875 41.1875 3.015625 
Q 35.15625 -1.421875 24.609375 -1.421875 
Q 20.21875 -1.421875 15.453125 -0.5625 
Q 10.6875 0.296875 5.421875 2 
L 5.421875 11.28125 
Q 10.40625 8.6875 15.234375 7.390625 
Q 20.0625 6.109375 24.8125 6.109375 
Q 31.15625 6.109375 34.5625 8.28125 
Q 37.984375 10.453125 37.984375 14.40625 
Q 37.984375 18.0625 35.515625 20.015625 
Q 33.0625 21.96875 24.703125 23.78125 
L 21.578125 24.515625 
Q 13.234375 26.265625 9.515625 29.90625 
Q 5.8125 33.546875 5.8125 39.890625 
Q 5.8125 47.609375 11.28125 51.796875 
Q 16.75 56 26.8125 56 
Q 31.78125 56 36.171875 55.265625 
Q 40.578125 54.546875 44.28125 53.078125 
" id="BitstreamVeraSans-Roman-73"/>
      <path d="M 9.8125 72.90625 
L 19.671875 72.90625 
L 19.671875 8.296875 
L 55.171875 8.296875 
L 55.171875 0 
L 9.8125 0 
z
" id="BitstreamVeraSans-Roman-4c"/>
     </defs>
     <g transform="translate(14.7984375 180.0853125)rotate(-90.0)scale(0.1 -0.1)">
      <use xlink:href="#BitstreamVeraSans-Roman-4c"/>
      <use x="55.712890625" xlink:href="#BitstreamVeraSans-Roman-32"/>
      <use x="119.3359375" xlink:href="#BitstreamVeraSans-Roman-20"/>
      <use x="151.123046875" xlink:href="#BitstreamVeraSans-Roman-63"/>
      <use x="206.103515625" xlink:href="#BitstreamVeraSans-Roman-61"/>
      <use x="267.3828125" xlink:href="#BitstreamVeraSans-Roman-63"/>
      <use x="322.36328125" xlink:href="#BitstreamVeraSans-Roman-68"/>
      <use x="385.7421875" xlink:href="#BitstreamVeraSans-Roman-65"/>
      <use x="447.265625" xlink:href="#BitstreamVeraSans-Roman-20"/>
      <use x="479.052734375" xlink:href="#BitstreamVeraSans-Roman-6d"/>
      <use x="576.46484375" xlink:href="#BitstreamVeraSans-Roman-69"/>
      <use x="604.248046875" xlink:href="#BitstreamVeraSans-Roman-73"/>
      <use x="656.34765625" xlink:href="#BitstreamVeraSans-Roman-73"/>
      <use x="708.447265625" xlink:href="#BitstreamVeraSans-Roman-20"/>
      <use x="740.234375" xlink:href="#BitstreamVeraSans-Roman-72"/>
      <use x="781.34765625" xlink:href="#BitstreamVeraSans-Roman-61"/>
      <use x="842.626953125" xlink:href="#BitstreamVeraSans-Roman-74"/>
      <use x="881.8359375" xlink:href="#BitstreamVeraSans-Roman-65"/>
     </g>
    </g>
   </g>
   <g id="text_19">
    <!-- datove vypadky L2 cache -->
    <defs>
     <path d="M 32.171875 -5.078125 
Q 28.375 -14.84375 24.75 -17.8125 
Q 21.140625 -20.796875 15.09375 -20.796875 
L 7.90625 -20.796875 
L 7.90625 -13.28125 
L 13.1875 -13.28125 
Q 16.890625 -13.28125 18.9375 -11.515625 
Q 21 -9.765625 23.484375 -3.21875 
L 25.09375 0.875 
L 2.984375 54.6875 
L 12.5 54.6875 
L 29.59375 11.921875 
L 46.6875 54.6875 
L 56.203125 54.6875 
z
" id="BitstreamVeraSans-Roman-79"/>
     <path d="M 9.078125 75.984375 
L 18.109375 75.984375 
L 18.109375 31.109375 
L 44.921875 54.6875 
L 56.390625 54.6875 
L 27.390625 29.109375 
L 57.625 0 
L 45.90625 0 
L 18.109375 26.703125 
L 18.109375 0 
L 9.078125 0 
z
" id="BitstreamVeraSans-Roman-6b"/>
     <path d="M 45.40625 46.390625 
L 45.40625 75.984375 
L 54.390625 75.984375 
L 54.390625 0 
L 45.40625 0 
L 45.40625 8.203125 
Q 42.578125 3.328125 38.25 0.953125 
Q 33.9375 -1.421875 27.875 -1.421875 
Q 17.96875 -1.421875 11.734375 6.484375 
Q 5.515625 14.40625 5.515625 27.296875 
Q 5.515625 40.1875 11.734375 48.09375 
Q 17.96875 56 27.875 56 
Q 33.9375 56 38.25 53.625 
Q 42.578125 51.265625 45.40625 46.390625 
M 14.796875 27.296875 
Q 14.796875 17.390625 18.875 11.75 
Q 22.953125 6.109375 30.078125 6.109375 
Q 37.203125 6.109375 41.296875 11.75 
Q 45.40625 17.390625 45.40625 27.296875 
Q 45.40625 37.203125 41.296875 42.84375 
Q 37.203125 48.484375 30.078125 48.484375 
Q 22.953125 48.484375 18.875 42.84375 
Q 14.796875 37.203125 14.796875 27.296875 
" id="BitstreamVeraSans-Roman-64"/>
     <path d="M 2.984375 54.6875 
L 12.5 54.6875 
L 29.59375 8.796875 
L 46.6875 54.6875 
L 56.203125 54.6875 
L 35.6875 0 
L 23.484375 0 
z
" id="BitstreamVeraSans-Roman-76"/>
    </defs>
    <g transform="translate(138.7203125 16.318125)scale(0.12 -0.12)">
     <use xlink:href="#BitstreamVeraSans-Roman-64"/>
     <use x="63.4765625" xlink:href="#BitstreamVeraSans-Roman-61"/>
     <use x="124.755859375" xlink:href="#BitstreamVeraSans-Roman-74"/>
     <use x="163.96484375" xlink:href="#BitstreamVeraSans-Roman-6f"/>
     <use x="225.146484375" xlink:href="#BitstreamVeraSans-Roman-76"/>
     <use x="284.326171875" xlink:href="#BitstreamVeraSans-Roman-65"/>
     <use x="345.849609375" xlink:href="#BitstreamVeraSans-Roman-20"/>
     <use x="377.63671875" xlink:href="#BitstreamVeraSans-Roman-76"/>
     <use x="436.81640625" xlink:href="#BitstreamVeraSans-Roman-79"/>
     <use x="495.99609375" xlink:href="#BitstreamVeraSans-Roman-70"/>
     <use x="559.47265625" xlink:href="#BitstreamVeraSans-Roman-61"/>
     <use x="620.751953125" xlink:href="#BitstreamVeraSans-Roman-64"/>
     <use x="684.228515625" xlink:href="#BitstreamVeraSans-Roman-6b"/>
     <use x="742.091796875" xlink:href="#BitstreamVeraSans-Roman-79"/>
     <use x="801.271484375" xlink:href="#BitstreamVeraSans-Roman-20"/>
     <use x="833.05859375" xlink:href="#BitstreamVeraSans-Roman-4c"/>
     <use x="888.771484375" xlink:href="#BitstreamVeraSans-Roman-32"/>
     <use x="952.39453125" xlink:href="#BitstreamVeraSans-Roman-20"/>
     <use x="984.181640625" xlink:href="#BitstreamVeraSans-Roman-63"/>
     <use x="1039.162109375" xlink:href="#BitstreamVeraSans-Roman-61"/>
     <use x="1100.44140625" xlink:href="#BitstreamVeraSans-Roman-63"/>
     <use x="1155.421875" xlink:href="#BitstreamVeraSans-Roman-68"/>
     <use x="1218.80078125" xlink:href="#BitstreamVeraSans-Roman-65"/>
    </g>
   </g>
   <g id="legend_1">
    <g id="patch_7">
     <path d="M 270.385625 178.7525 
L 376.94375 178.7525 
L 376.94375 87.08375 
L 270.385625 87.08375 
z
" style="fill:#ffffff;stroke:#000000;stroke-linejoin:miter;"/>
    </g>
    <g id="line2d_51">
     <path d="M 278.785625 96.801875 
L 295.585625 96.801875 
" style="fill:none;stroke:#0000ff;stroke-linecap:square;"/>
    </g>
    <g id="line2d_52">
     <g>
      <use style="fill:#0000ff;stroke:#0000ff;stroke-width:0.5;" x="278.785625" xlink:href="#ma677c84670" y="96.801875"/>
      <use style="fill:#0000ff;stroke:#0000ff;stroke-width:0.5;" x="295.585625" xlink:href="#ma677c84670" y="96.801875"/>
     </g>
    </g>
    <g id="text_20">
     <!-- BF = 8 -->
     <defs>
      <path d="M 19.671875 34.8125 
L 19.671875 8.109375 
L 35.5 8.109375 
Q 43.453125 8.109375 47.28125 11.40625 
Q 51.125 14.703125 51.125 21.484375 
Q 51.125 28.328125 47.28125 31.5625 
Q 43.453125 34.8125 35.5 34.8125 
z
M 19.671875 64.796875 
L 19.671875 42.828125 
L 34.28125 42.828125 
Q 41.5 42.828125 45.03125 45.53125 
Q 48.578125 48.25 48.578125 53.8125 
Q 48.578125 59.328125 45.03125 62.0625 
Q 41.5 64.796875 34.28125 64.796875 
z
M 9.8125 72.90625 
L 35.015625 72.90625 
Q 46.296875 72.90625 52.390625 68.21875 
Q 58.5 63.53125 58.5 54.890625 
Q 58.5 48.1875 55.375 44.234375 
Q 52.25 40.28125 46.1875 39.3125 
Q 53.46875 37.75 57.5 32.78125 
Q 61.53125 27.828125 61.53125 20.40625 
Q 61.53125 10.640625 54.890625 5.3125 
Q 48.25 0 35.984375 0 
L 9.8125 0 
z
" id="BitstreamVeraSans-Roman-42"/>
      <path d="M 9.8125 72.90625 
L 51.703125 72.90625 
L 51.703125 64.59375 
L 19.671875 64.59375 
L 19.671875 43.109375 
L 48.578125 43.109375 
L 48.578125 34.8125 
L 19.671875 34.8125 
L 19.671875 0 
L 9.8125 0 
z
" id="BitstreamVeraSans-Roman-46"/>
      <path d="M 10.59375 45.40625 
L 73.1875 45.40625 
L 73.1875 37.203125 
L 10.59375 37.203125 
z
M 10.59375 25.484375 
L 73.1875 25.484375 
L 73.1875 17.1875 
L 10.59375 17.1875 
z
" id="BitstreamVeraSans-Roman-3d"/>
     </defs>
     <g transform="translate(308.785625 101.001875)scale(0.12 -0.12)">
      <use xlink:href="#BitstreamVeraSans-Roman-42"/>
      <use x="68.603515625" xlink:href="#BitstreamVeraSans-Roman-46"/>
      <use x="126.123046875" xlink:href="#BitstreamVeraSans-Roman-20"/>
      <use x="157.91015625" xlink:href="#BitstreamVeraSans-Roman-3d"/>
      <use x="241.69921875" xlink:href="#BitstreamVeraSans-Roman-20"/>
      <use x="273.486328125" xlink:href="#BitstreamVeraSans-Roman-38"/>
     </g>
    </g>
    <g id="line2d_53">
     <path d="M 278.785625 114.415625 
L 295.585625 114.415625 
" style="fill:none;stroke:#008000;stroke-linecap:square;"/>
    </g>
    <g id="line2d_54">
     <g>
      <use style="fill:#008000;stroke:#008000;stroke-width:0.5;" x="278.785625" xlink:href="#ma5664bac95" y="114.415625"/>
      <use style="fill:#008000;stroke:#008000;stroke-width:0.5;" x="295.585625" xlink:href="#ma5664bac95" y="114.415625"/>
     </g>
    </g>
    <g id="text_21">
     <!-- BF = 16 -->
     <defs>
      <path d="M 33.015625 40.375 
Q 26.375 40.375 22.484375 35.828125 
Q 18.609375 31.296875 18.609375 23.390625 
Q 18.609375 15.53125 22.484375 10.953125 
Q 26.375 6.390625 33.015625 6.390625 
Q 39.65625 6.390625 43.53125 10.953125 
Q 47.40625 15.53125 47.40625 23.390625 
Q 47.40625 31.296875 43.53125 35.828125 
Q 39.65625 40.375 33.015625 40.375 
M 52.59375 71.296875 
L 52.59375 62.3125 
Q 48.875 64.0625 45.09375 64.984375 
Q 41.3125 65.921875 37.59375 65.921875 
Q 27.828125 65.921875 22.671875 59.328125 
Q 17.53125 52.734375 16.796875 39.40625 
Q 19.671875 43.65625 24.015625 45.921875 
Q 28.375 48.1875 33.59375 48.1875 
Q 44.578125 48.1875 50.953125 41.515625 
Q 57.328125 34.859375 57.328125 23.390625 
Q 57.328125 12.15625 50.6875 5.359375 
Q 44.046875 -1.421875 33.015625 -1.421875 
Q 20.359375 -1.421875 13.671875 8.265625 
Q 6.984375 17.96875 6.984375 36.375 
Q 6.984375 53.65625 15.1875 63.9375 
Q 23.390625 74.21875 37.203125 74.21875 
Q 40.921875 74.21875 44.703125 73.484375 
Q 48.484375 72.75 52.59375 71.296875 
" id="BitstreamVeraSans-Roman-36"/>
     </defs>
     <g transform="translate(308.785625 118.615625)scale(0.12 -0.12)">
      <use xlink:href="#BitstreamVeraSans-Roman-42"/>
      <use x="68.603515625" xlink:href="#BitstreamVeraSans-Roman-46"/>
      <use x="126.123046875" xlink:href="#BitstreamVeraSans-Roman-20"/>
      <use x="157.91015625" xlink:href="#BitstreamVeraSans-Roman-3d"/>
      <use x="241.69921875" xlink:href="#BitstreamVeraSans-Roman-20"/>
      <use x="273.486328125" xlink:href="#BitstreamVeraSans-Roman-31"/>
      <use x="337.109375" xlink:href="#BitstreamVeraSans-Roman-36"/>
     </g>
    </g>
    <g id="line2d_55">
     <path d="M 278.785625 132.029375 
L 295.585625 132.029375 
" style="fill:none;stroke:#ff0000;stroke-linecap:square;"/>
    </g>
    <g id="line2d_56">
     <g>
      <use style="fill:#ff0000;stroke:#ff0000;stroke-width:0.5;" x="278.785625" xlink:href="#mb1d4c7b28c" y="132.029375"/>
      <use style="fill:#ff0000;stroke:#ff0000;stroke-width:0.5;" x="295.585625" xlink:href="#mb1d4c7b28c" y="132.029375"/>
     </g>
    </g>
    <g id="text_22">
     <!-- BF = 32 -->
     <g transform="translate(308.785625 136.229375)scale(0.12 -0.12)">
      <use xlink:href="#BitstreamVeraSans-Roman-42"/>
      <use x="68.603515625" xlink:href="#BitstreamVeraSans-Roman-46"/>
      <use x="126.123046875" xlink:href="#BitstreamVeraSans-Roman-20"/>
      <use x="157.91015625" xlink:href="#BitstreamVeraSans-Roman-3d"/>
      <use x="241.69921875" xlink:href="#BitstreamVeraSans-Roman-20"/>
      <use x="273.486328125" xlink:href="#BitstreamVeraSans-Roman-33"/>
      <use x="337.109375" xlink:href="#BitstreamVeraSans-Roman-32"/>
     </g>
    </g>
    <g id="line2d_57">
     <path d="M 278.785625 149.643125 
L 295.585625 149.643125 
" style="fill:none;stroke:#00bfbf;stroke-linecap:square;"/>
    </g>
    <g id="line2d_58">
     <g>
      <use style="fill:#00bfbf;stroke:#00bfbf;stroke-width:0.5;" x="278.785625" xlink:href="#m7d03b2ba3b" y="149.643125"/>
      <use style="fill:#00bfbf;stroke:#00bfbf;stroke-width:0.5;" x="295.585625" xlink:href="#m7d03b2ba3b" y="149.643125"/>
     </g>
    </g>
    <g id="text_23">
     <!-- BF = 512 -->
     <g transform="translate(308.785625 153.843125)scale(0.12 -0.12)">
      <use xlink:href="#BitstreamVeraSans-Roman-42"/>
      <use x="68.603515625" xlink:href="#BitstreamVeraSans-Roman-46"/>
      <use x="126.123046875" xlink:href="#BitstreamVeraSans-Roman-20"/>
      <use x="157.91015625" xlink:href="#BitstreamVeraSans-Roman-3d"/>
      <use x="241.69921875" xlink:href="#BitstreamVeraSans-Roman-20"/>
      <use x="273.486328125" xlink:href="#BitstreamVeraSans-Roman-35"/>
      <use x="337.109375" xlink:href="#BitstreamVeraSans-Roman-31"/>
      <use x="400.732421875" xlink:href="#BitstreamVeraSans-Roman-32"/>
     </g>
    </g>
    <g id="line2d_59">
     <path d="M 278.785625 167.256875 
L 295.585625 167.256875 
" style="fill:none;stroke:#bf00bf;stroke-linecap:square;"/>
    </g>
    <g id="line2d_60">
     <g>
      <use style="fill:#bf00bf;stroke:#bf00bf;stroke-width:0.5;" x="278.785625" xlink:href="#md7ca05594a" y="167.256875"/>
      <use style="fill:#bf00bf;stroke:#bf00bf;stroke-width:0.5;" x="295.585625" xlink:href="#md7ca05594a" y="167.256875"/>
     </g>
    </g>
    <g id="text_24">
     <!-- BF = 1186 -->
     <g transform="translate(308.785625 171.456875)scale(0.12 -0.12)">
      <use xlink:href="#BitstreamVeraSans-Roman-42"/>
      <use x="68.603515625" xlink:href="#BitstreamVeraSans-Roman-46"/>
      <use x="126.123046875" xlink:href="#BitstreamVeraSans-Roman-20"/>
      <use x="157.91015625" xlink:href="#BitstreamVeraSans-Roman-3d"/>
      <use x="241.69921875" xlink:href="#BitstreamVeraSans-Roman-20"/>
      <use x="273.486328125" xlink:href="#BitstreamVeraSans-Roman-31"/>
      <use x="337.109375" xlink:href="#BitstreamVeraSans-Roman-31"/>
      <use x="400.732421875" xlink:href="#BitstreamVeraSans-Roman-38"/>
      <use x="464.35546875" xlink:href="#BitstreamVeraSans-Roman-36"/>
     </g>
    </g>
   </g>
  </g>
 </g>
 <defs>
  <clipPath id="p525ec8fe8f">
   <rect height="223.2" width="334.8" x="48.14375" y="21.318125"/>
  </clipPath>
 </defs>
</svg>
