<?xml version="1.0" encoding="utf-8" standalone="no"?>
<!DOCTYPE svg PUBLIC "-//W3C//DTD SVG 1.1//EN"
  "http://www.w3.org/Graphics/SVG/1.1/DTD/svg11.dtd">
<!-- Created with matplotlib (http://matplotlib.org/) -->
<svg height="280pt" version="1.1" viewBox="0 0 398 280" width="398pt" xmlns="http://www.w3.org/2000/svg" xmlns:xlink="http://www.w3.org/1999/xlink">
 <defs>
  <style type="text/css">
*{stroke-linecap:butt;stroke-linejoin:round;stroke-miterlimit:100000;}
  </style>
 </defs>
 <g id="figure_1">
  <g id="patch_1">
   <path d="M 0 280.074375 
L 398.095312 280.074375 
L 398.095312 0 
L 0 0 
z
" style="fill:#ffffff;"/>
  </g>
  <g id="axes_1">
   <g id="patch_2">
    <path d="M 48.14375 244.518125 
L 382.94375 244.518125 
L 382.94375 21.318125 
L 48.14375 21.318125 
z
" style="fill:#ffffff;"/>
   </g>
   <g id="line2d_1">
    <path clip-path="url(#p31f9973589)" d="M 61.53575 205.729685 
L 74.92775 205.862675 
L 88.31975 205.626145 
L 101.71175 205.565912 
L 115.10375 204.615247 
L 128.49575 210.200567 
L 141.88775 208.510491 
L 155.27975 205.067246 
L 168.67175 205.535377 
L 182.06375 205.458199 
L 195.45575 204.65004 
L 208.84775 205.773488 
L 222.23975 203.731072 
L 235.63175 205.333319 
L 249.02375 204.948212 
L 262.41575 205.188076 
L 275.80775 208.017135 
L 289.19975 205.230254 
L 302.59175 205.716215 
L 315.98375 205.016505 
L 329.37575 204.645712 
L 342.76775 205.641927 
L 356.15975 205.198032 
L 369.55175 208.187164 
L 382.94375 204.797914 
" style="fill:none;stroke:#0000ff;stroke-linecap:square;"/>
    <defs>
     <path d="M 0 1.5 
C 0.397805 1.5 0.77937 1.341951 1.06066 1.06066 
C 1.341951 0.77937 1.5 0.397805 1.5 0 
C 1.5 -0.397805 1.341951 -0.77937 1.06066 -1.06066 
C 0.77937 -1.341951 0.397805 -1.5 0 -1.5 
C -0.397805 -1.5 -0.77937 -1.341951 -1.06066 -1.06066 
C -1.341951 -0.77937 -1.5 -0.397805 -1.5 0 
C -1.5 0.397805 -1.341951 0.77937 -1.06066 1.06066 
C -0.77937 1.341951 -0.397805 1.5 0 1.5 
z
" id="m99419805fa" style="stroke:#0000ff;stroke-width:0.5;"/>
    </defs>
    <g clip-path="url(#p31f9973589)">
     <use style="fill:#0000ff;stroke:#0000ff;stroke-width:0.5;" x="61.53575" xlink:href="#m99419805fa" y="205.729685"/>
     <use style="fill:#0000ff;stroke:#0000ff;stroke-width:0.5;" x="74.92775" xlink:href="#m99419805fa" y="205.862675"/>
     <use style="fill:#0000ff;stroke:#0000ff;stroke-width:0.5;" x="88.31975" xlink:href="#m99419805fa" y="205.626145"/>
     <use style="fill:#0000ff;stroke:#0000ff;stroke-width:0.5;" x="101.71175" xlink:href="#m99419805fa" y="205.565912"/>
     <use style="fill:#0000ff;stroke:#0000ff;stroke-width:0.5;" x="115.10375" xlink:href="#m99419805fa" y="204.6152474"/>
     <use style="fill:#0000ff;stroke:#0000ff;stroke-width:0.5;" x="128.49575" xlink:href="#m99419805fa" y="210.200567"/>
     <use style="fill:#0000ff;stroke:#0000ff;stroke-width:0.5;" x="141.88775" xlink:href="#m99419805fa" y="208.510491286"/>
     <use style="fill:#0000ff;stroke:#0000ff;stroke-width:0.5;" x="155.27975" xlink:href="#m99419805fa" y="205.067246"/>
     <use style="fill:#0000ff;stroke:#0000ff;stroke-width:0.5;" x="168.67175" xlink:href="#m99419805fa" y="205.535377"/>
     <use style="fill:#0000ff;stroke:#0000ff;stroke-width:0.5;" x="182.06375" xlink:href="#m99419805fa" y="205.4581994"/>
     <use style="fill:#0000ff;stroke:#0000ff;stroke-width:0.5;" x="195.45575" xlink:href="#m99419805fa" y="204.650039545"/>
     <use style="fill:#0000ff;stroke:#0000ff;stroke-width:0.5;" x="208.84775" xlink:href="#m99419805fa" y="205.773488"/>
     <use style="fill:#0000ff;stroke:#0000ff;stroke-width:0.5;" x="222.23975" xlink:href="#m99419805fa" y="203.731072077"/>
     <use style="fill:#0000ff;stroke:#0000ff;stroke-width:0.5;" x="235.63175" xlink:href="#m99419805fa" y="205.333319"/>
     <use style="fill:#0000ff;stroke:#0000ff;stroke-width:0.5;" x="249.02375" xlink:href="#m99419805fa" y="204.9482122"/>
     <use style="fill:#0000ff;stroke:#0000ff;stroke-width:0.5;" x="262.41575" xlink:href="#m99419805fa" y="205.18807625"/>
     <use style="fill:#0000ff;stroke:#0000ff;stroke-width:0.5;" x="275.80775" xlink:href="#m99419805fa" y="208.017134882"/>
     <use style="fill:#0000ff;stroke:#0000ff;stroke-width:0.5;" x="289.19975" xlink:href="#m99419805fa" y="205.230254333"/>
     <use style="fill:#0000ff;stroke:#0000ff;stroke-width:0.5;" x="302.59175" xlink:href="#m99419805fa" y="205.716214684"/>
     <use style="fill:#0000ff;stroke:#0000ff;stroke-width:0.5;" x="315.98375" xlink:href="#m99419805fa" y="205.0165052"/>
     <use style="fill:#0000ff;stroke:#0000ff;stroke-width:0.5;" x="329.37575" xlink:href="#m99419805fa" y="204.645712429"/>
     <use style="fill:#0000ff;stroke:#0000ff;stroke-width:0.5;" x="342.76775" xlink:href="#m99419805fa" y="205.641926818"/>
     <use style="fill:#0000ff;stroke:#0000ff;stroke-width:0.5;" x="356.15975" xlink:href="#m99419805fa" y="205.198032304"/>
     <use style="fill:#0000ff;stroke:#0000ff;stroke-width:0.5;" x="369.55175" xlink:href="#m99419805fa" y="208.1871635"/>
     <use style="fill:#0000ff;stroke:#0000ff;stroke-width:0.5;" x="382.94375" xlink:href="#m99419805fa" y="204.79791428"/>
    </g>
   </g>
   <g id="line2d_2">
    <path clip-path="url(#p31f9973589)" d="M 61.53575 211.611005 
L 74.92775 209.145203 
L 88.31975 213.526557 
L 101.71175 213.028418 
L 115.10375 211.712487 
L 128.49575 207.726705 
L 141.88775 213.011266 
L 155.27975 212.882594 
L 168.67175 212.924 
L 182.06375 213.189996 
L 195.45575 207.655022 
L 208.84775 211.825277 
L 222.23975 212.993557 
L 235.63175 212.956662 
L 249.02375 211.886359 
L 262.41575 213.019165 
L 275.80775 212.79751 
L 289.19975 211.992677 
L 302.59175 213.003714 
L 315.98375 213.097796 
L 329.37575 213.211987 
L 342.76775 212.684563 
L 356.15975 212.075002 
L 369.55175 212.94616 
L 382.94375 213.421722 
" style="fill:none;stroke:#008000;stroke-linecap:square;"/>
    <defs>
     <path d="M 0 1.5 
C 0.397805 1.5 0.77937 1.341951 1.06066 1.06066 
C 1.341951 0.77937 1.5 0.397805 1.5 0 
C 1.5 -0.397805 1.341951 -0.77937 1.06066 -1.06066 
C 0.77937 -1.341951 0.397805 -1.5 0 -1.5 
C -0.397805 -1.5 -0.77937 -1.341951 -1.06066 -1.06066 
C -1.341951 -0.77937 -1.5 -0.397805 -1.5 0 
C -1.5 0.397805 -1.341951 0.77937 -1.06066 1.06066 
C -0.77937 1.341951 -0.397805 1.5 0 1.5 
z
" id="md179dde5ba" style="stroke:#008000;stroke-width:0.5;"/>
    </defs>
    <g clip-path="url(#p31f9973589)">
     <use style="fill:#008000;stroke:#008000;stroke-width:0.5;" x="61.53575" xlink:href="#md179dde5ba" y="211.611005"/>
     <use style="fill:#008000;stroke:#008000;stroke-width:0.5;" x="74.92775" xlink:href="#md179dde5ba" y="209.145203"/>
     <use style="fill:#008000;stroke:#008000;stroke-width:0.5;" x="88.31975" xlink:href="#md179dde5ba" y="213.526557"/>
     <use style="fill:#008000;stroke:#008000;stroke-width:0.5;" x="101.71175" xlink:href="#md179dde5ba" y="213.028418"/>
     <use style="fill:#008000;stroke:#008000;stroke-width:0.5;" x="115.10375" xlink:href="#md179dde5ba" y="211.7124866"/>
     <use style="fill:#008000;stroke:#008000;stroke-width:0.5;" x="128.49575" xlink:href="#md179dde5ba" y="207.726705"/>
     <use style="fill:#008000;stroke:#008000;stroke-width:0.5;" x="141.88775" xlink:href="#md179dde5ba" y="213.011266143"/>
     <use style="fill:#008000;stroke:#008000;stroke-width:0.5;" x="155.27975" xlink:href="#md179dde5ba" y="212.882594"/>
     <use style="fill:#008000;stroke:#008000;stroke-width:0.5;" x="168.67175" xlink:href="#md179dde5ba" y="212.923999667"/>
     <use style="fill:#008000;stroke:#008000;stroke-width:0.5;" x="182.06375" xlink:href="#md179dde5ba" y="213.1899962"/>
     <use style="fill:#008000;stroke:#008000;stroke-width:0.5;" x="195.45575" xlink:href="#md179dde5ba" y="207.655021727"/>
     <use style="fill:#008000;stroke:#008000;stroke-width:0.5;" x="208.84775" xlink:href="#md179dde5ba" y="211.825277"/>
     <use style="fill:#008000;stroke:#008000;stroke-width:0.5;" x="222.23975" xlink:href="#md179dde5ba" y="212.993557308"/>
     <use style="fill:#008000;stroke:#008000;stroke-width:0.5;" x="235.63175" xlink:href="#md179dde5ba" y="212.956661857"/>
     <use style="fill:#008000;stroke:#008000;stroke-width:0.5;" x="249.02375" xlink:href="#md179dde5ba" y="211.8863594"/>
     <use style="fill:#008000;stroke:#008000;stroke-width:0.5;" x="262.41575" xlink:href="#md179dde5ba" y="213.0191645"/>
     <use style="fill:#008000;stroke:#008000;stroke-width:0.5;" x="275.80775" xlink:href="#md179dde5ba" y="212.797509941"/>
     <use style="fill:#008000;stroke:#008000;stroke-width:0.5;" x="289.19975" xlink:href="#md179dde5ba" y="211.992677"/>
     <use style="fill:#008000;stroke:#008000;stroke-width:0.5;" x="302.59175" xlink:href="#md179dde5ba" y="213.003714263"/>
     <use style="fill:#008000;stroke:#008000;stroke-width:0.5;" x="315.98375" xlink:href="#md179dde5ba" y="213.097796"/>
     <use style="fill:#008000;stroke:#008000;stroke-width:0.5;" x="329.37575" xlink:href="#md179dde5ba" y="213.211986714"/>
     <use style="fill:#008000;stroke:#008000;stroke-width:0.5;" x="342.76775" xlink:href="#md179dde5ba" y="212.684563182"/>
     <use style="fill:#008000;stroke:#008000;stroke-width:0.5;" x="356.15975" xlink:href="#md179dde5ba" y="212.075002217"/>
     <use style="fill:#008000;stroke:#008000;stroke-width:0.5;" x="369.55175" xlink:href="#md179dde5ba" y="212.9461595"/>
     <use style="fill:#008000;stroke:#008000;stroke-width:0.5;" x="382.94375" xlink:href="#md179dde5ba" y="213.42172244"/>
    </g>
   </g>
   <g id="line2d_3">
    <path clip-path="url(#p31f9973589)" d="M 61.53575 199.451069 
L 74.92775 200.403761 
L 88.31975 199.428997 
L 101.71175 199.815722 
L 115.10375 199.777164 
L 128.49575 199.741105 
L 141.88775 207.379399 
L 155.27975 199.734905 
L 168.67175 199.61045 
L 182.06375 199.835159 
L 195.45575 199.884956 
L 208.84775 199.961887 
L 222.23975 199.659561 
L 235.63175 199.69643 
L 249.02375 199.409554 
L 262.41575 199.570853 
L 275.80775 196.028078 
L 289.19975 199.709361 
L 302.59175 199.723686 
L 315.98375 199.831346 
L 329.37575 199.645147 
L 342.76775 200.412317 
L 356.15975 199.898262 
L 369.55175 206.965733 
L 382.94375 199.726989 
" style="fill:none;stroke:#ff0000;stroke-linecap:square;"/>
    <defs>
     <path d="M 0 1.5 
C 0.397805 1.5 0.77937 1.341951 1.06066 1.06066 
C 1.341951 0.77937 1.5 0.397805 1.5 0 
C 1.5 -0.397805 1.341951 -0.77937 1.06066 -1.06066 
C 0.77937 -1.341951 0.397805 -1.5 0 -1.5 
C -0.397805 -1.5 -0.77937 -1.341951 -1.06066 -1.06066 
C -1.341951 -0.77937 -1.5 -0.397805 -1.5 0 
C -1.5 0.397805 -1.341951 0.77937 -1.06066 1.06066 
C -0.77937 1.341951 -0.397805 1.5 0 1.5 
z
" id="m021e7ee715" style="stroke:#ff0000;stroke-width:0.5;"/>
    </defs>
    <g clip-path="url(#p31f9973589)">
     <use style="fill:#ff0000;stroke:#ff0000;stroke-width:0.5;" x="61.53575" xlink:href="#m021e7ee715" y="199.451069"/>
     <use style="fill:#ff0000;stroke:#ff0000;stroke-width:0.5;" x="74.92775" xlink:href="#m021e7ee715" y="200.403761"/>
     <use style="fill:#ff0000;stroke:#ff0000;stroke-width:0.5;" x="88.31975" xlink:href="#m021e7ee715" y="199.428997"/>
     <use style="fill:#ff0000;stroke:#ff0000;stroke-width:0.5;" x="101.71175" xlink:href="#m021e7ee715" y="199.815722"/>
     <use style="fill:#ff0000;stroke:#ff0000;stroke-width:0.5;" x="115.10375" xlink:href="#m021e7ee715" y="199.7771642"/>
     <use style="fill:#ff0000;stroke:#ff0000;stroke-width:0.5;" x="128.49575" xlink:href="#m021e7ee715" y="199.741105"/>
     <use style="fill:#ff0000;stroke:#ff0000;stroke-width:0.5;" x="141.88775" xlink:href="#m021e7ee715" y="207.379398714"/>
     <use style="fill:#ff0000;stroke:#ff0000;stroke-width:0.5;" x="155.27975" xlink:href="#m021e7ee715" y="199.734905"/>
     <use style="fill:#ff0000;stroke:#ff0000;stroke-width:0.5;" x="168.67175" xlink:href="#m021e7ee715" y="199.610450333"/>
     <use style="fill:#ff0000;stroke:#ff0000;stroke-width:0.5;" x="182.06375" xlink:href="#m021e7ee715" y="199.835159"/>
     <use style="fill:#ff0000;stroke:#ff0000;stroke-width:0.5;" x="195.45575" xlink:href="#m021e7ee715" y="199.884956273"/>
     <use style="fill:#ff0000;stroke:#ff0000;stroke-width:0.5;" x="208.84775" xlink:href="#m021e7ee715" y="199.961887"/>
     <use style="fill:#ff0000;stroke:#ff0000;stroke-width:0.5;" x="222.23975" xlink:href="#m021e7ee715" y="199.659560692"/>
     <use style="fill:#ff0000;stroke:#ff0000;stroke-width:0.5;" x="235.63175" xlink:href="#m021e7ee715" y="199.696429571"/>
     <use style="fill:#ff0000;stroke:#ff0000;stroke-width:0.5;" x="249.02375" xlink:href="#m021e7ee715" y="199.4095538"/>
     <use style="fill:#ff0000;stroke:#ff0000;stroke-width:0.5;" x="262.41575" xlink:href="#m021e7ee715" y="199.570853"/>
     <use style="fill:#ff0000;stroke:#ff0000;stroke-width:0.5;" x="275.80775" xlink:href="#m021e7ee715" y="196.028078176"/>
     <use style="fill:#ff0000;stroke:#ff0000;stroke-width:0.5;" x="289.19975" xlink:href="#m021e7ee715" y="199.709361"/>
     <use style="fill:#ff0000;stroke:#ff0000;stroke-width:0.5;" x="302.59175" xlink:href="#m021e7ee715" y="199.723686263"/>
     <use style="fill:#ff0000;stroke:#ff0000;stroke-width:0.5;" x="315.98375" xlink:href="#m021e7ee715" y="199.831346"/>
     <use style="fill:#ff0000;stroke:#ff0000;stroke-width:0.5;" x="329.37575" xlink:href="#m021e7ee715" y="199.645146714"/>
     <use style="fill:#ff0000;stroke:#ff0000;stroke-width:0.5;" x="342.76775" xlink:href="#m021e7ee715" y="200.412317"/>
     <use style="fill:#ff0000;stroke:#ff0000;stroke-width:0.5;" x="356.15975" xlink:href="#m021e7ee715" y="199.898261522"/>
     <use style="fill:#ff0000;stroke:#ff0000;stroke-width:0.5;" x="369.55175" xlink:href="#m021e7ee715" y="206.9657325"/>
     <use style="fill:#ff0000;stroke:#ff0000;stroke-width:0.5;" x="382.94375" xlink:href="#m021e7ee715" y="199.72698884"/>
    </g>
   </g>
   <g id="line2d_4">
    <path clip-path="url(#p31f9973589)" d="M 61.53575 91.605293 
L 74.92775 96.941633 
L 88.31975 69.412021 
L 101.71175 76.257782 
L 115.10375 73.039368 
L 128.49575 72.439667 
L 141.88775 174.091138 
L 155.27975 66.281672 
L 168.67175 65.61634 
L 182.06375 66.911226 
L 195.45575 72.103396 
L 208.84775 96.627169 
L 222.23975 70.132251 
L 235.63175 51.12869 
L 249.02375 68.471159 
L 262.41575 68.460592 
L 275.80775 183.35511 
L 289.19975 61.977415 
L 302.59175 66.500481 
L 315.98375 60.97286 
L 329.37575 63.691494 
L 342.76775 95.730959 
L 356.15975 67.593324 
L 369.55175 189.980321 
L 382.94375 65.632313 
" style="fill:none;stroke:#00bfbf;stroke-linecap:square;"/>
    <defs>
     <path d="M 0 1.5 
C 0.397805 1.5 0.77937 1.341951 1.06066 1.06066 
C 1.341951 0.77937 1.5 0.397805 1.5 0 
C 1.5 -0.397805 1.341951 -0.77937 1.06066 -1.06066 
C 0.77937 -1.341951 0.397805 -1.5 0 -1.5 
C -0.397805 -1.5 -0.77937 -1.341951 -1.06066 -1.06066 
C -1.341951 -0.77937 -1.5 -0.397805 -1.5 0 
C -1.5 0.397805 -1.341951 0.77937 -1.06066 1.06066 
C -0.77937 1.341951 -0.397805 1.5 0 1.5 
z
" id="m485fc50e46" style="stroke:#00bfbf;stroke-width:0.5;"/>
    </defs>
    <g clip-path="url(#p31f9973589)">
     <use style="fill:#00bfbf;stroke:#00bfbf;stroke-width:0.5;" x="61.53575" xlink:href="#m485fc50e46" y="91.605293"/>
     <use style="fill:#00bfbf;stroke:#00bfbf;stroke-width:0.5;" x="74.92775" xlink:href="#m485fc50e46" y="96.941633"/>
     <use style="fill:#00bfbf;stroke:#00bfbf;stroke-width:0.5;" x="88.31975" xlink:href="#m485fc50e46" y="69.412021"/>
     <use style="fill:#00bfbf;stroke:#00bfbf;stroke-width:0.5;" x="101.71175" xlink:href="#m485fc50e46" y="76.257782"/>
     <use style="fill:#00bfbf;stroke:#00bfbf;stroke-width:0.5;" x="115.10375" xlink:href="#m485fc50e46" y="73.0393682"/>
     <use style="fill:#00bfbf;stroke:#00bfbf;stroke-width:0.5;" x="128.49575" xlink:href="#m485fc50e46" y="72.439667"/>
     <use style="fill:#00bfbf;stroke:#00bfbf;stroke-width:0.5;" x="141.88775" xlink:href="#m485fc50e46" y="174.091138143"/>
     <use style="fill:#00bfbf;stroke:#00bfbf;stroke-width:0.5;" x="155.27975" xlink:href="#m485fc50e46" y="66.281672"/>
     <use style="fill:#00bfbf;stroke:#00bfbf;stroke-width:0.5;" x="168.67175" xlink:href="#m485fc50e46" y="65.6163396667"/>
     <use style="fill:#00bfbf;stroke:#00bfbf;stroke-width:0.5;" x="182.06375" xlink:href="#m485fc50e46" y="66.9112262"/>
     <use style="fill:#00bfbf;stroke:#00bfbf;stroke-width:0.5;" x="195.45575" xlink:href="#m485fc50e46" y="72.1033959091"/>
     <use style="fill:#00bfbf;stroke:#00bfbf;stroke-width:0.5;" x="208.84775" xlink:href="#m485fc50e46" y="96.627169"/>
     <use style="fill:#00bfbf;stroke:#00bfbf;stroke-width:0.5;" x="222.23975" xlink:href="#m485fc50e46" y="70.1322511538"/>
     <use style="fill:#00bfbf;stroke:#00bfbf;stroke-width:0.5;" x="235.63175" xlink:href="#m485fc50e46" y="51.1286904286"/>
     <use style="fill:#00bfbf;stroke:#00bfbf;stroke-width:0.5;" x="249.02375" xlink:href="#m485fc50e46" y="68.4711586"/>
     <use style="fill:#00bfbf;stroke:#00bfbf;stroke-width:0.5;" x="262.41575" xlink:href="#m485fc50e46" y="68.46059225"/>
     <use style="fill:#00bfbf;stroke:#00bfbf;stroke-width:0.5;" x="275.80775" xlink:href="#m485fc50e46" y="183.355110412"/>
     <use style="fill:#00bfbf;stroke:#00bfbf;stroke-width:0.5;" x="289.19975" xlink:href="#m485fc50e46" y="61.977415"/>
     <use style="fill:#00bfbf;stroke:#00bfbf;stroke-width:0.5;" x="302.59175" xlink:href="#m485fc50e46" y="66.5004814211"/>
     <use style="fill:#00bfbf;stroke:#00bfbf;stroke-width:0.5;" x="315.98375" xlink:href="#m485fc50e46" y="60.97286"/>
     <use style="fill:#00bfbf;stroke:#00bfbf;stroke-width:0.5;" x="329.37575" xlink:href="#m485fc50e46" y="63.6914935714"/>
     <use style="fill:#00bfbf;stroke:#00bfbf;stroke-width:0.5;" x="342.76775" xlink:href="#m485fc50e46" y="95.730959"/>
     <use style="fill:#00bfbf;stroke:#00bfbf;stroke-width:0.5;" x="356.15975" xlink:href="#m485fc50e46" y="67.5933237826"/>
     <use style="fill:#00bfbf;stroke:#00bfbf;stroke-width:0.5;" x="369.55175" xlink:href="#m485fc50e46" y="189.980321"/>
     <use style="fill:#00bfbf;stroke:#00bfbf;stroke-width:0.5;" x="382.94375" xlink:href="#m485fc50e46" y="65.63231252"/>
    </g>
   </g>
   <g id="line2d_5">
    <path clip-path="url(#p31f9973589)" d="M 61.53575 90.142589 
L 74.92775 95.372723 
L 88.31975 80.579337 
L 101.71175 82.231544 
L 115.10375 83.265574 
L 128.49575 80.957661 
L 141.88775 110.543866 
L 155.27975 80.54936 
L 168.67175 68.219513 
L 182.06375 81.803093 
L 195.45575 68.247717 
L 208.84775 99.83911 
L 222.23975 69.068703 
L 235.63175 87.148122 
L 249.02375 84.898207 
L 262.41575 84.587257 
L 275.80775 171.607591 
L 289.19975 68.520502 
L 302.59175 71.315767 
L 315.98375 71.393715 
L 329.37575 71.879426 
L 342.76775 85.562068 
L 356.15975 69.161352 
L 369.55175 107.928901 
L 382.94375 72.979313 
" style="fill:none;stroke:#bf00bf;stroke-linecap:square;"/>
    <defs>
     <path d="M 0 1.5 
C 0.397805 1.5 0.77937 1.341951 1.06066 1.06066 
C 1.341951 0.77937 1.5 0.397805 1.5 0 
C 1.5 -0.397805 1.341951 -0.77937 1.06066 -1.06066 
C 0.77937 -1.341951 0.397805 -1.5 0 -1.5 
C -0.397805 -1.5 -0.77937 -1.341951 -1.06066 -1.06066 
C -1.341951 -0.77937 -1.5 -0.397805 -1.5 0 
C -1.5 0.397805 -1.341951 0.77937 -1.06066 1.06066 
C -0.77937 1.341951 -0.397805 1.5 0 1.5 
z
" id="m6ea887a89b" style="stroke:#bf00bf;stroke-width:0.5;"/>
    </defs>
    <g clip-path="url(#p31f9973589)">
     <use style="fill:#bf00bf;stroke:#bf00bf;stroke-width:0.5;" x="61.53575" xlink:href="#m6ea887a89b" y="90.142589"/>
     <use style="fill:#bf00bf;stroke:#bf00bf;stroke-width:0.5;" x="74.92775" xlink:href="#m6ea887a89b" y="95.372723"/>
     <use style="fill:#bf00bf;stroke:#bf00bf;stroke-width:0.5;" x="88.31975" xlink:href="#m6ea887a89b" y="80.579337"/>
     <use style="fill:#bf00bf;stroke:#bf00bf;stroke-width:0.5;" x="101.71175" xlink:href="#m6ea887a89b" y="82.231544"/>
     <use style="fill:#bf00bf;stroke:#bf00bf;stroke-width:0.5;" x="115.10375" xlink:href="#m6ea887a89b" y="83.2655738"/>
     <use style="fill:#bf00bf;stroke:#bf00bf;stroke-width:0.5;" x="128.49575" xlink:href="#m6ea887a89b" y="80.957661"/>
     <use style="fill:#bf00bf;stroke:#bf00bf;stroke-width:0.5;" x="141.88775" xlink:href="#m6ea887a89b" y="110.543866143"/>
     <use style="fill:#bf00bf;stroke:#bf00bf;stroke-width:0.5;" x="155.27975" xlink:href="#m6ea887a89b" y="80.54936"/>
     <use style="fill:#bf00bf;stroke:#bf00bf;stroke-width:0.5;" x="168.67175" xlink:href="#m6ea887a89b" y="68.219513"/>
     <use style="fill:#bf00bf;stroke:#bf00bf;stroke-width:0.5;" x="182.06375" xlink:href="#m6ea887a89b" y="81.803093"/>
     <use style="fill:#bf00bf;stroke:#bf00bf;stroke-width:0.5;" x="195.45575" xlink:href="#m6ea887a89b" y="68.2477173636"/>
     <use style="fill:#bf00bf;stroke:#bf00bf;stroke-width:0.5;" x="208.84775" xlink:href="#m6ea887a89b" y="99.83911"/>
     <use style="fill:#bf00bf;stroke:#bf00bf;stroke-width:0.5;" x="222.23975" xlink:href="#m6ea887a89b" y="69.0687031538"/>
     <use style="fill:#bf00bf;stroke:#bf00bf;stroke-width:0.5;" x="235.63175" xlink:href="#m6ea887a89b" y="87.1481218571"/>
     <use style="fill:#bf00bf;stroke:#bf00bf;stroke-width:0.5;" x="249.02375" xlink:href="#m6ea887a89b" y="84.8982074"/>
     <use style="fill:#bf00bf;stroke:#bf00bf;stroke-width:0.5;" x="262.41575" xlink:href="#m6ea887a89b" y="84.58725725"/>
     <use style="fill:#bf00bf;stroke:#bf00bf;stroke-width:0.5;" x="275.80775" xlink:href="#m6ea887a89b" y="171.607591118"/>
     <use style="fill:#bf00bf;stroke:#bf00bf;stroke-width:0.5;" x="289.19975" xlink:href="#m6ea887a89b" y="68.5205023333"/>
     <use style="fill:#bf00bf;stroke:#bf00bf;stroke-width:0.5;" x="302.59175" xlink:href="#m6ea887a89b" y="71.3157668947"/>
     <use style="fill:#bf00bf;stroke:#bf00bf;stroke-width:0.5;" x="315.98375" xlink:href="#m6ea887a89b" y="71.3937146"/>
     <use style="fill:#bf00bf;stroke:#bf00bf;stroke-width:0.5;" x="329.37575" xlink:href="#m6ea887a89b" y="71.8794261429"/>
     <use style="fill:#bf00bf;stroke:#bf00bf;stroke-width:0.5;" x="342.76775" xlink:href="#m6ea887a89b" y="85.5620684545"/>
     <use style="fill:#bf00bf;stroke:#bf00bf;stroke-width:0.5;" x="356.15975" xlink:href="#m6ea887a89b" y="69.1613523043"/>
     <use style="fill:#bf00bf;stroke:#bf00bf;stroke-width:0.5;" x="369.55175" xlink:href="#m6ea887a89b" y="107.928901"/>
     <use style="fill:#bf00bf;stroke:#bf00bf;stroke-width:0.5;" x="382.94375" xlink:href="#m6ea887a89b" y="72.97931252"/>
    </g>
   </g>
   <g id="patch_3">
    <path d="M 382.94375 244.518125 
L 382.94375 21.318125 
" style="fill:none;stroke:#000000;stroke-linecap:square;stroke-linejoin:miter;"/>
   </g>
   <g id="patch_4">
    <path d="M 48.14375 21.318125 
L 382.94375 21.318125 
" style="fill:none;stroke:#000000;stroke-linecap:square;stroke-linejoin:miter;"/>
   </g>
   <g id="patch_5">
    <path d="M 48.14375 244.518125 
L 382.94375 244.518125 
" style="fill:none;stroke:#000000;stroke-linecap:square;stroke-linejoin:miter;"/>
   </g>
   <g id="patch_6">
    <path d="M 48.14375 244.518125 
L 48.14375 21.318125 
" style="fill:none;stroke:#000000;stroke-linecap:square;stroke-linejoin:miter;"/>
   </g>
   <g id="matplotlib.axis_1">
    <g id="xtick_1">
     <g id="line2d_6">
      <path clip-path="url(#p31f9973589)" d="M 48.14375 244.518125 
L 48.14375 21.318125 
" style="fill:none;stroke:#000000;stroke-dasharray:1.000000,3.000000;stroke-dashoffset:0.0;stroke-width:0.5;"/>
     </g>
     <g id="line2d_7">
      <defs>
       <path d="M 0 0 
L 0 -4 
" id="m9a542f51a9" style="stroke:#000000;stroke-width:0.5;"/>
      </defs>
      <g>
       <use style="stroke:#000000;stroke-width:0.5;" x="48.14375" xlink:href="#m9a542f51a9" y="244.518125"/>
      </g>
     </g>
     <g id="line2d_8">
      <defs>
       <path d="M 0 0 
L 0 4 
" id="m5bbe8d108e" style="stroke:#000000;stroke-width:0.5;"/>
      </defs>
      <g>
       <use style="stroke:#000000;stroke-width:0.5;" x="48.14375" xlink:href="#m5bbe8d108e" y="21.318125"/>
      </g>
     </g>
     <g id="text_1">
      <!-- 0.0 -->
      <defs>
       <path d="M 10.6875 12.40625 
L 21 12.40625 
L 21 0 
L 10.6875 0 
z
" id="BitstreamVeraSans-Roman-2e"/>
       <path d="M 31.78125 66.40625 
Q 24.171875 66.40625 20.328125 58.90625 
Q 16.5 51.421875 16.5 36.375 
Q 16.5 21.390625 20.328125 13.890625 
Q 24.171875 6.390625 31.78125 6.390625 
Q 39.453125 6.390625 43.28125 13.890625 
Q 47.125 21.390625 47.125 36.375 
Q 47.125 51.421875 43.28125 58.90625 
Q 39.453125 66.40625 31.78125 66.40625 
M 31.78125 74.21875 
Q 44.046875 74.21875 50.515625 64.515625 
Q 56.984375 54.828125 56.984375 36.375 
Q 56.984375 17.96875 50.515625 8.265625 
Q 44.046875 -1.421875 31.78125 -1.421875 
Q 19.53125 -1.421875 13.0625 8.265625 
Q 6.59375 17.96875 6.59375 36.375 
Q 6.59375 54.828125 13.0625 64.515625 
Q 19.53125 74.21875 31.78125 74.21875 
" id="BitstreamVeraSans-Roman-30"/>
      </defs>
      <g transform="translate(40.1921875 256.1165625)scale(0.1 -0.1)">
       <use xlink:href="#BitstreamVeraSans-Roman-30"/>
       <use x="63.623046875" xlink:href="#BitstreamVeraSans-Roman-2e"/>
       <use x="95.41015625" xlink:href="#BitstreamVeraSans-Roman-30"/>
      </g>
     </g>
    </g>
    <g id="xtick_2">
     <g id="line2d_9">
      <path clip-path="url(#p31f9973589)" d="M 115.10375 244.518125 
L 115.10375 21.318125 
" style="fill:none;stroke:#000000;stroke-dasharray:1.000000,3.000000;stroke-dashoffset:0.0;stroke-width:0.5;"/>
     </g>
     <g id="line2d_10">
      <g>
       <use style="stroke:#000000;stroke-width:0.5;" x="115.10375" xlink:href="#m9a542f51a9" y="244.518125"/>
      </g>
     </g>
     <g id="line2d_11">
      <g>
       <use style="stroke:#000000;stroke-width:0.5;" x="115.10375" xlink:href="#m5bbe8d108e" y="21.318125"/>
      </g>
     </g>
     <g id="text_2">
      <!-- 0.5 -->
      <defs>
       <path d="M 10.796875 72.90625 
L 49.515625 72.90625 
L 49.515625 64.59375 
L 19.828125 64.59375 
L 19.828125 46.734375 
Q 21.96875 47.46875 24.109375 47.828125 
Q 26.265625 48.1875 28.421875 48.1875 
Q 40.625 48.1875 47.75 41.5 
Q 54.890625 34.8125 54.890625 23.390625 
Q 54.890625 11.625 47.5625 5.09375 
Q 40.234375 -1.421875 26.90625 -1.421875 
Q 22.3125 -1.421875 17.546875 -0.640625 
Q 12.796875 0.140625 7.71875 1.703125 
L 7.71875 11.625 
Q 12.109375 9.234375 16.796875 8.0625 
Q 21.484375 6.890625 26.703125 6.890625 
Q 35.15625 6.890625 40.078125 11.328125 
Q 45.015625 15.765625 45.015625 23.390625 
Q 45.015625 31 40.078125 35.4375 
Q 35.15625 39.890625 26.703125 39.890625 
Q 22.75 39.890625 18.8125 39.015625 
Q 14.890625 38.140625 10.796875 36.28125 
z
" id="BitstreamVeraSans-Roman-35"/>
      </defs>
      <g transform="translate(107.1521875 256.1165625)scale(0.1 -0.1)">
       <use xlink:href="#BitstreamVeraSans-Roman-30"/>
       <use x="63.623046875" xlink:href="#BitstreamVeraSans-Roman-2e"/>
       <use x="95.41015625" xlink:href="#BitstreamVeraSans-Roman-35"/>
      </g>
     </g>
    </g>
    <g id="xtick_3">
     <g id="line2d_12">
      <path clip-path="url(#p31f9973589)" d="M 182.06375 244.518125 
L 182.06375 21.318125 
" style="fill:none;stroke:#000000;stroke-dasharray:1.000000,3.000000;stroke-dashoffset:0.0;stroke-width:0.5;"/>
     </g>
     <g id="line2d_13">
      <g>
       <use style="stroke:#000000;stroke-width:0.5;" x="182.06375" xlink:href="#m9a542f51a9" y="244.518125"/>
      </g>
     </g>
     <g id="line2d_14">
      <g>
       <use style="stroke:#000000;stroke-width:0.5;" x="182.06375" xlink:href="#m5bbe8d108e" y="21.318125"/>
      </g>
     </g>
     <g id="text_3">
      <!-- 1.0 -->
      <defs>
       <path d="M 12.40625 8.296875 
L 28.515625 8.296875 
L 28.515625 63.921875 
L 10.984375 60.40625 
L 10.984375 69.390625 
L 28.421875 72.90625 
L 38.28125 72.90625 
L 38.28125 8.296875 
L 54.390625 8.296875 
L 54.390625 0 
L 12.40625 0 
z
" id="BitstreamVeraSans-Roman-31"/>
      </defs>
      <g transform="translate(174.1121875 256.1165625)scale(0.1 -0.1)">
       <use xlink:href="#BitstreamVeraSans-Roman-31"/>
       <use x="63.623046875" xlink:href="#BitstreamVeraSans-Roman-2e"/>
       <use x="95.41015625" xlink:href="#BitstreamVeraSans-Roman-30"/>
      </g>
     </g>
    </g>
    <g id="xtick_4">
     <g id="line2d_15">
      <path clip-path="url(#p31f9973589)" d="M 249.02375 244.518125 
L 249.02375 21.318125 
" style="fill:none;stroke:#000000;stroke-dasharray:1.000000,3.000000;stroke-dashoffset:0.0;stroke-width:0.5;"/>
     </g>
     <g id="line2d_16">
      <g>
       <use style="stroke:#000000;stroke-width:0.5;" x="249.02375" xlink:href="#m9a542f51a9" y="244.518125"/>
      </g>
     </g>
     <g id="line2d_17">
      <g>
       <use style="stroke:#000000;stroke-width:0.5;" x="249.02375" xlink:href="#m5bbe8d108e" y="21.318125"/>
      </g>
     </g>
     <g id="text_4">
      <!-- 1.5 -->
      <g transform="translate(241.0721875 256.1165625)scale(0.1 -0.1)">
       <use xlink:href="#BitstreamVeraSans-Roman-31"/>
       <use x="63.623046875" xlink:href="#BitstreamVeraSans-Roman-2e"/>
       <use x="95.41015625" xlink:href="#BitstreamVeraSans-Roman-35"/>
      </g>
     </g>
    </g>
    <g id="xtick_5">
     <g id="line2d_18">
      <path clip-path="url(#p31f9973589)" d="M 315.98375 244.518125 
L 315.98375 21.318125 
" style="fill:none;stroke:#000000;stroke-dasharray:1.000000,3.000000;stroke-dashoffset:0.0;stroke-width:0.5;"/>
     </g>
     <g id="line2d_19">
      <g>
       <use style="stroke:#000000;stroke-width:0.5;" x="315.98375" xlink:href="#m9a542f51a9" y="244.518125"/>
      </g>
     </g>
     <g id="line2d_20">
      <g>
       <use style="stroke:#000000;stroke-width:0.5;" x="315.98375" xlink:href="#m5bbe8d108e" y="21.318125"/>
      </g>
     </g>
     <g id="text_5">
      <!-- 2.0 -->
      <defs>
       <path d="M 19.1875 8.296875 
L 53.609375 8.296875 
L 53.609375 0 
L 7.328125 0 
L 7.328125 8.296875 
Q 12.9375 14.109375 22.625 23.890625 
Q 32.328125 33.6875 34.8125 36.53125 
Q 39.546875 41.84375 41.421875 45.53125 
Q 43.3125 49.21875 43.3125 52.78125 
Q 43.3125 58.59375 39.234375 62.25 
Q 35.15625 65.921875 28.609375 65.921875 
Q 23.96875 65.921875 18.8125 64.3125 
Q 13.671875 62.703125 7.8125 59.421875 
L 7.8125 69.390625 
Q 13.765625 71.78125 18.9375 73 
Q 24.125 74.21875 28.421875 74.21875 
Q 39.75 74.21875 46.484375 68.546875 
Q 53.21875 62.890625 53.21875 53.421875 
Q 53.21875 48.921875 51.53125 44.890625 
Q 49.859375 40.875 45.40625 35.40625 
Q 44.1875 33.984375 37.640625 27.21875 
Q 31.109375 20.453125 19.1875 8.296875 
" id="BitstreamVeraSans-Roman-32"/>
      </defs>
      <g transform="translate(308.0321875 256.1165625)scale(0.1 -0.1)">
       <use xlink:href="#BitstreamVeraSans-Roman-32"/>
       <use x="63.623046875" xlink:href="#BitstreamVeraSans-Roman-2e"/>
       <use x="95.41015625" xlink:href="#BitstreamVeraSans-Roman-30"/>
      </g>
     </g>
    </g>
    <g id="xtick_6">
     <g id="line2d_21">
      <path clip-path="url(#p31f9973589)" d="M 382.94375 244.518125 
L 382.94375 21.318125 
" style="fill:none;stroke:#000000;stroke-dasharray:1.000000,3.000000;stroke-dashoffset:0.0;stroke-width:0.5;"/>
     </g>
     <g id="line2d_22">
      <g>
       <use style="stroke:#000000;stroke-width:0.5;" x="382.94375" xlink:href="#m9a542f51a9" y="244.518125"/>
      </g>
     </g>
     <g id="line2d_23">
      <g>
       <use style="stroke:#000000;stroke-width:0.5;" x="382.94375" xlink:href="#m5bbe8d108e" y="21.318125"/>
      </g>
     </g>
     <g id="text_6">
      <!-- 2.5 -->
      <g transform="translate(374.9921875 256.1165625)scale(0.1 -0.1)">
       <use xlink:href="#BitstreamVeraSans-Roman-32"/>
       <use x="63.623046875" xlink:href="#BitstreamVeraSans-Roman-2e"/>
       <use x="95.41015625" xlink:href="#BitstreamVeraSans-Roman-35"/>
      </g>
     </g>
    </g>
    <g id="text_7">
     <!-- n - pocet linearnich generatoru -->
     <defs>
      <path d="M 54.890625 33.015625 
L 54.890625 0 
L 45.90625 0 
L 45.90625 32.71875 
Q 45.90625 40.484375 42.875 44.328125 
Q 39.84375 48.1875 33.796875 48.1875 
Q 26.515625 48.1875 22.3125 43.546875 
Q 18.109375 38.921875 18.109375 30.90625 
L 18.109375 0 
L 9.078125 0 
L 9.078125 54.6875 
L 18.109375 54.6875 
L 18.109375 46.1875 
Q 21.34375 51.125 25.703125 53.5625 
Q 30.078125 56 35.796875 56 
Q 45.21875 56 50.046875 50.171875 
Q 54.890625 44.34375 54.890625 33.015625 
" id="BitstreamVeraSans-Roman-6e"/>
      <path d="M 30.609375 48.390625 
Q 23.390625 48.390625 19.1875 42.75 
Q 14.984375 37.109375 14.984375 27.296875 
Q 14.984375 17.484375 19.15625 11.84375 
Q 23.34375 6.203125 30.609375 6.203125 
Q 37.796875 6.203125 41.984375 11.859375 
Q 46.1875 17.53125 46.1875 27.296875 
Q 46.1875 37.015625 41.984375 42.703125 
Q 37.796875 48.390625 30.609375 48.390625 
M 30.609375 56 
Q 42.328125 56 49.015625 48.375 
Q 55.71875 40.765625 55.71875 27.296875 
Q 55.71875 13.875 49.015625 6.21875 
Q 42.328125 -1.421875 30.609375 -1.421875 
Q 18.84375 -1.421875 12.171875 6.21875 
Q 5.515625 13.875 5.515625 27.296875 
Q 5.515625 40.765625 12.171875 48.375 
Q 18.84375 56 30.609375 56 
" id="BitstreamVeraSans-Roman-6f"/>
      <path d="M 41.109375 46.296875 
Q 39.59375 47.171875 37.8125 47.578125 
Q 36.03125 48 33.890625 48 
Q 26.265625 48 22.1875 43.046875 
Q 18.109375 38.09375 18.109375 28.8125 
L 18.109375 0 
L 9.078125 0 
L 9.078125 54.6875 
L 18.109375 54.6875 
L 18.109375 46.1875 
Q 20.953125 51.171875 25.484375 53.578125 
Q 30.03125 56 36.53125 56 
Q 37.453125 56 38.578125 55.875 
Q 39.703125 55.765625 41.0625 55.515625 
z
" id="BitstreamVeraSans-Roman-72"/>
      <path d="M 9.421875 75.984375 
L 18.40625 75.984375 
L 18.40625 0 
L 9.421875 0 
z
" id="BitstreamVeraSans-Roman-6c"/>
      <path d="M 18.3125 70.21875 
L 18.3125 54.6875 
L 36.8125 54.6875 
L 36.8125 47.703125 
L 18.3125 47.703125 
L 18.3125 18.015625 
Q 18.3125 11.328125 20.140625 9.421875 
Q 21.96875 7.515625 27.59375 7.515625 
L 36.8125 7.515625 
L 36.8125 0 
L 27.59375 0 
Q 17.1875 0 13.234375 3.875 
Q 9.28125 7.765625 9.28125 18.015625 
L 9.28125 47.703125 
L 2.6875 47.703125 
L 2.6875 54.6875 
L 9.28125 54.6875 
L 9.28125 70.21875 
z
" id="BitstreamVeraSans-Roman-74"/>
      <path d="M 8.5 21.578125 
L 8.5 54.6875 
L 17.484375 54.6875 
L 17.484375 21.921875 
Q 17.484375 14.15625 20.5 10.265625 
Q 23.53125 6.390625 29.59375 6.390625 
Q 36.859375 6.390625 41.078125 11.03125 
Q 45.3125 15.671875 45.3125 23.6875 
L 45.3125 54.6875 
L 54.296875 54.6875 
L 54.296875 0 
L 45.3125 0 
L 45.3125 8.40625 
Q 42.046875 3.421875 37.71875 1 
Q 33.40625 -1.421875 27.6875 -1.421875 
Q 18.265625 -1.421875 13.375 4.4375 
Q 8.5 10.296875 8.5 21.578125 
" id="BitstreamVeraSans-Roman-75"/>
      <path id="BitstreamVeraSans-Roman-20"/>
      <path d="M 54.890625 33.015625 
L 54.890625 0 
L 45.90625 0 
L 45.90625 32.71875 
Q 45.90625 40.484375 42.875 44.328125 
Q 39.84375 48.1875 33.796875 48.1875 
Q 26.515625 48.1875 22.3125 43.546875 
Q 18.109375 38.921875 18.109375 30.90625 
L 18.109375 0 
L 9.078125 0 
L 9.078125 75.984375 
L 18.109375 75.984375 
L 18.109375 46.1875 
Q 21.34375 51.125 25.703125 53.5625 
Q 30.078125 56 35.796875 56 
Q 45.21875 56 50.046875 50.171875 
Q 54.890625 44.34375 54.890625 33.015625 
" id="BitstreamVeraSans-Roman-68"/>
      <path d="M 48.78125 52.59375 
L 48.78125 44.1875 
Q 44.96875 46.296875 41.140625 47.34375 
Q 37.3125 48.390625 33.40625 48.390625 
Q 24.65625 48.390625 19.8125 42.84375 
Q 14.984375 37.3125 14.984375 27.296875 
Q 14.984375 17.28125 19.8125 11.734375 
Q 24.65625 6.203125 33.40625 6.203125 
Q 37.3125 6.203125 41.140625 7.25 
Q 44.96875 8.296875 48.78125 10.40625 
L 48.78125 2.09375 
Q 45.015625 0.34375 40.984375 -0.53125 
Q 36.96875 -1.421875 32.421875 -1.421875 
Q 20.0625 -1.421875 12.78125 6.34375 
Q 5.515625 14.109375 5.515625 27.296875 
Q 5.515625 40.671875 12.859375 48.328125 
Q 20.21875 56 33.015625 56 
Q 37.15625 56 41.109375 55.140625 
Q 45.0625 54.296875 48.78125 52.59375 
" id="BitstreamVeraSans-Roman-63"/>
      <path d="M 45.40625 27.984375 
Q 45.40625 37.75 41.375 43.109375 
Q 37.359375 48.484375 30.078125 48.484375 
Q 22.859375 48.484375 18.828125 43.109375 
Q 14.796875 37.75 14.796875 27.984375 
Q 14.796875 18.265625 18.828125 12.890625 
Q 22.859375 7.515625 30.078125 7.515625 
Q 37.359375 7.515625 41.375 12.890625 
Q 45.40625 18.265625 45.40625 27.984375 
M 54.390625 6.78125 
Q 54.390625 -7.171875 48.1875 -13.984375 
Q 42 -20.796875 29.203125 -20.796875 
Q 24.46875 -20.796875 20.265625 -20.09375 
Q 16.0625 -19.390625 12.109375 -17.921875 
L 12.109375 -9.1875 
Q 16.0625 -11.328125 19.921875 -12.34375 
Q 23.78125 -13.375 27.78125 -13.375 
Q 36.625 -13.375 41.015625 -8.765625 
Q 45.40625 -4.15625 45.40625 5.171875 
L 45.40625 9.625 
Q 42.625 4.78125 38.28125 2.390625 
Q 33.9375 0 27.875 0 
Q 17.828125 0 11.671875 7.65625 
Q 5.515625 15.328125 5.515625 27.984375 
Q 5.515625 40.671875 11.671875 48.328125 
Q 17.828125 56 27.875 56 
Q 33.9375 56 38.28125 53.609375 
Q 42.625 51.21875 45.40625 46.390625 
L 45.40625 54.6875 
L 54.390625 54.6875 
z
" id="BitstreamVeraSans-Roman-67"/>
      <path d="M 18.109375 8.203125 
L 18.109375 -20.796875 
L 9.078125 -20.796875 
L 9.078125 54.6875 
L 18.109375 54.6875 
L 18.109375 46.390625 
Q 20.953125 51.265625 25.265625 53.625 
Q 29.59375 56 35.59375 56 
Q 45.5625 56 51.78125 48.09375 
Q 58.015625 40.1875 58.015625 27.296875 
Q 58.015625 14.40625 51.78125 6.484375 
Q 45.5625 -1.421875 35.59375 -1.421875 
Q 29.59375 -1.421875 25.265625 0.953125 
Q 20.953125 3.328125 18.109375 8.203125 
M 48.6875 27.296875 
Q 48.6875 37.203125 44.609375 42.84375 
Q 40.53125 48.484375 33.40625 48.484375 
Q 26.265625 48.484375 22.1875 42.84375 
Q 18.109375 37.203125 18.109375 27.296875 
Q 18.109375 17.390625 22.1875 11.75 
Q 26.265625 6.109375 33.40625 6.109375 
Q 40.53125 6.109375 44.609375 11.75 
Q 48.6875 17.390625 48.6875 27.296875 
" id="BitstreamVeraSans-Roman-70"/>
      <path d="M 34.28125 27.484375 
Q 23.390625 27.484375 19.1875 25 
Q 14.984375 22.515625 14.984375 16.5 
Q 14.984375 11.71875 18.140625 8.90625 
Q 21.296875 6.109375 26.703125 6.109375 
Q 34.1875 6.109375 38.703125 11.40625 
Q 43.21875 16.703125 43.21875 25.484375 
L 43.21875 27.484375 
z
M 52.203125 31.203125 
L 52.203125 0 
L 43.21875 0 
L 43.21875 8.296875 
Q 40.140625 3.328125 35.546875 0.953125 
Q 30.953125 -1.421875 24.3125 -1.421875 
Q 15.921875 -1.421875 10.953125 3.296875 
Q 6 8.015625 6 15.921875 
Q 6 25.140625 12.171875 29.828125 
Q 18.359375 34.515625 30.609375 34.515625 
L 43.21875 34.515625 
L 43.21875 35.40625 
Q 43.21875 41.609375 39.140625 45 
Q 35.0625 48.390625 27.6875 48.390625 
Q 23 48.390625 18.546875 47.265625 
Q 14.109375 46.140625 10.015625 43.890625 
L 10.015625 52.203125 
Q 14.9375 54.109375 19.578125 55.046875 
Q 24.21875 56 28.609375 56 
Q 40.484375 56 46.34375 49.84375 
Q 52.203125 43.703125 52.203125 31.203125 
" id="BitstreamVeraSans-Roman-61"/>
      <path d="M 4.890625 31.390625 
L 31.203125 31.390625 
L 31.203125 23.390625 
L 4.890625 23.390625 
z
" id="BitstreamVeraSans-Roman-2d"/>
      <path d="M 56.203125 29.59375 
L 56.203125 25.203125 
L 14.890625 25.203125 
Q 15.484375 15.921875 20.484375 11.0625 
Q 25.484375 6.203125 34.421875 6.203125 
Q 39.59375 6.203125 44.453125 7.46875 
Q 49.3125 8.734375 54.109375 11.28125 
L 54.109375 2.78125 
Q 49.265625 0.734375 44.1875 -0.34375 
Q 39.109375 -1.421875 33.890625 -1.421875 
Q 20.796875 -1.421875 13.15625 6.1875 
Q 5.515625 13.8125 5.515625 26.8125 
Q 5.515625 40.234375 12.765625 48.109375 
Q 20.015625 56 32.328125 56 
Q 43.359375 56 49.78125 48.890625 
Q 56.203125 41.796875 56.203125 29.59375 
M 47.21875 32.234375 
Q 47.125 39.59375 43.09375 43.984375 
Q 39.0625 48.390625 32.421875 48.390625 
Q 24.90625 48.390625 20.390625 44.140625 
Q 15.875 39.890625 15.1875 32.171875 
z
" id="BitstreamVeraSans-Roman-65"/>
      <path d="M 9.421875 54.6875 
L 18.40625 54.6875 
L 18.40625 0 
L 9.421875 0 
z
M 9.421875 75.984375 
L 18.40625 75.984375 
L 18.40625 64.59375 
L 9.421875 64.59375 
z
" id="BitstreamVeraSans-Roman-69"/>
     </defs>
     <g transform="translate(137.71796875 270.7946875)scale(0.1 -0.1)">
      <use xlink:href="#BitstreamVeraSans-Roman-6e"/>
      <use x="63.37890625" xlink:href="#BitstreamVeraSans-Roman-20"/>
      <use x="95.166015625" xlink:href="#BitstreamVeraSans-Roman-2d"/>
      <use x="131.25" xlink:href="#BitstreamVeraSans-Roman-20"/>
      <use x="163.037109375" xlink:href="#BitstreamVeraSans-Roman-70"/>
      <use x="226.513671875" xlink:href="#BitstreamVeraSans-Roman-6f"/>
      <use x="287.6953125" xlink:href="#BitstreamVeraSans-Roman-63"/>
      <use x="342.67578125" xlink:href="#BitstreamVeraSans-Roman-65"/>
      <use x="404.19921875" xlink:href="#BitstreamVeraSans-Roman-74"/>
      <use x="443.408203125" xlink:href="#BitstreamVeraSans-Roman-20"/>
      <use x="475.1953125" xlink:href="#BitstreamVeraSans-Roman-6c"/>
      <use x="502.978515625" xlink:href="#BitstreamVeraSans-Roman-69"/>
      <use x="530.76171875" xlink:href="#BitstreamVeraSans-Roman-6e"/>
      <use x="594.140625" xlink:href="#BitstreamVeraSans-Roman-65"/>
      <use x="655.6640625" xlink:href="#BitstreamVeraSans-Roman-61"/>
      <use x="716.943359375" xlink:href="#BitstreamVeraSans-Roman-72"/>
      <use x="758.041015625" xlink:href="#BitstreamVeraSans-Roman-6e"/>
      <use x="821.419921875" xlink:href="#BitstreamVeraSans-Roman-69"/>
      <use x="849.203125" xlink:href="#BitstreamVeraSans-Roman-63"/>
      <use x="904.18359375" xlink:href="#BitstreamVeraSans-Roman-68"/>
      <use x="967.5625" xlink:href="#BitstreamVeraSans-Roman-20"/>
      <use x="999.349609375" xlink:href="#BitstreamVeraSans-Roman-67"/>
      <use x="1062.826171875" xlink:href="#BitstreamVeraSans-Roman-65"/>
      <use x="1124.349609375" xlink:href="#BitstreamVeraSans-Roman-6e"/>
      <use x="1187.728515625" xlink:href="#BitstreamVeraSans-Roman-65"/>
      <use x="1249.251953125" xlink:href="#BitstreamVeraSans-Roman-72"/>
      <use x="1290.365234375" xlink:href="#BitstreamVeraSans-Roman-61"/>
      <use x="1351.64453125" xlink:href="#BitstreamVeraSans-Roman-74"/>
      <use x="1390.853515625" xlink:href="#BitstreamVeraSans-Roman-6f"/>
      <use x="1452.03515625" xlink:href="#BitstreamVeraSans-Roman-72"/>
      <use x="1493.1484375" xlink:href="#BitstreamVeraSans-Roman-75"/>
     </g>
    </g>
    <g id="text_8">
     <!-- 1e8 -->
     <defs>
      <path d="M 31.78125 34.625 
Q 24.75 34.625 20.71875 30.859375 
Q 16.703125 27.09375 16.703125 20.515625 
Q 16.703125 13.921875 20.71875 10.15625 
Q 24.75 6.390625 31.78125 6.390625 
Q 38.8125 6.390625 42.859375 10.171875 
Q 46.921875 13.96875 46.921875 20.515625 
Q 46.921875 27.09375 42.890625 30.859375 
Q 38.875 34.625 31.78125 34.625 
M 21.921875 38.8125 
Q 15.578125 40.375 12.03125 44.71875 
Q 8.5 49.078125 8.5 55.328125 
Q 8.5 64.0625 14.71875 69.140625 
Q 20.953125 74.21875 31.78125 74.21875 
Q 42.671875 74.21875 48.875 69.140625 
Q 55.078125 64.0625 55.078125 55.328125 
Q 55.078125 49.078125 51.53125 44.71875 
Q 48 40.375 41.703125 38.8125 
Q 48.828125 37.15625 52.796875 32.3125 
Q 56.78125 27.484375 56.78125 20.515625 
Q 56.78125 9.90625 50.3125 4.234375 
Q 43.84375 -1.421875 31.78125 -1.421875 
Q 19.734375 -1.421875 13.25 4.234375 
Q 6.78125 9.90625 6.78125 20.515625 
Q 6.78125 27.484375 10.78125 32.3125 
Q 14.796875 37.15625 21.921875 38.8125 
M 18.3125 54.390625 
Q 18.3125 48.734375 21.84375 45.5625 
Q 25.390625 42.390625 31.78125 42.390625 
Q 38.140625 42.390625 41.71875 45.5625 
Q 45.3125 48.734375 45.3125 54.390625 
Q 45.3125 60.0625 41.71875 63.234375 
Q 38.140625 66.40625 31.78125 66.40625 
Q 25.390625 66.40625 21.84375 63.234375 
Q 18.3125 60.0625 18.3125 54.390625 
" id="BitstreamVeraSans-Roman-38"/>
     </defs>
     <g transform="translate(364.065625 268.7946875)scale(0.1 -0.1)">
      <use xlink:href="#BitstreamVeraSans-Roman-31"/>
      <use x="63.623046875" xlink:href="#BitstreamVeraSans-Roman-65"/>
      <use x="125.146484375" xlink:href="#BitstreamVeraSans-Roman-38"/>
     </g>
    </g>
   </g>
   <g id="matplotlib.axis_2">
    <g id="ytick_1">
     <g id="line2d_24">
      <path clip-path="url(#p31f9973589)" d="M 48.14375 244.518125 
L 382.94375 244.518125 
" style="fill:none;stroke:#000000;stroke-dasharray:1.000000,3.000000;stroke-dashoffset:0.0;stroke-width:0.5;"/>
     </g>
     <g id="line2d_25">
      <defs>
       <path d="M 0 0 
L 4 0 
" id="mf363670541" style="stroke:#000000;stroke-width:0.5;"/>
      </defs>
      <g>
       <use style="stroke:#000000;stroke-width:0.5;" x="48.14375" xlink:href="#mf363670541" y="244.518125"/>
      </g>
     </g>
     <g id="line2d_26">
      <defs>
       <path d="M 0 0 
L -4 0 
" id="m6cf086f45c" style="stroke:#000000;stroke-width:0.5;"/>
      </defs>
      <g>
       <use style="stroke:#000000;stroke-width:0.5;" x="382.94375" xlink:href="#m6cf086f45c" y="244.518125"/>
      </g>
     </g>
     <g id="text_9">
      <!-- 0.01 -->
      <g transform="translate(21.878125 247.2775)scale(0.1 -0.1)">
       <use xlink:href="#BitstreamVeraSans-Roman-30"/>
       <use x="63.623046875" xlink:href="#BitstreamVeraSans-Roman-2e"/>
       <use x="95.41015625" xlink:href="#BitstreamVeraSans-Roman-30"/>
       <use x="159.033203125" xlink:href="#BitstreamVeraSans-Roman-31"/>
      </g>
     </g>
    </g>
    <g id="ytick_2">
     <g id="line2d_27">
      <path clip-path="url(#p31f9973589)" d="M 48.14375 207.318125 
L 382.94375 207.318125 
" style="fill:none;stroke:#000000;stroke-dasharray:1.000000,3.000000;stroke-dashoffset:0.0;stroke-width:0.5;"/>
     </g>
     <g id="line2d_28">
      <g>
       <use style="stroke:#000000;stroke-width:0.5;" x="48.14375" xlink:href="#mf363670541" y="207.318125"/>
      </g>
     </g>
     <g id="line2d_29">
      <g>
       <use style="stroke:#000000;stroke-width:0.5;" x="382.94375" xlink:href="#m6cf086f45c" y="207.318125"/>
      </g>
     </g>
     <g id="text_10">
      <!-- 0.02 -->
      <g transform="translate(21.878125 210.0775)scale(0.1 -0.1)">
       <use xlink:href="#BitstreamVeraSans-Roman-30"/>
       <use x="63.623046875" xlink:href="#BitstreamVeraSans-Roman-2e"/>
       <use x="95.41015625" xlink:href="#BitstreamVeraSans-Roman-30"/>
       <use x="159.033203125" xlink:href="#BitstreamVeraSans-Roman-32"/>
      </g>
     </g>
    </g>
    <g id="ytick_3">
     <g id="line2d_30">
      <path clip-path="url(#p31f9973589)" d="M 48.14375 170.118125 
L 382.94375 170.118125 
" style="fill:none;stroke:#000000;stroke-dasharray:1.000000,3.000000;stroke-dashoffset:0.0;stroke-width:0.5;"/>
     </g>
     <g id="line2d_31">
      <g>
       <use style="stroke:#000000;stroke-width:0.5;" x="48.14375" xlink:href="#mf363670541" y="170.118125"/>
      </g>
     </g>
     <g id="line2d_32">
      <g>
       <use style="stroke:#000000;stroke-width:0.5;" x="382.94375" xlink:href="#m6cf086f45c" y="170.118125"/>
      </g>
     </g>
     <g id="text_11">
      <!-- 0.03 -->
      <defs>
       <path d="M 40.578125 39.3125 
Q 47.65625 37.796875 51.625 33 
Q 55.609375 28.21875 55.609375 21.1875 
Q 55.609375 10.40625 48.1875 4.484375 
Q 40.765625 -1.421875 27.09375 -1.421875 
Q 22.515625 -1.421875 17.65625 -0.515625 
Q 12.796875 0.390625 7.625 2.203125 
L 7.625 11.71875 
Q 11.71875 9.328125 16.59375 8.109375 
Q 21.484375 6.890625 26.8125 6.890625 
Q 36.078125 6.890625 40.9375 10.546875 
Q 45.796875 14.203125 45.796875 21.1875 
Q 45.796875 27.640625 41.28125 31.265625 
Q 36.765625 34.90625 28.71875 34.90625 
L 20.21875 34.90625 
L 20.21875 43.015625 
L 29.109375 43.015625 
Q 36.375 43.015625 40.234375 45.921875 
Q 44.09375 48.828125 44.09375 54.296875 
Q 44.09375 59.90625 40.109375 62.90625 
Q 36.140625 65.921875 28.71875 65.921875 
Q 24.65625 65.921875 20.015625 65.03125 
Q 15.375 64.15625 9.8125 62.3125 
L 9.8125 71.09375 
Q 15.4375 72.65625 20.34375 73.4375 
Q 25.25 74.21875 29.59375 74.21875 
Q 40.828125 74.21875 47.359375 69.109375 
Q 53.90625 64.015625 53.90625 55.328125 
Q 53.90625 49.265625 50.4375 45.09375 
Q 46.96875 40.921875 40.578125 39.3125 
" id="BitstreamVeraSans-Roman-33"/>
      </defs>
      <g transform="translate(21.878125 172.8775)scale(0.1 -0.1)">
       <use xlink:href="#BitstreamVeraSans-Roman-30"/>
       <use x="63.623046875" xlink:href="#BitstreamVeraSans-Roman-2e"/>
       <use x="95.41015625" xlink:href="#BitstreamVeraSans-Roman-30"/>
       <use x="159.033203125" xlink:href="#BitstreamVeraSans-Roman-33"/>
      </g>
     </g>
    </g>
    <g id="ytick_4">
     <g id="line2d_33">
      <path clip-path="url(#p31f9973589)" d="M 48.14375 132.918125 
L 382.94375 132.918125 
" style="fill:none;stroke:#000000;stroke-dasharray:1.000000,3.000000;stroke-dashoffset:0.0;stroke-width:0.5;"/>
     </g>
     <g id="line2d_34">
      <g>
       <use style="stroke:#000000;stroke-width:0.5;" x="48.14375" xlink:href="#mf363670541" y="132.918125"/>
      </g>
     </g>
     <g id="line2d_35">
      <g>
       <use style="stroke:#000000;stroke-width:0.5;" x="382.94375" xlink:href="#m6cf086f45c" y="132.918125"/>
      </g>
     </g>
     <g id="text_12">
      <!-- 0.04 -->
      <defs>
       <path d="M 37.796875 64.3125 
L 12.890625 25.390625 
L 37.796875 25.390625 
z
M 35.203125 72.90625 
L 47.609375 72.90625 
L 47.609375 25.390625 
L 58.015625 25.390625 
L 58.015625 17.1875 
L 47.609375 17.1875 
L 47.609375 0 
L 37.796875 0 
L 37.796875 17.1875 
L 4.890625 17.1875 
L 4.890625 26.703125 
z
" id="BitstreamVeraSans-Roman-34"/>
      </defs>
      <g transform="translate(21.878125 135.6775)scale(0.1 -0.1)">
       <use xlink:href="#BitstreamVeraSans-Roman-30"/>
       <use x="63.623046875" xlink:href="#BitstreamVeraSans-Roman-2e"/>
       <use x="95.41015625" xlink:href="#BitstreamVeraSans-Roman-30"/>
       <use x="159.033203125" xlink:href="#BitstreamVeraSans-Roman-34"/>
      </g>
     </g>
    </g>
    <g id="ytick_5">
     <g id="line2d_36">
      <path clip-path="url(#p31f9973589)" d="M 48.14375 95.718125 
L 382.94375 95.718125 
" style="fill:none;stroke:#000000;stroke-dasharray:1.000000,3.000000;stroke-dashoffset:0.0;stroke-width:0.5;"/>
     </g>
     <g id="line2d_37">
      <g>
       <use style="stroke:#000000;stroke-width:0.5;" x="48.14375" xlink:href="#mf363670541" y="95.718125"/>
      </g>
     </g>
     <g id="line2d_38">
      <g>
       <use style="stroke:#000000;stroke-width:0.5;" x="382.94375" xlink:href="#m6cf086f45c" y="95.718125"/>
      </g>
     </g>
     <g id="text_13">
      <!-- 0.05 -->
      <g transform="translate(21.878125 98.4775)scale(0.1 -0.1)">
       <use xlink:href="#BitstreamVeraSans-Roman-30"/>
       <use x="63.623046875" xlink:href="#BitstreamVeraSans-Roman-2e"/>
       <use x="95.41015625" xlink:href="#BitstreamVeraSans-Roman-30"/>
       <use x="159.033203125" xlink:href="#BitstreamVeraSans-Roman-35"/>
      </g>
     </g>
    </g>
    <g id="ytick_6">
     <g id="line2d_39">
      <path clip-path="url(#p31f9973589)" d="M 48.14375 58.518125 
L 382.94375 58.518125 
" style="fill:none;stroke:#000000;stroke-dasharray:1.000000,3.000000;stroke-dashoffset:0.0;stroke-width:0.5;"/>
     </g>
     <g id="line2d_40">
      <g>
       <use style="stroke:#000000;stroke-width:0.5;" x="48.14375" xlink:href="#mf363670541" y="58.518125"/>
      </g>
     </g>
     <g id="line2d_41">
      <g>
       <use style="stroke:#000000;stroke-width:0.5;" x="382.94375" xlink:href="#m6cf086f45c" y="58.518125"/>
      </g>
     </g>
     <g id="text_14">
      <!-- 0.06 -->
      <defs>
       <path d="M 33.015625 40.375 
Q 26.375 40.375 22.484375 35.828125 
Q 18.609375 31.296875 18.609375 23.390625 
Q 18.609375 15.53125 22.484375 10.953125 
Q 26.375 6.390625 33.015625 6.390625 
Q 39.65625 6.390625 43.53125 10.953125 
Q 47.40625 15.53125 47.40625 23.390625 
Q 47.40625 31.296875 43.53125 35.828125 
Q 39.65625 40.375 33.015625 40.375 
M 52.59375 71.296875 
L 52.59375 62.3125 
Q 48.875 64.0625 45.09375 64.984375 
Q 41.3125 65.921875 37.59375 65.921875 
Q 27.828125 65.921875 22.671875 59.328125 
Q 17.53125 52.734375 16.796875 39.40625 
Q 19.671875 43.65625 24.015625 45.921875 
Q 28.375 48.1875 33.59375 48.1875 
Q 44.578125 48.1875 50.953125 41.515625 
Q 57.328125 34.859375 57.328125 23.390625 
Q 57.328125 12.15625 50.6875 5.359375 
Q 44.046875 -1.421875 33.015625 -1.421875 
Q 20.359375 -1.421875 13.671875 8.265625 
Q 6.984375 17.96875 6.984375 36.375 
Q 6.984375 53.65625 15.1875 63.9375 
Q 23.390625 74.21875 37.203125 74.21875 
Q 40.921875 74.21875 44.703125 73.484375 
Q 48.484375 72.75 52.59375 71.296875 
" id="BitstreamVeraSans-Roman-36"/>
      </defs>
      <g transform="translate(21.878125 61.2775)scale(0.1 -0.1)">
       <use xlink:href="#BitstreamVeraSans-Roman-30"/>
       <use x="63.623046875" xlink:href="#BitstreamVeraSans-Roman-2e"/>
       <use x="95.41015625" xlink:href="#BitstreamVeraSans-Roman-30"/>
       <use x="159.033203125" xlink:href="#BitstreamVeraSans-Roman-36"/>
      </g>
     </g>
    </g>
    <g id="ytick_7">
     <g id="line2d_42">
      <path clip-path="url(#p31f9973589)" d="M 48.14375 21.318125 
L 382.94375 21.318125 
" style="fill:none;stroke:#000000;stroke-dasharray:1.000000,3.000000;stroke-dashoffset:0.0;stroke-width:0.5;"/>
     </g>
     <g id="line2d_43">
      <g>
       <use style="stroke:#000000;stroke-width:0.5;" x="48.14375" xlink:href="#mf363670541" y="21.318125"/>
      </g>
     </g>
     <g id="line2d_44">
      <g>
       <use style="stroke:#000000;stroke-width:0.5;" x="382.94375" xlink:href="#m6cf086f45c" y="21.318125"/>
      </g>
     </g>
     <g id="text_15">
      <!-- 0.07 -->
      <defs>
       <path d="M 8.203125 72.90625 
L 55.078125 72.90625 
L 55.078125 68.703125 
L 28.609375 0 
L 18.3125 0 
L 43.21875 64.59375 
L 8.203125 64.59375 
z
" id="BitstreamVeraSans-Roman-37"/>
      </defs>
      <g transform="translate(21.878125 24.0775)scale(0.1 -0.1)">
       <use xlink:href="#BitstreamVeraSans-Roman-30"/>
       <use x="63.623046875" xlink:href="#BitstreamVeraSans-Roman-2e"/>
       <use x="95.41015625" xlink:href="#BitstreamVeraSans-Roman-30"/>
       <use x="159.033203125" xlink:href="#BitstreamVeraSans-Roman-37"/>
      </g>
     </g>
    </g>
    <g id="text_16">
     <!-- L3 DCM na linearni generator -->
     <defs>
      <path d="M 19.671875 64.796875 
L 19.671875 8.109375 
L 31.59375 8.109375 
Q 46.6875 8.109375 53.6875 14.9375 
Q 60.6875 21.78125 60.6875 36.53125 
Q 60.6875 51.171875 53.6875 57.984375 
Q 46.6875 64.796875 31.59375 64.796875 
z
M 9.8125 72.90625 
L 30.078125 72.90625 
Q 51.265625 72.90625 61.171875 64.09375 
Q 71.09375 55.28125 71.09375 36.53125 
Q 71.09375 17.671875 61.125 8.828125 
Q 51.171875 0 30.078125 0 
L 9.8125 0 
z
" id="BitstreamVeraSans-Roman-44"/>
      <path d="M 64.40625 67.28125 
L 64.40625 56.890625 
Q 59.421875 61.53125 53.78125 63.8125 
Q 48.140625 66.109375 41.796875 66.109375 
Q 29.296875 66.109375 22.65625 58.46875 
Q 16.015625 50.828125 16.015625 36.375 
Q 16.015625 21.96875 22.65625 14.328125 
Q 29.296875 6.6875 41.796875 6.6875 
Q 48.140625 6.6875 53.78125 8.984375 
Q 59.421875 11.28125 64.40625 15.921875 
L 64.40625 5.609375 
Q 59.234375 2.09375 53.4375 0.328125 
Q 47.65625 -1.421875 41.21875 -1.421875 
Q 24.65625 -1.421875 15.125 8.703125 
Q 5.609375 18.84375 5.609375 36.375 
Q 5.609375 53.953125 15.125 64.078125 
Q 24.65625 74.21875 41.21875 74.21875 
Q 47.75 74.21875 53.53125 72.484375 
Q 59.328125 70.75 64.40625 67.28125 
" id="BitstreamVeraSans-Roman-43"/>
      <path d="M 9.8125 72.90625 
L 24.515625 72.90625 
L 43.109375 23.296875 
L 61.8125 72.90625 
L 76.515625 72.90625 
L 76.515625 0 
L 66.890625 0 
L 66.890625 64.015625 
L 48.09375 14.015625 
L 38.1875 14.015625 
L 19.390625 64.015625 
L 19.390625 0 
L 9.8125 0 
z
" id="BitstreamVeraSans-Roman-4d"/>
      <path d="M 9.8125 72.90625 
L 19.671875 72.90625 
L 19.671875 8.296875 
L 55.171875 8.296875 
L 55.171875 0 
L 9.8125 0 
z
" id="BitstreamVeraSans-Roman-4c"/>
     </defs>
     <g transform="translate(14.7984375 206.52046875)rotate(-90.0)scale(0.1 -0.1)">
      <use xlink:href="#BitstreamVeraSans-Roman-4c"/>
      <use x="55.712890625" xlink:href="#BitstreamVeraSans-Roman-33"/>
      <use x="119.3359375" xlink:href="#BitstreamVeraSans-Roman-20"/>
      <use x="151.123046875" xlink:href="#BitstreamVeraSans-Roman-44"/>
      <use x="228.125" xlink:href="#BitstreamVeraSans-Roman-43"/>
      <use x="297.94921875" xlink:href="#BitstreamVeraSans-Roman-4d"/>
      <use x="384.228515625" xlink:href="#BitstreamVeraSans-Roman-20"/>
      <use x="416.015625" xlink:href="#BitstreamVeraSans-Roman-6e"/>
      <use x="479.39453125" xlink:href="#BitstreamVeraSans-Roman-61"/>
      <use x="540.673828125" xlink:href="#BitstreamVeraSans-Roman-20"/>
      <use x="572.4609375" xlink:href="#BitstreamVeraSans-Roman-6c"/>
      <use x="600.244140625" xlink:href="#BitstreamVeraSans-Roman-69"/>
      <use x="628.02734375" xlink:href="#BitstreamVeraSans-Roman-6e"/>
      <use x="691.40625" xlink:href="#BitstreamVeraSans-Roman-65"/>
      <use x="752.9296875" xlink:href="#BitstreamVeraSans-Roman-61"/>
      <use x="814.208984375" xlink:href="#BitstreamVeraSans-Roman-72"/>
      <use x="855.306640625" xlink:href="#BitstreamVeraSans-Roman-6e"/>
      <use x="918.685546875" xlink:href="#BitstreamVeraSans-Roman-69"/>
      <use x="946.46875" xlink:href="#BitstreamVeraSans-Roman-20"/>
      <use x="978.255859375" xlink:href="#BitstreamVeraSans-Roman-67"/>
      <use x="1041.732421875" xlink:href="#BitstreamVeraSans-Roman-65"/>
      <use x="1103.255859375" xlink:href="#BitstreamVeraSans-Roman-6e"/>
      <use x="1166.634765625" xlink:href="#BitstreamVeraSans-Roman-65"/>
      <use x="1228.158203125" xlink:href="#BitstreamVeraSans-Roman-72"/>
      <use x="1269.271484375" xlink:href="#BitstreamVeraSans-Roman-61"/>
      <use x="1330.55078125" xlink:href="#BitstreamVeraSans-Roman-74"/>
      <use x="1369.759765625" xlink:href="#BitstreamVeraSans-Roman-6f"/>
      <use x="1430.94140625" xlink:href="#BitstreamVeraSans-Roman-72"/>
     </g>
    </g>
   </g>
   <g id="text_17">
    <!-- datove vypadky L3 cache -->
    <defs>
     <path d="M 32.171875 -5.078125 
Q 28.375 -14.84375 24.75 -17.8125 
Q 21.140625 -20.796875 15.09375 -20.796875 
L 7.90625 -20.796875 
L 7.90625 -13.28125 
L 13.1875 -13.28125 
Q 16.890625 -13.28125 18.9375 -11.515625 
Q 21 -9.765625 23.484375 -3.21875 
L 25.09375 0.875 
L 2.984375 54.6875 
L 12.5 54.6875 
L 29.59375 11.921875 
L 46.6875 54.6875 
L 56.203125 54.6875 
z
" id="BitstreamVeraSans-Roman-79"/>
     <path d="M 9.078125 75.984375 
L 18.109375 75.984375 
L 18.109375 31.109375 
L 44.921875 54.6875 
L 56.390625 54.6875 
L 27.390625 29.109375 
L 57.625 0 
L 45.90625 0 
L 18.109375 26.703125 
L 18.109375 0 
L 9.078125 0 
z
" id="BitstreamVeraSans-Roman-6b"/>
     <path d="M 45.40625 46.390625 
L 45.40625 75.984375 
L 54.390625 75.984375 
L 54.390625 0 
L 45.40625 0 
L 45.40625 8.203125 
Q 42.578125 3.328125 38.25 0.953125 
Q 33.9375 -1.421875 27.875 -1.421875 
Q 17.96875 -1.421875 11.734375 6.484375 
Q 5.515625 14.40625 5.515625 27.296875 
Q 5.515625 40.1875 11.734375 48.09375 
Q 17.96875 56 27.875 56 
Q 33.9375 56 38.25 53.625 
Q 42.578125 51.265625 45.40625 46.390625 
M 14.796875 27.296875 
Q 14.796875 17.390625 18.875 11.75 
Q 22.953125 6.109375 30.078125 6.109375 
Q 37.203125 6.109375 41.296875 11.75 
Q 45.40625 17.390625 45.40625 27.296875 
Q 45.40625 37.203125 41.296875 42.84375 
Q 37.203125 48.484375 30.078125 48.484375 
Q 22.953125 48.484375 18.875 42.84375 
Q 14.796875 37.203125 14.796875 27.296875 
" id="BitstreamVeraSans-Roman-64"/>
     <path d="M 2.984375 54.6875 
L 12.5 54.6875 
L 29.59375 8.796875 
L 46.6875 54.6875 
L 56.203125 54.6875 
L 35.6875 0 
L 23.484375 0 
z
" id="BitstreamVeraSans-Roman-76"/>
    </defs>
    <g transform="translate(138.7203125 16.318125)scale(0.12 -0.12)">
     <use xlink:href="#BitstreamVeraSans-Roman-64"/>
     <use x="63.4765625" xlink:href="#BitstreamVeraSans-Roman-61"/>
     <use x="124.755859375" xlink:href="#BitstreamVeraSans-Roman-74"/>
     <use x="163.96484375" xlink:href="#BitstreamVeraSans-Roman-6f"/>
     <use x="225.146484375" xlink:href="#BitstreamVeraSans-Roman-76"/>
     <use x="284.326171875" xlink:href="#BitstreamVeraSans-Roman-65"/>
     <use x="345.849609375" xlink:href="#BitstreamVeraSans-Roman-20"/>
     <use x="377.63671875" xlink:href="#BitstreamVeraSans-Roman-76"/>
     <use x="436.81640625" xlink:href="#BitstreamVeraSans-Roman-79"/>
     <use x="495.99609375" xlink:href="#BitstreamVeraSans-Roman-70"/>
     <use x="559.47265625" xlink:href="#BitstreamVeraSans-Roman-61"/>
     <use x="620.751953125" xlink:href="#BitstreamVeraSans-Roman-64"/>
     <use x="684.228515625" xlink:href="#BitstreamVeraSans-Roman-6b"/>
     <use x="742.091796875" xlink:href="#BitstreamVeraSans-Roman-79"/>
     <use x="801.271484375" xlink:href="#BitstreamVeraSans-Roman-20"/>
     <use x="833.05859375" xlink:href="#BitstreamVeraSans-Roman-4c"/>
     <use x="888.771484375" xlink:href="#BitstreamVeraSans-Roman-33"/>
     <use x="952.39453125" xlink:href="#BitstreamVeraSans-Roman-20"/>
     <use x="984.181640625" xlink:href="#BitstreamVeraSans-Roman-63"/>
     <use x="1039.162109375" xlink:href="#BitstreamVeraSans-Roman-61"/>
     <use x="1100.44140625" xlink:href="#BitstreamVeraSans-Roman-63"/>
     <use x="1155.421875" xlink:href="#BitstreamVeraSans-Roman-68"/>
     <use x="1218.80078125" xlink:href="#BitstreamVeraSans-Roman-65"/>
    </g>
   </g>
   <g id="legend_1">
    <g id="patch_7">
     <path d="M 270.385625 178.7525 
L 376.94375 178.7525 
L 376.94375 87.08375 
L 270.385625 87.08375 
z
" style="fill:#ffffff;stroke:#000000;stroke-linejoin:miter;"/>
    </g>
    <g id="line2d_45">
     <path d="M 278.785625 96.801875 
L 295.585625 96.801875 
" style="fill:none;stroke:#0000ff;stroke-linecap:square;"/>
    </g>
    <g id="line2d_46">
     <g>
      <use style="fill:#0000ff;stroke:#0000ff;stroke-width:0.5;" x="278.785625" xlink:href="#m99419805fa" y="96.801875"/>
      <use style="fill:#0000ff;stroke:#0000ff;stroke-width:0.5;" x="295.585625" xlink:href="#m99419805fa" y="96.801875"/>
     </g>
    </g>
    <g id="text_18">
     <!-- BF = 8 -->
     <defs>
      <path d="M 19.671875 34.8125 
L 19.671875 8.109375 
L 35.5 8.109375 
Q 43.453125 8.109375 47.28125 11.40625 
Q 51.125 14.703125 51.125 21.484375 
Q 51.125 28.328125 47.28125 31.5625 
Q 43.453125 34.8125 35.5 34.8125 
z
M 19.671875 64.796875 
L 19.671875 42.828125 
L 34.28125 42.828125 
Q 41.5 42.828125 45.03125 45.53125 
Q 48.578125 48.25 48.578125 53.8125 
Q 48.578125 59.328125 45.03125 62.0625 
Q 41.5 64.796875 34.28125 64.796875 
z
M 9.8125 72.90625 
L 35.015625 72.90625 
Q 46.296875 72.90625 52.390625 68.21875 
Q 58.5 63.53125 58.5 54.890625 
Q 58.5 48.1875 55.375 44.234375 
Q 52.25 40.28125 46.1875 39.3125 
Q 53.46875 37.75 57.5 32.78125 
Q 61.53125 27.828125 61.53125 20.40625 
Q 61.53125 10.640625 54.890625 5.3125 
Q 48.25 0 35.984375 0 
L 9.8125 0 
z
" id="BitstreamVeraSans-Roman-42"/>
      <path d="M 9.8125 72.90625 
L 51.703125 72.90625 
L 51.703125 64.59375 
L 19.671875 64.59375 
L 19.671875 43.109375 
L 48.578125 43.109375 
L 48.578125 34.8125 
L 19.671875 34.8125 
L 19.671875 0 
L 9.8125 0 
z
" id="BitstreamVeraSans-Roman-46"/>
      <path d="M 10.59375 45.40625 
L 73.1875 45.40625 
L 73.1875 37.203125 
L 10.59375 37.203125 
z
M 10.59375 25.484375 
L 73.1875 25.484375 
L 73.1875 17.1875 
L 10.59375 17.1875 
z
" id="BitstreamVeraSans-Roman-3d"/>
     </defs>
     <g transform="translate(308.785625 101.001875)scale(0.12 -0.12)">
      <use xlink:href="#BitstreamVeraSans-Roman-42"/>
      <use x="68.603515625" xlink:href="#BitstreamVeraSans-Roman-46"/>
      <use x="126.123046875" xlink:href="#BitstreamVeraSans-Roman-20"/>
      <use x="157.91015625" xlink:href="#BitstreamVeraSans-Roman-3d"/>
      <use x="241.69921875" xlink:href="#BitstreamVeraSans-Roman-20"/>
      <use x="273.486328125" xlink:href="#BitstreamVeraSans-Roman-38"/>
     </g>
    </g>
    <g id="line2d_47">
     <path d="M 278.785625 114.415625 
L 295.585625 114.415625 
" style="fill:none;stroke:#008000;stroke-linecap:square;"/>
    </g>
    <g id="line2d_48">
     <g>
      <use style="fill:#008000;stroke:#008000;stroke-width:0.5;" x="278.785625" xlink:href="#md179dde5ba" y="114.415625"/>
      <use style="fill:#008000;stroke:#008000;stroke-width:0.5;" x="295.585625" xlink:href="#md179dde5ba" y="114.415625"/>
     </g>
    </g>
    <g id="text_19">
     <!-- BF = 16 -->
     <g transform="translate(308.785625 118.615625)scale(0.12 -0.12)">
      <use xlink:href="#BitstreamVeraSans-Roman-42"/>
      <use x="68.603515625" xlink:href="#BitstreamVeraSans-Roman-46"/>
      <use x="126.123046875" xlink:href="#BitstreamVeraSans-Roman-20"/>
      <use x="157.91015625" xlink:href="#BitstreamVeraSans-Roman-3d"/>
      <use x="241.69921875" xlink:href="#BitstreamVeraSans-Roman-20"/>
      <use x="273.486328125" xlink:href="#BitstreamVeraSans-Roman-31"/>
      <use x="337.109375" xlink:href="#BitstreamVeraSans-Roman-36"/>
     </g>
    </g>
    <g id="line2d_49">
     <path d="M 278.785625 132.029375 
L 295.585625 132.029375 
" style="fill:none;stroke:#ff0000;stroke-linecap:square;"/>
    </g>
    <g id="line2d_50">
     <g>
      <use style="fill:#ff0000;stroke:#ff0000;stroke-width:0.5;" x="278.785625" xlink:href="#m021e7ee715" y="132.029375"/>
      <use style="fill:#ff0000;stroke:#ff0000;stroke-width:0.5;" x="295.585625" xlink:href="#m021e7ee715" y="132.029375"/>
     </g>
    </g>
    <g id="text_20">
     <!-- BF = 32 -->
     <g transform="translate(308.785625 136.229375)scale(0.12 -0.12)">
      <use xlink:href="#BitstreamVeraSans-Roman-42"/>
      <use x="68.603515625" xlink:href="#BitstreamVeraSans-Roman-46"/>
      <use x="126.123046875" xlink:href="#BitstreamVeraSans-Roman-20"/>
      <use x="157.91015625" xlink:href="#BitstreamVeraSans-Roman-3d"/>
      <use x="241.69921875" xlink:href="#BitstreamVeraSans-Roman-20"/>
      <use x="273.486328125" xlink:href="#BitstreamVeraSans-Roman-33"/>
      <use x="337.109375" xlink:href="#BitstreamVeraSans-Roman-32"/>
     </g>
    </g>
    <g id="line2d_51">
     <path d="M 278.785625 149.643125 
L 295.585625 149.643125 
" style="fill:none;stroke:#00bfbf;stroke-linecap:square;"/>
    </g>
    <g id="line2d_52">
     <g>
      <use style="fill:#00bfbf;stroke:#00bfbf;stroke-width:0.5;" x="278.785625" xlink:href="#m485fc50e46" y="149.643125"/>
      <use style="fill:#00bfbf;stroke:#00bfbf;stroke-width:0.5;" x="295.585625" xlink:href="#m485fc50e46" y="149.643125"/>
     </g>
    </g>
    <g id="text_21">
     <!-- BF = 512 -->
     <g transform="translate(308.785625 153.843125)scale(0.12 -0.12)">
      <use xlink:href="#BitstreamVeraSans-Roman-42"/>
      <use x="68.603515625" xlink:href="#BitstreamVeraSans-Roman-46"/>
      <use x="126.123046875" xlink:href="#BitstreamVeraSans-Roman-20"/>
      <use x="157.91015625" xlink:href="#BitstreamVeraSans-Roman-3d"/>
      <use x="241.69921875" xlink:href="#BitstreamVeraSans-Roman-20"/>
      <use x="273.486328125" xlink:href="#BitstreamVeraSans-Roman-35"/>
      <use x="337.109375" xlink:href="#BitstreamVeraSans-Roman-31"/>
      <use x="400.732421875" xlink:href="#BitstreamVeraSans-Roman-32"/>
     </g>
    </g>
    <g id="line2d_53">
     <path d="M 278.785625 167.256875 
L 295.585625 167.256875 
" style="fill:none;stroke:#bf00bf;stroke-linecap:square;"/>
    </g>
    <g id="line2d_54">
     <g>
      <use style="fill:#bf00bf;stroke:#bf00bf;stroke-width:0.5;" x="278.785625" xlink:href="#m6ea887a89b" y="167.256875"/>
      <use style="fill:#bf00bf;stroke:#bf00bf;stroke-width:0.5;" x="295.585625" xlink:href="#m6ea887a89b" y="167.256875"/>
     </g>
    </g>
    <g id="text_22">
     <!-- BF = 1186 -->
     <g transform="translate(308.785625 171.456875)scale(0.12 -0.12)">
      <use xlink:href="#BitstreamVeraSans-Roman-42"/>
      <use x="68.603515625" xlink:href="#BitstreamVeraSans-Roman-46"/>
      <use x="126.123046875" xlink:href="#BitstreamVeraSans-Roman-20"/>
      <use x="157.91015625" xlink:href="#BitstreamVeraSans-Roman-3d"/>
      <use x="241.69921875" xlink:href="#BitstreamVeraSans-Roman-20"/>
      <use x="273.486328125" xlink:href="#BitstreamVeraSans-Roman-31"/>
      <use x="337.109375" xlink:href="#BitstreamVeraSans-Roman-31"/>
      <use x="400.732421875" xlink:href="#BitstreamVeraSans-Roman-38"/>
      <use x="464.35546875" xlink:href="#BitstreamVeraSans-Roman-36"/>
     </g>
    </g>
   </g>
  </g>
 </g>
 <defs>
  <clipPath id="p31f9973589">
   <rect height="223.2" width="334.8" x="48.14375" y="21.318125"/>
  </clipPath>
 </defs>
</svg>
