<?xml version="1.0" encoding="utf-8" standalone="no"?>
<!DOCTYPE svg PUBLIC "-//W3C//DTD SVG 1.1//EN"
  "http://www.w3.org/Graphics/SVG/1.1/DTD/svg11.dtd">
<!-- Created with matplotlib (http://matplotlib.org/) -->
<svg height="408pt" version="1.1" viewBox="0 0 498 408" width="498pt" xmlns="http://www.w3.org/2000/svg" xmlns:xlink="http://www.w3.org/1999/xlink">
 <defs>
  <style type="text/css">
*{stroke-linecap:butt;stroke-linejoin:round;stroke-miterlimit:100000;}
  </style>
 </defs>
 <g id="figure_1">
  <g id="patch_1">
   <path d="M 0 408.16925 
L 498.590625 408.16925 
L 498.590625 0 
L 0 0 
z
" style="fill:#ffffff;"/>
  </g>
  <g id="axes_1">
   <g id="patch_2">
    <path d="M 35.44875 368.74175 
L 481.84875 368.74175 
L 481.84875 23.14175 
L 35.44875 23.14175 
z
" style="fill:#ffffff;"/>
   </g>
   <g id="line2d_1">
    <path clip-path="url(#p6a7d0f137c)" d="M 50.32875 202.947757 
L 65.20875 185.530756 
L 80.08875 212.138101 
L 94.96875 179.464005 
L 109.84875 73.01425 
L 124.72875 73.484831 
L 139.60875 73.168644 
L 154.48875 73.114085 
L 169.36875 84.131754 
L 184.24875 73.025693 
L 199.12875 73.516094 
L 214.00875 72.900193 
L 228.88875 73.004022 
L 243.76875 73.406362 
L 258.64875 73.287451 
L 273.52875 84.597589 
L 288.40875 204.640318 
L 303.28875 73.046973 
L 318.16875 73.436818 
L 333.04875 73.252526 
L 347.92875 84.362267 
L 362.80875 73.564648 
L 377.68875 73.597275 
L 392.56875 73.73334 
L 407.44875 73.36501 
L 422.32875 291.982762 
L 437.20875 74.520859 
" style="fill:none;stroke:#0000ff;stroke-linecap:square;"/>
    <defs>
     <path d="M 0 1.5 
C 0.397805 1.5 0.77937 1.341951 1.06066 1.06066 
C 1.341951 0.77937 1.5 0.397805 1.5 0 
C 1.5 -0.397805 1.341951 -0.77937 1.06066 -1.06066 
C 0.77937 -1.341951 0.397805 -1.5 0 -1.5 
C -0.397805 -1.5 -0.77937 -1.341951 -1.06066 -1.06066 
C -1.341951 -0.77937 -1.5 -0.397805 -1.5 0 
C -1.5 0.397805 -1.341951 0.77937 -1.06066 1.06066 
C -0.77937 1.341951 -0.397805 1.5 0 1.5 
z
" id="me9518b024a" style="stroke:#0000ff;stroke-width:0.5;"/>
    </defs>
    <g clip-path="url(#p6a7d0f137c)">
     <use style="fill:#0000ff;stroke:#0000ff;stroke-width:0.5;" x="50.32875" xlink:href="#me9518b024a" y="202.947757311"/>
     <use style="fill:#0000ff;stroke:#0000ff;stroke-width:0.5;" x="65.20875" xlink:href="#me9518b024a" y="185.53075593"/>
     <use style="fill:#0000ff;stroke:#0000ff;stroke-width:0.5;" x="80.08875" xlink:href="#me9518b024a" y="212.13810131"/>
     <use style="fill:#0000ff;stroke:#0000ff;stroke-width:0.5;" x="94.96875" xlink:href="#me9518b024a" y="179.464004717"/>
     <use style="fill:#0000ff;stroke:#0000ff;stroke-width:0.5;" x="109.84875" xlink:href="#me9518b024a" y="73.0142498462"/>
     <use style="fill:#0000ff;stroke:#0000ff;stroke-width:0.5;" x="124.72875" xlink:href="#me9518b024a" y="73.4848309514"/>
     <use style="fill:#0000ff;stroke:#0000ff;stroke-width:0.5;" x="139.60875" xlink:href="#me9518b024a" y="73.1686436152"/>
     <use style="fill:#0000ff;stroke:#0000ff;stroke-width:0.5;" x="154.48875" xlink:href="#me9518b024a" y="73.1140852871"/>
     <use style="fill:#0000ff;stroke:#0000ff;stroke-width:0.5;" x="169.36875" xlink:href="#me9518b024a" y="84.1317540784"/>
     <use style="fill:#0000ff;stroke:#0000ff;stroke-width:0.5;" x="184.24875" xlink:href="#me9518b024a" y="73.0256930734"/>
     <use style="fill:#0000ff;stroke:#0000ff;stroke-width:0.5;" x="199.12875" xlink:href="#me9518b024a" y="73.5160942515"/>
     <use style="fill:#0000ff;stroke:#0000ff;stroke-width:0.5;" x="214.00875" xlink:href="#me9518b024a" y="72.9001932851"/>
     <use style="fill:#0000ff;stroke:#0000ff;stroke-width:0.5;" x="228.88875" xlink:href="#me9518b024a" y="73.0040216891"/>
     <use style="fill:#0000ff;stroke:#0000ff;stroke-width:0.5;" x="243.76875" xlink:href="#me9518b024a" y="73.4063615686"/>
     <use style="fill:#0000ff;stroke:#0000ff;stroke-width:0.5;" x="258.64875" xlink:href="#me9518b024a" y="73.2874509383"/>
     <use style="fill:#0000ff;stroke:#0000ff;stroke-width:0.5;" x="273.52875" xlink:href="#me9518b024a" y="84.597589406"/>
     <use style="fill:#0000ff;stroke:#0000ff;stroke-width:0.5;" x="288.40875" xlink:href="#me9518b024a" y="204.640317537"/>
     <use style="fill:#0000ff;stroke:#0000ff;stroke-width:0.5;" x="303.28875" xlink:href="#me9518b024a" y="73.0469734494"/>
     <use style="fill:#0000ff;stroke:#0000ff;stroke-width:0.5;" x="318.16875" xlink:href="#me9518b024a" y="73.4368183406"/>
     <use style="fill:#0000ff;stroke:#0000ff;stroke-width:0.5;" x="333.04875" xlink:href="#me9518b024a" y="73.2525257993"/>
     <use style="fill:#0000ff;stroke:#0000ff;stroke-width:0.5;" x="347.92875" xlink:href="#me9518b024a" y="84.3622673793"/>
     <use style="fill:#0000ff;stroke:#0000ff;stroke-width:0.5;" x="362.80875" xlink:href="#me9518b024a" y="73.5646484598"/>
     <use style="fill:#0000ff;stroke:#0000ff;stroke-width:0.5;" x="377.68875" xlink:href="#me9518b024a" y="73.5972750305"/>
     <use style="fill:#0000ff;stroke:#0000ff;stroke-width:0.5;" x="392.56875" xlink:href="#me9518b024a" y="73.7333401941"/>
     <use style="fill:#0000ff;stroke:#0000ff;stroke-width:0.5;" x="407.44875" xlink:href="#me9518b024a" y="73.3650099849"/>
     <use style="fill:#0000ff;stroke:#0000ff;stroke-width:0.5;" x="422.32875" xlink:href="#me9518b024a" y="291.982761516"/>
     <use style="fill:#0000ff;stroke:#0000ff;stroke-width:0.5;" x="437.20875" xlink:href="#me9518b024a" y="74.5208588095"/>
    </g>
   </g>
   <g id="line2d_2">
    <path clip-path="url(#p6a7d0f137c)" d="M 50.32875 121.403019 
L 65.20875 76.088607 
L 80.08875 82.958684 
L 94.96875 104.075955 
L 109.84875 156.475717 
L 124.72875 76.161569 
L 139.60875 99.430461 
L 154.48875 81.50517 
L 169.36875 90.594536 
L 184.24875 72.688137 
L 199.12875 79.158857 
L 214.00875 86.145313 
L 228.88875 157.613681 
L 243.76875 60.711049 
L 258.64875 89.932949 
L 273.52875 94.081453 
L 288.40875 70.671907 
L 303.28875 94.985457 
L 318.16875 74.219719 
L 333.04875 91.516988 
L 347.92875 163.363365 
L 362.80875 85.052084 
L 377.68875 66.327443 
L 392.56875 50.778254 
L 407.44875 71.356037 
L 422.32875 344.335196 
L 437.20875 49.806641 
" style="fill:none;stroke:#008000;stroke-linecap:square;"/>
    <defs>
     <path d="M 0 1.5 
C 0.397805 1.5 0.77937 1.341951 1.06066 1.06066 
C 1.341951 0.77937 1.5 0.397805 1.5 0 
C 1.5 -0.397805 1.341951 -0.77937 1.06066 -1.06066 
C 0.77937 -1.341951 0.397805 -1.5 0 -1.5 
C -0.397805 -1.5 -0.77937 -1.341951 -1.06066 -1.06066 
C -1.341951 -0.77937 -1.5 -0.397805 -1.5 0 
C -1.5 0.397805 -1.341951 0.77937 -1.06066 1.06066 
C -0.77937 1.341951 -0.397805 1.5 0 1.5 
z
" id="mf068d6d080" style="stroke:#008000;stroke-width:0.5;"/>
    </defs>
    <g clip-path="url(#p6a7d0f137c)">
     <use style="fill:#008000;stroke:#008000;stroke-width:0.5;" x="50.32875" xlink:href="#mf068d6d080" y="121.403019308"/>
     <use style="fill:#008000;stroke:#008000;stroke-width:0.5;" x="65.20875" xlink:href="#mf068d6d080" y="76.0886067617"/>
     <use style="fill:#008000;stroke:#008000;stroke-width:0.5;" x="80.08875" xlink:href="#mf068d6d080" y="82.9586839304"/>
     <use style="fill:#008000;stroke:#008000;stroke-width:0.5;" x="94.96875" xlink:href="#mf068d6d080" y="104.075955169"/>
     <use style="fill:#008000;stroke:#008000;stroke-width:0.5;" x="109.84875" xlink:href="#mf068d6d080" y="156.475717057"/>
     <use style="fill:#008000;stroke:#008000;stroke-width:0.5;" x="124.72875" xlink:href="#mf068d6d080" y="76.1615690165"/>
     <use style="fill:#008000;stroke:#008000;stroke-width:0.5;" x="139.60875" xlink:href="#mf068d6d080" y="99.4304607349"/>
     <use style="fill:#008000;stroke:#008000;stroke-width:0.5;" x="154.48875" xlink:href="#mf068d6d080" y="81.5051702174"/>
     <use style="fill:#008000;stroke:#008000;stroke-width:0.5;" x="169.36875" xlink:href="#mf068d6d080" y="90.5945355935"/>
     <use style="fill:#008000;stroke:#008000;stroke-width:0.5;" x="184.24875" xlink:href="#mf068d6d080" y="72.6881368556"/>
     <use style="fill:#008000;stroke:#008000;stroke-width:0.5;" x="199.12875" xlink:href="#mf068d6d080" y="79.1588571538"/>
     <use style="fill:#008000;stroke:#008000;stroke-width:0.5;" x="214.00875" xlink:href="#mf068d6d080" y="86.145313228"/>
     <use style="fill:#008000;stroke:#008000;stroke-width:0.5;" x="228.88875" xlink:href="#mf068d6d080" y="157.613681004"/>
     <use style="fill:#008000;stroke:#008000;stroke-width:0.5;" x="243.76875" xlink:href="#mf068d6d080" y="60.7110489665"/>
     <use style="fill:#008000;stroke:#008000;stroke-width:0.5;" x="258.64875" xlink:href="#mf068d6d080" y="89.932949498"/>
     <use style="fill:#008000;stroke:#008000;stroke-width:0.5;" x="273.52875" xlink:href="#mf068d6d080" y="94.0814532204"/>
     <use style="fill:#008000;stroke:#008000;stroke-width:0.5;" x="288.40875" xlink:href="#mf068d6d080" y="70.6719070365"/>
     <use style="fill:#008000;stroke:#008000;stroke-width:0.5;" x="303.28875" xlink:href="#mf068d6d080" y="94.9854574898"/>
     <use style="fill:#008000;stroke:#008000;stroke-width:0.5;" x="318.16875" xlink:href="#mf068d6d080" y="74.2197186995"/>
     <use style="fill:#008000;stroke:#008000;stroke-width:0.5;" x="333.04875" xlink:href="#mf068d6d080" y="91.5169878674"/>
     <use style="fill:#008000;stroke:#008000;stroke-width:0.5;" x="347.92875" xlink:href="#mf068d6d080" y="163.363364504"/>
     <use style="fill:#008000;stroke:#008000;stroke-width:0.5;" x="362.80875" xlink:href="#mf068d6d080" y="85.0520843745"/>
     <use style="fill:#008000;stroke:#008000;stroke-width:0.5;" x="377.68875" xlink:href="#mf068d6d080" y="66.3274431042"/>
     <use style="fill:#008000;stroke:#008000;stroke-width:0.5;" x="392.56875" xlink:href="#mf068d6d080" y="50.7782536719"/>
     <use style="fill:#008000;stroke:#008000;stroke-width:0.5;" x="407.44875" xlink:href="#mf068d6d080" y="71.3560371923"/>
     <use style="fill:#008000;stroke:#008000;stroke-width:0.5;" x="422.32875" xlink:href="#mf068d6d080" y="344.335195736"/>
     <use style="fill:#008000;stroke:#008000;stroke-width:0.5;" x="437.20875" xlink:href="#mf068d6d080" y="49.8066406448"/>
    </g>
   </g>
   <g id="patch_3">
    <path d="M 35.44875 23.14175 
L 481.84875 23.14175 
" style="fill:none;stroke:#000000;stroke-linecap:square;stroke-linejoin:miter;"/>
   </g>
   <g id="patch_4">
    <path d="M 481.84875 368.74175 
L 481.84875 23.14175 
" style="fill:none;stroke:#000000;stroke-linecap:square;stroke-linejoin:miter;"/>
   </g>
   <g id="patch_5">
    <path d="M 35.44875 368.74175 
L 481.84875 368.74175 
" style="fill:none;stroke:#000000;stroke-linecap:square;stroke-linejoin:miter;"/>
   </g>
   <g id="patch_6">
    <path d="M 35.44875 368.74175 
L 35.44875 23.14175 
" style="fill:none;stroke:#000000;stroke-linecap:square;stroke-linejoin:miter;"/>
   </g>
   <g id="matplotlib.axis_1">
    <g id="xtick_1">
     <g id="line2d_3">
      <path clip-path="url(#p6a7d0f137c)" d="M 35.44875 368.74175 
L 35.44875 23.14175 
" style="fill:none;stroke:#000000;stroke-dasharray:1.000000,3.000000;stroke-dashoffset:0.0;stroke-width:0.5;"/>
     </g>
     <g id="line2d_4">
      <defs>
       <path d="M 0 0 
L 0 -4 
" id="m9adac34755" style="stroke:#000000;stroke-width:0.5;"/>
      </defs>
      <g>
       <use style="stroke:#000000;stroke-width:0.5;" x="35.44875" xlink:href="#m9adac34755" y="368.74175"/>
      </g>
     </g>
     <g id="line2d_5">
      <defs>
       <path d="M 0 0 
L 0 4 
" id="mfc10f2928f" style="stroke:#000000;stroke-width:0.5;"/>
      </defs>
      <g>
       <use style="stroke:#000000;stroke-width:0.5;" x="35.44875" xlink:href="#mfc10f2928f" y="23.14175"/>
      </g>
     </g>
     <g id="text_1">
      <!-- 0.0 -->
      <defs>
       <path d="M 31.78125 66.40625 
Q 24.171875 66.40625 20.328125 58.90625 
Q 16.5 51.421875 16.5 36.375 
Q 16.5 21.390625 20.328125 13.890625 
Q 24.171875 6.390625 31.78125 6.390625 
Q 39.453125 6.390625 43.28125 13.890625 
Q 47.125 21.390625 47.125 36.375 
Q 47.125 51.421875 43.28125 58.90625 
Q 39.453125 66.40625 31.78125 66.40625 
M 31.78125 74.21875 
Q 44.046875 74.21875 50.515625 64.515625 
Q 56.984375 54.828125 56.984375 36.375 
Q 56.984375 17.96875 50.515625 8.265625 
Q 44.046875 -1.421875 31.78125 -1.421875 
Q 19.53125 -1.421875 13.0625 8.265625 
Q 6.59375 17.96875 6.59375 36.375 
Q 6.59375 54.828125 13.0625 64.515625 
Q 19.53125 74.21875 31.78125 74.21875 
" id="BitstreamVeraSans-Roman-30"/>
       <path d="M 10.6875 12.40625 
L 21 12.40625 
L 21 0 
L 10.6875 0 
z
" id="BitstreamVeraSans-Roman-2e"/>
      </defs>
      <g transform="translate(25.906875 381.859875)scale(0.12 -0.12)">
       <use xlink:href="#BitstreamVeraSans-Roman-30"/>
       <use x="63.623046875" xlink:href="#BitstreamVeraSans-Roman-2e"/>
       <use x="95.41015625" xlink:href="#BitstreamVeraSans-Roman-30"/>
      </g>
     </g>
    </g>
    <g id="xtick_2">
     <g id="line2d_6">
      <path clip-path="url(#p6a7d0f137c)" d="M 109.84875 368.74175 
L 109.84875 23.14175 
" style="fill:none;stroke:#000000;stroke-dasharray:1.000000,3.000000;stroke-dashoffset:0.0;stroke-width:0.5;"/>
     </g>
     <g id="line2d_7">
      <g>
       <use style="stroke:#000000;stroke-width:0.5;" x="109.84875" xlink:href="#m9adac34755" y="368.74175"/>
      </g>
     </g>
     <g id="line2d_8">
      <g>
       <use style="stroke:#000000;stroke-width:0.5;" x="109.84875" xlink:href="#mfc10f2928f" y="23.14175"/>
      </g>
     </g>
     <g id="text_2">
      <!-- 0.5 -->
      <defs>
       <path d="M 10.796875 72.90625 
L 49.515625 72.90625 
L 49.515625 64.59375 
L 19.828125 64.59375 
L 19.828125 46.734375 
Q 21.96875 47.46875 24.109375 47.828125 
Q 26.265625 48.1875 28.421875 48.1875 
Q 40.625 48.1875 47.75 41.5 
Q 54.890625 34.8125 54.890625 23.390625 
Q 54.890625 11.625 47.5625 5.09375 
Q 40.234375 -1.421875 26.90625 -1.421875 
Q 22.3125 -1.421875 17.546875 -0.640625 
Q 12.796875 0.140625 7.71875 1.703125 
L 7.71875 11.625 
Q 12.109375 9.234375 16.796875 8.0625 
Q 21.484375 6.890625 26.703125 6.890625 
Q 35.15625 6.890625 40.078125 11.328125 
Q 45.015625 15.765625 45.015625 23.390625 
Q 45.015625 31 40.078125 35.4375 
Q 35.15625 39.890625 26.703125 39.890625 
Q 22.75 39.890625 18.8125 39.015625 
Q 14.890625 38.140625 10.796875 36.28125 
z
" id="BitstreamVeraSans-Roman-35"/>
      </defs>
      <g transform="translate(100.306875 381.859875)scale(0.12 -0.12)">
       <use xlink:href="#BitstreamVeraSans-Roman-30"/>
       <use x="63.623046875" xlink:href="#BitstreamVeraSans-Roman-2e"/>
       <use x="95.41015625" xlink:href="#BitstreamVeraSans-Roman-35"/>
      </g>
     </g>
    </g>
    <g id="xtick_3">
     <g id="line2d_9">
      <path clip-path="url(#p6a7d0f137c)" d="M 184.24875 368.74175 
L 184.24875 23.14175 
" style="fill:none;stroke:#000000;stroke-dasharray:1.000000,3.000000;stroke-dashoffset:0.0;stroke-width:0.5;"/>
     </g>
     <g id="line2d_10">
      <g>
       <use style="stroke:#000000;stroke-width:0.5;" x="184.24875" xlink:href="#m9adac34755" y="368.74175"/>
      </g>
     </g>
     <g id="line2d_11">
      <g>
       <use style="stroke:#000000;stroke-width:0.5;" x="184.24875" xlink:href="#mfc10f2928f" y="23.14175"/>
      </g>
     </g>
     <g id="text_3">
      <!-- 1.0 -->
      <defs>
       <path d="M 12.40625 8.296875 
L 28.515625 8.296875 
L 28.515625 63.921875 
L 10.984375 60.40625 
L 10.984375 69.390625 
L 28.421875 72.90625 
L 38.28125 72.90625 
L 38.28125 8.296875 
L 54.390625 8.296875 
L 54.390625 0 
L 12.40625 0 
z
" id="BitstreamVeraSans-Roman-31"/>
      </defs>
      <g transform="translate(174.706875 381.859875)scale(0.12 -0.12)">
       <use xlink:href="#BitstreamVeraSans-Roman-31"/>
       <use x="63.623046875" xlink:href="#BitstreamVeraSans-Roman-2e"/>
       <use x="95.41015625" xlink:href="#BitstreamVeraSans-Roman-30"/>
      </g>
     </g>
    </g>
    <g id="xtick_4">
     <g id="line2d_12">
      <path clip-path="url(#p6a7d0f137c)" d="M 258.64875 368.74175 
L 258.64875 23.14175 
" style="fill:none;stroke:#000000;stroke-dasharray:1.000000,3.000000;stroke-dashoffset:0.0;stroke-width:0.5;"/>
     </g>
     <g id="line2d_13">
      <g>
       <use style="stroke:#000000;stroke-width:0.5;" x="258.64875" xlink:href="#m9adac34755" y="368.74175"/>
      </g>
     </g>
     <g id="line2d_14">
      <g>
       <use style="stroke:#000000;stroke-width:0.5;" x="258.64875" xlink:href="#mfc10f2928f" y="23.14175"/>
      </g>
     </g>
     <g id="text_4">
      <!-- 1.5 -->
      <g transform="translate(249.106875 381.859875)scale(0.12 -0.12)">
       <use xlink:href="#BitstreamVeraSans-Roman-31"/>
       <use x="63.623046875" xlink:href="#BitstreamVeraSans-Roman-2e"/>
       <use x="95.41015625" xlink:href="#BitstreamVeraSans-Roman-35"/>
      </g>
     </g>
    </g>
    <g id="xtick_5">
     <g id="line2d_15">
      <path clip-path="url(#p6a7d0f137c)" d="M 333.04875 368.74175 
L 333.04875 23.14175 
" style="fill:none;stroke:#000000;stroke-dasharray:1.000000,3.000000;stroke-dashoffset:0.0;stroke-width:0.5;"/>
     </g>
     <g id="line2d_16">
      <g>
       <use style="stroke:#000000;stroke-width:0.5;" x="333.04875" xlink:href="#m9adac34755" y="368.74175"/>
      </g>
     </g>
     <g id="line2d_17">
      <g>
       <use style="stroke:#000000;stroke-width:0.5;" x="333.04875" xlink:href="#mfc10f2928f" y="23.14175"/>
      </g>
     </g>
     <g id="text_5">
      <!-- 2.0 -->
      <defs>
       <path d="M 19.1875 8.296875 
L 53.609375 8.296875 
L 53.609375 0 
L 7.328125 0 
L 7.328125 8.296875 
Q 12.9375 14.109375 22.625 23.890625 
Q 32.328125 33.6875 34.8125 36.53125 
Q 39.546875 41.84375 41.421875 45.53125 
Q 43.3125 49.21875 43.3125 52.78125 
Q 43.3125 58.59375 39.234375 62.25 
Q 35.15625 65.921875 28.609375 65.921875 
Q 23.96875 65.921875 18.8125 64.3125 
Q 13.671875 62.703125 7.8125 59.421875 
L 7.8125 69.390625 
Q 13.765625 71.78125 18.9375 73 
Q 24.125 74.21875 28.421875 74.21875 
Q 39.75 74.21875 46.484375 68.546875 
Q 53.21875 62.890625 53.21875 53.421875 
Q 53.21875 48.921875 51.53125 44.890625 
Q 49.859375 40.875 45.40625 35.40625 
Q 44.1875 33.984375 37.640625 27.21875 
Q 31.109375 20.453125 19.1875 8.296875 
" id="BitstreamVeraSans-Roman-32"/>
      </defs>
      <g transform="translate(323.506875 381.859875)scale(0.12 -0.12)">
       <use xlink:href="#BitstreamVeraSans-Roman-32"/>
       <use x="63.623046875" xlink:href="#BitstreamVeraSans-Roman-2e"/>
       <use x="95.41015625" xlink:href="#BitstreamVeraSans-Roman-30"/>
      </g>
     </g>
    </g>
    <g id="xtick_6">
     <g id="line2d_18">
      <path clip-path="url(#p6a7d0f137c)" d="M 407.44875 368.74175 
L 407.44875 23.14175 
" style="fill:none;stroke:#000000;stroke-dasharray:1.000000,3.000000;stroke-dashoffset:0.0;stroke-width:0.5;"/>
     </g>
     <g id="line2d_19">
      <g>
       <use style="stroke:#000000;stroke-width:0.5;" x="407.44875" xlink:href="#m9adac34755" y="368.74175"/>
      </g>
     </g>
     <g id="line2d_20">
      <g>
       <use style="stroke:#000000;stroke-width:0.5;" x="407.44875" xlink:href="#mfc10f2928f" y="23.14175"/>
      </g>
     </g>
     <g id="text_6">
      <!-- 2.5 -->
      <g transform="translate(397.906875 381.859875)scale(0.12 -0.12)">
       <use xlink:href="#BitstreamVeraSans-Roman-32"/>
       <use x="63.623046875" xlink:href="#BitstreamVeraSans-Roman-2e"/>
       <use x="95.41015625" xlink:href="#BitstreamVeraSans-Roman-35"/>
      </g>
     </g>
    </g>
    <g id="xtick_7">
     <g id="line2d_21">
      <path clip-path="url(#p6a7d0f137c)" d="M 481.84875 368.74175 
L 481.84875 23.14175 
" style="fill:none;stroke:#000000;stroke-dasharray:1.000000,3.000000;stroke-dashoffset:0.0;stroke-width:0.5;"/>
     </g>
     <g id="line2d_22">
      <g>
       <use style="stroke:#000000;stroke-width:0.5;" x="481.84875" xlink:href="#m9adac34755" y="368.74175"/>
      </g>
     </g>
     <g id="line2d_23">
      <g>
       <use style="stroke:#000000;stroke-width:0.5;" x="481.84875" xlink:href="#mfc10f2928f" y="23.14175"/>
      </g>
     </g>
     <g id="text_7">
      <!-- 3.0 -->
      <defs>
       <path d="M 40.578125 39.3125 
Q 47.65625 37.796875 51.625 33 
Q 55.609375 28.21875 55.609375 21.1875 
Q 55.609375 10.40625 48.1875 4.484375 
Q 40.765625 -1.421875 27.09375 -1.421875 
Q 22.515625 -1.421875 17.65625 -0.515625 
Q 12.796875 0.390625 7.625 2.203125 
L 7.625 11.71875 
Q 11.71875 9.328125 16.59375 8.109375 
Q 21.484375 6.890625 26.8125 6.890625 
Q 36.078125 6.890625 40.9375 10.546875 
Q 45.796875 14.203125 45.796875 21.1875 
Q 45.796875 27.640625 41.28125 31.265625 
Q 36.765625 34.90625 28.71875 34.90625 
L 20.21875 34.90625 
L 20.21875 43.015625 
L 29.109375 43.015625 
Q 36.375 43.015625 40.234375 45.921875 
Q 44.09375 48.828125 44.09375 54.296875 
Q 44.09375 59.90625 40.109375 62.90625 
Q 36.140625 65.921875 28.71875 65.921875 
Q 24.65625 65.921875 20.015625 65.03125 
Q 15.375 64.15625 9.8125 62.3125 
L 9.8125 71.09375 
Q 15.4375 72.65625 20.34375 73.4375 
Q 25.25 74.21875 29.59375 74.21875 
Q 40.828125 74.21875 47.359375 69.109375 
Q 53.90625 64.015625 53.90625 55.328125 
Q 53.90625 49.265625 50.4375 45.09375 
Q 46.96875 40.921875 40.578125 39.3125 
" id="BitstreamVeraSans-Roman-33"/>
      </defs>
      <g transform="translate(472.306875 381.859875)scale(0.12 -0.12)">
       <use xlink:href="#BitstreamVeraSans-Roman-33"/>
       <use x="63.623046875" xlink:href="#BitstreamVeraSans-Roman-2e"/>
       <use x="95.41015625" xlink:href="#BitstreamVeraSans-Roman-30"/>
      </g>
     </g>
    </g>
    <g id="text_8">
     <!-- n - pocet linearnich generatoru -->
     <defs>
      <path id="BitstreamVeraSans-Roman-20"/>
      <path d="M 18.109375 8.203125 
L 18.109375 -20.796875 
L 9.078125 -20.796875 
L 9.078125 54.6875 
L 18.109375 54.6875 
L 18.109375 46.390625 
Q 20.953125 51.265625 25.265625 53.625 
Q 29.59375 56 35.59375 56 
Q 45.5625 56 51.78125 48.09375 
Q 58.015625 40.1875 58.015625 27.296875 
Q 58.015625 14.40625 51.78125 6.484375 
Q 45.5625 -1.421875 35.59375 -1.421875 
Q 29.59375 -1.421875 25.265625 0.953125 
Q 20.953125 3.328125 18.109375 8.203125 
M 48.6875 27.296875 
Q 48.6875 37.203125 44.609375 42.84375 
Q 40.53125 48.484375 33.40625 48.484375 
Q 26.265625 48.484375 22.1875 42.84375 
Q 18.109375 37.203125 18.109375 27.296875 
Q 18.109375 17.390625 22.1875 11.75 
Q 26.265625 6.109375 33.40625 6.109375 
Q 40.53125 6.109375 44.609375 11.75 
Q 48.6875 17.390625 48.6875 27.296875 
" id="BitstreamVeraSans-Roman-70"/>
      <path d="M 54.890625 33.015625 
L 54.890625 0 
L 45.90625 0 
L 45.90625 32.71875 
Q 45.90625 40.484375 42.875 44.328125 
Q 39.84375 48.1875 33.796875 48.1875 
Q 26.515625 48.1875 22.3125 43.546875 
Q 18.109375 38.921875 18.109375 30.90625 
L 18.109375 0 
L 9.078125 0 
L 9.078125 54.6875 
L 18.109375 54.6875 
L 18.109375 46.1875 
Q 21.34375 51.125 25.703125 53.5625 
Q 30.078125 56 35.796875 56 
Q 45.21875 56 50.046875 50.171875 
Q 54.890625 44.34375 54.890625 33.015625 
" id="BitstreamVeraSans-Roman-6e"/>
      <path d="M 41.109375 46.296875 
Q 39.59375 47.171875 37.8125 47.578125 
Q 36.03125 48 33.890625 48 
Q 26.265625 48 22.1875 43.046875 
Q 18.109375 38.09375 18.109375 28.8125 
L 18.109375 0 
L 9.078125 0 
L 9.078125 54.6875 
L 18.109375 54.6875 
L 18.109375 46.1875 
Q 20.953125 51.171875 25.484375 53.578125 
Q 30.03125 56 36.53125 56 
Q 37.453125 56 38.578125 55.875 
Q 39.703125 55.765625 41.0625 55.515625 
z
" id="BitstreamVeraSans-Roman-72"/>
      <path d="M 30.609375 48.390625 
Q 23.390625 48.390625 19.1875 42.75 
Q 14.984375 37.109375 14.984375 27.296875 
Q 14.984375 17.484375 19.15625 11.84375 
Q 23.34375 6.203125 30.609375 6.203125 
Q 37.796875 6.203125 41.984375 11.859375 
Q 46.1875 17.53125 46.1875 27.296875 
Q 46.1875 37.015625 41.984375 42.703125 
Q 37.796875 48.390625 30.609375 48.390625 
M 30.609375 56 
Q 42.328125 56 49.015625 48.375 
Q 55.71875 40.765625 55.71875 27.296875 
Q 55.71875 13.875 49.015625 6.21875 
Q 42.328125 -1.421875 30.609375 -1.421875 
Q 18.84375 -1.421875 12.171875 6.21875 
Q 5.515625 13.875 5.515625 27.296875 
Q 5.515625 40.765625 12.171875 48.375 
Q 18.84375 56 30.609375 56 
" id="BitstreamVeraSans-Roman-6f"/>
      <path d="M 9.421875 75.984375 
L 18.40625 75.984375 
L 18.40625 0 
L 9.421875 0 
z
" id="BitstreamVeraSans-Roman-6c"/>
      <path d="M 9.421875 54.6875 
L 18.40625 54.6875 
L 18.40625 0 
L 9.421875 0 
z
M 9.421875 75.984375 
L 18.40625 75.984375 
L 18.40625 64.59375 
L 9.421875 64.59375 
z
" id="BitstreamVeraSans-Roman-69"/>
      <path d="M 4.890625 31.390625 
L 31.203125 31.390625 
L 31.203125 23.390625 
L 4.890625 23.390625 
z
" id="BitstreamVeraSans-Roman-2d"/>
      <path d="M 56.203125 29.59375 
L 56.203125 25.203125 
L 14.890625 25.203125 
Q 15.484375 15.921875 20.484375 11.0625 
Q 25.484375 6.203125 34.421875 6.203125 
Q 39.59375 6.203125 44.453125 7.46875 
Q 49.3125 8.734375 54.109375 11.28125 
L 54.109375 2.78125 
Q 49.265625 0.734375 44.1875 -0.34375 
Q 39.109375 -1.421875 33.890625 -1.421875 
Q 20.796875 -1.421875 13.15625 6.1875 
Q 5.515625 13.8125 5.515625 26.8125 
Q 5.515625 40.234375 12.765625 48.109375 
Q 20.015625 56 32.328125 56 
Q 43.359375 56 49.78125 48.890625 
Q 56.203125 41.796875 56.203125 29.59375 
M 47.21875 32.234375 
Q 47.125 39.59375 43.09375 43.984375 
Q 39.0625 48.390625 32.421875 48.390625 
Q 24.90625 48.390625 20.390625 44.140625 
Q 15.875 39.890625 15.1875 32.171875 
z
" id="BitstreamVeraSans-Roman-65"/>
      <path d="M 18.3125 70.21875 
L 18.3125 54.6875 
L 36.8125 54.6875 
L 36.8125 47.703125 
L 18.3125 47.703125 
L 18.3125 18.015625 
Q 18.3125 11.328125 20.140625 9.421875 
Q 21.96875 7.515625 27.59375 7.515625 
L 36.8125 7.515625 
L 36.8125 0 
L 27.59375 0 
Q 17.1875 0 13.234375 3.875 
Q 9.28125 7.765625 9.28125 18.015625 
L 9.28125 47.703125 
L 2.6875 47.703125 
L 2.6875 54.6875 
L 9.28125 54.6875 
L 9.28125 70.21875 
z
" id="BitstreamVeraSans-Roman-74"/>
      <path d="M 8.5 21.578125 
L 8.5 54.6875 
L 17.484375 54.6875 
L 17.484375 21.921875 
Q 17.484375 14.15625 20.5 10.265625 
Q 23.53125 6.390625 29.59375 6.390625 
Q 36.859375 6.390625 41.078125 11.03125 
Q 45.3125 15.671875 45.3125 23.6875 
L 45.3125 54.6875 
L 54.296875 54.6875 
L 54.296875 0 
L 45.3125 0 
L 45.3125 8.40625 
Q 42.046875 3.421875 37.71875 1 
Q 33.40625 -1.421875 27.6875 -1.421875 
Q 18.265625 -1.421875 13.375 4.4375 
Q 8.5 10.296875 8.5 21.578125 
" id="BitstreamVeraSans-Roman-75"/>
      <path d="M 34.28125 27.484375 
Q 23.390625 27.484375 19.1875 25 
Q 14.984375 22.515625 14.984375 16.5 
Q 14.984375 11.71875 18.140625 8.90625 
Q 21.296875 6.109375 26.703125 6.109375 
Q 34.1875 6.109375 38.703125 11.40625 
Q 43.21875 16.703125 43.21875 25.484375 
L 43.21875 27.484375 
z
M 52.203125 31.203125 
L 52.203125 0 
L 43.21875 0 
L 43.21875 8.296875 
Q 40.140625 3.328125 35.546875 0.953125 
Q 30.953125 -1.421875 24.3125 -1.421875 
Q 15.921875 -1.421875 10.953125 3.296875 
Q 6 8.015625 6 15.921875 
Q 6 25.140625 12.171875 29.828125 
Q 18.359375 34.515625 30.609375 34.515625 
L 43.21875 34.515625 
L 43.21875 35.40625 
Q 43.21875 41.609375 39.140625 45 
Q 35.0625 48.390625 27.6875 48.390625 
Q 23 48.390625 18.546875 47.265625 
Q 14.109375 46.140625 10.015625 43.890625 
L 10.015625 52.203125 
Q 14.9375 54.109375 19.578125 55.046875 
Q 24.21875 56 28.609375 56 
Q 40.484375 56 46.34375 49.84375 
Q 52.203125 43.703125 52.203125 31.203125 
" id="BitstreamVeraSans-Roman-61"/>
      <path d="M 45.40625 27.984375 
Q 45.40625 37.75 41.375 43.109375 
Q 37.359375 48.484375 30.078125 48.484375 
Q 22.859375 48.484375 18.828125 43.109375 
Q 14.796875 37.75 14.796875 27.984375 
Q 14.796875 18.265625 18.828125 12.890625 
Q 22.859375 7.515625 30.078125 7.515625 
Q 37.359375 7.515625 41.375 12.890625 
Q 45.40625 18.265625 45.40625 27.984375 
M 54.390625 6.78125 
Q 54.390625 -7.171875 48.1875 -13.984375 
Q 42 -20.796875 29.203125 -20.796875 
Q 24.46875 -20.796875 20.265625 -20.09375 
Q 16.0625 -19.390625 12.109375 -17.921875 
L 12.109375 -9.1875 
Q 16.0625 -11.328125 19.921875 -12.34375 
Q 23.78125 -13.375 27.78125 -13.375 
Q 36.625 -13.375 41.015625 -8.765625 
Q 45.40625 -4.15625 45.40625 5.171875 
L 45.40625 9.625 
Q 42.625 4.78125 38.28125 2.390625 
Q 33.9375 0 27.875 0 
Q 17.828125 0 11.671875 7.65625 
Q 5.515625 15.328125 5.515625 27.984375 
Q 5.515625 40.671875 11.671875 48.328125 
Q 17.828125 56 27.875 56 
Q 33.9375 56 38.28125 53.609375 
Q 42.625 51.21875 45.40625 46.390625 
L 45.40625 54.6875 
L 54.390625 54.6875 
z
" id="BitstreamVeraSans-Roman-67"/>
      <path d="M 48.78125 52.59375 
L 48.78125 44.1875 
Q 44.96875 46.296875 41.140625 47.34375 
Q 37.3125 48.390625 33.40625 48.390625 
Q 24.65625 48.390625 19.8125 42.84375 
Q 14.984375 37.3125 14.984375 27.296875 
Q 14.984375 17.28125 19.8125 11.734375 
Q 24.65625 6.203125 33.40625 6.203125 
Q 37.3125 6.203125 41.140625 7.25 
Q 44.96875 8.296875 48.78125 10.40625 
L 48.78125 2.09375 
Q 45.015625 0.34375 40.984375 -0.53125 
Q 36.96875 -1.421875 32.421875 -1.421875 
Q 20.0625 -1.421875 12.78125 6.34375 
Q 5.515625 14.109375 5.515625 27.296875 
Q 5.515625 40.671875 12.859375 48.328125 
Q 20.21875 56 33.015625 56 
Q 37.15625 56 41.109375 55.140625 
Q 45.0625 54.296875 48.78125 52.59375 
" id="BitstreamVeraSans-Roman-63"/>
      <path d="M 54.890625 33.015625 
L 54.890625 0 
L 45.90625 0 
L 45.90625 32.71875 
Q 45.90625 40.484375 42.875 44.328125 
Q 39.84375 48.1875 33.796875 48.1875 
Q 26.515625 48.1875 22.3125 43.546875 
Q 18.109375 38.921875 18.109375 30.90625 
L 18.109375 0 
L 9.078125 0 
L 9.078125 75.984375 
L 18.109375 75.984375 
L 18.109375 46.1875 
Q 21.34375 51.125 25.703125 53.5625 
Q 30.078125 56 35.796875 56 
Q 45.21875 56 50.046875 50.171875 
Q 54.890625 44.34375 54.890625 33.015625 
" id="BitstreamVeraSans-Roman-68"/>
     </defs>
     <g transform="translate(165.2578125 398.473625)scale(0.12 -0.12)">
      <use xlink:href="#BitstreamVeraSans-Roman-6e"/>
      <use x="63.37890625" xlink:href="#BitstreamVeraSans-Roman-20"/>
      <use x="95.166015625" xlink:href="#BitstreamVeraSans-Roman-2d"/>
      <use x="131.25" xlink:href="#BitstreamVeraSans-Roman-20"/>
      <use x="163.037109375" xlink:href="#BitstreamVeraSans-Roman-70"/>
      <use x="226.513671875" xlink:href="#BitstreamVeraSans-Roman-6f"/>
      <use x="287.6953125" xlink:href="#BitstreamVeraSans-Roman-63"/>
      <use x="342.67578125" xlink:href="#BitstreamVeraSans-Roman-65"/>
      <use x="404.19921875" xlink:href="#BitstreamVeraSans-Roman-74"/>
      <use x="443.408203125" xlink:href="#BitstreamVeraSans-Roman-20"/>
      <use x="475.1953125" xlink:href="#BitstreamVeraSans-Roman-6c"/>
      <use x="502.978515625" xlink:href="#BitstreamVeraSans-Roman-69"/>
      <use x="530.76171875" xlink:href="#BitstreamVeraSans-Roman-6e"/>
      <use x="594.140625" xlink:href="#BitstreamVeraSans-Roman-65"/>
      <use x="655.6640625" xlink:href="#BitstreamVeraSans-Roman-61"/>
      <use x="716.943359375" xlink:href="#BitstreamVeraSans-Roman-72"/>
      <use x="758.041015625" xlink:href="#BitstreamVeraSans-Roman-6e"/>
      <use x="821.419921875" xlink:href="#BitstreamVeraSans-Roman-69"/>
      <use x="849.203125" xlink:href="#BitstreamVeraSans-Roman-63"/>
      <use x="904.18359375" xlink:href="#BitstreamVeraSans-Roman-68"/>
      <use x="967.5625" xlink:href="#BitstreamVeraSans-Roman-20"/>
      <use x="999.349609375" xlink:href="#BitstreamVeraSans-Roman-67"/>
      <use x="1062.82617188" xlink:href="#BitstreamVeraSans-Roman-65"/>
      <use x="1124.34960938" xlink:href="#BitstreamVeraSans-Roman-6e"/>
      <use x="1187.72851562" xlink:href="#BitstreamVeraSans-Roman-65"/>
      <use x="1249.25195312" xlink:href="#BitstreamVeraSans-Roman-72"/>
      <use x="1290.36523438" xlink:href="#BitstreamVeraSans-Roman-61"/>
      <use x="1351.64453125" xlink:href="#BitstreamVeraSans-Roman-74"/>
      <use x="1390.85351562" xlink:href="#BitstreamVeraSans-Roman-6f"/>
      <use x="1452.03515625" xlink:href="#BitstreamVeraSans-Roman-72"/>
      <use x="1493.1484375" xlink:href="#BitstreamVeraSans-Roman-75"/>
     </g>
    </g>
    <g id="text_9">
     <!-- 1e8 -->
     <defs>
      <path d="M 31.78125 34.625 
Q 24.75 34.625 20.71875 30.859375 
Q 16.703125 27.09375 16.703125 20.515625 
Q 16.703125 13.921875 20.71875 10.15625 
Q 24.75 6.390625 31.78125 6.390625 
Q 38.8125 6.390625 42.859375 10.171875 
Q 46.921875 13.96875 46.921875 20.515625 
Q 46.921875 27.09375 42.890625 30.859375 
Q 38.875 34.625 31.78125 34.625 
M 21.921875 38.8125 
Q 15.578125 40.375 12.03125 44.71875 
Q 8.5 49.078125 8.5 55.328125 
Q 8.5 64.0625 14.71875 69.140625 
Q 20.953125 74.21875 31.78125 74.21875 
Q 42.671875 74.21875 48.875 69.140625 
Q 55.078125 64.0625 55.078125 55.328125 
Q 55.078125 49.078125 51.53125 44.71875 
Q 48 40.375 41.703125 38.8125 
Q 48.828125 37.15625 52.796875 32.3125 
Q 56.78125 27.484375 56.78125 20.515625 
Q 56.78125 9.90625 50.3125 4.234375 
Q 43.84375 -1.421875 31.78125 -1.421875 
Q 19.734375 -1.421875 13.25 4.234375 
Q 6.78125 9.90625 6.78125 20.515625 
Q 6.78125 27.484375 10.78125 32.3125 
Q 14.796875 37.15625 21.921875 38.8125 
M 18.3125 54.390625 
Q 18.3125 48.734375 21.84375 45.5625 
Q 25.390625 42.390625 31.78125 42.390625 
Q 38.140625 42.390625 41.71875 45.5625 
Q 45.3125 48.734375 45.3125 54.390625 
Q 45.3125 60.0625 41.71875 63.234375 
Q 38.140625 66.40625 31.78125 66.40625 
Q 25.390625 66.40625 21.84375 63.234375 
Q 18.3125 60.0625 18.3125 54.390625 
" id="BitstreamVeraSans-Roman-38"/>
     </defs>
     <g transform="translate(459.195 396.473625)scale(0.12 -0.12)">
      <use xlink:href="#BitstreamVeraSans-Roman-31"/>
      <use x="63.623046875" xlink:href="#BitstreamVeraSans-Roman-65"/>
      <use x="125.146484375" xlink:href="#BitstreamVeraSans-Roman-38"/>
     </g>
    </g>
   </g>
   <g id="matplotlib.axis_2">
    <g id="ytick_1">
     <g id="line2d_24">
      <path clip-path="url(#p6a7d0f137c)" d="M 35.44875 368.74175 
L 481.84875 368.74175 
" style="fill:none;stroke:#000000;stroke-dasharray:1.000000,3.000000;stroke-dashoffset:0.0;stroke-width:0.5;"/>
     </g>
     <g id="line2d_25">
      <defs>
       <path d="M 0 0 
L 4 0 
" id="m5b03368dc2" style="stroke:#000000;stroke-width:0.5;"/>
      </defs>
      <g>
       <use style="stroke:#000000;stroke-width:0.5;" x="35.44875" xlink:href="#m5b03368dc2" y="368.74175"/>
      </g>
     </g>
     <g id="line2d_26">
      <defs>
       <path d="M 0 0 
L -4 0 
" id="m7fd2ce291f" style="stroke:#000000;stroke-width:0.5;"/>
      </defs>
      <g>
       <use style="stroke:#000000;stroke-width:0.5;" x="481.84875" xlink:href="#m7fd2ce291f" y="368.74175"/>
      </g>
     </g>
     <g id="text_10">
      <!-- 2 -->
      <g transform="translate(23.81375 372.053)scale(0.12 -0.12)">
       <use xlink:href="#BitstreamVeraSans-Roman-32"/>
      </g>
     </g>
    </g>
    <g id="ytick_2">
     <g id="line2d_27">
      <path clip-path="url(#p6a7d0f137c)" d="M 35.44875 299.62175 
L 481.84875 299.62175 
" style="fill:none;stroke:#000000;stroke-dasharray:1.000000,3.000000;stroke-dashoffset:0.0;stroke-width:0.5;"/>
     </g>
     <g id="line2d_28">
      <g>
       <use style="stroke:#000000;stroke-width:0.5;" x="35.44875" xlink:href="#m5b03368dc2" y="299.62175"/>
      </g>
     </g>
     <g id="line2d_29">
      <g>
       <use style="stroke:#000000;stroke-width:0.5;" x="481.84875" xlink:href="#m7fd2ce291f" y="299.62175"/>
      </g>
     </g>
     <g id="text_11">
      <!-- 3 -->
      <g transform="translate(23.81375 302.933)scale(0.12 -0.12)">
       <use xlink:href="#BitstreamVeraSans-Roman-33"/>
      </g>
     </g>
    </g>
    <g id="ytick_3">
     <g id="line2d_30">
      <path clip-path="url(#p6a7d0f137c)" d="M 35.44875 230.50175 
L 481.84875 230.50175 
" style="fill:none;stroke:#000000;stroke-dasharray:1.000000,3.000000;stroke-dashoffset:0.0;stroke-width:0.5;"/>
     </g>
     <g id="line2d_31">
      <g>
       <use style="stroke:#000000;stroke-width:0.5;" x="35.44875" xlink:href="#m5b03368dc2" y="230.50175"/>
      </g>
     </g>
     <g id="line2d_32">
      <g>
       <use style="stroke:#000000;stroke-width:0.5;" x="481.84875" xlink:href="#m7fd2ce291f" y="230.50175"/>
      </g>
     </g>
     <g id="text_12">
      <!-- 4 -->
      <defs>
       <path d="M 37.796875 64.3125 
L 12.890625 25.390625 
L 37.796875 25.390625 
z
M 35.203125 72.90625 
L 47.609375 72.90625 
L 47.609375 25.390625 
L 58.015625 25.390625 
L 58.015625 17.1875 
L 47.609375 17.1875 
L 47.609375 0 
L 37.796875 0 
L 37.796875 17.1875 
L 4.890625 17.1875 
L 4.890625 26.703125 
z
" id="BitstreamVeraSans-Roman-34"/>
      </defs>
      <g transform="translate(23.81375 233.813)scale(0.12 -0.12)">
       <use xlink:href="#BitstreamVeraSans-Roman-34"/>
      </g>
     </g>
    </g>
    <g id="ytick_4">
     <g id="line2d_33">
      <path clip-path="url(#p6a7d0f137c)" d="M 35.44875 161.38175 
L 481.84875 161.38175 
" style="fill:none;stroke:#000000;stroke-dasharray:1.000000,3.000000;stroke-dashoffset:0.0;stroke-width:0.5;"/>
     </g>
     <g id="line2d_34">
      <g>
       <use style="stroke:#000000;stroke-width:0.5;" x="35.44875" xlink:href="#m5b03368dc2" y="161.38175"/>
      </g>
     </g>
     <g id="line2d_35">
      <g>
       <use style="stroke:#000000;stroke-width:0.5;" x="481.84875" xlink:href="#m7fd2ce291f" y="161.38175"/>
      </g>
     </g>
     <g id="text_13">
      <!-- 5 -->
      <g transform="translate(23.81375 164.693)scale(0.12 -0.12)">
       <use xlink:href="#BitstreamVeraSans-Roman-35"/>
      </g>
     </g>
    </g>
    <g id="ytick_5">
     <g id="line2d_36">
      <path clip-path="url(#p6a7d0f137c)" d="M 35.44875 92.26175 
L 481.84875 92.26175 
" style="fill:none;stroke:#000000;stroke-dasharray:1.000000,3.000000;stroke-dashoffset:0.0;stroke-width:0.5;"/>
     </g>
     <g id="line2d_37">
      <g>
       <use style="stroke:#000000;stroke-width:0.5;" x="35.44875" xlink:href="#m5b03368dc2" y="92.26175"/>
      </g>
     </g>
     <g id="line2d_38">
      <g>
       <use style="stroke:#000000;stroke-width:0.5;" x="481.84875" xlink:href="#m7fd2ce291f" y="92.26175"/>
      </g>
     </g>
     <g id="text_14">
      <!-- 6 -->
      <defs>
       <path d="M 33.015625 40.375 
Q 26.375 40.375 22.484375 35.828125 
Q 18.609375 31.296875 18.609375 23.390625 
Q 18.609375 15.53125 22.484375 10.953125 
Q 26.375 6.390625 33.015625 6.390625 
Q 39.65625 6.390625 43.53125 10.953125 
Q 47.40625 15.53125 47.40625 23.390625 
Q 47.40625 31.296875 43.53125 35.828125 
Q 39.65625 40.375 33.015625 40.375 
M 52.59375 71.296875 
L 52.59375 62.3125 
Q 48.875 64.0625 45.09375 64.984375 
Q 41.3125 65.921875 37.59375 65.921875 
Q 27.828125 65.921875 22.671875 59.328125 
Q 17.53125 52.734375 16.796875 39.40625 
Q 19.671875 43.65625 24.015625 45.921875 
Q 28.375 48.1875 33.59375 48.1875 
Q 44.578125 48.1875 50.953125 41.515625 
Q 57.328125 34.859375 57.328125 23.390625 
Q 57.328125 12.15625 50.6875 5.359375 
Q 44.046875 -1.421875 33.015625 -1.421875 
Q 20.359375 -1.421875 13.671875 8.265625 
Q 6.984375 17.96875 6.984375 36.375 
Q 6.984375 53.65625 15.1875 63.9375 
Q 23.390625 74.21875 37.203125 74.21875 
Q 40.921875 74.21875 44.703125 73.484375 
Q 48.484375 72.75 52.59375 71.296875 
" id="BitstreamVeraSans-Roman-36"/>
      </defs>
      <g transform="translate(23.81375 95.573)scale(0.12 -0.12)">
       <use xlink:href="#BitstreamVeraSans-Roman-36"/>
      </g>
     </g>
    </g>
    <g id="ytick_6">
     <g id="line2d_39">
      <path clip-path="url(#p6a7d0f137c)" d="M 35.44875 23.14175 
L 481.84875 23.14175 
" style="fill:none;stroke:#000000;stroke-dasharray:1.000000,3.000000;stroke-dashoffset:0.0;stroke-width:0.5;"/>
     </g>
     <g id="line2d_40">
      <g>
       <use style="stroke:#000000;stroke-width:0.5;" x="35.44875" xlink:href="#m5b03368dc2" y="23.14175"/>
      </g>
     </g>
     <g id="line2d_41">
      <g>
       <use style="stroke:#000000;stroke-width:0.5;" x="481.84875" xlink:href="#m7fd2ce291f" y="23.14175"/>
      </g>
     </g>
     <g id="text_15">
      <!-- 7 -->
      <defs>
       <path d="M 8.203125 72.90625 
L 55.078125 72.90625 
L 55.078125 68.703125 
L 28.609375 0 
L 18.3125 0 
L 43.21875 64.59375 
L 8.203125 64.59375 
z
" id="BitstreamVeraSans-Roman-37"/>
      </defs>
      <g transform="translate(23.81375 26.453)scale(0.12 -0.12)">
       <use xlink:href="#BitstreamVeraSans-Roman-37"/>
      </g>
     </g>
    </g>
    <g id="text_16">
     <!-- n / t [s ^ -1] -->
     <defs>
      <path d="M 46.6875 72.90625 
L 73.1875 45.703125 
L 63.375 45.703125 
L 41.890625 64.984375 
L 20.40625 45.703125 
L 10.59375 45.703125 
L 37.109375 72.90625 
z
" id="BitstreamVeraSans-Roman-5e"/>
      <path d="M 8.59375 75.984375 
L 29.296875 75.984375 
L 29.296875 69 
L 17.578125 69 
L 17.578125 -6.203125 
L 29.296875 -6.203125 
L 29.296875 -13.1875 
L 8.59375 -13.1875 
z
" id="BitstreamVeraSans-Roman-5b"/>
      <path d="M 30.421875 75.984375 
L 30.421875 -13.1875 
L 9.71875 -13.1875 
L 9.71875 -6.203125 
L 21.390625 -6.203125 
L 21.390625 69 
L 9.71875 69 
L 9.71875 75.984375 
z
" id="BitstreamVeraSans-Roman-5d"/>
      <path d="M 44.28125 53.078125 
L 44.28125 44.578125 
Q 40.484375 46.53125 36.375 47.5 
Q 32.28125 48.484375 27.875 48.484375 
Q 21.1875 48.484375 17.84375 46.4375 
Q 14.5 44.390625 14.5 40.28125 
Q 14.5 37.15625 16.890625 35.375 
Q 19.28125 33.59375 26.515625 31.984375 
L 29.59375 31.296875 
Q 39.15625 29.25 43.1875 25.515625 
Q 47.21875 21.78125 47.21875 15.09375 
Q 47.21875 7.46875 41.1875 3.015625 
Q 35.15625 -1.421875 24.609375 -1.421875 
Q 20.21875 -1.421875 15.453125 -0.5625 
Q 10.6875 0.296875 5.421875 2 
L 5.421875 11.28125 
Q 10.40625 8.6875 15.234375 7.390625 
Q 20.0625 6.109375 24.8125 6.109375 
Q 31.15625 6.109375 34.5625 8.28125 
Q 37.984375 10.453125 37.984375 14.40625 
Q 37.984375 18.0625 35.515625 20.015625 
Q 33.0625 21.96875 24.703125 23.78125 
L 21.578125 24.515625 
Q 13.234375 26.265625 9.515625 29.90625 
Q 5.8125 33.546875 5.8125 39.890625 
Q 5.8125 47.609375 11.28125 51.796875 
Q 16.75 56 26.8125 56 
Q 31.78125 56 36.171875 55.265625 
Q 40.578125 54.546875 44.28125 53.078125 
" id="BitstreamVeraSans-Roman-73"/>
      <path d="M 25.390625 72.90625 
L 33.6875 72.90625 
L 8.296875 -9.28125 
L 0 -9.28125 
z
" id="BitstreamVeraSans-Roman-2f"/>
     </defs>
     <g transform="translate(16.318125 232.4695625)rotate(-90.0)scale(0.12 -0.12)">
      <use xlink:href="#BitstreamVeraSans-Roman-6e"/>
      <use x="63.37890625" xlink:href="#BitstreamVeraSans-Roman-20"/>
      <use x="95.166015625" xlink:href="#BitstreamVeraSans-Roman-2f"/>
      <use x="128.857421875" xlink:href="#BitstreamVeraSans-Roman-20"/>
      <use x="160.64453125" xlink:href="#BitstreamVeraSans-Roman-74"/>
      <use x="199.853515625" xlink:href="#BitstreamVeraSans-Roman-20"/>
      <use x="231.640625" xlink:href="#BitstreamVeraSans-Roman-5b"/>
      <use x="270.654296875" xlink:href="#BitstreamVeraSans-Roman-73"/>
      <use x="322.75390625" xlink:href="#BitstreamVeraSans-Roman-20"/>
      <use x="354.541015625" xlink:href="#BitstreamVeraSans-Roman-5e"/>
      <use x="438.330078125" xlink:href="#BitstreamVeraSans-Roman-20"/>
      <use x="470.1171875" xlink:href="#BitstreamVeraSans-Roman-2d"/>
      <use x="506.201171875" xlink:href="#BitstreamVeraSans-Roman-31"/>
      <use x="569.82421875" xlink:href="#BitstreamVeraSans-Roman-5d"/>
     </g>
    </g>
    <g id="text_17">
     <!-- 1e7 -->
     <g transform="translate(35.44875 20.14175)scale(0.12 -0.12)">
      <use xlink:href="#BitstreamVeraSans-Roman-31"/>
      <use x="63.623046875" xlink:href="#BitstreamVeraSans-Roman-65"/>
      <use x="125.146484375" xlink:href="#BitstreamVeraSans-Roman-37"/>
     </g>
    </g>
   </g>
   <g id="text_18">
    <!-- casova slozitost - paralelizace -->
    <defs>
     <path d="M 2.984375 54.6875 
L 12.5 54.6875 
L 29.59375 8.796875 
L 46.6875 54.6875 
L 56.203125 54.6875 
L 35.6875 0 
L 23.484375 0 
z
" id="BitstreamVeraSans-Roman-76"/>
     <path d="M 5.515625 54.6875 
L 48.1875 54.6875 
L 48.1875 46.484375 
L 14.40625 7.171875 
L 48.1875 7.171875 
L 48.1875 0 
L 4.296875 0 
L 4.296875 8.203125 
L 38.09375 47.515625 
L 5.515625 47.515625 
z
" id="BitstreamVeraSans-Roman-7a"/>
    </defs>
    <g transform="translate(150.881625 18.14175)scale(0.144 -0.144)">
     <use xlink:href="#BitstreamVeraSans-Roman-63"/>
     <use x="54.98046875" xlink:href="#BitstreamVeraSans-Roman-61"/>
     <use x="116.259765625" xlink:href="#BitstreamVeraSans-Roman-73"/>
     <use x="168.359375" xlink:href="#BitstreamVeraSans-Roman-6f"/>
     <use x="229.541015625" xlink:href="#BitstreamVeraSans-Roman-76"/>
     <use x="288.720703125" xlink:href="#BitstreamVeraSans-Roman-61"/>
     <use x="350.0" xlink:href="#BitstreamVeraSans-Roman-20"/>
     <use x="381.787109375" xlink:href="#BitstreamVeraSans-Roman-73"/>
     <use x="433.88671875" xlink:href="#BitstreamVeraSans-Roman-6c"/>
     <use x="461.669921875" xlink:href="#BitstreamVeraSans-Roman-6f"/>
     <use x="522.8515625" xlink:href="#BitstreamVeraSans-Roman-7a"/>
     <use x="575.341796875" xlink:href="#BitstreamVeraSans-Roman-69"/>
     <use x="603.125" xlink:href="#BitstreamVeraSans-Roman-74"/>
     <use x="642.333984375" xlink:href="#BitstreamVeraSans-Roman-6f"/>
     <use x="703.515625" xlink:href="#BitstreamVeraSans-Roman-73"/>
     <use x="755.615234375" xlink:href="#BitstreamVeraSans-Roman-74"/>
     <use x="794.82421875" xlink:href="#BitstreamVeraSans-Roman-20"/>
     <use x="826.611328125" xlink:href="#BitstreamVeraSans-Roman-2d"/>
     <use x="862.6953125" xlink:href="#BitstreamVeraSans-Roman-20"/>
     <use x="894.482421875" xlink:href="#BitstreamVeraSans-Roman-70"/>
     <use x="957.958984375" xlink:href="#BitstreamVeraSans-Roman-61"/>
     <use x="1019.23828125" xlink:href="#BitstreamVeraSans-Roman-72"/>
     <use x="1060.3515625" xlink:href="#BitstreamVeraSans-Roman-61"/>
     <use x="1121.63085938" xlink:href="#BitstreamVeraSans-Roman-6c"/>
     <use x="1149.4140625" xlink:href="#BitstreamVeraSans-Roman-65"/>
     <use x="1210.9375" xlink:href="#BitstreamVeraSans-Roman-6c"/>
     <use x="1238.72070312" xlink:href="#BitstreamVeraSans-Roman-69"/>
     <use x="1266.50390625" xlink:href="#BitstreamVeraSans-Roman-7a"/>
     <use x="1318.99414062" xlink:href="#BitstreamVeraSans-Roman-61"/>
     <use x="1380.2734375" xlink:href="#BitstreamVeraSans-Roman-63"/>
     <use x="1435.25390625" xlink:href="#BitstreamVeraSans-Roman-65"/>
    </g>
   </g>
   <g id="legend_1">
    <g id="patch_7">
     <path d="M 42.64875 361.54175 
L 181.22175 361.54175 
L 181.22175 314.94875 
L 42.64875 314.94875 
z
" style="fill:#ffffff;stroke:#000000;stroke-linejoin:miter;"/>
    </g>
    <g id="line2d_42">
     <path d="M 52.72875 326.6105 
L 72.88875 326.6105 
" style="fill:none;stroke:#0000ff;stroke-linecap:square;"/>
    </g>
    <g id="line2d_43">
     <g>
      <use style="fill:#0000ff;stroke:#0000ff;stroke-width:0.5;" x="52.72875" xlink:href="#me9518b024a" y="326.6105"/>
      <use style="fill:#0000ff;stroke:#0000ff;stroke-width:0.5;" x="72.88875" xlink:href="#me9518b024a" y="326.6105"/>
     </g>
    </g>
    <g id="text_19">
     <!-- paralelizace -->
     <g transform="translate(88.72875 331.6505)scale(0.144 -0.144)">
      <use xlink:href="#BitstreamVeraSans-Roman-70"/>
      <use x="63.4765625" xlink:href="#BitstreamVeraSans-Roman-61"/>
      <use x="124.755859375" xlink:href="#BitstreamVeraSans-Roman-72"/>
      <use x="165.869140625" xlink:href="#BitstreamVeraSans-Roman-61"/>
      <use x="227.1484375" xlink:href="#BitstreamVeraSans-Roman-6c"/>
      <use x="254.931640625" xlink:href="#BitstreamVeraSans-Roman-65"/>
      <use x="316.455078125" xlink:href="#BitstreamVeraSans-Roman-6c"/>
      <use x="344.23828125" xlink:href="#BitstreamVeraSans-Roman-69"/>
      <use x="372.021484375" xlink:href="#BitstreamVeraSans-Roman-7a"/>
      <use x="424.51171875" xlink:href="#BitstreamVeraSans-Roman-61"/>
      <use x="485.791015625" xlink:href="#BitstreamVeraSans-Roman-63"/>
      <use x="540.771484375" xlink:href="#BitstreamVeraSans-Roman-65"/>
     </g>
    </g>
    <g id="line2d_44">
     <path d="M 52.72875 347.747 
L 72.88875 347.747 
" style="fill:none;stroke:#008000;stroke-linecap:square;"/>
    </g>
    <g id="line2d_45">
     <g>
      <use style="fill:#008000;stroke:#008000;stroke-width:0.5;" x="52.72875" xlink:href="#mf068d6d080" y="347.747"/>
      <use style="fill:#008000;stroke:#008000;stroke-width:0.5;" x="72.88875" xlink:href="#mf068d6d080" y="347.747"/>
     </g>
    </g>
    <g id="text_20">
     <!-- paralelni n -->
     <g transform="translate(88.72875 352.787)scale(0.144 -0.144)">
      <use xlink:href="#BitstreamVeraSans-Roman-70"/>
      <use x="63.4765625" xlink:href="#BitstreamVeraSans-Roman-61"/>
      <use x="124.755859375" xlink:href="#BitstreamVeraSans-Roman-72"/>
      <use x="165.869140625" xlink:href="#BitstreamVeraSans-Roman-61"/>
      <use x="227.1484375" xlink:href="#BitstreamVeraSans-Roman-6c"/>
      <use x="254.931640625" xlink:href="#BitstreamVeraSans-Roman-65"/>
      <use x="316.455078125" xlink:href="#BitstreamVeraSans-Roman-6c"/>
      <use x="344.23828125" xlink:href="#BitstreamVeraSans-Roman-6e"/>
      <use x="407.6171875" xlink:href="#BitstreamVeraSans-Roman-69"/>
      <use x="435.400390625" xlink:href="#BitstreamVeraSans-Roman-20"/>
      <use x="467.1875" xlink:href="#BitstreamVeraSans-Roman-6e"/>
     </g>
    </g>
   </g>
  </g>
 </g>
 <defs>
  <clipPath id="p6a7d0f137c">
   <rect height="345.6" width="446.4" x="35.44875" y="23.14175"/>
  </clipPath>
 </defs>
</svg>
