<?xml version="1.0" encoding="utf-8" standalone="no"?>
<!DOCTYPE svg PUBLIC "-//W3C//DTD SVG 1.1//EN"
  "http://www.w3.org/Graphics/SVG/1.1/DTD/svg11.dtd">
<!-- Created with matplotlib (http://matplotlib.org/) -->
<svg height="280pt" version="1.1" viewBox="0 0 391 280" width="391pt" xmlns="http://www.w3.org/2000/svg" xmlns:xlink="http://www.w3.org/1999/xlink">
 <defs>
  <style type="text/css">
*{stroke-linecap:butt;stroke-linejoin:round;stroke-miterlimit:100000;}
  </style>
 </defs>
 <g id="figure_1">
  <g id="patch_1">
   <path d="M 0 280.074375 
L 391.732813 280.074375 
L 391.732813 0 
L 0 0 
z
" style="fill:#ffffff;"/>
  </g>
  <g id="axes_1">
   <g id="patch_2">
    <path d="M 41.78125 244.518125 
L 376.58125 244.518125 
L 376.58125 21.318125 
L 41.78125 21.318125 
z
" style="fill:#ffffff;"/>
   </g>
   <g id="line2d_1">
    <path clip-path="url(#pec195559ee)" d="M 55.17325 209.779874 
L 68.56525 216.655464 
L 81.95725 209.181382 
L 95.34925 209.489593 
L 108.74125 209.111102 
L 122.13325 209.414863 
L 135.52525 209.43274 
L 148.91725 211.188797 
L 162.30925 210.966407 
L 175.70125 209.830008 
L 189.09325 210.67243 
L 202.48525 209.466278 
L 215.87725 209.398328 
L 229.26925 209.320794 
L 242.66125 209.067936 
L 256.05325 209.602107 
L 269.44525 227.325356 
L 282.83725 210.357451 
L 296.22925 209.535582 
L 309.62125 209.400385 
L 323.01325 209.266758 
L 336.40525 209.398253 
L 349.79725 209.319391 
L 363.18925 209.290184 
L 376.58125 209.276678 
" style="fill:none;stroke:#0000ff;stroke-linecap:square;"/>
    <defs>
     <path d="M 0 1.5 
C 0.397805 1.5 0.77937 1.341951 1.06066 1.06066 
C 1.341951 0.77937 1.5 0.397805 1.5 0 
C 1.5 -0.397805 1.341951 -0.77937 1.06066 -1.06066 
C 0.77937 -1.341951 0.397805 -1.5 0 -1.5 
C -0.397805 -1.5 -0.77937 -1.341951 -1.06066 -1.06066 
C -1.341951 -0.77937 -1.5 -0.397805 -1.5 0 
C -1.5 0.397805 -1.341951 0.77937 -1.06066 1.06066 
C -0.77937 1.341951 -0.397805 1.5 0 1.5 
z
" id="mdb8ef038da" style="stroke:#0000ff;stroke-width:0.5;"/>
    </defs>
    <g clip-path="url(#pec195559ee)">
     <use style="fill:#0000ff;stroke:#0000ff;stroke-width:0.5;" x="55.17325" xlink:href="#mdb8ef038da" y="209.779874203"/>
     <use style="fill:#0000ff;stroke:#0000ff;stroke-width:0.5;" x="68.56525" xlink:href="#mdb8ef038da" y="216.655464423"/>
     <use style="fill:#0000ff;stroke:#0000ff;stroke-width:0.5;" x="81.95725" xlink:href="#mdb8ef038da" y="209.181382324"/>
     <use style="fill:#0000ff;stroke:#0000ff;stroke-width:0.5;" x="95.34925" xlink:href="#mdb8ef038da" y="209.489592644"/>
     <use style="fill:#0000ff;stroke:#0000ff;stroke-width:0.5;" x="108.74125" xlink:href="#mdb8ef038da" y="209.111101637"/>
     <use style="fill:#0000ff;stroke:#0000ff;stroke-width:0.5;" x="122.13325" xlink:href="#mdb8ef038da" y="209.414862501"/>
     <use style="fill:#0000ff;stroke:#0000ff;stroke-width:0.5;" x="135.52525" xlink:href="#mdb8ef038da" y="209.432740229"/>
     <use style="fill:#0000ff;stroke:#0000ff;stroke-width:0.5;" x="148.91725" xlink:href="#mdb8ef038da" y="211.188796964"/>
     <use style="fill:#0000ff;stroke:#0000ff;stroke-width:0.5;" x="162.30925" xlink:href="#mdb8ef038da" y="210.966406643"/>
     <use style="fill:#0000ff;stroke:#0000ff;stroke-width:0.5;" x="175.70125" xlink:href="#mdb8ef038da" y="209.830007823"/>
     <use style="fill:#0000ff;stroke:#0000ff;stroke-width:0.5;" x="189.09325" xlink:href="#mdb8ef038da" y="210.67242955"/>
     <use style="fill:#0000ff;stroke:#0000ff;stroke-width:0.5;" x="202.48525" xlink:href="#mdb8ef038da" y="209.466278475"/>
     <use style="fill:#0000ff;stroke:#0000ff;stroke-width:0.5;" x="215.87725" xlink:href="#mdb8ef038da" y="209.39832837"/>
     <use style="fill:#0000ff;stroke:#0000ff;stroke-width:0.5;" x="229.26925" xlink:href="#mdb8ef038da" y="209.320794162"/>
     <use style="fill:#0000ff;stroke:#0000ff;stroke-width:0.5;" x="242.66125" xlink:href="#mdb8ef038da" y="209.067936243"/>
     <use style="fill:#0000ff;stroke:#0000ff;stroke-width:0.5;" x="256.05325" xlink:href="#mdb8ef038da" y="209.602106999"/>
     <use style="fill:#0000ff;stroke:#0000ff;stroke-width:0.5;" x="269.44525" xlink:href="#mdb8ef038da" y="227.325355824"/>
     <use style="fill:#0000ff;stroke:#0000ff;stroke-width:0.5;" x="282.83725" xlink:href="#mdb8ef038da" y="210.357450862"/>
     <use style="fill:#0000ff;stroke:#0000ff;stroke-width:0.5;" x="296.22925" xlink:href="#mdb8ef038da" y="209.535582122"/>
     <use style="fill:#0000ff;stroke:#0000ff;stroke-width:0.5;" x="309.62125" xlink:href="#mdb8ef038da" y="209.400385379"/>
     <use style="fill:#0000ff;stroke:#0000ff;stroke-width:0.5;" x="323.01325" xlink:href="#mdb8ef038da" y="209.266757859"/>
     <use style="fill:#0000ff;stroke:#0000ff;stroke-width:0.5;" x="336.40525" xlink:href="#mdb8ef038da" y="209.39825298"/>
     <use style="fill:#0000ff;stroke:#0000ff;stroke-width:0.5;" x="349.79725" xlink:href="#mdb8ef038da" y="209.319390797"/>
     <use style="fill:#0000ff;stroke:#0000ff;stroke-width:0.5;" x="363.18925" xlink:href="#mdb8ef038da" y="209.290183771"/>
     <use style="fill:#0000ff;stroke:#0000ff;stroke-width:0.5;" x="376.58125" xlink:href="#mdb8ef038da" y="209.276677928"/>
    </g>
   </g>
   <g id="line2d_2">
    <path clip-path="url(#pec195559ee)" d="M 55.17325 132.697625 
L 68.56525 130.754683 
L 81.95725 129.160894 
L 95.34925 129.873052 
L 108.74125 131.620803 
L 122.13325 128.990192 
L 135.52525 128.65715 
L 148.91725 128.964396 
L 162.30925 128.219261 
L 175.70125 128.183666 
L 189.09325 128.915202 
L 202.48525 128.157368 
L 215.87725 128.612836 
L 229.26925 128.577708 
L 242.66125 128.683104 
L 256.05325 128.772081 
L 269.44525 163.2597 
L 282.83725 128.796211 
L 296.22925 128.815329 
L 309.62125 128.884813 
L 323.01325 128.80602 
L 336.40525 128.772165 
L 349.79725 128.318293 
L 363.18925 128.257077 
L 376.58125 128.856097 
" style="fill:none;stroke:#008000;stroke-linecap:square;"/>
    <defs>
     <path d="M 0 1.5 
C 0.397805 1.5 0.77937 1.341951 1.06066 1.06066 
C 1.341951 0.77937 1.5 0.397805 1.5 0 
C 1.5 -0.397805 1.341951 -0.77937 1.06066 -1.06066 
C 0.77937 -1.341951 0.397805 -1.5 0 -1.5 
C -0.397805 -1.5 -0.77937 -1.341951 -1.06066 -1.06066 
C -1.341951 -0.77937 -1.5 -0.397805 -1.5 0 
C -1.5 0.397805 -1.341951 0.77937 -1.06066 1.06066 
C -0.77937 1.341951 -0.397805 1.5 0 1.5 
z
" id="m86c2b532ef" style="stroke:#008000;stroke-width:0.5;"/>
    </defs>
    <g clip-path="url(#pec195559ee)">
     <use style="fill:#008000;stroke:#008000;stroke-width:0.5;" x="55.17325" xlink:href="#m86c2b532ef" y="132.697624596"/>
     <use style="fill:#008000;stroke:#008000;stroke-width:0.5;" x="68.56525" xlink:href="#m86c2b532ef" y="130.754682511"/>
     <use style="fill:#008000;stroke:#008000;stroke-width:0.5;" x="81.95725" xlink:href="#m86c2b532ef" y="129.160894153"/>
     <use style="fill:#008000;stroke:#008000;stroke-width:0.5;" x="95.34925" xlink:href="#m86c2b532ef" y="129.873052145"/>
     <use style="fill:#008000;stroke:#008000;stroke-width:0.5;" x="108.74125" xlink:href="#m86c2b532ef" y="131.620803257"/>
     <use style="fill:#008000;stroke:#008000;stroke-width:0.5;" x="122.13325" xlink:href="#m86c2b532ef" y="128.990192467"/>
     <use style="fill:#008000;stroke:#008000;stroke-width:0.5;" x="135.52525" xlink:href="#m86c2b532ef" y="128.657150343"/>
     <use style="fill:#008000;stroke:#008000;stroke-width:0.5;" x="148.91725" xlink:href="#m86c2b532ef" y="128.964396347"/>
     <use style="fill:#008000;stroke:#008000;stroke-width:0.5;" x="162.30925" xlink:href="#m86c2b532ef" y="128.219260872"/>
     <use style="fill:#008000;stroke:#008000;stroke-width:0.5;" x="175.70125" xlink:href="#m86c2b532ef" y="128.183666435"/>
     <use style="fill:#008000;stroke:#008000;stroke-width:0.5;" x="189.09325" xlink:href="#m86c2b532ef" y="128.915201853"/>
     <use style="fill:#008000;stroke:#008000;stroke-width:0.5;" x="202.48525" xlink:href="#m86c2b532ef" y="128.157367804"/>
     <use style="fill:#008000;stroke:#008000;stroke-width:0.5;" x="215.87725" xlink:href="#m86c2b532ef" y="128.612835915"/>
     <use style="fill:#008000;stroke:#008000;stroke-width:0.5;" x="229.26925" xlink:href="#m86c2b532ef" y="128.577708488"/>
     <use style="fill:#008000;stroke:#008000;stroke-width:0.5;" x="242.66125" xlink:href="#m86c2b532ef" y="128.683104274"/>
     <use style="fill:#008000;stroke:#008000;stroke-width:0.5;" x="256.05325" xlink:href="#m86c2b532ef" y="128.77208069"/>
     <use style="fill:#008000;stroke:#008000;stroke-width:0.5;" x="269.44525" xlink:href="#m86c2b532ef" y="163.259700252"/>
     <use style="fill:#008000;stroke:#008000;stroke-width:0.5;" x="282.83725" xlink:href="#m86c2b532ef" y="128.796211125"/>
     <use style="fill:#008000;stroke:#008000;stroke-width:0.5;" x="296.22925" xlink:href="#m86c2b532ef" y="128.815329183"/>
     <use style="fill:#008000;stroke:#008000;stroke-width:0.5;" x="309.62125" xlink:href="#m86c2b532ef" y="128.884812898"/>
     <use style="fill:#008000;stroke:#008000;stroke-width:0.5;" x="323.01325" xlink:href="#m86c2b532ef" y="128.80601984"/>
     <use style="fill:#008000;stroke:#008000;stroke-width:0.5;" x="336.40525" xlink:href="#m86c2b532ef" y="128.772165248"/>
     <use style="fill:#008000;stroke:#008000;stroke-width:0.5;" x="349.79725" xlink:href="#m86c2b532ef" y="128.318293416"/>
     <use style="fill:#008000;stroke:#008000;stroke-width:0.5;" x="363.18925" xlink:href="#m86c2b532ef" y="128.257077099"/>
     <use style="fill:#008000;stroke:#008000;stroke-width:0.5;" x="376.58125" xlink:href="#m86c2b532ef" y="128.856096723"/>
    </g>
   </g>
   <g id="line2d_3">
    <path clip-path="url(#pec195559ee)" d="M 55.17325 156.11955 
L 68.56525 137.497345 
L 81.95725 52.351277 
L 95.34925 54.63244 
L 108.74125 59.632471 
L 122.13325 60.167448 
L 135.52525 51.944815 
L 148.91725 51.593275 
L 162.30925 52.096463 
L 175.70125 57.752513 
L 189.09325 52.433562 
L 202.48525 65.196809 
L 215.87725 51.895689 
L 229.26925 55.720116 
L 242.66125 64.979658 
L 256.05325 59.699255 
L 269.44525 106.956955 
L 282.83725 52.012982 
L 296.22925 62.960399 
L 309.62125 55.851095 
L 323.01325 55.361694 
L 336.40525 55.861104 
L 349.79725 53.911675 
L 363.18925 61.339973 
L 376.58125 54.297866 
" style="fill:none;stroke:#ff0000;stroke-linecap:square;"/>
    <defs>
     <path d="M 0 1.5 
C 0.397805 1.5 0.77937 1.341951 1.06066 1.06066 
C 1.341951 0.77937 1.5 0.397805 1.5 0 
C 1.5 -0.397805 1.341951 -0.77937 1.06066 -1.06066 
C 0.77937 -1.341951 0.397805 -1.5 0 -1.5 
C -0.397805 -1.5 -0.77937 -1.341951 -1.06066 -1.06066 
C -1.341951 -0.77937 -1.5 -0.397805 -1.5 0 
C -1.5 0.397805 -1.341951 0.77937 -1.06066 1.06066 
C -0.77937 1.341951 -0.397805 1.5 0 1.5 
z
" id="m221c5aa412" style="stroke:#ff0000;stroke-width:0.5;"/>
    </defs>
    <g clip-path="url(#pec195559ee)">
     <use style="fill:#ff0000;stroke:#ff0000;stroke-width:0.5;" x="55.17325" xlink:href="#m221c5aa412" y="156.119549501"/>
     <use style="fill:#ff0000;stroke:#ff0000;stroke-width:0.5;" x="68.56525" xlink:href="#m221c5aa412" y="137.497344643"/>
     <use style="fill:#ff0000;stroke:#ff0000;stroke-width:0.5;" x="81.95725" xlink:href="#m221c5aa412" y="52.351277279"/>
     <use style="fill:#ff0000;stroke:#ff0000;stroke-width:0.5;" x="95.34925" xlink:href="#m221c5aa412" y="54.6324398223"/>
     <use style="fill:#ff0000;stroke:#ff0000;stroke-width:0.5;" x="108.74125" xlink:href="#m221c5aa412" y="59.6324711727"/>
     <use style="fill:#ff0000;stroke:#ff0000;stroke-width:0.5;" x="122.13325" xlink:href="#m221c5aa412" y="60.1674480288"/>
     <use style="fill:#ff0000;stroke:#ff0000;stroke-width:0.5;" x="135.52525" xlink:href="#m221c5aa412" y="51.9448148424"/>
     <use style="fill:#ff0000;stroke:#ff0000;stroke-width:0.5;" x="148.91725" xlink:href="#m221c5aa412" y="51.5932750653"/>
     <use style="fill:#ff0000;stroke:#ff0000;stroke-width:0.5;" x="162.30925" xlink:href="#m221c5aa412" y="52.0964634107"/>
     <use style="fill:#ff0000;stroke:#ff0000;stroke-width:0.5;" x="175.70125" xlink:href="#m221c5aa412" y="57.7525131466"/>
     <use style="fill:#ff0000;stroke:#ff0000;stroke-width:0.5;" x="189.09325" xlink:href="#m221c5aa412" y="52.4335623357"/>
     <use style="fill:#ff0000;stroke:#ff0000;stroke-width:0.5;" x="202.48525" xlink:href="#m221c5aa412" y="65.1968090101"/>
     <use style="fill:#ff0000;stroke:#ff0000;stroke-width:0.5;" x="215.87725" xlink:href="#m221c5aa412" y="51.8956890717"/>
     <use style="fill:#ff0000;stroke:#ff0000;stroke-width:0.5;" x="229.26925" xlink:href="#m221c5aa412" y="55.7201156783"/>
     <use style="fill:#ff0000;stroke:#ff0000;stroke-width:0.5;" x="242.66125" xlink:href="#m221c5aa412" y="64.9796579179"/>
     <use style="fill:#ff0000;stroke:#ff0000;stroke-width:0.5;" x="256.05325" xlink:href="#m221c5aa412" y="59.6992554625"/>
     <use style="fill:#ff0000;stroke:#ff0000;stroke-width:0.5;" x="269.44525" xlink:href="#m221c5aa412" y="106.956955083"/>
     <use style="fill:#ff0000;stroke:#ff0000;stroke-width:0.5;" x="282.83725" xlink:href="#m221c5aa412" y="52.0129817301"/>
     <use style="fill:#ff0000;stroke:#ff0000;stroke-width:0.5;" x="296.22925" xlink:href="#m221c5aa412" y="62.960398607"/>
     <use style="fill:#ff0000;stroke:#ff0000;stroke-width:0.5;" x="309.62125" xlink:href="#m221c5aa412" y="55.8510949121"/>
     <use style="fill:#ff0000;stroke:#ff0000;stroke-width:0.5;" x="323.01325" xlink:href="#m221c5aa412" y="55.3616939227"/>
     <use style="fill:#ff0000;stroke:#ff0000;stroke-width:0.5;" x="336.40525" xlink:href="#m221c5aa412" y="55.8611043656"/>
     <use style="fill:#ff0000;stroke:#ff0000;stroke-width:0.5;" x="349.79725" xlink:href="#m221c5aa412" y="53.9116754737"/>
     <use style="fill:#ff0000;stroke:#ff0000;stroke-width:0.5;" x="363.18925" xlink:href="#m221c5aa412" y="61.3399732945"/>
     <use style="fill:#ff0000;stroke:#ff0000;stroke-width:0.5;" x="376.58125" xlink:href="#m221c5aa412" y="54.2978664157"/>
    </g>
   </g>
   <g id="line2d_4">
    <path clip-path="url(#pec195559ee)" d="M 55.17325 116.472785 
L 68.56525 96.93553 
L 81.95725 80.045743 
L 95.34925 85.93279 
L 108.74125 90.170421 
L 122.13325 79.177436 
L 135.52525 82.64343 
L 148.91725 81.603999 
L 162.30925 73.751271 
L 175.70125 77.042121 
L 189.09325 78.346893 
L 202.48525 78.705559 
L 215.87725 88.302558 
L 229.26925 75.783212 
L 242.66125 77.588914 
L 256.05325 79.100021 
L 269.44525 93.39173 
L 282.83725 70.675354 
L 296.22925 86.70687 
L 309.62125 76.19529 
L 323.01325 95.94755 
L 336.40525 61.295613 
L 349.79725 79.091642 
L 363.18925 78.657602 
L 376.58125 77.923547 
" style="fill:none;stroke:#00bfbf;stroke-linecap:square;"/>
    <defs>
     <path d="M 0 1.5 
C 0.397805 1.5 0.77937 1.341951 1.06066 1.06066 
C 1.341951 0.77937 1.5 0.397805 1.5 0 
C 1.5 -0.397805 1.341951 -0.77937 1.06066 -1.06066 
C 0.77937 -1.341951 0.397805 -1.5 0 -1.5 
C -0.397805 -1.5 -0.77937 -1.341951 -1.06066 -1.06066 
C -1.341951 -0.77937 -1.5 -0.397805 -1.5 0 
C -1.5 0.397805 -1.341951 0.77937 -1.06066 1.06066 
C -0.77937 1.341951 -0.397805 1.5 0 1.5 
z
" id="m4544cc413d" style="stroke:#00bfbf;stroke-width:0.5;"/>
    </defs>
    <g clip-path="url(#pec195559ee)">
     <use style="fill:#00bfbf;stroke:#00bfbf;stroke-width:0.5;" x="55.17325" xlink:href="#m4544cc413d" y="116.472785325"/>
     <use style="fill:#00bfbf;stroke:#00bfbf;stroke-width:0.5;" x="68.56525" xlink:href="#m4544cc413d" y="96.9355303394"/>
     <use style="fill:#00bfbf;stroke:#00bfbf;stroke-width:0.5;" x="81.95725" xlink:href="#m4544cc413d" y="80.0457432146"/>
     <use style="fill:#00bfbf;stroke:#00bfbf;stroke-width:0.5;" x="95.34925" xlink:href="#m4544cc413d" y="85.9327896841"/>
     <use style="fill:#00bfbf;stroke:#00bfbf;stroke-width:0.5;" x="108.74125" xlink:href="#m4544cc413d" y="90.1704211386"/>
     <use style="fill:#00bfbf;stroke:#00bfbf;stroke-width:0.5;" x="122.13325" xlink:href="#m4544cc413d" y="79.1774359186"/>
     <use style="fill:#00bfbf;stroke:#00bfbf;stroke-width:0.5;" x="135.52525" xlink:href="#m4544cc413d" y="82.6434300912"/>
     <use style="fill:#00bfbf;stroke:#00bfbf;stroke-width:0.5;" x="148.91725" xlink:href="#m4544cc413d" y="81.6039993446"/>
     <use style="fill:#00bfbf;stroke:#00bfbf;stroke-width:0.5;" x="162.30925" xlink:href="#m4544cc413d" y="73.7512714526"/>
     <use style="fill:#00bfbf;stroke:#00bfbf;stroke-width:0.5;" x="175.70125" xlink:href="#m4544cc413d" y="77.0421212642"/>
     <use style="fill:#00bfbf;stroke:#00bfbf;stroke-width:0.5;" x="189.09325" xlink:href="#m4544cc413d" y="78.3468931266"/>
     <use style="fill:#00bfbf;stroke:#00bfbf;stroke-width:0.5;" x="202.48525" xlink:href="#m4544cc413d" y="78.7055585431"/>
     <use style="fill:#00bfbf;stroke:#00bfbf;stroke-width:0.5;" x="215.87725" xlink:href="#m4544cc413d" y="88.3025584741"/>
     <use style="fill:#00bfbf;stroke:#00bfbf;stroke-width:0.5;" x="229.26925" xlink:href="#m4544cc413d" y="75.7832116941"/>
     <use style="fill:#00bfbf;stroke:#00bfbf;stroke-width:0.5;" x="242.66125" xlink:href="#m4544cc413d" y="77.5889136378"/>
     <use style="fill:#00bfbf;stroke:#00bfbf;stroke-width:0.5;" x="256.05325" xlink:href="#m4544cc413d" y="79.1000207791"/>
     <use style="fill:#00bfbf;stroke:#00bfbf;stroke-width:0.5;" x="269.44525" xlink:href="#m4544cc413d" y="93.3917296933"/>
     <use style="fill:#00bfbf;stroke:#00bfbf;stroke-width:0.5;" x="282.83725" xlink:href="#m4544cc413d" y="70.6753544298"/>
     <use style="fill:#00bfbf;stroke:#00bfbf;stroke-width:0.5;" x="296.22925" xlink:href="#m4544cc413d" y="86.7068701223"/>
     <use style="fill:#00bfbf;stroke:#00bfbf;stroke-width:0.5;" x="309.62125" xlink:href="#m4544cc413d" y="76.1952898942"/>
     <use style="fill:#00bfbf;stroke:#00bfbf;stroke-width:0.5;" x="323.01325" xlink:href="#m4544cc413d" y="95.9475499058"/>
     <use style="fill:#00bfbf;stroke:#00bfbf;stroke-width:0.5;" x="336.40525" xlink:href="#m4544cc413d" y="61.2956129065"/>
     <use style="fill:#00bfbf;stroke:#00bfbf;stroke-width:0.5;" x="349.79725" xlink:href="#m4544cc413d" y="79.0916415708"/>
     <use style="fill:#00bfbf;stroke:#00bfbf;stroke-width:0.5;" x="363.18925" xlink:href="#m4544cc413d" y="78.6576016612"/>
     <use style="fill:#00bfbf;stroke:#00bfbf;stroke-width:0.5;" x="376.58125" xlink:href="#m4544cc413d" y="77.9235470903"/>
    </g>
   </g>
   <g id="line2d_5">
    <path clip-path="url(#pec195559ee)" d="M 55.17325 116.00263 
L 68.56525 69.258945 
L 81.95725 66.905782 
L 95.34925 52.570173 
L 108.74125 86.888138 
L 122.13325 59.623085 
L 135.52525 65.904267 
L 148.91725 57.858036 
L 162.30925 56.615984 
L 175.70125 51.783781 
L 189.09325 55.090358 
L 202.48525 58.687753 
L 215.87725 91.198384 
L 229.26925 54.738939 
L 242.66125 48.407168 
L 256.05325 52.932523 
L 269.44525 72.907627 
L 282.83725 47.420551 
L 296.22925 56.161702 
L 309.62125 55.155224 
L 323.01325 91.880267 
L 336.40525 49.741016 
L 349.79725 48.265805 
L 363.18925 54.158134 
L 376.58125 54.110058 
" style="fill:none;stroke:#bf00bf;stroke-linecap:square;"/>
    <defs>
     <path d="M 0 1.5 
C 0.397805 1.5 0.77937 1.341951 1.06066 1.06066 
C 1.341951 0.77937 1.5 0.397805 1.5 0 
C 1.5 -0.397805 1.341951 -0.77937 1.06066 -1.06066 
C 0.77937 -1.341951 0.397805 -1.5 0 -1.5 
C -0.397805 -1.5 -0.77937 -1.341951 -1.06066 -1.06066 
C -1.341951 -0.77937 -1.5 -0.397805 -1.5 0 
C -1.5 0.397805 -1.341951 0.77937 -1.06066 1.06066 
C -0.77937 1.341951 -0.397805 1.5 0 1.5 
z
" id="mea7ed2571c" style="stroke:#bf00bf;stroke-width:0.5;"/>
    </defs>
    <g clip-path="url(#pec195559ee)">
     <use style="fill:#bf00bf;stroke:#bf00bf;stroke-width:0.5;" x="55.17325" xlink:href="#mea7ed2571c" y="116.002630029"/>
     <use style="fill:#bf00bf;stroke:#bf00bf;stroke-width:0.5;" x="68.56525" xlink:href="#mea7ed2571c" y="69.258945328"/>
     <use style="fill:#bf00bf;stroke:#bf00bf;stroke-width:0.5;" x="81.95725" xlink:href="#mea7ed2571c" y="66.9057822392"/>
     <use style="fill:#bf00bf;stroke:#bf00bf;stroke-width:0.5;" x="95.34925" xlink:href="#mea7ed2571c" y="52.5701727398"/>
     <use style="fill:#bf00bf;stroke:#bf00bf;stroke-width:0.5;" x="108.74125" xlink:href="#mea7ed2571c" y="86.8881381524"/>
     <use style="fill:#bf00bf;stroke:#bf00bf;stroke-width:0.5;" x="122.13325" xlink:href="#mea7ed2571c" y="59.6230851689"/>
     <use style="fill:#bf00bf;stroke:#bf00bf;stroke-width:0.5;" x="135.52525" xlink:href="#mea7ed2571c" y="65.9042665294"/>
     <use style="fill:#bf00bf;stroke:#bf00bf;stroke-width:0.5;" x="148.91725" xlink:href="#mea7ed2571c" y="57.858036462"/>
     <use style="fill:#bf00bf;stroke:#bf00bf;stroke-width:0.5;" x="162.30925" xlink:href="#mea7ed2571c" y="56.6159835436"/>
     <use style="fill:#bf00bf;stroke:#bf00bf;stroke-width:0.5;" x="175.70125" xlink:href="#mea7ed2571c" y="51.7837808002"/>
     <use style="fill:#bf00bf;stroke:#bf00bf;stroke-width:0.5;" x="189.09325" xlink:href="#mea7ed2571c" y="55.0903581747"/>
     <use style="fill:#bf00bf;stroke:#bf00bf;stroke-width:0.5;" x="202.48525" xlink:href="#mea7ed2571c" y="58.6877525833"/>
     <use style="fill:#bf00bf;stroke:#bf00bf;stroke-width:0.5;" x="215.87725" xlink:href="#mea7ed2571c" y="91.1983843521"/>
     <use style="fill:#bf00bf;stroke:#bf00bf;stroke-width:0.5;" x="229.26925" xlink:href="#mea7ed2571c" y="54.7389389237"/>
     <use style="fill:#bf00bf;stroke:#bf00bf;stroke-width:0.5;" x="242.66125" xlink:href="#mea7ed2571c" y="48.4071682729"/>
     <use style="fill:#bf00bf;stroke:#bf00bf;stroke-width:0.5;" x="256.05325" xlink:href="#mea7ed2571c" y="52.9325227107"/>
     <use style="fill:#bf00bf;stroke:#bf00bf;stroke-width:0.5;" x="269.44525" xlink:href="#mea7ed2571c" y="72.9076271557"/>
     <use style="fill:#bf00bf;stroke:#bf00bf;stroke-width:0.5;" x="282.83725" xlink:href="#mea7ed2571c" y="47.4205511358"/>
     <use style="fill:#bf00bf;stroke:#bf00bf;stroke-width:0.5;" x="296.22925" xlink:href="#mea7ed2571c" y="56.1617020325"/>
     <use style="fill:#bf00bf;stroke:#bf00bf;stroke-width:0.5;" x="309.62125" xlink:href="#mea7ed2571c" y="55.1552239904"/>
     <use style="fill:#bf00bf;stroke:#bf00bf;stroke-width:0.5;" x="323.01325" xlink:href="#mea7ed2571c" y="91.8802667952"/>
     <use style="fill:#bf00bf;stroke:#bf00bf;stroke-width:0.5;" x="336.40525" xlink:href="#mea7ed2571c" y="49.7410156462"/>
     <use style="fill:#bf00bf;stroke:#bf00bf;stroke-width:0.5;" x="349.79725" xlink:href="#mea7ed2571c" y="48.2658053506"/>
     <use style="fill:#bf00bf;stroke:#bf00bf;stroke-width:0.5;" x="363.18925" xlink:href="#mea7ed2571c" y="54.1581344581"/>
     <use style="fill:#bf00bf;stroke:#bf00bf;stroke-width:0.5;" x="376.58125" xlink:href="#mea7ed2571c" y="54.1100576321"/>
    </g>
   </g>
   <g id="line2d_6">
    <path clip-path="url(#pec195559ee)" d="M 55.17325 114.923489 
L 68.56525 61.047466 
L 81.95725 37.969614 
L 95.34925 55.008807 
L 108.74125 96.049138 
L 122.13325 50.657449 
L 135.52525 57.918008 
L 148.91725 32.4611 
L 162.30925 38.563651 
L 175.70125 33.116045 
L 189.09325 28.506634 
L 202.48525 29.562804 
L 215.87725 92.603578 
L 229.26925 31.893864 
L 242.66125 31.126925 
L 256.05325 30.756488 
L 269.44525 47.693287 
L 282.83725 28.880714 
L 296.22925 40.883227 
L 309.62125 32.173365 
L 323.01325 97.914706 
L 336.40525 29.865508 
L 349.79725 31.726998 
L 363.18925 32.624739 
L 376.58125 31.265478 
" style="fill:none;stroke:#bfbf00;stroke-linecap:square;"/>
    <defs>
     <path d="M 0 1.5 
C 0.397805 1.5 0.77937 1.341951 1.06066 1.06066 
C 1.341951 0.77937 1.5 0.397805 1.5 0 
C 1.5 -0.397805 1.341951 -0.77937 1.06066 -1.06066 
C 0.77937 -1.341951 0.397805 -1.5 0 -1.5 
C -0.397805 -1.5 -0.77937 -1.341951 -1.06066 -1.06066 
C -1.341951 -0.77937 -1.5 -0.397805 -1.5 0 
C -1.5 0.397805 -1.341951 0.77937 -1.06066 1.06066 
C -0.77937 1.341951 -0.397805 1.5 0 1.5 
z
" id="mab4fca889a" style="stroke:#bfbf00;stroke-width:0.5;"/>
    </defs>
    <g clip-path="url(#pec195559ee)">
     <use style="fill:#bfbf00;stroke:#bfbf00;stroke-width:0.5;" x="55.17325" xlink:href="#mab4fca889a" y="114.923489278"/>
     <use style="fill:#bfbf00;stroke:#bfbf00;stroke-width:0.5;" x="68.56525" xlink:href="#mab4fca889a" y="61.0474660585"/>
     <use style="fill:#bfbf00;stroke:#bfbf00;stroke-width:0.5;" x="81.95725" xlink:href="#mab4fca889a" y="37.9696139493"/>
     <use style="fill:#bfbf00;stroke:#bfbf00;stroke-width:0.5;" x="95.34925" xlink:href="#mab4fca889a" y="55.0088072088"/>
     <use style="fill:#bfbf00;stroke:#bfbf00;stroke-width:0.5;" x="108.74125" xlink:href="#mab4fca889a" y="96.0491378913"/>
     <use style="fill:#bfbf00;stroke:#bfbf00;stroke-width:0.5;" x="122.13325" xlink:href="#mab4fca889a" y="50.6574492985"/>
     <use style="fill:#bfbf00;stroke:#bfbf00;stroke-width:0.5;" x="135.52525" xlink:href="#mab4fca889a" y="57.9180079884"/>
     <use style="fill:#bfbf00;stroke:#bfbf00;stroke-width:0.5;" x="148.91725" xlink:href="#mab4fca889a" y="32.4611001221"/>
     <use style="fill:#bfbf00;stroke:#bfbf00;stroke-width:0.5;" x="162.30925" xlink:href="#mab4fca889a" y="38.563650793"/>
     <use style="fill:#bfbf00;stroke:#bfbf00;stroke-width:0.5;" x="175.70125" xlink:href="#mab4fca889a" y="33.1160454028"/>
     <use style="fill:#bfbf00;stroke:#bfbf00;stroke-width:0.5;" x="189.09325" xlink:href="#mab4fca889a" y="28.5066343821"/>
     <use style="fill:#bfbf00;stroke:#bfbf00;stroke-width:0.5;" x="202.48525" xlink:href="#mab4fca889a" y="29.56280418"/>
     <use style="fill:#bfbf00;stroke:#bfbf00;stroke-width:0.5;" x="215.87725" xlink:href="#mab4fca889a" y="92.6035781687"/>
     <use style="fill:#bfbf00;stroke:#bfbf00;stroke-width:0.5;" x="229.26925" xlink:href="#mab4fca889a" y="31.8938635914"/>
     <use style="fill:#bfbf00;stroke:#bfbf00;stroke-width:0.5;" x="242.66125" xlink:href="#mab4fca889a" y="31.1269253077"/>
     <use style="fill:#bfbf00;stroke:#bfbf00;stroke-width:0.5;" x="256.05325" xlink:href="#mab4fca889a" y="30.7564875915"/>
     <use style="fill:#bfbf00;stroke:#bfbf00;stroke-width:0.5;" x="269.44525" xlink:href="#mab4fca889a" y="47.6932870597"/>
     <use style="fill:#bfbf00;stroke:#bfbf00;stroke-width:0.5;" x="282.83725" xlink:href="#mab4fca889a" y="28.8807140475"/>
     <use style="fill:#bfbf00;stroke:#bfbf00;stroke-width:0.5;" x="296.22925" xlink:href="#mab4fca889a" y="40.8832265224"/>
     <use style="fill:#bfbf00;stroke:#bfbf00;stroke-width:0.5;" x="309.62125" xlink:href="#mab4fca889a" y="32.1733647138"/>
     <use style="fill:#bfbf00;stroke:#bfbf00;stroke-width:0.5;" x="323.01325" xlink:href="#mab4fca889a" y="97.9147063589"/>
     <use style="fill:#bfbf00;stroke:#bfbf00;stroke-width:0.5;" x="336.40525" xlink:href="#mab4fca889a" y="29.8655080224"/>
     <use style="fill:#bfbf00;stroke:#bfbf00;stroke-width:0.5;" x="349.79725" xlink:href="#mab4fca889a" y="31.726998457"/>
     <use style="fill:#bfbf00;stroke:#bfbf00;stroke-width:0.5;" x="363.18925" xlink:href="#mab4fca889a" y="32.6247394383"/>
     <use style="fill:#bfbf00;stroke:#bfbf00;stroke-width:0.5;" x="376.58125" xlink:href="#mab4fca889a" y="31.2654784978"/>
    </g>
   </g>
   <g id="line2d_7">
    <path clip-path="url(#pec195559ee)" d="M 55.17325 117.887889 
L 68.56525 87.849814 
L 81.95725 77.962528 
L 95.34925 65.249272 
L 108.74125 76.324376 
L 122.13325 58.908808 
L 135.52525 66.698616 
L 148.91725 61.22489 
L 162.30925 51.501386 
L 175.70125 49.606812 
L 189.09325 50.175664 
L 202.48525 59.746632 
L 215.87725 103.168735 
L 229.26925 49.739468 
L 242.66125 49.378063 
L 256.05325 56.40081 
L 269.44525 67.223405 
L 282.83725 54.750904 
L 296.22925 55.787512 
L 309.62125 46.852319 
L 323.01325 96.956973 
L 336.40525 53.228423 
L 349.79725 47.590431 
L 363.18925 46.807041 
L 376.58125 49.69058 
" style="fill:none;stroke:#000000;stroke-linecap:square;"/>
    <defs>
     <path d="M 0 1.5 
C 0.397805 1.5 0.77937 1.341951 1.06066 1.06066 
C 1.341951 0.77937 1.5 0.397805 1.5 0 
C 1.5 -0.397805 1.341951 -0.77937 1.06066 -1.06066 
C 0.77937 -1.341951 0.397805 -1.5 0 -1.5 
C -0.397805 -1.5 -0.77937 -1.341951 -1.06066 -1.06066 
C -1.341951 -0.77937 -1.5 -0.397805 -1.5 0 
C -1.5 0.397805 -1.341951 0.77937 -1.06066 1.06066 
C -0.77937 1.341951 -0.397805 1.5 0 1.5 
z
" id="mb664aeda65" style="stroke:#000000;stroke-width:0.5;"/>
    </defs>
    <g clip-path="url(#pec195559ee)">
     <use style="stroke:#000000;stroke-width:0.5;" x="55.17325" xlink:href="#mb664aeda65" y="117.887888724"/>
     <use style="stroke:#000000;stroke-width:0.5;" x="68.56525" xlink:href="#mb664aeda65" y="87.8498140089"/>
     <use style="stroke:#000000;stroke-width:0.5;" x="81.95725" xlink:href="#mb664aeda65" y="77.9625278338"/>
     <use style="stroke:#000000;stroke-width:0.5;" x="95.34925" xlink:href="#mb664aeda65" y="65.2492723897"/>
     <use style="stroke:#000000;stroke-width:0.5;" x="108.74125" xlink:href="#mb664aeda65" y="76.3243756806"/>
     <use style="stroke:#000000;stroke-width:0.5;" x="122.13325" xlink:href="#mb664aeda65" y="58.9088076761"/>
     <use style="stroke:#000000;stroke-width:0.5;" x="135.52525" xlink:href="#mb664aeda65" y="66.698615917"/>
     <use style="stroke:#000000;stroke-width:0.5;" x="148.91725" xlink:href="#mb664aeda65" y="61.2248902315"/>
     <use style="stroke:#000000;stroke-width:0.5;" x="162.30925" xlink:href="#mb664aeda65" y="51.5013860755"/>
     <use style="stroke:#000000;stroke-width:0.5;" x="175.70125" xlink:href="#mb664aeda65" y="49.6068124081"/>
     <use style="stroke:#000000;stroke-width:0.5;" x="189.09325" xlink:href="#mb664aeda65" y="50.175664302"/>
     <use style="stroke:#000000;stroke-width:0.5;" x="202.48525" xlink:href="#mb664aeda65" y="59.7466320079"/>
     <use style="stroke:#000000;stroke-width:0.5;" x="215.87725" xlink:href="#mb664aeda65" y="103.168735176"/>
     <use style="stroke:#000000;stroke-width:0.5;" x="229.26925" xlink:href="#mb664aeda65" y="49.7394675904"/>
     <use style="stroke:#000000;stroke-width:0.5;" x="242.66125" xlink:href="#mb664aeda65" y="49.3780626308"/>
     <use style="stroke:#000000;stroke-width:0.5;" x="256.05325" xlink:href="#mb664aeda65" y="56.400810307"/>
     <use style="stroke:#000000;stroke-width:0.5;" x="269.44525" xlink:href="#mb664aeda65" y="67.2234047422"/>
     <use style="stroke:#000000;stroke-width:0.5;" x="282.83725" xlink:href="#mb664aeda65" y="54.7509038314"/>
     <use style="stroke:#000000;stroke-width:0.5;" x="296.22925" xlink:href="#mb664aeda65" y="55.7875115794"/>
     <use style="stroke:#000000;stroke-width:0.5;" x="309.62125" xlink:href="#mb664aeda65" y="46.8523189945"/>
     <use style="stroke:#000000;stroke-width:0.5;" x="323.01325" xlink:href="#mb664aeda65" y="96.9569730156"/>
     <use style="stroke:#000000;stroke-width:0.5;" x="336.40525" xlink:href="#mb664aeda65" y="53.2284225491"/>
     <use style="stroke:#000000;stroke-width:0.5;" x="349.79725" xlink:href="#mb664aeda65" y="47.5904312614"/>
     <use style="stroke:#000000;stroke-width:0.5;" x="363.18925" xlink:href="#mb664aeda65" y="46.8070409385"/>
     <use style="stroke:#000000;stroke-width:0.5;" x="376.58125" xlink:href="#mb664aeda65" y="49.6905802234"/>
    </g>
   </g>
   <g id="patch_3">
    <path d="M 376.58125 244.518125 
L 376.58125 21.318125 
" style="fill:none;stroke:#000000;stroke-linecap:square;stroke-linejoin:miter;"/>
   </g>
   <g id="patch_4">
    <path d="M 41.78125 21.318125 
L 376.58125 21.318125 
" style="fill:none;stroke:#000000;stroke-linecap:square;stroke-linejoin:miter;"/>
   </g>
   <g id="patch_5">
    <path d="M 41.78125 244.518125 
L 376.58125 244.518125 
" style="fill:none;stroke:#000000;stroke-linecap:square;stroke-linejoin:miter;"/>
   </g>
   <g id="patch_6">
    <path d="M 41.78125 244.518125 
L 41.78125 21.318125 
" style="fill:none;stroke:#000000;stroke-linecap:square;stroke-linejoin:miter;"/>
   </g>
   <g id="matplotlib.axis_1">
    <g id="xtick_1">
     <g id="line2d_8">
      <path clip-path="url(#pec195559ee)" d="M 41.78125 244.518125 
L 41.78125 21.318125 
" style="fill:none;stroke:#000000;stroke-dasharray:1.000000,3.000000;stroke-dashoffset:0.0;stroke-width:0.5;"/>
     </g>
     <g id="line2d_9">
      <defs>
       <path d="M 0 0 
L 0 -4 
" id="ma1b97257b0" style="stroke:#000000;stroke-width:0.5;"/>
      </defs>
      <g>
       <use style="stroke:#000000;stroke-width:0.5;" x="41.78125" xlink:href="#ma1b97257b0" y="244.518125"/>
      </g>
     </g>
     <g id="line2d_10">
      <defs>
       <path d="M 0 0 
L 0 4 
" id="m1fb6347b07" style="stroke:#000000;stroke-width:0.5;"/>
      </defs>
      <g>
       <use style="stroke:#000000;stroke-width:0.5;" x="41.78125" xlink:href="#m1fb6347b07" y="21.318125"/>
      </g>
     </g>
     <g id="text_1">
      <!-- 0.0 -->
      <defs>
       <path d="M 10.6875 12.40625 
L 21 12.40625 
L 21 0 
L 10.6875 0 
z
" id="BitstreamVeraSans-Roman-2e"/>
       <path d="M 31.78125 66.40625 
Q 24.171875 66.40625 20.328125 58.90625 
Q 16.5 51.421875 16.5 36.375 
Q 16.5 21.390625 20.328125 13.890625 
Q 24.171875 6.390625 31.78125 6.390625 
Q 39.453125 6.390625 43.28125 13.890625 
Q 47.125 21.390625 47.125 36.375 
Q 47.125 51.421875 43.28125 58.90625 
Q 39.453125 66.40625 31.78125 66.40625 
M 31.78125 74.21875 
Q 44.046875 74.21875 50.515625 64.515625 
Q 56.984375 54.828125 56.984375 36.375 
Q 56.984375 17.96875 50.515625 8.265625 
Q 44.046875 -1.421875 31.78125 -1.421875 
Q 19.53125 -1.421875 13.0625 8.265625 
Q 6.59375 17.96875 6.59375 36.375 
Q 6.59375 54.828125 13.0625 64.515625 
Q 19.53125 74.21875 31.78125 74.21875 
" id="BitstreamVeraSans-Roman-30"/>
      </defs>
      <g transform="translate(33.8296875 256.1165625)scale(0.1 -0.1)">
       <use xlink:href="#BitstreamVeraSans-Roman-30"/>
       <use x="63.623046875" xlink:href="#BitstreamVeraSans-Roman-2e"/>
       <use x="95.41015625" xlink:href="#BitstreamVeraSans-Roman-30"/>
      </g>
     </g>
    </g>
    <g id="xtick_2">
     <g id="line2d_11">
      <path clip-path="url(#pec195559ee)" d="M 108.74125 244.518125 
L 108.74125 21.318125 
" style="fill:none;stroke:#000000;stroke-dasharray:1.000000,3.000000;stroke-dashoffset:0.0;stroke-width:0.5;"/>
     </g>
     <g id="line2d_12">
      <g>
       <use style="stroke:#000000;stroke-width:0.5;" x="108.74125" xlink:href="#ma1b97257b0" y="244.518125"/>
      </g>
     </g>
     <g id="line2d_13">
      <g>
       <use style="stroke:#000000;stroke-width:0.5;" x="108.74125" xlink:href="#m1fb6347b07" y="21.318125"/>
      </g>
     </g>
     <g id="text_2">
      <!-- 0.5 -->
      <defs>
       <path d="M 10.796875 72.90625 
L 49.515625 72.90625 
L 49.515625 64.59375 
L 19.828125 64.59375 
L 19.828125 46.734375 
Q 21.96875 47.46875 24.109375 47.828125 
Q 26.265625 48.1875 28.421875 48.1875 
Q 40.625 48.1875 47.75 41.5 
Q 54.890625 34.8125 54.890625 23.390625 
Q 54.890625 11.625 47.5625 5.09375 
Q 40.234375 -1.421875 26.90625 -1.421875 
Q 22.3125 -1.421875 17.546875 -0.640625 
Q 12.796875 0.140625 7.71875 1.703125 
L 7.71875 11.625 
Q 12.109375 9.234375 16.796875 8.0625 
Q 21.484375 6.890625 26.703125 6.890625 
Q 35.15625 6.890625 40.078125 11.328125 
Q 45.015625 15.765625 45.015625 23.390625 
Q 45.015625 31 40.078125 35.4375 
Q 35.15625 39.890625 26.703125 39.890625 
Q 22.75 39.890625 18.8125 39.015625 
Q 14.890625 38.140625 10.796875 36.28125 
z
" id="BitstreamVeraSans-Roman-35"/>
      </defs>
      <g transform="translate(100.7896875 256.1165625)scale(0.1 -0.1)">
       <use xlink:href="#BitstreamVeraSans-Roman-30"/>
       <use x="63.623046875" xlink:href="#BitstreamVeraSans-Roman-2e"/>
       <use x="95.41015625" xlink:href="#BitstreamVeraSans-Roman-35"/>
      </g>
     </g>
    </g>
    <g id="xtick_3">
     <g id="line2d_14">
      <path clip-path="url(#pec195559ee)" d="M 175.70125 244.518125 
L 175.70125 21.318125 
" style="fill:none;stroke:#000000;stroke-dasharray:1.000000,3.000000;stroke-dashoffset:0.0;stroke-width:0.5;"/>
     </g>
     <g id="line2d_15">
      <g>
       <use style="stroke:#000000;stroke-width:0.5;" x="175.70125" xlink:href="#ma1b97257b0" y="244.518125"/>
      </g>
     </g>
     <g id="line2d_16">
      <g>
       <use style="stroke:#000000;stroke-width:0.5;" x="175.70125" xlink:href="#m1fb6347b07" y="21.318125"/>
      </g>
     </g>
     <g id="text_3">
      <!-- 1.0 -->
      <defs>
       <path d="M 12.40625 8.296875 
L 28.515625 8.296875 
L 28.515625 63.921875 
L 10.984375 60.40625 
L 10.984375 69.390625 
L 28.421875 72.90625 
L 38.28125 72.90625 
L 38.28125 8.296875 
L 54.390625 8.296875 
L 54.390625 0 
L 12.40625 0 
z
" id="BitstreamVeraSans-Roman-31"/>
      </defs>
      <g transform="translate(167.7496875 256.1165625)scale(0.1 -0.1)">
       <use xlink:href="#BitstreamVeraSans-Roman-31"/>
       <use x="63.623046875" xlink:href="#BitstreamVeraSans-Roman-2e"/>
       <use x="95.41015625" xlink:href="#BitstreamVeraSans-Roman-30"/>
      </g>
     </g>
    </g>
    <g id="xtick_4">
     <g id="line2d_17">
      <path clip-path="url(#pec195559ee)" d="M 242.66125 244.518125 
L 242.66125 21.318125 
" style="fill:none;stroke:#000000;stroke-dasharray:1.000000,3.000000;stroke-dashoffset:0.0;stroke-width:0.5;"/>
     </g>
     <g id="line2d_18">
      <g>
       <use style="stroke:#000000;stroke-width:0.5;" x="242.66125" xlink:href="#ma1b97257b0" y="244.518125"/>
      </g>
     </g>
     <g id="line2d_19">
      <g>
       <use style="stroke:#000000;stroke-width:0.5;" x="242.66125" xlink:href="#m1fb6347b07" y="21.318125"/>
      </g>
     </g>
     <g id="text_4">
      <!-- 1.5 -->
      <g transform="translate(234.7096875 256.1165625)scale(0.1 -0.1)">
       <use xlink:href="#BitstreamVeraSans-Roman-31"/>
       <use x="63.623046875" xlink:href="#BitstreamVeraSans-Roman-2e"/>
       <use x="95.41015625" xlink:href="#BitstreamVeraSans-Roman-35"/>
      </g>
     </g>
    </g>
    <g id="xtick_5">
     <g id="line2d_20">
      <path clip-path="url(#pec195559ee)" d="M 309.62125 244.518125 
L 309.62125 21.318125 
" style="fill:none;stroke:#000000;stroke-dasharray:1.000000,3.000000;stroke-dashoffset:0.0;stroke-width:0.5;"/>
     </g>
     <g id="line2d_21">
      <g>
       <use style="stroke:#000000;stroke-width:0.5;" x="309.62125" xlink:href="#ma1b97257b0" y="244.518125"/>
      </g>
     </g>
     <g id="line2d_22">
      <g>
       <use style="stroke:#000000;stroke-width:0.5;" x="309.62125" xlink:href="#m1fb6347b07" y="21.318125"/>
      </g>
     </g>
     <g id="text_5">
      <!-- 2.0 -->
      <defs>
       <path d="M 19.1875 8.296875 
L 53.609375 8.296875 
L 53.609375 0 
L 7.328125 0 
L 7.328125 8.296875 
Q 12.9375 14.109375 22.625 23.890625 
Q 32.328125 33.6875 34.8125 36.53125 
Q 39.546875 41.84375 41.421875 45.53125 
Q 43.3125 49.21875 43.3125 52.78125 
Q 43.3125 58.59375 39.234375 62.25 
Q 35.15625 65.921875 28.609375 65.921875 
Q 23.96875 65.921875 18.8125 64.3125 
Q 13.671875 62.703125 7.8125 59.421875 
L 7.8125 69.390625 
Q 13.765625 71.78125 18.9375 73 
Q 24.125 74.21875 28.421875 74.21875 
Q 39.75 74.21875 46.484375 68.546875 
Q 53.21875 62.890625 53.21875 53.421875 
Q 53.21875 48.921875 51.53125 44.890625 
Q 49.859375 40.875 45.40625 35.40625 
Q 44.1875 33.984375 37.640625 27.21875 
Q 31.109375 20.453125 19.1875 8.296875 
" id="BitstreamVeraSans-Roman-32"/>
      </defs>
      <g transform="translate(301.6696875 256.1165625)scale(0.1 -0.1)">
       <use xlink:href="#BitstreamVeraSans-Roman-32"/>
       <use x="63.623046875" xlink:href="#BitstreamVeraSans-Roman-2e"/>
       <use x="95.41015625" xlink:href="#BitstreamVeraSans-Roman-30"/>
      </g>
     </g>
    </g>
    <g id="xtick_6">
     <g id="line2d_23">
      <path clip-path="url(#pec195559ee)" d="M 376.58125 244.518125 
L 376.58125 21.318125 
" style="fill:none;stroke:#000000;stroke-dasharray:1.000000,3.000000;stroke-dashoffset:0.0;stroke-width:0.5;"/>
     </g>
     <g id="line2d_24">
      <g>
       <use style="stroke:#000000;stroke-width:0.5;" x="376.58125" xlink:href="#ma1b97257b0" y="244.518125"/>
      </g>
     </g>
     <g id="line2d_25">
      <g>
       <use style="stroke:#000000;stroke-width:0.5;" x="376.58125" xlink:href="#m1fb6347b07" y="21.318125"/>
      </g>
     </g>
     <g id="text_6">
      <!-- 2.5 -->
      <g transform="translate(368.6296875 256.1165625)scale(0.1 -0.1)">
       <use xlink:href="#BitstreamVeraSans-Roman-32"/>
       <use x="63.623046875" xlink:href="#BitstreamVeraSans-Roman-2e"/>
       <use x="95.41015625" xlink:href="#BitstreamVeraSans-Roman-35"/>
      </g>
     </g>
    </g>
    <g id="text_7">
     <!-- n - pocet linearnich generatoru -->
     <defs>
      <path d="M 54.890625 33.015625 
L 54.890625 0 
L 45.90625 0 
L 45.90625 32.71875 
Q 45.90625 40.484375 42.875 44.328125 
Q 39.84375 48.1875 33.796875 48.1875 
Q 26.515625 48.1875 22.3125 43.546875 
Q 18.109375 38.921875 18.109375 30.90625 
L 18.109375 0 
L 9.078125 0 
L 9.078125 54.6875 
L 18.109375 54.6875 
L 18.109375 46.1875 
Q 21.34375 51.125 25.703125 53.5625 
Q 30.078125 56 35.796875 56 
Q 45.21875 56 50.046875 50.171875 
Q 54.890625 44.34375 54.890625 33.015625 
" id="BitstreamVeraSans-Roman-6e"/>
      <path d="M 30.609375 48.390625 
Q 23.390625 48.390625 19.1875 42.75 
Q 14.984375 37.109375 14.984375 27.296875 
Q 14.984375 17.484375 19.15625 11.84375 
Q 23.34375 6.203125 30.609375 6.203125 
Q 37.796875 6.203125 41.984375 11.859375 
Q 46.1875 17.53125 46.1875 27.296875 
Q 46.1875 37.015625 41.984375 42.703125 
Q 37.796875 48.390625 30.609375 48.390625 
M 30.609375 56 
Q 42.328125 56 49.015625 48.375 
Q 55.71875 40.765625 55.71875 27.296875 
Q 55.71875 13.875 49.015625 6.21875 
Q 42.328125 -1.421875 30.609375 -1.421875 
Q 18.84375 -1.421875 12.171875 6.21875 
Q 5.515625 13.875 5.515625 27.296875 
Q 5.515625 40.765625 12.171875 48.375 
Q 18.84375 56 30.609375 56 
" id="BitstreamVeraSans-Roman-6f"/>
      <path d="M 41.109375 46.296875 
Q 39.59375 47.171875 37.8125 47.578125 
Q 36.03125 48 33.890625 48 
Q 26.265625 48 22.1875 43.046875 
Q 18.109375 38.09375 18.109375 28.8125 
L 18.109375 0 
L 9.078125 0 
L 9.078125 54.6875 
L 18.109375 54.6875 
L 18.109375 46.1875 
Q 20.953125 51.171875 25.484375 53.578125 
Q 30.03125 56 36.53125 56 
Q 37.453125 56 38.578125 55.875 
Q 39.703125 55.765625 41.0625 55.515625 
z
" id="BitstreamVeraSans-Roman-72"/>
      <path d="M 9.421875 75.984375 
L 18.40625 75.984375 
L 18.40625 0 
L 9.421875 0 
z
" id="BitstreamVeraSans-Roman-6c"/>
      <path d="M 18.3125 70.21875 
L 18.3125 54.6875 
L 36.8125 54.6875 
L 36.8125 47.703125 
L 18.3125 47.703125 
L 18.3125 18.015625 
Q 18.3125 11.328125 20.140625 9.421875 
Q 21.96875 7.515625 27.59375 7.515625 
L 36.8125 7.515625 
L 36.8125 0 
L 27.59375 0 
Q 17.1875 0 13.234375 3.875 
Q 9.28125 7.765625 9.28125 18.015625 
L 9.28125 47.703125 
L 2.6875 47.703125 
L 2.6875 54.6875 
L 9.28125 54.6875 
L 9.28125 70.21875 
z
" id="BitstreamVeraSans-Roman-74"/>
      <path d="M 8.5 21.578125 
L 8.5 54.6875 
L 17.484375 54.6875 
L 17.484375 21.921875 
Q 17.484375 14.15625 20.5 10.265625 
Q 23.53125 6.390625 29.59375 6.390625 
Q 36.859375 6.390625 41.078125 11.03125 
Q 45.3125 15.671875 45.3125 23.6875 
L 45.3125 54.6875 
L 54.296875 54.6875 
L 54.296875 0 
L 45.3125 0 
L 45.3125 8.40625 
Q 42.046875 3.421875 37.71875 1 
Q 33.40625 -1.421875 27.6875 -1.421875 
Q 18.265625 -1.421875 13.375 4.4375 
Q 8.5 10.296875 8.5 21.578125 
" id="BitstreamVeraSans-Roman-75"/>
      <path id="BitstreamVeraSans-Roman-20"/>
      <path d="M 54.890625 33.015625 
L 54.890625 0 
L 45.90625 0 
L 45.90625 32.71875 
Q 45.90625 40.484375 42.875 44.328125 
Q 39.84375 48.1875 33.796875 48.1875 
Q 26.515625 48.1875 22.3125 43.546875 
Q 18.109375 38.921875 18.109375 30.90625 
L 18.109375 0 
L 9.078125 0 
L 9.078125 75.984375 
L 18.109375 75.984375 
L 18.109375 46.1875 
Q 21.34375 51.125 25.703125 53.5625 
Q 30.078125 56 35.796875 56 
Q 45.21875 56 50.046875 50.171875 
Q 54.890625 44.34375 54.890625 33.015625 
" id="BitstreamVeraSans-Roman-68"/>
      <path d="M 48.78125 52.59375 
L 48.78125 44.1875 
Q 44.96875 46.296875 41.140625 47.34375 
Q 37.3125 48.390625 33.40625 48.390625 
Q 24.65625 48.390625 19.8125 42.84375 
Q 14.984375 37.3125 14.984375 27.296875 
Q 14.984375 17.28125 19.8125 11.734375 
Q 24.65625 6.203125 33.40625 6.203125 
Q 37.3125 6.203125 41.140625 7.25 
Q 44.96875 8.296875 48.78125 10.40625 
L 48.78125 2.09375 
Q 45.015625 0.34375 40.984375 -0.53125 
Q 36.96875 -1.421875 32.421875 -1.421875 
Q 20.0625 -1.421875 12.78125 6.34375 
Q 5.515625 14.109375 5.515625 27.296875 
Q 5.515625 40.671875 12.859375 48.328125 
Q 20.21875 56 33.015625 56 
Q 37.15625 56 41.109375 55.140625 
Q 45.0625 54.296875 48.78125 52.59375 
" id="BitstreamVeraSans-Roman-63"/>
      <path d="M 45.40625 27.984375 
Q 45.40625 37.75 41.375 43.109375 
Q 37.359375 48.484375 30.078125 48.484375 
Q 22.859375 48.484375 18.828125 43.109375 
Q 14.796875 37.75 14.796875 27.984375 
Q 14.796875 18.265625 18.828125 12.890625 
Q 22.859375 7.515625 30.078125 7.515625 
Q 37.359375 7.515625 41.375 12.890625 
Q 45.40625 18.265625 45.40625 27.984375 
M 54.390625 6.78125 
Q 54.390625 -7.171875 48.1875 -13.984375 
Q 42 -20.796875 29.203125 -20.796875 
Q 24.46875 -20.796875 20.265625 -20.09375 
Q 16.0625 -19.390625 12.109375 -17.921875 
L 12.109375 -9.1875 
Q 16.0625 -11.328125 19.921875 -12.34375 
Q 23.78125 -13.375 27.78125 -13.375 
Q 36.625 -13.375 41.015625 -8.765625 
Q 45.40625 -4.15625 45.40625 5.171875 
L 45.40625 9.625 
Q 42.625 4.78125 38.28125 2.390625 
Q 33.9375 0 27.875 0 
Q 17.828125 0 11.671875 7.65625 
Q 5.515625 15.328125 5.515625 27.984375 
Q 5.515625 40.671875 11.671875 48.328125 
Q 17.828125 56 27.875 56 
Q 33.9375 56 38.28125 53.609375 
Q 42.625 51.21875 45.40625 46.390625 
L 45.40625 54.6875 
L 54.390625 54.6875 
z
" id="BitstreamVeraSans-Roman-67"/>
      <path d="M 18.109375 8.203125 
L 18.109375 -20.796875 
L 9.078125 -20.796875 
L 9.078125 54.6875 
L 18.109375 54.6875 
L 18.109375 46.390625 
Q 20.953125 51.265625 25.265625 53.625 
Q 29.59375 56 35.59375 56 
Q 45.5625 56 51.78125 48.09375 
Q 58.015625 40.1875 58.015625 27.296875 
Q 58.015625 14.40625 51.78125 6.484375 
Q 45.5625 -1.421875 35.59375 -1.421875 
Q 29.59375 -1.421875 25.265625 0.953125 
Q 20.953125 3.328125 18.109375 8.203125 
M 48.6875 27.296875 
Q 48.6875 37.203125 44.609375 42.84375 
Q 40.53125 48.484375 33.40625 48.484375 
Q 26.265625 48.484375 22.1875 42.84375 
Q 18.109375 37.203125 18.109375 27.296875 
Q 18.109375 17.390625 22.1875 11.75 
Q 26.265625 6.109375 33.40625 6.109375 
Q 40.53125 6.109375 44.609375 11.75 
Q 48.6875 17.390625 48.6875 27.296875 
" id="BitstreamVeraSans-Roman-70"/>
      <path d="M 34.28125 27.484375 
Q 23.390625 27.484375 19.1875 25 
Q 14.984375 22.515625 14.984375 16.5 
Q 14.984375 11.71875 18.140625 8.90625 
Q 21.296875 6.109375 26.703125 6.109375 
Q 34.1875 6.109375 38.703125 11.40625 
Q 43.21875 16.703125 43.21875 25.484375 
L 43.21875 27.484375 
z
M 52.203125 31.203125 
L 52.203125 0 
L 43.21875 0 
L 43.21875 8.296875 
Q 40.140625 3.328125 35.546875 0.953125 
Q 30.953125 -1.421875 24.3125 -1.421875 
Q 15.921875 -1.421875 10.953125 3.296875 
Q 6 8.015625 6 15.921875 
Q 6 25.140625 12.171875 29.828125 
Q 18.359375 34.515625 30.609375 34.515625 
L 43.21875 34.515625 
L 43.21875 35.40625 
Q 43.21875 41.609375 39.140625 45 
Q 35.0625 48.390625 27.6875 48.390625 
Q 23 48.390625 18.546875 47.265625 
Q 14.109375 46.140625 10.015625 43.890625 
L 10.015625 52.203125 
Q 14.9375 54.109375 19.578125 55.046875 
Q 24.21875 56 28.609375 56 
Q 40.484375 56 46.34375 49.84375 
Q 52.203125 43.703125 52.203125 31.203125 
" id="BitstreamVeraSans-Roman-61"/>
      <path d="M 4.890625 31.390625 
L 31.203125 31.390625 
L 31.203125 23.390625 
L 4.890625 23.390625 
z
" id="BitstreamVeraSans-Roman-2d"/>
      <path d="M 56.203125 29.59375 
L 56.203125 25.203125 
L 14.890625 25.203125 
Q 15.484375 15.921875 20.484375 11.0625 
Q 25.484375 6.203125 34.421875 6.203125 
Q 39.59375 6.203125 44.453125 7.46875 
Q 49.3125 8.734375 54.109375 11.28125 
L 54.109375 2.78125 
Q 49.265625 0.734375 44.1875 -0.34375 
Q 39.109375 -1.421875 33.890625 -1.421875 
Q 20.796875 -1.421875 13.15625 6.1875 
Q 5.515625 13.8125 5.515625 26.8125 
Q 5.515625 40.234375 12.765625 48.109375 
Q 20.015625 56 32.328125 56 
Q 43.359375 56 49.78125 48.890625 
Q 56.203125 41.796875 56.203125 29.59375 
M 47.21875 32.234375 
Q 47.125 39.59375 43.09375 43.984375 
Q 39.0625 48.390625 32.421875 48.390625 
Q 24.90625 48.390625 20.390625 44.140625 
Q 15.875 39.890625 15.1875 32.171875 
z
" id="BitstreamVeraSans-Roman-65"/>
      <path d="M 9.421875 54.6875 
L 18.40625 54.6875 
L 18.40625 0 
L 9.421875 0 
z
M 9.421875 75.984375 
L 18.40625 75.984375 
L 18.40625 64.59375 
L 9.421875 64.59375 
z
" id="BitstreamVeraSans-Roman-69"/>
     </defs>
     <g transform="translate(131.35546875 270.7946875)scale(0.1 -0.1)">
      <use xlink:href="#BitstreamVeraSans-Roman-6e"/>
      <use x="63.37890625" xlink:href="#BitstreamVeraSans-Roman-20"/>
      <use x="95.166015625" xlink:href="#BitstreamVeraSans-Roman-2d"/>
      <use x="131.25" xlink:href="#BitstreamVeraSans-Roman-20"/>
      <use x="163.037109375" xlink:href="#BitstreamVeraSans-Roman-70"/>
      <use x="226.513671875" xlink:href="#BitstreamVeraSans-Roman-6f"/>
      <use x="287.6953125" xlink:href="#BitstreamVeraSans-Roman-63"/>
      <use x="342.67578125" xlink:href="#BitstreamVeraSans-Roman-65"/>
      <use x="404.19921875" xlink:href="#BitstreamVeraSans-Roman-74"/>
      <use x="443.408203125" xlink:href="#BitstreamVeraSans-Roman-20"/>
      <use x="475.1953125" xlink:href="#BitstreamVeraSans-Roman-6c"/>
      <use x="502.978515625" xlink:href="#BitstreamVeraSans-Roman-69"/>
      <use x="530.76171875" xlink:href="#BitstreamVeraSans-Roman-6e"/>
      <use x="594.140625" xlink:href="#BitstreamVeraSans-Roman-65"/>
      <use x="655.6640625" xlink:href="#BitstreamVeraSans-Roman-61"/>
      <use x="716.943359375" xlink:href="#BitstreamVeraSans-Roman-72"/>
      <use x="758.041015625" xlink:href="#BitstreamVeraSans-Roman-6e"/>
      <use x="821.419921875" xlink:href="#BitstreamVeraSans-Roman-69"/>
      <use x="849.203125" xlink:href="#BitstreamVeraSans-Roman-63"/>
      <use x="904.18359375" xlink:href="#BitstreamVeraSans-Roman-68"/>
      <use x="967.5625" xlink:href="#BitstreamVeraSans-Roman-20"/>
      <use x="999.349609375" xlink:href="#BitstreamVeraSans-Roman-67"/>
      <use x="1062.826171875" xlink:href="#BitstreamVeraSans-Roman-65"/>
      <use x="1124.349609375" xlink:href="#BitstreamVeraSans-Roman-6e"/>
      <use x="1187.728515625" xlink:href="#BitstreamVeraSans-Roman-65"/>
      <use x="1249.251953125" xlink:href="#BitstreamVeraSans-Roman-72"/>
      <use x="1290.365234375" xlink:href="#BitstreamVeraSans-Roman-61"/>
      <use x="1351.64453125" xlink:href="#BitstreamVeraSans-Roman-74"/>
      <use x="1390.853515625" xlink:href="#BitstreamVeraSans-Roman-6f"/>
      <use x="1452.03515625" xlink:href="#BitstreamVeraSans-Roman-72"/>
      <use x="1493.1484375" xlink:href="#BitstreamVeraSans-Roman-75"/>
     </g>
    </g>
    <g id="text_8">
     <!-- 1e8 -->
     <defs>
      <path d="M 31.78125 34.625 
Q 24.75 34.625 20.71875 30.859375 
Q 16.703125 27.09375 16.703125 20.515625 
Q 16.703125 13.921875 20.71875 10.15625 
Q 24.75 6.390625 31.78125 6.390625 
Q 38.8125 6.390625 42.859375 10.171875 
Q 46.921875 13.96875 46.921875 20.515625 
Q 46.921875 27.09375 42.890625 30.859375 
Q 38.875 34.625 31.78125 34.625 
M 21.921875 38.8125 
Q 15.578125 40.375 12.03125 44.71875 
Q 8.5 49.078125 8.5 55.328125 
Q 8.5 64.0625 14.71875 69.140625 
Q 20.953125 74.21875 31.78125 74.21875 
Q 42.671875 74.21875 48.875 69.140625 
Q 55.078125 64.0625 55.078125 55.328125 
Q 55.078125 49.078125 51.53125 44.71875 
Q 48 40.375 41.703125 38.8125 
Q 48.828125 37.15625 52.796875 32.3125 
Q 56.78125 27.484375 56.78125 20.515625 
Q 56.78125 9.90625 50.3125 4.234375 
Q 43.84375 -1.421875 31.78125 -1.421875 
Q 19.734375 -1.421875 13.25 4.234375 
Q 6.78125 9.90625 6.78125 20.515625 
Q 6.78125 27.484375 10.78125 32.3125 
Q 14.796875 37.15625 21.921875 38.8125 
M 18.3125 54.390625 
Q 18.3125 48.734375 21.84375 45.5625 
Q 25.390625 42.390625 31.78125 42.390625 
Q 38.140625 42.390625 41.71875 45.5625 
Q 45.3125 48.734375 45.3125 54.390625 
Q 45.3125 60.0625 41.71875 63.234375 
Q 38.140625 66.40625 31.78125 66.40625 
Q 25.390625 66.40625 21.84375 63.234375 
Q 18.3125 60.0625 18.3125 54.390625 
" id="BitstreamVeraSans-Roman-38"/>
     </defs>
     <g transform="translate(357.703125 268.7946875)scale(0.1 -0.1)">
      <use xlink:href="#BitstreamVeraSans-Roman-31"/>
      <use x="63.623046875" xlink:href="#BitstreamVeraSans-Roman-65"/>
      <use x="125.146484375" xlink:href="#BitstreamVeraSans-Roman-38"/>
     </g>
    </g>
   </g>
   <g id="matplotlib.axis_2">
    <g id="ytick_1">
     <g id="line2d_26">
      <path clip-path="url(#pec195559ee)" d="M 41.78125 244.518125 
L 376.58125 244.518125 
" style="fill:none;stroke:#000000;stroke-dasharray:1.000000,3.000000;stroke-dashoffset:0.0;stroke-width:0.5;"/>
     </g>
     <g id="line2d_27">
      <defs>
       <path d="M 0 0 
L 4 0 
" id="m8eee8dd474" style="stroke:#000000;stroke-width:0.5;"/>
      </defs>
      <g>
       <use style="stroke:#000000;stroke-width:0.5;" x="41.78125" xlink:href="#m8eee8dd474" y="244.518125"/>
      </g>
     </g>
     <g id="line2d_28">
      <defs>
       <path d="M 0 0 
L -4 0 
" id="med10a49b9c" style="stroke:#000000;stroke-width:0.5;"/>
      </defs>
      <g>
       <use style="stroke:#000000;stroke-width:0.5;" x="376.58125" xlink:href="#med10a49b9c" y="244.518125"/>
      </g>
     </g>
     <g id="text_9">
      <!-- 1.0 -->
      <g transform="translate(21.878125 247.2775)scale(0.1 -0.1)">
       <use xlink:href="#BitstreamVeraSans-Roman-31"/>
       <use x="63.623046875" xlink:href="#BitstreamVeraSans-Roman-2e"/>
       <use x="95.41015625" xlink:href="#BitstreamVeraSans-Roman-30"/>
      </g>
     </g>
    </g>
    <g id="ytick_2">
     <g id="line2d_29">
      <path clip-path="url(#pec195559ee)" d="M 41.78125 219.718125 
L 376.58125 219.718125 
" style="fill:none;stroke:#000000;stroke-dasharray:1.000000,3.000000;stroke-dashoffset:0.0;stroke-width:0.5;"/>
     </g>
     <g id="line2d_30">
      <g>
       <use style="stroke:#000000;stroke-width:0.5;" x="41.78125" xlink:href="#m8eee8dd474" y="219.718125"/>
      </g>
     </g>
     <g id="line2d_31">
      <g>
       <use style="stroke:#000000;stroke-width:0.5;" x="376.58125" xlink:href="#med10a49b9c" y="219.718125"/>
      </g>
     </g>
     <g id="text_10">
      <!-- 1.5 -->
      <g transform="translate(21.878125 222.4775)scale(0.1 -0.1)">
       <use xlink:href="#BitstreamVeraSans-Roman-31"/>
       <use x="63.623046875" xlink:href="#BitstreamVeraSans-Roman-2e"/>
       <use x="95.41015625" xlink:href="#BitstreamVeraSans-Roman-35"/>
      </g>
     </g>
    </g>
    <g id="ytick_3">
     <g id="line2d_32">
      <path clip-path="url(#pec195559ee)" d="M 41.78125 194.918125 
L 376.58125 194.918125 
" style="fill:none;stroke:#000000;stroke-dasharray:1.000000,3.000000;stroke-dashoffset:0.0;stroke-width:0.5;"/>
     </g>
     <g id="line2d_33">
      <g>
       <use style="stroke:#000000;stroke-width:0.5;" x="41.78125" xlink:href="#m8eee8dd474" y="194.918125"/>
      </g>
     </g>
     <g id="line2d_34">
      <g>
       <use style="stroke:#000000;stroke-width:0.5;" x="376.58125" xlink:href="#med10a49b9c" y="194.918125"/>
      </g>
     </g>
     <g id="text_11">
      <!-- 2.0 -->
      <g transform="translate(21.878125 197.6775)scale(0.1 -0.1)">
       <use xlink:href="#BitstreamVeraSans-Roman-32"/>
       <use x="63.623046875" xlink:href="#BitstreamVeraSans-Roman-2e"/>
       <use x="95.41015625" xlink:href="#BitstreamVeraSans-Roman-30"/>
      </g>
     </g>
    </g>
    <g id="ytick_4">
     <g id="line2d_35">
      <path clip-path="url(#pec195559ee)" d="M 41.78125 170.118125 
L 376.58125 170.118125 
" style="fill:none;stroke:#000000;stroke-dasharray:1.000000,3.000000;stroke-dashoffset:0.0;stroke-width:0.5;"/>
     </g>
     <g id="line2d_36">
      <g>
       <use style="stroke:#000000;stroke-width:0.5;" x="41.78125" xlink:href="#m8eee8dd474" y="170.118125"/>
      </g>
     </g>
     <g id="line2d_37">
      <g>
       <use style="stroke:#000000;stroke-width:0.5;" x="376.58125" xlink:href="#med10a49b9c" y="170.118125"/>
      </g>
     </g>
     <g id="text_12">
      <!-- 2.5 -->
      <g transform="translate(21.878125 172.8775)scale(0.1 -0.1)">
       <use xlink:href="#BitstreamVeraSans-Roman-32"/>
       <use x="63.623046875" xlink:href="#BitstreamVeraSans-Roman-2e"/>
       <use x="95.41015625" xlink:href="#BitstreamVeraSans-Roman-35"/>
      </g>
     </g>
    </g>
    <g id="ytick_5">
     <g id="line2d_38">
      <path clip-path="url(#pec195559ee)" d="M 41.78125 145.318125 
L 376.58125 145.318125 
" style="fill:none;stroke:#000000;stroke-dasharray:1.000000,3.000000;stroke-dashoffset:0.0;stroke-width:0.5;"/>
     </g>
     <g id="line2d_39">
      <g>
       <use style="stroke:#000000;stroke-width:0.5;" x="41.78125" xlink:href="#m8eee8dd474" y="145.318125"/>
      </g>
     </g>
     <g id="line2d_40">
      <g>
       <use style="stroke:#000000;stroke-width:0.5;" x="376.58125" xlink:href="#med10a49b9c" y="145.318125"/>
      </g>
     </g>
     <g id="text_13">
      <!-- 3.0 -->
      <defs>
       <path d="M 40.578125 39.3125 
Q 47.65625 37.796875 51.625 33 
Q 55.609375 28.21875 55.609375 21.1875 
Q 55.609375 10.40625 48.1875 4.484375 
Q 40.765625 -1.421875 27.09375 -1.421875 
Q 22.515625 -1.421875 17.65625 -0.515625 
Q 12.796875 0.390625 7.625 2.203125 
L 7.625 11.71875 
Q 11.71875 9.328125 16.59375 8.109375 
Q 21.484375 6.890625 26.8125 6.890625 
Q 36.078125 6.890625 40.9375 10.546875 
Q 45.796875 14.203125 45.796875 21.1875 
Q 45.796875 27.640625 41.28125 31.265625 
Q 36.765625 34.90625 28.71875 34.90625 
L 20.21875 34.90625 
L 20.21875 43.015625 
L 29.109375 43.015625 
Q 36.375 43.015625 40.234375 45.921875 
Q 44.09375 48.828125 44.09375 54.296875 
Q 44.09375 59.90625 40.109375 62.90625 
Q 36.140625 65.921875 28.71875 65.921875 
Q 24.65625 65.921875 20.015625 65.03125 
Q 15.375 64.15625 9.8125 62.3125 
L 9.8125 71.09375 
Q 15.4375 72.65625 20.34375 73.4375 
Q 25.25 74.21875 29.59375 74.21875 
Q 40.828125 74.21875 47.359375 69.109375 
Q 53.90625 64.015625 53.90625 55.328125 
Q 53.90625 49.265625 50.4375 45.09375 
Q 46.96875 40.921875 40.578125 39.3125 
" id="BitstreamVeraSans-Roman-33"/>
      </defs>
      <g transform="translate(21.878125 148.0775)scale(0.1 -0.1)">
       <use xlink:href="#BitstreamVeraSans-Roman-33"/>
       <use x="63.623046875" xlink:href="#BitstreamVeraSans-Roman-2e"/>
       <use x="95.41015625" xlink:href="#BitstreamVeraSans-Roman-30"/>
      </g>
     </g>
    </g>
    <g id="ytick_6">
     <g id="line2d_41">
      <path clip-path="url(#pec195559ee)" d="M 41.78125 120.518125 
L 376.58125 120.518125 
" style="fill:none;stroke:#000000;stroke-dasharray:1.000000,3.000000;stroke-dashoffset:0.0;stroke-width:0.5;"/>
     </g>
     <g id="line2d_42">
      <g>
       <use style="stroke:#000000;stroke-width:0.5;" x="41.78125" xlink:href="#m8eee8dd474" y="120.518125"/>
      </g>
     </g>
     <g id="line2d_43">
      <g>
       <use style="stroke:#000000;stroke-width:0.5;" x="376.58125" xlink:href="#med10a49b9c" y="120.518125"/>
      </g>
     </g>
     <g id="text_14">
      <!-- 3.5 -->
      <g transform="translate(21.878125 123.2775)scale(0.1 -0.1)">
       <use xlink:href="#BitstreamVeraSans-Roman-33"/>
       <use x="63.623046875" xlink:href="#BitstreamVeraSans-Roman-2e"/>
       <use x="95.41015625" xlink:href="#BitstreamVeraSans-Roman-35"/>
      </g>
     </g>
    </g>
    <g id="ytick_7">
     <g id="line2d_44">
      <path clip-path="url(#pec195559ee)" d="M 41.78125 95.718125 
L 376.58125 95.718125 
" style="fill:none;stroke:#000000;stroke-dasharray:1.000000,3.000000;stroke-dashoffset:0.0;stroke-width:0.5;"/>
     </g>
     <g id="line2d_45">
      <g>
       <use style="stroke:#000000;stroke-width:0.5;" x="41.78125" xlink:href="#m8eee8dd474" y="95.718125"/>
      </g>
     </g>
     <g id="line2d_46">
      <g>
       <use style="stroke:#000000;stroke-width:0.5;" x="376.58125" xlink:href="#med10a49b9c" y="95.718125"/>
      </g>
     </g>
     <g id="text_15">
      <!-- 4.0 -->
      <defs>
       <path d="M 37.796875 64.3125 
L 12.890625 25.390625 
L 37.796875 25.390625 
z
M 35.203125 72.90625 
L 47.609375 72.90625 
L 47.609375 25.390625 
L 58.015625 25.390625 
L 58.015625 17.1875 
L 47.609375 17.1875 
L 47.609375 0 
L 37.796875 0 
L 37.796875 17.1875 
L 4.890625 17.1875 
L 4.890625 26.703125 
z
" id="BitstreamVeraSans-Roman-34"/>
      </defs>
      <g transform="translate(21.878125 98.4775)scale(0.1 -0.1)">
       <use xlink:href="#BitstreamVeraSans-Roman-34"/>
       <use x="63.623046875" xlink:href="#BitstreamVeraSans-Roman-2e"/>
       <use x="95.41015625" xlink:href="#BitstreamVeraSans-Roman-30"/>
      </g>
     </g>
    </g>
    <g id="ytick_8">
     <g id="line2d_47">
      <path clip-path="url(#pec195559ee)" d="M 41.78125 70.918125 
L 376.58125 70.918125 
" style="fill:none;stroke:#000000;stroke-dasharray:1.000000,3.000000;stroke-dashoffset:0.0;stroke-width:0.5;"/>
     </g>
     <g id="line2d_48">
      <g>
       <use style="stroke:#000000;stroke-width:0.5;" x="41.78125" xlink:href="#m8eee8dd474" y="70.918125"/>
      </g>
     </g>
     <g id="line2d_49">
      <g>
       <use style="stroke:#000000;stroke-width:0.5;" x="376.58125" xlink:href="#med10a49b9c" y="70.918125"/>
      </g>
     </g>
     <g id="text_16">
      <!-- 4.5 -->
      <g transform="translate(21.878125 73.6775)scale(0.1 -0.1)">
       <use xlink:href="#BitstreamVeraSans-Roman-34"/>
       <use x="63.623046875" xlink:href="#BitstreamVeraSans-Roman-2e"/>
       <use x="95.41015625" xlink:href="#BitstreamVeraSans-Roman-35"/>
      </g>
     </g>
    </g>
    <g id="ytick_9">
     <g id="line2d_50">
      <path clip-path="url(#pec195559ee)" d="M 41.78125 46.118125 
L 376.58125 46.118125 
" style="fill:none;stroke:#000000;stroke-dasharray:1.000000,3.000000;stroke-dashoffset:0.0;stroke-width:0.5;"/>
     </g>
     <g id="line2d_51">
      <g>
       <use style="stroke:#000000;stroke-width:0.5;" x="41.78125" xlink:href="#m8eee8dd474" y="46.118125"/>
      </g>
     </g>
     <g id="line2d_52">
      <g>
       <use style="stroke:#000000;stroke-width:0.5;" x="376.58125" xlink:href="#med10a49b9c" y="46.118125"/>
      </g>
     </g>
     <g id="text_17">
      <!-- 5.0 -->
      <g transform="translate(21.878125 48.8775)scale(0.1 -0.1)">
       <use xlink:href="#BitstreamVeraSans-Roman-35"/>
       <use x="63.623046875" xlink:href="#BitstreamVeraSans-Roman-2e"/>
       <use x="95.41015625" xlink:href="#BitstreamVeraSans-Roman-30"/>
      </g>
     </g>
    </g>
    <g id="ytick_10">
     <g id="line2d_53">
      <path clip-path="url(#pec195559ee)" d="M 41.78125 21.318125 
L 376.58125 21.318125 
" style="fill:none;stroke:#000000;stroke-dasharray:1.000000,3.000000;stroke-dashoffset:0.0;stroke-width:0.5;"/>
     </g>
     <g id="line2d_54">
      <g>
       <use style="stroke:#000000;stroke-width:0.5;" x="41.78125" xlink:href="#m8eee8dd474" y="21.318125"/>
      </g>
     </g>
     <g id="line2d_55">
      <g>
       <use style="stroke:#000000;stroke-width:0.5;" x="376.58125" xlink:href="#med10a49b9c" y="21.318125"/>
      </g>
     </g>
     <g id="text_18">
      <!-- 5.5 -->
      <g transform="translate(21.878125 24.0775)scale(0.1 -0.1)">
       <use xlink:href="#BitstreamVeraSans-Roman-35"/>
       <use x="63.623046875" xlink:href="#BitstreamVeraSans-Roman-2e"/>
       <use x="95.41015625" xlink:href="#BitstreamVeraSans-Roman-35"/>
      </g>
     </g>
    </g>
    <g id="text_19">
     <!-- n / t [s ^ -1] -->
     <defs>
      <path d="M 30.421875 75.984375 
L 30.421875 -13.1875 
L 9.71875 -13.1875 
L 9.71875 -6.203125 
L 21.390625 -6.203125 
L 21.390625 69 
L 9.71875 69 
L 9.71875 75.984375 
z
" id="BitstreamVeraSans-Roman-5d"/>
      <path d="M 44.28125 53.078125 
L 44.28125 44.578125 
Q 40.484375 46.53125 36.375 47.5 
Q 32.28125 48.484375 27.875 48.484375 
Q 21.1875 48.484375 17.84375 46.4375 
Q 14.5 44.390625 14.5 40.28125 
Q 14.5 37.15625 16.890625 35.375 
Q 19.28125 33.59375 26.515625 31.984375 
L 29.59375 31.296875 
Q 39.15625 29.25 43.1875 25.515625 
Q 47.21875 21.78125 47.21875 15.09375 
Q 47.21875 7.46875 41.1875 3.015625 
Q 35.15625 -1.421875 24.609375 -1.421875 
Q 20.21875 -1.421875 15.453125 -0.5625 
Q 10.6875 0.296875 5.421875 2 
L 5.421875 11.28125 
Q 10.40625 8.6875 15.234375 7.390625 
Q 20.0625 6.109375 24.8125 6.109375 
Q 31.15625 6.109375 34.5625 8.28125 
Q 37.984375 10.453125 37.984375 14.40625 
Q 37.984375 18.0625 35.515625 20.015625 
Q 33.0625 21.96875 24.703125 23.78125 
L 21.578125 24.515625 
Q 13.234375 26.265625 9.515625 29.90625 
Q 5.8125 33.546875 5.8125 39.890625 
Q 5.8125 47.609375 11.28125 51.796875 
Q 16.75 56 26.8125 56 
Q 31.78125 56 36.171875 55.265625 
Q 40.578125 54.546875 44.28125 53.078125 
" id="BitstreamVeraSans-Roman-73"/>
      <path d="M 46.6875 72.90625 
L 73.1875 45.703125 
L 63.375 45.703125 
L 41.890625 64.984375 
L 20.40625 45.703125 
L 10.59375 45.703125 
L 37.109375 72.90625 
z
" id="BitstreamVeraSans-Roman-5e"/>
      <path d="M 8.59375 75.984375 
L 29.296875 75.984375 
L 29.296875 69 
L 17.578125 69 
L 17.578125 -6.203125 
L 29.296875 -6.203125 
L 29.296875 -13.1875 
L 8.59375 -13.1875 
z
" id="BitstreamVeraSans-Roman-5b"/>
      <path d="M 25.390625 72.90625 
L 33.6875 72.90625 
L 8.296875 -9.28125 
L 0 -9.28125 
z
" id="BitstreamVeraSans-Roman-2f"/>
     </defs>
     <g transform="translate(14.7984375 163.35796875)rotate(-90.0)scale(0.1 -0.1)">
      <use xlink:href="#BitstreamVeraSans-Roman-6e"/>
      <use x="63.37890625" xlink:href="#BitstreamVeraSans-Roman-20"/>
      <use x="95.166015625" xlink:href="#BitstreamVeraSans-Roman-2f"/>
      <use x="128.857421875" xlink:href="#BitstreamVeraSans-Roman-20"/>
      <use x="160.64453125" xlink:href="#BitstreamVeraSans-Roman-74"/>
      <use x="199.853515625" xlink:href="#BitstreamVeraSans-Roman-20"/>
      <use x="231.640625" xlink:href="#BitstreamVeraSans-Roman-5b"/>
      <use x="270.654296875" xlink:href="#BitstreamVeraSans-Roman-73"/>
      <use x="322.75390625" xlink:href="#BitstreamVeraSans-Roman-20"/>
      <use x="354.541015625" xlink:href="#BitstreamVeraSans-Roman-5e"/>
      <use x="438.330078125" xlink:href="#BitstreamVeraSans-Roman-20"/>
      <use x="470.1171875" xlink:href="#BitstreamVeraSans-Roman-2d"/>
      <use x="506.201171875" xlink:href="#BitstreamVeraSans-Roman-31"/>
      <use x="569.82421875" xlink:href="#BitstreamVeraSans-Roman-5d"/>
     </g>
    </g>
    <g id="text_20">
     <!-- 1e7 -->
     <defs>
      <path d="M 8.203125 72.90625 
L 55.078125 72.90625 
L 55.078125 68.703125 
L 28.609375 0 
L 18.3125 0 
L 43.21875 64.59375 
L 8.203125 64.59375 
z
" id="BitstreamVeraSans-Roman-37"/>
     </defs>
     <g transform="translate(41.78125 18.318125)scale(0.1 -0.1)">
      <use xlink:href="#BitstreamVeraSans-Roman-31"/>
      <use x="63.623046875" xlink:href="#BitstreamVeraSans-Roman-65"/>
      <use x="125.146484375" xlink:href="#BitstreamVeraSans-Roman-37"/>
     </g>
    </g>
   </g>
   <g id="text_21">
    <!-- casova slozitost - paralelni implementace -->
    <defs>
     <path d="M 5.515625 54.6875 
L 48.1875 54.6875 
L 48.1875 46.484375 
L 14.40625 7.171875 
L 48.1875 7.171875 
L 48.1875 0 
L 4.296875 0 
L 4.296875 8.203125 
L 38.09375 47.515625 
L 5.515625 47.515625 
z
" id="BitstreamVeraSans-Roman-7a"/>
     <path d="M 52 44.1875 
Q 55.375 50.25 60.0625 53.125 
Q 64.75 56 71.09375 56 
Q 79.640625 56 84.28125 50.015625 
Q 88.921875 44.046875 88.921875 33.015625 
L 88.921875 0 
L 79.890625 0 
L 79.890625 32.71875 
Q 79.890625 40.578125 77.09375 44.375 
Q 74.3125 48.1875 68.609375 48.1875 
Q 61.625 48.1875 57.5625 43.546875 
Q 53.515625 38.921875 53.515625 30.90625 
L 53.515625 0 
L 44.484375 0 
L 44.484375 32.71875 
Q 44.484375 40.625 41.703125 44.40625 
Q 38.921875 48.1875 33.109375 48.1875 
Q 26.21875 48.1875 22.15625 43.53125 
Q 18.109375 38.875 18.109375 30.90625 
L 18.109375 0 
L 9.078125 0 
L 9.078125 54.6875 
L 18.109375 54.6875 
L 18.109375 46.1875 
Q 21.1875 51.21875 25.484375 53.609375 
Q 29.78125 56 35.6875 56 
Q 41.65625 56 45.828125 52.96875 
Q 50 49.953125 52 44.1875 
" id="BitstreamVeraSans-Roman-6d"/>
     <path d="M 2.984375 54.6875 
L 12.5 54.6875 
L 29.59375 8.796875 
L 46.6875 54.6875 
L 56.203125 54.6875 
L 35.6875 0 
L 23.484375 0 
z
" id="BitstreamVeraSans-Roman-76"/>
    </defs>
    <g transform="translate(84.445 16.318125)scale(0.12 -0.12)">
     <use xlink:href="#BitstreamVeraSans-Roman-63"/>
     <use x="54.98046875" xlink:href="#BitstreamVeraSans-Roman-61"/>
     <use x="116.259765625" xlink:href="#BitstreamVeraSans-Roman-73"/>
     <use x="168.359375" xlink:href="#BitstreamVeraSans-Roman-6f"/>
     <use x="229.541015625" xlink:href="#BitstreamVeraSans-Roman-76"/>
     <use x="288.720703125" xlink:href="#BitstreamVeraSans-Roman-61"/>
     <use x="350.0" xlink:href="#BitstreamVeraSans-Roman-20"/>
     <use x="381.787109375" xlink:href="#BitstreamVeraSans-Roman-73"/>
     <use x="433.88671875" xlink:href="#BitstreamVeraSans-Roman-6c"/>
     <use x="461.669921875" xlink:href="#BitstreamVeraSans-Roman-6f"/>
     <use x="522.8515625" xlink:href="#BitstreamVeraSans-Roman-7a"/>
     <use x="575.341796875" xlink:href="#BitstreamVeraSans-Roman-69"/>
     <use x="603.125" xlink:href="#BitstreamVeraSans-Roman-74"/>
     <use x="642.333984375" xlink:href="#BitstreamVeraSans-Roman-6f"/>
     <use x="703.515625" xlink:href="#BitstreamVeraSans-Roman-73"/>
     <use x="755.615234375" xlink:href="#BitstreamVeraSans-Roman-74"/>
     <use x="794.82421875" xlink:href="#BitstreamVeraSans-Roman-20"/>
     <use x="826.611328125" xlink:href="#BitstreamVeraSans-Roman-2d"/>
     <use x="862.6953125" xlink:href="#BitstreamVeraSans-Roman-20"/>
     <use x="894.482421875" xlink:href="#BitstreamVeraSans-Roman-70"/>
     <use x="957.958984375" xlink:href="#BitstreamVeraSans-Roman-61"/>
     <use x="1019.23828125" xlink:href="#BitstreamVeraSans-Roman-72"/>
     <use x="1060.3515625" xlink:href="#BitstreamVeraSans-Roman-61"/>
     <use x="1121.630859375" xlink:href="#BitstreamVeraSans-Roman-6c"/>
     <use x="1149.4140625" xlink:href="#BitstreamVeraSans-Roman-65"/>
     <use x="1210.9375" xlink:href="#BitstreamVeraSans-Roman-6c"/>
     <use x="1238.720703125" xlink:href="#BitstreamVeraSans-Roman-6e"/>
     <use x="1302.099609375" xlink:href="#BitstreamVeraSans-Roman-69"/>
     <use x="1329.8828125" xlink:href="#BitstreamVeraSans-Roman-20"/>
     <use x="1361.669921875" xlink:href="#BitstreamVeraSans-Roman-69"/>
     <use x="1389.453125" xlink:href="#BitstreamVeraSans-Roman-6d"/>
     <use x="1486.865234375" xlink:href="#BitstreamVeraSans-Roman-70"/>
     <use x="1550.341796875" xlink:href="#BitstreamVeraSans-Roman-6c"/>
     <use x="1578.125" xlink:href="#BitstreamVeraSans-Roman-65"/>
     <use x="1639.6484375" xlink:href="#BitstreamVeraSans-Roman-6d"/>
     <use x="1737.060546875" xlink:href="#BitstreamVeraSans-Roman-65"/>
     <use x="1798.583984375" xlink:href="#BitstreamVeraSans-Roman-6e"/>
     <use x="1861.962890625" xlink:href="#BitstreamVeraSans-Roman-74"/>
     <use x="1901.171875" xlink:href="#BitstreamVeraSans-Roman-61"/>
     <use x="1962.451171875" xlink:href="#BitstreamVeraSans-Roman-63"/>
     <use x="2017.431640625" xlink:href="#BitstreamVeraSans-Roman-65"/>
    </g>
   </g>
   <g id="legend_1">
    <g id="patch_7">
     <path d="M 268.575625 238.518125 
L 370.58125 238.518125 
L 370.58125 111.621875 
L 268.575625 111.621875 
z
" style="fill:#ffffff;stroke:#000000;stroke-linejoin:miter;"/>
    </g>
    <g id="line2d_56">
     <path d="M 276.975625 121.34 
L 293.775625 121.34 
" style="fill:none;stroke:#0000ff;stroke-linecap:square;"/>
    </g>
    <g id="line2d_57">
     <g>
      <use style="fill:#0000ff;stroke:#0000ff;stroke-width:0.5;" x="276.975625" xlink:href="#mdb8ef038da" y="121.34"/>
      <use style="fill:#0000ff;stroke:#0000ff;stroke-width:0.5;" x="293.775625" xlink:href="#mdb8ef038da" y="121.34"/>
     </g>
    </g>
    <g id="text_22">
     <!-- 4 vlakna -->
     <defs>
      <path d="M 9.078125 75.984375 
L 18.109375 75.984375 
L 18.109375 31.109375 
L 44.921875 54.6875 
L 56.390625 54.6875 
L 27.390625 29.109375 
L 57.625 0 
L 45.90625 0 
L 18.109375 26.703125 
L 18.109375 0 
L 9.078125 0 
z
" id="BitstreamVeraSans-Roman-6b"/>
     </defs>
     <g transform="translate(306.975625 125.54)scale(0.12 -0.12)">
      <use xlink:href="#BitstreamVeraSans-Roman-34"/>
      <use x="63.623046875" xlink:href="#BitstreamVeraSans-Roman-20"/>
      <use x="95.41015625" xlink:href="#BitstreamVeraSans-Roman-76"/>
      <use x="154.58984375" xlink:href="#BitstreamVeraSans-Roman-6c"/>
      <use x="182.373046875" xlink:href="#BitstreamVeraSans-Roman-61"/>
      <use x="243.65234375" xlink:href="#BitstreamVeraSans-Roman-6b"/>
      <use x="301.5625" xlink:href="#BitstreamVeraSans-Roman-6e"/>
      <use x="364.94140625" xlink:href="#BitstreamVeraSans-Roman-61"/>
     </g>
    </g>
    <g id="line2d_58">
     <path d="M 276.975625 138.95375 
L 293.775625 138.95375 
" style="fill:none;stroke:#008000;stroke-linecap:square;"/>
    </g>
    <g id="line2d_59">
     <g>
      <use style="fill:#008000;stroke:#008000;stroke-width:0.5;" x="276.975625" xlink:href="#m86c2b532ef" y="138.95375"/>
      <use style="fill:#008000;stroke:#008000;stroke-width:0.5;" x="293.775625" xlink:href="#m86c2b532ef" y="138.95375"/>
     </g>
    </g>
    <g id="text_23">
     <!-- 8 vlaken -->
     <g transform="translate(306.975625 143.15375)scale(0.12 -0.12)">
      <use xlink:href="#BitstreamVeraSans-Roman-38"/>
      <use x="63.623046875" xlink:href="#BitstreamVeraSans-Roman-20"/>
      <use x="95.41015625" xlink:href="#BitstreamVeraSans-Roman-76"/>
      <use x="154.58984375" xlink:href="#BitstreamVeraSans-Roman-6c"/>
      <use x="182.373046875" xlink:href="#BitstreamVeraSans-Roman-61"/>
      <use x="243.65234375" xlink:href="#BitstreamVeraSans-Roman-6b"/>
      <use x="301.515625" xlink:href="#BitstreamVeraSans-Roman-65"/>
      <use x="363.0390625" xlink:href="#BitstreamVeraSans-Roman-6e"/>
     </g>
    </g>
    <g id="line2d_60">
     <path d="M 276.975625 156.5675 
L 293.775625 156.5675 
" style="fill:none;stroke:#ff0000;stroke-linecap:square;"/>
    </g>
    <g id="line2d_61">
     <g>
      <use style="fill:#ff0000;stroke:#ff0000;stroke-width:0.5;" x="276.975625" xlink:href="#m221c5aa412" y="156.5675"/>
      <use style="fill:#ff0000;stroke:#ff0000;stroke-width:0.5;" x="293.775625" xlink:href="#m221c5aa412" y="156.5675"/>
     </g>
    </g>
    <g id="text_24">
     <!-- 12 vlaken -->
     <g transform="translate(306.975625 160.7675)scale(0.12 -0.12)">
      <use xlink:href="#BitstreamVeraSans-Roman-31"/>
      <use x="63.623046875" xlink:href="#BitstreamVeraSans-Roman-32"/>
      <use x="127.24609375" xlink:href="#BitstreamVeraSans-Roman-20"/>
      <use x="159.033203125" xlink:href="#BitstreamVeraSans-Roman-76"/>
      <use x="218.212890625" xlink:href="#BitstreamVeraSans-Roman-6c"/>
      <use x="245.99609375" xlink:href="#BitstreamVeraSans-Roman-61"/>
      <use x="307.275390625" xlink:href="#BitstreamVeraSans-Roman-6b"/>
      <use x="365.138671875" xlink:href="#BitstreamVeraSans-Roman-65"/>
      <use x="426.662109375" xlink:href="#BitstreamVeraSans-Roman-6e"/>
     </g>
    </g>
    <g id="line2d_62">
     <path d="M 276.975625 174.18125 
L 293.775625 174.18125 
" style="fill:none;stroke:#00bfbf;stroke-linecap:square;"/>
    </g>
    <g id="line2d_63">
     <g>
      <use style="fill:#00bfbf;stroke:#00bfbf;stroke-width:0.5;" x="276.975625" xlink:href="#m4544cc413d" y="174.18125"/>
      <use style="fill:#00bfbf;stroke:#00bfbf;stroke-width:0.5;" x="293.775625" xlink:href="#m4544cc413d" y="174.18125"/>
     </g>
    </g>
    <g id="text_25">
     <!-- 16 vlaken -->
     <defs>
      <path d="M 33.015625 40.375 
Q 26.375 40.375 22.484375 35.828125 
Q 18.609375 31.296875 18.609375 23.390625 
Q 18.609375 15.53125 22.484375 10.953125 
Q 26.375 6.390625 33.015625 6.390625 
Q 39.65625 6.390625 43.53125 10.953125 
Q 47.40625 15.53125 47.40625 23.390625 
Q 47.40625 31.296875 43.53125 35.828125 
Q 39.65625 40.375 33.015625 40.375 
M 52.59375 71.296875 
L 52.59375 62.3125 
Q 48.875 64.0625 45.09375 64.984375 
Q 41.3125 65.921875 37.59375 65.921875 
Q 27.828125 65.921875 22.671875 59.328125 
Q 17.53125 52.734375 16.796875 39.40625 
Q 19.671875 43.65625 24.015625 45.921875 
Q 28.375 48.1875 33.59375 48.1875 
Q 44.578125 48.1875 50.953125 41.515625 
Q 57.328125 34.859375 57.328125 23.390625 
Q 57.328125 12.15625 50.6875 5.359375 
Q 44.046875 -1.421875 33.015625 -1.421875 
Q 20.359375 -1.421875 13.671875 8.265625 
Q 6.984375 17.96875 6.984375 36.375 
Q 6.984375 53.65625 15.1875 63.9375 
Q 23.390625 74.21875 37.203125 74.21875 
Q 40.921875 74.21875 44.703125 73.484375 
Q 48.484375 72.75 52.59375 71.296875 
" id="BitstreamVeraSans-Roman-36"/>
     </defs>
     <g transform="translate(306.975625 178.38125)scale(0.12 -0.12)">
      <use xlink:href="#BitstreamVeraSans-Roman-31"/>
      <use x="63.623046875" xlink:href="#BitstreamVeraSans-Roman-36"/>
      <use x="127.24609375" xlink:href="#BitstreamVeraSans-Roman-20"/>
      <use x="159.033203125" xlink:href="#BitstreamVeraSans-Roman-76"/>
      <use x="218.212890625" xlink:href="#BitstreamVeraSans-Roman-6c"/>
      <use x="245.99609375" xlink:href="#BitstreamVeraSans-Roman-61"/>
      <use x="307.275390625" xlink:href="#BitstreamVeraSans-Roman-6b"/>
      <use x="365.138671875" xlink:href="#BitstreamVeraSans-Roman-65"/>
      <use x="426.662109375" xlink:href="#BitstreamVeraSans-Roman-6e"/>
     </g>
    </g>
    <g id="line2d_64">
     <path d="M 276.975625 191.795 
L 293.775625 191.795 
" style="fill:none;stroke:#bf00bf;stroke-linecap:square;"/>
    </g>
    <g id="line2d_65">
     <g>
      <use style="fill:#bf00bf;stroke:#bf00bf;stroke-width:0.5;" x="276.975625" xlink:href="#mea7ed2571c" y="191.795"/>
      <use style="fill:#bf00bf;stroke:#bf00bf;stroke-width:0.5;" x="293.775625" xlink:href="#mea7ed2571c" y="191.795"/>
     </g>
    </g>
    <g id="text_26">
     <!-- 20 vlaken -->
     <g transform="translate(306.975625 195.995)scale(0.12 -0.12)">
      <use xlink:href="#BitstreamVeraSans-Roman-32"/>
      <use x="63.623046875" xlink:href="#BitstreamVeraSans-Roman-30"/>
      <use x="127.24609375" xlink:href="#BitstreamVeraSans-Roman-20"/>
      <use x="159.033203125" xlink:href="#BitstreamVeraSans-Roman-76"/>
      <use x="218.212890625" xlink:href="#BitstreamVeraSans-Roman-6c"/>
      <use x="245.99609375" xlink:href="#BitstreamVeraSans-Roman-61"/>
      <use x="307.275390625" xlink:href="#BitstreamVeraSans-Roman-6b"/>
      <use x="365.138671875" xlink:href="#BitstreamVeraSans-Roman-65"/>
      <use x="426.662109375" xlink:href="#BitstreamVeraSans-Roman-6e"/>
     </g>
    </g>
    <g id="line2d_66">
     <path d="M 276.975625 209.40875 
L 293.775625 209.40875 
" style="fill:none;stroke:#bfbf00;stroke-linecap:square;"/>
    </g>
    <g id="line2d_67">
     <g>
      <use style="fill:#bfbf00;stroke:#bfbf00;stroke-width:0.5;" x="276.975625" xlink:href="#mab4fca889a" y="209.40875"/>
      <use style="fill:#bfbf00;stroke:#bfbf00;stroke-width:0.5;" x="293.775625" xlink:href="#mab4fca889a" y="209.40875"/>
     </g>
    </g>
    <g id="text_27">
     <!-- 24 vlaken -->
     <g transform="translate(306.975625 213.60875)scale(0.12 -0.12)">
      <use xlink:href="#BitstreamVeraSans-Roman-32"/>
      <use x="63.623046875" xlink:href="#BitstreamVeraSans-Roman-34"/>
      <use x="127.24609375" xlink:href="#BitstreamVeraSans-Roman-20"/>
      <use x="159.033203125" xlink:href="#BitstreamVeraSans-Roman-76"/>
      <use x="218.212890625" xlink:href="#BitstreamVeraSans-Roman-6c"/>
      <use x="245.99609375" xlink:href="#BitstreamVeraSans-Roman-61"/>
      <use x="307.275390625" xlink:href="#BitstreamVeraSans-Roman-6b"/>
      <use x="365.138671875" xlink:href="#BitstreamVeraSans-Roman-65"/>
      <use x="426.662109375" xlink:href="#BitstreamVeraSans-Roman-6e"/>
     </g>
    </g>
    <g id="line2d_68">
     <path d="M 276.975625 227.0225 
L 293.775625 227.0225 
" style="fill:none;stroke:#000000;stroke-linecap:square;"/>
    </g>
    <g id="line2d_69">
     <g>
      <use style="stroke:#000000;stroke-width:0.5;" x="276.975625" xlink:href="#mb664aeda65" y="227.0225"/>
      <use style="stroke:#000000;stroke-width:0.5;" x="293.775625" xlink:href="#mb664aeda65" y="227.0225"/>
     </g>
    </g>
    <g id="text_28">
     <!-- 28 vlaken -->
     <g transform="translate(306.975625 231.2225)scale(0.12 -0.12)">
      <use xlink:href="#BitstreamVeraSans-Roman-32"/>
      <use x="63.623046875" xlink:href="#BitstreamVeraSans-Roman-38"/>
      <use x="127.24609375" xlink:href="#BitstreamVeraSans-Roman-20"/>
      <use x="159.033203125" xlink:href="#BitstreamVeraSans-Roman-76"/>
      <use x="218.212890625" xlink:href="#BitstreamVeraSans-Roman-6c"/>
      <use x="245.99609375" xlink:href="#BitstreamVeraSans-Roman-61"/>
      <use x="307.275390625" xlink:href="#BitstreamVeraSans-Roman-6b"/>
      <use x="365.138671875" xlink:href="#BitstreamVeraSans-Roman-65"/>
      <use x="426.662109375" xlink:href="#BitstreamVeraSans-Roman-6e"/>
     </g>
    </g>
   </g>
  </g>
 </g>
 <defs>
  <clipPath id="pec195559ee">
   <rect height="223.2" width="334.8" x="41.78125" y="21.318125"/>
  </clipPath>
 </defs>
</svg>
